%TF.GenerationSoftware,KiCad,Pcbnew,8.0.3*%
%TF.CreationDate,2024-07-01T09:22:26+07:00*%
%TF.ProjectId,WeatherStation,57656174-6865-4725-9374-6174696f6e2e,rev?*%
%TF.SameCoordinates,Original*%
%TF.FileFunction,Drillmap*%
%TF.FilePolarity,Positive*%
%FSLAX45Y45*%
G04 Gerber Fmt 4.5, Leading zero omitted, Abs format (unit mm)*
G04 Created by KiCad (PCBNEW 8.0.3) date 2024-07-01 09:22:26*
%MOMM*%
%LPD*%
G01*
G04 APERTURE LIST*
%ADD10C,0.100000*%
%ADD11C,0.010000*%
%ADD12C,0.200000*%
G04 APERTURE END LIST*
D10*
X19387500Y-12210000D02*
X22687480Y-12210000D01*
X22937490Y-11960000D02*
X22937490Y-10860000D01*
X22937480Y-11960000D02*
G75*
G02*
X22687480Y-12210000I-250000J0D01*
G01*
X19437500Y-10610000D02*
X19387500Y-10610000D01*
D11*
X19562500Y-11960000D02*
G75*
G02*
X19212500Y-11960000I-175000J0D01*
G01*
X19212500Y-11960000D02*
G75*
G02*
X19562500Y-11960000I175000J0D01*
G01*
D10*
X19137500Y-10860000D02*
G75*
G02*
X19387500Y-10610000I250000J0D01*
G01*
X22687490Y-10610000D02*
G75*
G02*
X22937490Y-10860000I0J-250000D01*
G01*
D11*
X19912500Y-11410000D02*
G75*
G02*
X19562500Y-11410000I-175000J0D01*
G01*
X19562500Y-11410000D02*
G75*
G02*
X19912500Y-11410000I175000J0D01*
G01*
D10*
X19387500Y-12210080D02*
G75*
G02*
X19137500Y-11960080I0J250000D01*
G01*
D11*
X19562500Y-10860000D02*
G75*
G02*
X19212500Y-10860000I-175000J0D01*
G01*
X19212500Y-10860000D02*
G75*
G02*
X19562500Y-10860000I175000J0D01*
G01*
D10*
X19137500Y-11960000D02*
X19137500Y-10860000D01*
X19437500Y-10610000D02*
X22637500Y-10610000D01*
X22687490Y-10610000D02*
X22637490Y-10610000D01*
D12*
X19393277Y-12526564D02*
X19393277Y-12326564D01*
X19393277Y-12326564D02*
X19440896Y-12326564D01*
X19440896Y-12326564D02*
X19469467Y-12336088D01*
X19469467Y-12336088D02*
X19488515Y-12355135D01*
X19488515Y-12355135D02*
X19498039Y-12374183D01*
X19498039Y-12374183D02*
X19507563Y-12412278D01*
X19507563Y-12412278D02*
X19507563Y-12440849D01*
X19507563Y-12440849D02*
X19498039Y-12478945D01*
X19498039Y-12478945D02*
X19488515Y-12497992D01*
X19488515Y-12497992D02*
X19469467Y-12517040D01*
X19469467Y-12517040D02*
X19440896Y-12526564D01*
X19440896Y-12526564D02*
X19393277Y-12526564D01*
X19593277Y-12526564D02*
X19593277Y-12393230D01*
X19593277Y-12431326D02*
X19602801Y-12412278D01*
X19602801Y-12412278D02*
X19612324Y-12402754D01*
X19612324Y-12402754D02*
X19631372Y-12393230D01*
X19631372Y-12393230D02*
X19650420Y-12393230D01*
X19717086Y-12526564D02*
X19717086Y-12393230D01*
X19717086Y-12326564D02*
X19707563Y-12336088D01*
X19707563Y-12336088D02*
X19717086Y-12345611D01*
X19717086Y-12345611D02*
X19726610Y-12336088D01*
X19726610Y-12336088D02*
X19717086Y-12326564D01*
X19717086Y-12326564D02*
X19717086Y-12345611D01*
X19840896Y-12526564D02*
X19821848Y-12517040D01*
X19821848Y-12517040D02*
X19812324Y-12497992D01*
X19812324Y-12497992D02*
X19812324Y-12326564D01*
X19945658Y-12526564D02*
X19926610Y-12517040D01*
X19926610Y-12517040D02*
X19917086Y-12497992D01*
X19917086Y-12497992D02*
X19917086Y-12326564D01*
X20174229Y-12526564D02*
X20174229Y-12326564D01*
X20174229Y-12326564D02*
X20240896Y-12469421D01*
X20240896Y-12469421D02*
X20307563Y-12326564D01*
X20307563Y-12326564D02*
X20307563Y-12526564D01*
X20488515Y-12526564D02*
X20488515Y-12421802D01*
X20488515Y-12421802D02*
X20478991Y-12402754D01*
X20478991Y-12402754D02*
X20459944Y-12393230D01*
X20459944Y-12393230D02*
X20421848Y-12393230D01*
X20421848Y-12393230D02*
X20402801Y-12402754D01*
X20488515Y-12517040D02*
X20469467Y-12526564D01*
X20469467Y-12526564D02*
X20421848Y-12526564D01*
X20421848Y-12526564D02*
X20402801Y-12517040D01*
X20402801Y-12517040D02*
X20393277Y-12497992D01*
X20393277Y-12497992D02*
X20393277Y-12478945D01*
X20393277Y-12478945D02*
X20402801Y-12459897D01*
X20402801Y-12459897D02*
X20421848Y-12450373D01*
X20421848Y-12450373D02*
X20469467Y-12450373D01*
X20469467Y-12450373D02*
X20488515Y-12440849D01*
X20583753Y-12393230D02*
X20583753Y-12593230D01*
X20583753Y-12402754D02*
X20602801Y-12393230D01*
X20602801Y-12393230D02*
X20640896Y-12393230D01*
X20640896Y-12393230D02*
X20659944Y-12402754D01*
X20659944Y-12402754D02*
X20669467Y-12412278D01*
X20669467Y-12412278D02*
X20678991Y-12431326D01*
X20678991Y-12431326D02*
X20678991Y-12488468D01*
X20678991Y-12488468D02*
X20669467Y-12507516D01*
X20669467Y-12507516D02*
X20659944Y-12517040D01*
X20659944Y-12517040D02*
X20640896Y-12526564D01*
X20640896Y-12526564D02*
X20602801Y-12526564D01*
X20602801Y-12526564D02*
X20583753Y-12517040D01*
X20764705Y-12507516D02*
X20774229Y-12517040D01*
X20774229Y-12517040D02*
X20764705Y-12526564D01*
X20764705Y-12526564D02*
X20755182Y-12517040D01*
X20755182Y-12517040D02*
X20764705Y-12507516D01*
X20764705Y-12507516D02*
X20764705Y-12526564D01*
X20764705Y-12402754D02*
X20774229Y-12412278D01*
X20774229Y-12412278D02*
X20764705Y-12421802D01*
X20764705Y-12421802D02*
X20755182Y-12412278D01*
X20755182Y-12412278D02*
X20764705Y-12402754D01*
X20764705Y-12402754D02*
X20764705Y-12421802D01*
M02*
