%TF.GenerationSoftware,KiCad,Pcbnew,8.0.3*%
%TF.CreationDate,2024-07-01T09:22:30+07:00*%
%TF.ProjectId,WeatherStation,57656174-6865-4725-9374-6174696f6e2e,rev?*%
%TF.SameCoordinates,Original*%
%TF.FileFunction,Copper,L2,Bot*%
%TF.FilePolarity,Positive*%
%FSLAX46Y46*%
G04 Gerber Fmt 4.6, Leading zero omitted, Abs format (unit mm)*
G04 Created by KiCad (PCBNEW 8.0.3) date 2024-07-01 09:22:30*
%MOMM*%
%LPD*%
G01*
G04 APERTURE LIST*
%TA.AperFunction,ComponentPad*%
%ADD10C,1.400000*%
%TD*%
%TA.AperFunction,ViaPad*%
%ADD11C,0.480000*%
%TD*%
%TA.AperFunction,Conductor*%
%ADD12C,0.250000*%
%TD*%
%TA.AperFunction,Conductor*%
%ADD13C,0.160000*%
%TD*%
G04 APERTURE END LIST*
D10*
%TO.P,J6,1,1*%
%TO.N,VSEN1*%
X217475001Y-113100001D03*
%TO.P,J6,2,2*%
%TO.N,VDD1*%
X217475001Y-115100001D03*
%TO.P,J6,3,3*%
%TO.N,GND1*%
X215475001Y-113100001D03*
%TO.P,J6,4,4*%
X215475001Y-115100001D03*
%TO.P,J6,5,5*%
%TO.N,/SENSORS/~{LED_EN}*%
X213475001Y-113100001D03*
%TO.P,J6,6,6*%
%TO.N,/SENSORS/VOUT*%
X213475001Y-115100001D03*
%TO.P,J6,7,7*%
%TO.N,/SENSORS/SCL1*%
X211475001Y-113100001D03*
%TO.P,J6,8,8*%
%TO.N,/SENSORS/SDA1*%
X211475001Y-115100001D03*
%TD*%
D11*
%TO.N,GND1*%
X207375000Y-116850000D03*
X216675002Y-109900000D03*
X213875002Y-109900000D03*
X228125002Y-118300000D03*
X200875000Y-121000001D03*
X197375000Y-111350000D03*
X212750000Y-120575002D03*
X220375000Y-117350000D03*
X216675002Y-108900000D03*
X207375000Y-107850000D03*
X207750000Y-120575002D03*
X217750000Y-120575002D03*
X204375000Y-113850000D03*
X213875002Y-108900000D03*
X209875000Y-107850000D03*
X199875000Y-111350000D03*
X207375000Y-113850000D03*
X200875000Y-119600001D03*
X215250000Y-120575002D03*
X228125002Y-113300000D03*
X228125002Y-110800000D03*
X220250000Y-120575002D03*
X222375000Y-107850000D03*
X204375000Y-116850000D03*
X197375000Y-116850000D03*
X216675002Y-107900000D03*
X225250000Y-120575002D03*
X210375000Y-110350000D03*
X210250000Y-120575002D03*
X193875000Y-116850000D03*
X212375000Y-107850000D03*
X228125002Y-115800000D03*
X222750000Y-120575002D03*
X224875000Y-107850000D03*
X193875000Y-113850000D03*
X197375000Y-108850000D03*
X200875000Y-118100001D03*
X210875000Y-116850000D03*
X207375000Y-111350000D03*
X193875000Y-111350000D03*
X202375000Y-111350000D03*
X213875002Y-107900000D03*
%TO.N,VSEN1*%
X207100004Y-109350000D03*
X200950003Y-115500001D03*
%TO.N,/SENSORS/SDA1*%
X205450000Y-119925001D03*
X206650000Y-119925001D03*
%TO.N,/SENSORS/~{LED_EN}*%
X221425002Y-113350000D03*
%TD*%
D12*
%TO.N,VSEN1*%
X204987502Y-111462502D02*
X200950003Y-115500001D01*
X207100004Y-109350000D02*
X204987502Y-111462502D01*
D13*
%TO.N,/SENSORS/SDA1*%
X205450000Y-119925001D02*
X206650000Y-119925001D01*
%TO.N,/SENSORS/~{LED_EN}*%
X214825002Y-111750000D02*
X213475001Y-113100001D01*
X221425002Y-113350000D02*
X219825002Y-111750000D01*
X219825002Y-111750000D02*
X214825002Y-111750000D01*
%TD*%
%TA.AperFunction,Conductor*%
%TO.N,GND1*%
G36*
X226877281Y-106300643D02*
G01*
X227147314Y-106316978D01*
X227156768Y-106318126D01*
X227420510Y-106366458D01*
X227429763Y-106368738D01*
X227685759Y-106448510D01*
X227694667Y-106451888D01*
X227939180Y-106561935D01*
X227947609Y-106566359D01*
X228147765Y-106687358D01*
X228177074Y-106705076D01*
X228184925Y-106710495D01*
X228395996Y-106875858D01*
X228403136Y-106882185D01*
X228592719Y-107071768D01*
X228599045Y-107078908D01*
X228764401Y-107289968D01*
X228769819Y-107297817D01*
X228894665Y-107504338D01*
X228908535Y-107527281D01*
X228912968Y-107535728D01*
X229023008Y-107780227D01*
X229026391Y-107789147D01*
X229106159Y-108045132D01*
X229108442Y-108054395D01*
X229156772Y-108318124D01*
X229157922Y-108327594D01*
X229174258Y-108597650D01*
X229174402Y-108602420D01*
X229174402Y-119551849D01*
X229174302Y-119552866D01*
X229174302Y-119597609D01*
X229174158Y-119602379D01*
X229157824Y-119872404D01*
X229156674Y-119881874D01*
X229108344Y-120145604D01*
X229106061Y-120154867D01*
X229026293Y-120410852D01*
X229022910Y-120419772D01*
X228912870Y-120664271D01*
X228908437Y-120672718D01*
X228769726Y-120902174D01*
X228764307Y-120910025D01*
X228598944Y-121121096D01*
X228592617Y-121128236D01*
X228403038Y-121317815D01*
X228395898Y-121324142D01*
X228184827Y-121489505D01*
X228176976Y-121494924D01*
X227947520Y-121633636D01*
X227939073Y-121638069D01*
X227694574Y-121748109D01*
X227685654Y-121751492D01*
X227429669Y-121831260D01*
X227420406Y-121833543D01*
X227156677Y-121881874D01*
X227147207Y-121883024D01*
X226877216Y-121899356D01*
X226872446Y-121899500D01*
X193864164Y-121899500D01*
X193859394Y-121899356D01*
X193602595Y-121883822D01*
X193593125Y-121882672D01*
X193329395Y-121834342D01*
X193320132Y-121832059D01*
X193064148Y-121752291D01*
X193055228Y-121748908D01*
X192810729Y-121638868D01*
X192802282Y-121634435D01*
X192800960Y-121633636D01*
X192671676Y-121555481D01*
X192572826Y-121495724D01*
X192564975Y-121490305D01*
X192353904Y-121324942D01*
X192346764Y-121318615D01*
X192157185Y-121129036D01*
X192150858Y-121121896D01*
X191985495Y-120910825D01*
X191980076Y-120902974D01*
X191854751Y-120695662D01*
X191841359Y-120673509D01*
X191836936Y-120665080D01*
X191726888Y-120420566D01*
X191723508Y-120411652D01*
X191692033Y-120310646D01*
X191643738Y-120155663D01*
X191641457Y-120146405D01*
X191593126Y-119882667D01*
X191591978Y-119873213D01*
X191575644Y-119603180D01*
X191575548Y-119600000D01*
X191919519Y-119600000D01*
X191936855Y-119842395D01*
X191939423Y-119878293D01*
X191998730Y-120150923D01*
X192095976Y-120411652D01*
X192096232Y-120412337D01*
X192149982Y-120510773D01*
X192229946Y-120657214D01*
X192229950Y-120657220D01*
X192397144Y-120880565D01*
X192397154Y-120880577D01*
X192594423Y-121077846D01*
X192594429Y-121077851D01*
X192594433Y-121077855D01*
X192817788Y-121245056D01*
X193062664Y-121378769D01*
X193324078Y-121476271D01*
X193596707Y-121535578D01*
X193875001Y-121555482D01*
X194153295Y-121535578D01*
X194425924Y-121476271D01*
X194687338Y-121378769D01*
X194932214Y-121245056D01*
X195155569Y-121077855D01*
X195352856Y-120880568D01*
X195520057Y-120657213D01*
X195653770Y-120412337D01*
X195751272Y-120150923D01*
X195800419Y-119924998D01*
X205044508Y-119924998D01*
X205044508Y-119925003D01*
X205064353Y-120050303D01*
X205064354Y-120050307D01*
X205121948Y-120163341D01*
X205121950Y-120163344D01*
X205211656Y-120253050D01*
X205211659Y-120253052D01*
X205324693Y-120310646D01*
X205324695Y-120310646D01*
X205324696Y-120310647D01*
X205366464Y-120317262D01*
X205449998Y-120330493D01*
X205450000Y-120330493D01*
X205450002Y-120330493D01*
X205512652Y-120320570D01*
X205575304Y-120310647D01*
X205688342Y-120253051D01*
X205752753Y-120188639D01*
X205801728Y-120165802D01*
X205808614Y-120165501D01*
X206291386Y-120165501D01*
X206342166Y-120183983D01*
X206347236Y-120188629D01*
X206411658Y-120253051D01*
X206411660Y-120253052D01*
X206411659Y-120253052D01*
X206524693Y-120310646D01*
X206524695Y-120310646D01*
X206524696Y-120310647D01*
X206566464Y-120317262D01*
X206649998Y-120330493D01*
X206650000Y-120330493D01*
X206650002Y-120330493D01*
X206712652Y-120320570D01*
X206775304Y-120310647D01*
X206888342Y-120253051D01*
X206978050Y-120163343D01*
X207035646Y-120050305D01*
X207055492Y-119925001D01*
X207048788Y-119882675D01*
X207035646Y-119799698D01*
X207035645Y-119799694D01*
X206978051Y-119686660D01*
X206978049Y-119686657D01*
X206888343Y-119596951D01*
X206888340Y-119596949D01*
X206775306Y-119539355D01*
X206775302Y-119539354D01*
X206650002Y-119519509D01*
X206649998Y-119519509D01*
X206524697Y-119539354D01*
X206524693Y-119539355D01*
X206411659Y-119596949D01*
X206379453Y-119629155D01*
X206347246Y-119661362D01*
X206298272Y-119684200D01*
X206291386Y-119684501D01*
X205808614Y-119684501D01*
X205757834Y-119666019D01*
X205752763Y-119661372D01*
X205688342Y-119596951D01*
X205688339Y-119596949D01*
X205688340Y-119596949D01*
X205575306Y-119539355D01*
X205575302Y-119539354D01*
X205450002Y-119519509D01*
X205449998Y-119519509D01*
X205324697Y-119539354D01*
X205324693Y-119539355D01*
X205211659Y-119596949D01*
X205211656Y-119596951D01*
X205121950Y-119686657D01*
X205121948Y-119686660D01*
X205064354Y-119799694D01*
X205064353Y-119799698D01*
X205044508Y-119924998D01*
X195800419Y-119924998D01*
X195810579Y-119878294D01*
X195830483Y-119600000D01*
X195810579Y-119321706D01*
X195751272Y-119049077D01*
X195653770Y-118787663D01*
X195520057Y-118542787D01*
X195352856Y-118319432D01*
X195352852Y-118319428D01*
X195352847Y-118319422D01*
X195155578Y-118122153D01*
X195155572Y-118122148D01*
X195155569Y-118122145D01*
X194932214Y-117954944D01*
X194687338Y-117821231D01*
X194687335Y-117821230D01*
X194687336Y-117821230D01*
X194425924Y-117723729D01*
X194425925Y-117723729D01*
X194289609Y-117694075D01*
X194153295Y-117664422D01*
X193875001Y-117644518D01*
X193596707Y-117664422D01*
X193324077Y-117723729D01*
X193062665Y-117821230D01*
X192817786Y-117954945D01*
X192817780Y-117954949D01*
X192594435Y-118122143D01*
X192594423Y-118122153D01*
X192397154Y-118319422D01*
X192397144Y-118319434D01*
X192229950Y-118542779D01*
X192229946Y-118542785D01*
X192096231Y-118787664D01*
X192055622Y-118896542D01*
X191998730Y-119049077D01*
X191939423Y-119321706D01*
X191919519Y-119600000D01*
X191575548Y-119600000D01*
X191575500Y-119598410D01*
X191575500Y-114100000D01*
X195419519Y-114100000D01*
X195436855Y-114342395D01*
X195439423Y-114378293D01*
X195498730Y-114650923D01*
X195586071Y-114885096D01*
X195596232Y-114912337D01*
X195723865Y-115146079D01*
X195729946Y-115157214D01*
X195729950Y-115157220D01*
X195897144Y-115380565D01*
X195897154Y-115380577D01*
X196094423Y-115577846D01*
X196094429Y-115577851D01*
X196094433Y-115577855D01*
X196317788Y-115745056D01*
X196562664Y-115878769D01*
X196824078Y-115976271D01*
X197096707Y-116035578D01*
X197375001Y-116055482D01*
X197653295Y-116035578D01*
X197925924Y-115976271D01*
X198187338Y-115878769D01*
X198432214Y-115745056D01*
X198655569Y-115577855D01*
X198733426Y-115499998D01*
X200544511Y-115499998D01*
X200544511Y-115500003D01*
X200564356Y-115625303D01*
X200564357Y-115625307D01*
X200621951Y-115738341D01*
X200621953Y-115738344D01*
X200711659Y-115828050D01*
X200711662Y-115828052D01*
X200824696Y-115885646D01*
X200824698Y-115885646D01*
X200824699Y-115885647D01*
X200866467Y-115892262D01*
X200950001Y-115905493D01*
X200950003Y-115905493D01*
X200950005Y-115905493D01*
X201012655Y-115895570D01*
X201075307Y-115885647D01*
X201188345Y-115828051D01*
X201278053Y-115738343D01*
X201335649Y-115625305D01*
X201351806Y-115523290D01*
X201373970Y-115479790D01*
X201753761Y-115099999D01*
X210609761Y-115099999D01*
X210609761Y-115100002D01*
X210628669Y-115279895D01*
X210628671Y-115279904D01*
X210684562Y-115451918D01*
X210684565Y-115451926D01*
X210775007Y-115608576D01*
X210896042Y-115743000D01*
X210896043Y-115743001D01*
X210896045Y-115743003D01*
X211042375Y-115849317D01*
X211042381Y-115849321D01*
X211207627Y-115922893D01*
X211384559Y-115960501D01*
X211384563Y-115960501D01*
X211565439Y-115960501D01*
X211565443Y-115960501D01*
X211742375Y-115922893D01*
X211907621Y-115849321D01*
X212051133Y-115745054D01*
X212053956Y-115743003D01*
X212053956Y-115743002D01*
X212053960Y-115743000D01*
X212174995Y-115608576D01*
X212265437Y-115451926D01*
X212321333Y-115279895D01*
X212340241Y-115100001D01*
X212340241Y-115099999D01*
X212609761Y-115099999D01*
X212609761Y-115100002D01*
X212628669Y-115279895D01*
X212628671Y-115279904D01*
X212684562Y-115451918D01*
X212684565Y-115451926D01*
X212775007Y-115608576D01*
X212896042Y-115743000D01*
X212896043Y-115743001D01*
X212896045Y-115743003D01*
X213042375Y-115849317D01*
X213042381Y-115849321D01*
X213207627Y-115922893D01*
X213384559Y-115960501D01*
X213384563Y-115960501D01*
X213565439Y-115960501D01*
X213565443Y-115960501D01*
X213742375Y-115922893D01*
X213907621Y-115849321D01*
X214051133Y-115745054D01*
X214053956Y-115743003D01*
X214053956Y-115743002D01*
X214053960Y-115743000D01*
X214174995Y-115608576D01*
X214265437Y-115451926D01*
X214321333Y-115279895D01*
X214340241Y-115100001D01*
X214340051Y-115098197D01*
X214335398Y-115053923D01*
X214321333Y-114920107D01*
X214318808Y-114912337D01*
X214265439Y-114748083D01*
X214265437Y-114748076D01*
X214174995Y-114591426D01*
X214053960Y-114457002D01*
X214053957Y-114457000D01*
X214053956Y-114456998D01*
X213907626Y-114350684D01*
X213907623Y-114350682D01*
X213907621Y-114350681D01*
X213807906Y-114306285D01*
X213742378Y-114277110D01*
X213742373Y-114277108D01*
X213670998Y-114261937D01*
X213565443Y-114239501D01*
X213384559Y-114239501D01*
X213305392Y-114256328D01*
X213207628Y-114277108D01*
X213207623Y-114277110D01*
X213042385Y-114350679D01*
X213042375Y-114350684D01*
X212896045Y-114456998D01*
X212896042Y-114457002D01*
X212775006Y-114591426D01*
X212684565Y-114748076D01*
X212684562Y-114748083D01*
X212628671Y-114920097D01*
X212628669Y-114920106D01*
X212609761Y-115099999D01*
X212340241Y-115099999D01*
X212340051Y-115098197D01*
X212335398Y-115053923D01*
X212321333Y-114920107D01*
X212318808Y-114912337D01*
X212265439Y-114748083D01*
X212265437Y-114748076D01*
X212174995Y-114591426D01*
X212053960Y-114457002D01*
X212053957Y-114457000D01*
X212053956Y-114456998D01*
X211907626Y-114350684D01*
X211907623Y-114350682D01*
X211907621Y-114350681D01*
X211807906Y-114306285D01*
X211742378Y-114277110D01*
X211742373Y-114277108D01*
X211670998Y-114261937D01*
X211565443Y-114239501D01*
X211384559Y-114239501D01*
X211305392Y-114256328D01*
X211207628Y-114277108D01*
X211207623Y-114277110D01*
X211042385Y-114350679D01*
X211042375Y-114350684D01*
X210896045Y-114456998D01*
X210896042Y-114457002D01*
X210775006Y-114591426D01*
X210684565Y-114748076D01*
X210684562Y-114748083D01*
X210628671Y-114920097D01*
X210628669Y-114920106D01*
X210609761Y-115099999D01*
X201753761Y-115099999D01*
X203753762Y-113099999D01*
X210609761Y-113099999D01*
X210609761Y-113100002D01*
X210628669Y-113279895D01*
X210628671Y-113279904D01*
X210684562Y-113451918D01*
X210684565Y-113451926D01*
X210736781Y-113542367D01*
X210763323Y-113588340D01*
X210775007Y-113608576D01*
X210896042Y-113743000D01*
X210896043Y-113743001D01*
X210896045Y-113743003D01*
X211042375Y-113849317D01*
X211042381Y-113849321D01*
X211207627Y-113922893D01*
X211384559Y-113960501D01*
X211384563Y-113960501D01*
X211565439Y-113960501D01*
X211565443Y-113960501D01*
X211742375Y-113922893D01*
X211907621Y-113849321D01*
X212053960Y-113743000D01*
X212174995Y-113608576D01*
X212265437Y-113451926D01*
X212321333Y-113279895D01*
X212340241Y-113100001D01*
X212340241Y-113099999D01*
X212609761Y-113099999D01*
X212609761Y-113100002D01*
X212628669Y-113279895D01*
X212628671Y-113279904D01*
X212684562Y-113451918D01*
X212684565Y-113451926D01*
X212736781Y-113542367D01*
X212763323Y-113588340D01*
X212775007Y-113608576D01*
X212896042Y-113743000D01*
X212896043Y-113743001D01*
X212896045Y-113743003D01*
X213042375Y-113849317D01*
X213042381Y-113849321D01*
X213207627Y-113922893D01*
X213384559Y-113960501D01*
X213384563Y-113960501D01*
X213565439Y-113960501D01*
X213565443Y-113960501D01*
X213742375Y-113922893D01*
X213907621Y-113849321D01*
X214053960Y-113743000D01*
X214174995Y-113608576D01*
X214265437Y-113451926D01*
X214321333Y-113279895D01*
X214340241Y-113100001D01*
X214327103Y-112975001D01*
X214532716Y-112975001D01*
X215146148Y-112975001D01*
X215125001Y-113053923D01*
X215125001Y-113146079D01*
X215146148Y-113225001D01*
X214532716Y-113225001D01*
X214538746Y-113286237D01*
X214538747Y-113286240D01*
X214593065Y-113465303D01*
X214593067Y-113465306D01*
X214681285Y-113630349D01*
X214799998Y-113775003D01*
X214944652Y-113893716D01*
X215109695Y-113981934D01*
X215109699Y-113981936D01*
X215249692Y-114024403D01*
X215292920Y-114056830D01*
X215305191Y-114109458D01*
X215280763Y-114157660D01*
X215249692Y-114175599D01*
X215109699Y-114218065D01*
X215109695Y-114218067D01*
X214944652Y-114306285D01*
X214799998Y-114424998D01*
X214681285Y-114569652D01*
X214593067Y-114734695D01*
X214593065Y-114734698D01*
X214538747Y-114913761D01*
X214538746Y-114913764D01*
X214532716Y-114975001D01*
X215146148Y-114975001D01*
X215125001Y-115053923D01*
X215125001Y-115146079D01*
X215146148Y-115225001D01*
X214532716Y-115225001D01*
X214538746Y-115286237D01*
X214538747Y-115286240D01*
X214593065Y-115465303D01*
X214593067Y-115465306D01*
X214681285Y-115630349D01*
X214799998Y-115775003D01*
X214944652Y-115893716D01*
X215109695Y-115981934D01*
X215109701Y-115981937D01*
X215288759Y-116036253D01*
X215288766Y-116036255D01*
X215350000Y-116042285D01*
X215350001Y-116042285D01*
X215350001Y-115428853D01*
X215428923Y-115450001D01*
X215521079Y-115450001D01*
X215600001Y-115428853D01*
X215600001Y-116042285D01*
X215661235Y-116036255D01*
X215661242Y-116036253D01*
X215840300Y-115981937D01*
X215840306Y-115981934D01*
X216005349Y-115893716D01*
X216150003Y-115775003D01*
X216268716Y-115630349D01*
X216356934Y-115465306D01*
X216356936Y-115465303D01*
X216411254Y-115286240D01*
X216411255Y-115286237D01*
X216417286Y-115225001D01*
X215803854Y-115225001D01*
X215825001Y-115146079D01*
X215825001Y-115099999D01*
X216609761Y-115099999D01*
X216609761Y-115100002D01*
X216628669Y-115279895D01*
X216628671Y-115279904D01*
X216684562Y-115451918D01*
X216684565Y-115451926D01*
X216775007Y-115608576D01*
X216896042Y-115743000D01*
X216896043Y-115743001D01*
X216896045Y-115743003D01*
X217042375Y-115849317D01*
X217042381Y-115849321D01*
X217207627Y-115922893D01*
X217384559Y-115960501D01*
X217384563Y-115960501D01*
X217565439Y-115960501D01*
X217565443Y-115960501D01*
X217742375Y-115922893D01*
X217907621Y-115849321D01*
X218051133Y-115745054D01*
X218053956Y-115743003D01*
X218053956Y-115743002D01*
X218053960Y-115743000D01*
X218174995Y-115608576D01*
X218265437Y-115451926D01*
X218321333Y-115279895D01*
X218340241Y-115100001D01*
X218340051Y-115098197D01*
X218335398Y-115053923D01*
X218321333Y-114920107D01*
X218318808Y-114912337D01*
X218265439Y-114748083D01*
X218265437Y-114748076D01*
X218174995Y-114591426D01*
X218053960Y-114457002D01*
X218053957Y-114457000D01*
X218053956Y-114456998D01*
X217907626Y-114350684D01*
X217907623Y-114350682D01*
X217907621Y-114350681D01*
X217807906Y-114306285D01*
X217742378Y-114277110D01*
X217742373Y-114277108D01*
X217670998Y-114261937D01*
X217565443Y-114239501D01*
X217384559Y-114239501D01*
X217305392Y-114256328D01*
X217207628Y-114277108D01*
X217207623Y-114277110D01*
X217042385Y-114350679D01*
X217042375Y-114350684D01*
X216896045Y-114456998D01*
X216896042Y-114457002D01*
X216775006Y-114591426D01*
X216684565Y-114748076D01*
X216684562Y-114748083D01*
X216628671Y-114920097D01*
X216628669Y-114920106D01*
X216609761Y-115099999D01*
X215825001Y-115099999D01*
X215825001Y-115053923D01*
X215803854Y-114975001D01*
X216417286Y-114975001D01*
X216411255Y-114913764D01*
X216411254Y-114913761D01*
X216356936Y-114734698D01*
X216356934Y-114734695D01*
X216268716Y-114569652D01*
X216150003Y-114424998D01*
X216005349Y-114306285D01*
X215840306Y-114218067D01*
X215840303Y-114218065D01*
X215700309Y-114175599D01*
X215657081Y-114143172D01*
X215644810Y-114090544D01*
X215669238Y-114042342D01*
X215700309Y-114024403D01*
X215840303Y-113981936D01*
X215840306Y-113981934D01*
X216005349Y-113893716D01*
X216150003Y-113775003D01*
X216268716Y-113630349D01*
X216356934Y-113465306D01*
X216356936Y-113465303D01*
X216411254Y-113286240D01*
X216411255Y-113286237D01*
X216417286Y-113225001D01*
X215803854Y-113225001D01*
X215825001Y-113146079D01*
X215825001Y-113099999D01*
X216609761Y-113099999D01*
X216609761Y-113100002D01*
X216628669Y-113279895D01*
X216628671Y-113279904D01*
X216684562Y-113451918D01*
X216684565Y-113451926D01*
X216736781Y-113542367D01*
X216763323Y-113588340D01*
X216775007Y-113608576D01*
X216896042Y-113743000D01*
X216896043Y-113743001D01*
X216896045Y-113743003D01*
X217042375Y-113849317D01*
X217042381Y-113849321D01*
X217207627Y-113922893D01*
X217384559Y-113960501D01*
X217384563Y-113960501D01*
X217565439Y-113960501D01*
X217565443Y-113960501D01*
X217742375Y-113922893D01*
X217907621Y-113849321D01*
X218053960Y-113743000D01*
X218174995Y-113608576D01*
X218265437Y-113451926D01*
X218321333Y-113279895D01*
X218340241Y-113100001D01*
X218321333Y-112920107D01*
X218265437Y-112748076D01*
X218174995Y-112591426D01*
X218053960Y-112457002D01*
X218053957Y-112457000D01*
X218053956Y-112456998D01*
X217907626Y-112350684D01*
X217907623Y-112350682D01*
X217907621Y-112350681D01*
X217805186Y-112305074D01*
X217742378Y-112277110D01*
X217742373Y-112277108D01*
X217670998Y-112261937D01*
X217565443Y-112239501D01*
X217384559Y-112239501D01*
X217305392Y-112256328D01*
X217207628Y-112277108D01*
X217207623Y-112277110D01*
X217042385Y-112350679D01*
X217042375Y-112350684D01*
X216896045Y-112456998D01*
X216896042Y-112457002D01*
X216775006Y-112591426D01*
X216684565Y-112748076D01*
X216684562Y-112748083D01*
X216628671Y-112920097D01*
X216628669Y-112920106D01*
X216609761Y-113099999D01*
X215825001Y-113099999D01*
X215825001Y-113053923D01*
X215803854Y-112975001D01*
X216417286Y-112975001D01*
X216411255Y-112913764D01*
X216411254Y-112913761D01*
X216356936Y-112734698D01*
X216356934Y-112734695D01*
X216268716Y-112569652D01*
X216150003Y-112424998D01*
X216005349Y-112306285D01*
X215840306Y-112218067D01*
X215840303Y-112218065D01*
X215661240Y-112163747D01*
X215661237Y-112163746D01*
X215600001Y-112157715D01*
X215600001Y-112771148D01*
X215521079Y-112750001D01*
X215428923Y-112750001D01*
X215350001Y-112771148D01*
X215350001Y-112157715D01*
X215288764Y-112163746D01*
X215288761Y-112163747D01*
X215109698Y-112218065D01*
X215109695Y-112218067D01*
X214944652Y-112306285D01*
X214799998Y-112424998D01*
X214681285Y-112569652D01*
X214593067Y-112734695D01*
X214593065Y-112734698D01*
X214538747Y-112913761D01*
X214538746Y-112913764D01*
X214532716Y-112975001D01*
X214327103Y-112975001D01*
X214321333Y-112920107D01*
X214265437Y-112748076D01*
X214259732Y-112738194D01*
X214250347Y-112684976D01*
X214272283Y-112642835D01*
X214901482Y-112013637D01*
X214950457Y-111990801D01*
X214957342Y-111990500D01*
X219692661Y-111990500D01*
X219743441Y-112008982D01*
X219748522Y-112013639D01*
X220999985Y-113265101D01*
X221022823Y-113314077D01*
X221022152Y-113333317D01*
X221019511Y-113349997D01*
X221019510Y-113350002D01*
X221019510Y-113350003D01*
X221039355Y-113475302D01*
X221039356Y-113475306D01*
X221096950Y-113588340D01*
X221096952Y-113588343D01*
X221186658Y-113678049D01*
X221186661Y-113678051D01*
X221299695Y-113735645D01*
X221299697Y-113735645D01*
X221299698Y-113735646D01*
X221341466Y-113742261D01*
X221425000Y-113755492D01*
X221425002Y-113755492D01*
X221425004Y-113755492D01*
X221503874Y-113743000D01*
X221550306Y-113735646D01*
X221663344Y-113678050D01*
X221753052Y-113588342D01*
X221810648Y-113475304D01*
X221830494Y-113350000D01*
X221824804Y-113314077D01*
X221810648Y-113224697D01*
X221810647Y-113224693D01*
X221753053Y-113111659D01*
X221753051Y-113111656D01*
X221663345Y-113021950D01*
X221663342Y-113021948D01*
X221550308Y-112964354D01*
X221550304Y-112964353D01*
X221425005Y-112944508D01*
X221425004Y-112944508D01*
X221425002Y-112944508D01*
X221408320Y-112947149D01*
X221355275Y-112936837D01*
X221340103Y-112924983D01*
X220654621Y-112239501D01*
X219961237Y-111546116D01*
X219961236Y-111546114D01*
X219931770Y-111533909D01*
X219872841Y-111509500D01*
X219872840Y-111509500D01*
X214872841Y-111509500D01*
X214777164Y-111509500D01*
X214718234Y-111533909D01*
X214688769Y-111546114D01*
X213929807Y-112305074D01*
X213880831Y-112327911D01*
X213841814Y-112321382D01*
X213742378Y-112277110D01*
X213742373Y-112277108D01*
X213670998Y-112261937D01*
X213565443Y-112239501D01*
X213384559Y-112239501D01*
X213305392Y-112256328D01*
X213207628Y-112277108D01*
X213207623Y-112277110D01*
X213042385Y-112350679D01*
X213042375Y-112350684D01*
X212896045Y-112456998D01*
X212896042Y-112457002D01*
X212775006Y-112591426D01*
X212684565Y-112748076D01*
X212684562Y-112748083D01*
X212628671Y-112920097D01*
X212628669Y-112920106D01*
X212609761Y-113099999D01*
X212340241Y-113099999D01*
X212321333Y-112920107D01*
X212265437Y-112748076D01*
X212174995Y-112591426D01*
X212053960Y-112457002D01*
X212053957Y-112457000D01*
X212053956Y-112456998D01*
X211907626Y-112350684D01*
X211907623Y-112350682D01*
X211907621Y-112350681D01*
X211805186Y-112305074D01*
X211742378Y-112277110D01*
X211742373Y-112277108D01*
X211670998Y-112261937D01*
X211565443Y-112239501D01*
X211384559Y-112239501D01*
X211305392Y-112256328D01*
X211207628Y-112277108D01*
X211207623Y-112277110D01*
X211042385Y-112350679D01*
X211042375Y-112350684D01*
X210896045Y-112456998D01*
X210896042Y-112457002D01*
X210775006Y-112591426D01*
X210684565Y-112748076D01*
X210684562Y-112748083D01*
X210628671Y-112920097D01*
X210628669Y-112920106D01*
X210609761Y-113099999D01*
X203753762Y-113099999D01*
X205215959Y-111637803D01*
X207079793Y-109773967D01*
X207123293Y-109751803D01*
X207225308Y-109735646D01*
X207338346Y-109678050D01*
X207428054Y-109588342D01*
X207485650Y-109475304D01*
X207505496Y-109350000D01*
X207485650Y-109224696D01*
X207485649Y-109224695D01*
X207485649Y-109224693D01*
X207428055Y-109111659D01*
X207428053Y-109111656D01*
X207338347Y-109021950D01*
X207338344Y-109021948D01*
X207225310Y-108964354D01*
X207225306Y-108964353D01*
X207100006Y-108944508D01*
X207100002Y-108944508D01*
X206974701Y-108964353D01*
X206974697Y-108964354D01*
X206861663Y-109021948D01*
X206861660Y-109021950D01*
X206771954Y-109111656D01*
X206771952Y-109111659D01*
X206714358Y-109224693D01*
X206714357Y-109224696D01*
X206698200Y-109326708D01*
X206676034Y-109370210D01*
X204812201Y-111234045D01*
X200970213Y-115076031D01*
X200926711Y-115098197D01*
X200824699Y-115114354D01*
X200824696Y-115114355D01*
X200711662Y-115171949D01*
X200711659Y-115171951D01*
X200621953Y-115261657D01*
X200621951Y-115261660D01*
X200564357Y-115374694D01*
X200564356Y-115374698D01*
X200544511Y-115499998D01*
X198733426Y-115499998D01*
X198852856Y-115380568D01*
X199020057Y-115157213D01*
X199153770Y-114912337D01*
X199251272Y-114650923D01*
X199310579Y-114378294D01*
X199330483Y-114100000D01*
X199310579Y-113821706D01*
X199251272Y-113549077D01*
X199153770Y-113287663D01*
X199020057Y-113042787D01*
X198852856Y-112819432D01*
X198852852Y-112819428D01*
X198852847Y-112819422D01*
X198655578Y-112622153D01*
X198655572Y-112622148D01*
X198655569Y-112622145D01*
X198432214Y-112454944D01*
X198187338Y-112321231D01*
X198187335Y-112321230D01*
X198187336Y-112321230D01*
X197925924Y-112223729D01*
X197925925Y-112223729D01*
X197789609Y-112194075D01*
X197653295Y-112164422D01*
X197375001Y-112144518D01*
X197096707Y-112164422D01*
X196824077Y-112223729D01*
X196562665Y-112321230D01*
X196317786Y-112454945D01*
X196317780Y-112454949D01*
X196094435Y-112622143D01*
X196094423Y-112622153D01*
X195897154Y-112819422D01*
X195897144Y-112819434D01*
X195729950Y-113042779D01*
X195729946Y-113042785D01*
X195596231Y-113287664D01*
X195498730Y-113549076D01*
X195470673Y-113678051D01*
X195439423Y-113821706D01*
X195419519Y-114100000D01*
X191575500Y-114100000D01*
X191575500Y-108602389D01*
X191575572Y-108600000D01*
X191919518Y-108600000D01*
X191936854Y-108842395D01*
X191939422Y-108878293D01*
X191998729Y-109150923D01*
X192080518Y-109370210D01*
X192096231Y-109412337D01*
X192192337Y-109588342D01*
X192229945Y-109657214D01*
X192229949Y-109657220D01*
X192397143Y-109880565D01*
X192397153Y-109880577D01*
X192594422Y-110077846D01*
X192594428Y-110077851D01*
X192594432Y-110077855D01*
X192817787Y-110245056D01*
X193062663Y-110378769D01*
X193324077Y-110476271D01*
X193596706Y-110535578D01*
X193875000Y-110555482D01*
X194153294Y-110535578D01*
X194425923Y-110476271D01*
X194687337Y-110378769D01*
X194932213Y-110245056D01*
X195155568Y-110077855D01*
X195352855Y-109880568D01*
X195520056Y-109657213D01*
X195653769Y-109412337D01*
X195751271Y-109150923D01*
X195810578Y-108878294D01*
X195830482Y-108600000D01*
X195810578Y-108321706D01*
X195751271Y-108049077D01*
X195653769Y-107787663D01*
X195520056Y-107542787D01*
X195352855Y-107319432D01*
X195352851Y-107319428D01*
X195352846Y-107319422D01*
X195155577Y-107122153D01*
X195155571Y-107122148D01*
X195155568Y-107122145D01*
X194932213Y-106954944D01*
X194687337Y-106821231D01*
X194687334Y-106821230D01*
X194687335Y-106821230D01*
X194425923Y-106723729D01*
X194425924Y-106723729D01*
X194289608Y-106694075D01*
X194153294Y-106664422D01*
X193875000Y-106644518D01*
X193596706Y-106664422D01*
X193324076Y-106723729D01*
X193062664Y-106821230D01*
X192817785Y-106954945D01*
X192817779Y-106954949D01*
X192594434Y-107122143D01*
X192594422Y-107122153D01*
X192397153Y-107319422D01*
X192397143Y-107319434D01*
X192229949Y-107542779D01*
X192229945Y-107542785D01*
X192096230Y-107787664D01*
X192055621Y-107896542D01*
X191998729Y-108049077D01*
X191939422Y-108321706D01*
X191919518Y-108600000D01*
X191575572Y-108600000D01*
X191575644Y-108597619D01*
X191577913Y-108560113D01*
X191591978Y-108327584D01*
X191593125Y-108318134D01*
X191641459Y-108054386D01*
X191643737Y-108045140D01*
X191723512Y-107789136D01*
X191726886Y-107780238D01*
X191836939Y-107535712D01*
X191841355Y-107527297D01*
X191980080Y-107297819D01*
X191985490Y-107289979D01*
X192150866Y-107078893D01*
X192157181Y-107071768D01*
X192346771Y-106882177D01*
X192353893Y-106875866D01*
X192564979Y-106710490D01*
X192572819Y-106705080D01*
X192802297Y-106566355D01*
X192810712Y-106561939D01*
X193055238Y-106451886D01*
X193064136Y-106448512D01*
X193320140Y-106368737D01*
X193329386Y-106366459D01*
X193593134Y-106318125D01*
X193602584Y-106316978D01*
X193872619Y-106300643D01*
X193877389Y-106300500D01*
X194335118Y-106300500D01*
X226335020Y-106300500D01*
X226835019Y-106300500D01*
X226872512Y-106300500D01*
X226877281Y-106300643D01*
G37*
%TD.AperFunction*%
%TD*%
M02*
