%TF.GenerationSoftware,KiCad,Pcbnew,8.0.3*%
%TF.CreationDate,2024-07-01T09:22:30+07:00*%
%TF.ProjectId,WeatherStation,57656174-6865-4725-9374-6174696f6e2e,rev?*%
%TF.SameCoordinates,Original*%
%TF.FileFunction,Copper,L1,Top*%
%TF.FilePolarity,Positive*%
%FSLAX46Y46*%
G04 Gerber Fmt 4.6, Leading zero omitted, Abs format (unit mm)*
G04 Created by KiCad (PCBNEW 8.0.3) date 2024-07-01 09:22:30*
%MOMM*%
%LPD*%
G01*
G04 APERTURE LIST*
%TA.AperFunction,SMDPad,CuDef*%
%ADD10R,0.650000X1.000000*%
%TD*%
%TA.AperFunction,SMDPad,CuDef*%
%ADD11R,0.500000X0.300000*%
%TD*%
%TA.AperFunction,SMDPad,CuDef*%
%ADD12R,1.400000X0.800000*%
%TD*%
%TA.AperFunction,SMDPad,CuDef*%
%ADD13R,1.800000X2.700000*%
%TD*%
%TA.AperFunction,SMDPad,CuDef*%
%ADD14R,1.000000X0.650000*%
%TD*%
%TA.AperFunction,SMDPad,CuDef*%
%ADD15R,2.700000X0.700000*%
%TD*%
%TA.AperFunction,SMDPad,CuDef*%
%ADD16R,1.900000X1.100000*%
%TD*%
%TA.AperFunction,SMDPad,CuDef*%
%ADD17R,0.700000X0.350000*%
%TD*%
%TA.AperFunction,ComponentPad*%
%ADD18C,1.400000*%
%TD*%
%TA.AperFunction,ViaPad*%
%ADD19C,0.480000*%
%TD*%
%TA.AperFunction,Conductor*%
%ADD20C,0.160000*%
%TD*%
%TA.AperFunction,Conductor*%
%ADD21C,0.250000*%
%TD*%
%TA.AperFunction,Conductor*%
%ADD22C,0.500000*%
%TD*%
%TA.AperFunction,Conductor*%
%ADD23C,0.750000*%
%TD*%
%TA.AperFunction,Conductor*%
%ADD24C,0.320000*%
%TD*%
G04 APERTURE END LIST*
D10*
%TO.P,C69,1,1*%
%TO.N,/SENSORS/VOUT*%
X213475001Y-117900001D03*
%TO.P,C69,2,2*%
%TO.N,GND1*%
X214925001Y-117900001D03*
%TD*%
D11*
%TO.P,U12,1,SDA*%
%TO.N,/SENSORS/SDA1*%
X200175000Y-108200001D03*
%TO.P,U12,2,SCL*%
%TO.N,/SENSORS/SCL1*%
X200175000Y-109000001D03*
%TO.P,U12,3,VDD*%
%TO.N,VSEN1*%
X201575000Y-109000001D03*
%TO.P,U12,4,GND*%
%TO.N,GND1*%
X201575000Y-108200001D03*
%TD*%
D12*
%TO.P,C63,1,1*%
%TO.N,VDD1*%
X219475002Y-114850000D03*
%TO.P,C63,2,2*%
%TO.N,GND1*%
X219475002Y-116350000D03*
%TD*%
D13*
%TO.P,C65,+,+*%
%TO.N,Net-(U11-VLED)*%
X220275002Y-108900000D03*
%TO.P,C65,-,-*%
%TO.N,GND1*%
X215275002Y-108900000D03*
%TD*%
D14*
%TO.P,C66,1,1*%
%TO.N,VSEN1*%
X203875000Y-109324999D03*
%TO.P,C66,2,2*%
%TO.N,GND1*%
X203875000Y-107875001D03*
%TD*%
D10*
%TO.P,R36,1,1*%
%TO.N,/SENSORS/VOUT*%
X216250001Y-117900001D03*
%TO.P,R36,2,2*%
%TO.N,Net-(U11-VOUT)*%
X217700001Y-117900001D03*
%TD*%
D15*
%TO.P,U11,1,VLED*%
%TO.N,Net-(U11-VLED)*%
X223425002Y-110350000D03*
%TO.P,U11,2,LED_GND*%
%TO.N,GND1*%
X223425002Y-111850000D03*
%TO.P,U11,3,~{LED_EN}*%
%TO.N,/SENSORS/~{LED_EN}*%
X223425002Y-113350000D03*
%TO.P,U11,4,GND*%
%TO.N,GND1*%
X223425002Y-114850000D03*
%TO.P,U11,5,VOUT*%
%TO.N,Net-(U11-VOUT)*%
X223425002Y-116350000D03*
%TO.P,U11,6,VCC*%
%TO.N,VDD1*%
X223425002Y-117850000D03*
D16*
%TO.P,U11,7,EP*%
%TO.N,GND1*%
X227125002Y-119800000D03*
%TO.P,U11,8,EP*%
X227125002Y-108400000D03*
%TD*%
D12*
%TO.P,C67,1,1*%
%TO.N,VSEN1*%
X205875000Y-109350000D03*
%TO.P,C67,2,2*%
%TO.N,GND1*%
X205875000Y-107850000D03*
%TD*%
D17*
%TO.P,U14,1,GND*%
%TO.N,GND1*%
X201750000Y-118625000D03*
%TO.P,U14,2,CSB*%
%TO.N,unconnected-(U14-CSB-Pad2)*%
X201750000Y-119275001D03*
%TO.P,U14,3,SDI/SDA*%
%TO.N,/SENSORS/SDA1*%
X201750000Y-119925001D03*
%TO.P,U14,4,SCK/SCL*%
%TO.N,/SENSORS/SCL1*%
X201750000Y-120575002D03*
%TO.P,U14,5,SDO*%
%TO.N,unconnected-(U14-SDO-Pad5)*%
X200000000Y-120575002D03*
%TO.P,U14,6,VDDIO*%
%TO.N,VSEN1*%
X200000000Y-119925001D03*
%TO.P,U14,7,GND*%
%TO.N,GND1*%
X200000000Y-119275001D03*
%TO.P,U14,8,VDD*%
%TO.N,VSEN1*%
X200000000Y-118625000D03*
%TD*%
D10*
%TO.P,C74,1,1*%
%TO.N,VSEN1*%
X200125001Y-116700001D03*
%TO.P,C74,2,2*%
%TO.N,GND1*%
X201574999Y-116700001D03*
%TD*%
D12*
%TO.P,C75,1,1*%
%TO.N,VSEN1*%
X197675000Y-118850001D03*
%TO.P,C75,2,2*%
%TO.N,GND1*%
X197675000Y-120350001D03*
%TD*%
D14*
%TO.P,R33,1,1*%
%TO.N,VDD1*%
X219475002Y-113124999D03*
%TO.P,R33,2,2*%
%TO.N,Net-(U11-VLED)*%
X219475002Y-111675001D03*
%TD*%
D18*
%TO.P,J6,1,1*%
%TO.N,VSEN1*%
X217475001Y-113100001D03*
%TO.P,J6,2,2*%
%TO.N,VDD1*%
X217475001Y-115100001D03*
%TO.P,J6,3,3*%
%TO.N,GND1*%
X215475001Y-113100001D03*
%TO.P,J6,4,4*%
X215475001Y-115100001D03*
%TO.P,J6,5,5*%
%TO.N,/SENSORS/~{LED_EN}*%
X213475001Y-113100001D03*
%TO.P,J6,6,6*%
%TO.N,/SENSORS/VOUT*%
X213475001Y-115100001D03*
%TO.P,J6,7,7*%
%TO.N,/SENSORS/SCL1*%
X211475001Y-113100001D03*
%TO.P,J6,8,8*%
%TO.N,/SENSORS/SDA1*%
X211475001Y-115100001D03*
%TD*%
D19*
%TO.N,GND1*%
X207375000Y-116850000D03*
X216675002Y-109900000D03*
X213875002Y-109900000D03*
X228125002Y-118300000D03*
X200875000Y-121000001D03*
X197375000Y-111350000D03*
X212750000Y-120575002D03*
X220375000Y-117350000D03*
X216675002Y-108900000D03*
X207375000Y-107850000D03*
X207750000Y-120575002D03*
X217750000Y-120575002D03*
X204375000Y-113850000D03*
X213875002Y-108900000D03*
X209875000Y-107850000D03*
X199875000Y-111350000D03*
X207375000Y-113850000D03*
X200875000Y-119600001D03*
X215250000Y-120575002D03*
X228125002Y-113300000D03*
X228125002Y-110800000D03*
X220250000Y-120575002D03*
X222375000Y-107850000D03*
X204375000Y-116850000D03*
X197375000Y-116850000D03*
X216675002Y-107900000D03*
X225250000Y-120575002D03*
X210375000Y-110350000D03*
X210250000Y-120575002D03*
X193875000Y-116850000D03*
X212375000Y-107850000D03*
X228125002Y-115800000D03*
X222750000Y-120575002D03*
X224875000Y-107850000D03*
X193875000Y-113850000D03*
X197375000Y-108850000D03*
X200875000Y-118100001D03*
X210875000Y-116850000D03*
X207375000Y-111350000D03*
X193875000Y-111350000D03*
X202375000Y-111350000D03*
X213875002Y-107900000D03*
%TO.N,VSEN1*%
X207100004Y-109350000D03*
X200950003Y-115500001D03*
%TO.N,/SENSORS/SDA1*%
X205450000Y-119925001D03*
X206650000Y-119925001D03*
%TO.N,/SENSORS/~{LED_EN}*%
X221425002Y-113350000D03*
%TD*%
D20*
%TO.N,GND1*%
X220250000Y-120575002D02*
X222750000Y-120575002D01*
X217750000Y-120575002D02*
X219975000Y-120575002D01*
X200900000Y-119225001D02*
X200900000Y-117375000D01*
X216725000Y-116350000D02*
X216725000Y-116575000D01*
X216950001Y-120575002D02*
X217750000Y-120575002D01*
X215475001Y-113100001D02*
X215475001Y-115100001D01*
X216300002Y-116350000D02*
X216750001Y-116350000D01*
X216675002Y-108900000D02*
X213875002Y-108900000D01*
X212750000Y-120575002D02*
X210250000Y-120575002D01*
X225325002Y-106600000D02*
X217175002Y-106600000D01*
D21*
X200000000Y-119275001D02*
X200900000Y-119275001D01*
D20*
X225525002Y-111850000D02*
X225875002Y-112200000D01*
X213875002Y-108900000D02*
X213875002Y-107900000D01*
X215250000Y-120575002D02*
X212750000Y-120575002D01*
X225250000Y-120575002D02*
X226350000Y-120575002D01*
D21*
X203875000Y-107875001D02*
X205849999Y-107875001D01*
D20*
X227125002Y-108400000D02*
X227125002Y-110250000D01*
X226350000Y-120575002D02*
X227125002Y-119800000D01*
X216750001Y-116350000D02*
X216725000Y-116350000D01*
X223425002Y-111850000D02*
X225525002Y-111850000D01*
X215475001Y-109099999D02*
X215275002Y-108900000D01*
X216950001Y-116800001D02*
X216950001Y-120575002D01*
X217175002Y-106600000D02*
X215275002Y-108500000D01*
X200900000Y-119225001D02*
X200900000Y-118625001D01*
D21*
X203274900Y-108200001D02*
X203599900Y-107875001D01*
D20*
X216725000Y-116350000D02*
X215475001Y-115100001D01*
X206675000Y-107050000D02*
X205875000Y-107850000D01*
X215275002Y-108500000D02*
X215275002Y-108900000D01*
X205849999Y-107875001D02*
X205875000Y-107850000D01*
X222750000Y-120575002D02*
X225250000Y-120575002D01*
X214025002Y-107050000D02*
X206675000Y-107050000D01*
X219975000Y-120575002D02*
X220250000Y-120575002D01*
X225125002Y-114850000D02*
X227125002Y-116850000D01*
X210250000Y-120575002D02*
X207750000Y-120575002D01*
X201575000Y-108200001D02*
X201675000Y-108200001D01*
X227125002Y-116850000D02*
X227125002Y-119800000D01*
X225875002Y-114100000D02*
X225125002Y-114850000D01*
X219475002Y-116350000D02*
X216750001Y-116350000D01*
X201749999Y-118625001D02*
X201750000Y-118625000D01*
X225125002Y-114850000D02*
X223425002Y-114850000D01*
X215275002Y-108900000D02*
X216675002Y-108900000D01*
X200900000Y-117375000D02*
X201574999Y-116700001D01*
X214925001Y-117900001D02*
X214925001Y-117725001D01*
X200900000Y-119275001D02*
X200900000Y-119225001D01*
X227125002Y-110250000D02*
X225525002Y-111850000D01*
X215275002Y-108900000D02*
X215275002Y-108300000D01*
X215275002Y-108300000D02*
X214025002Y-107050000D01*
X214925001Y-117725001D02*
X216300002Y-116350000D01*
X227125002Y-108400000D02*
X225325002Y-106600000D01*
D21*
X200900000Y-118625001D02*
X201749999Y-118625001D01*
D20*
X225875002Y-112200000D02*
X225875002Y-114100000D01*
D21*
X203599900Y-107875001D02*
X203875000Y-107875001D01*
D20*
X219975000Y-120575002D02*
X215250000Y-120575002D01*
D21*
X201675000Y-108200001D02*
X203274900Y-108200001D01*
D20*
X216725000Y-116575000D02*
X216950001Y-116800001D01*
D22*
%TO.N,VDD1*%
X219475002Y-114850000D02*
X219475002Y-113124999D01*
X222224901Y-117850000D02*
X221524901Y-117150000D01*
X221524901Y-116375000D02*
X219999901Y-114850000D01*
X221524901Y-117150000D02*
X221524901Y-116375000D01*
X223425002Y-117850000D02*
X222224901Y-117850000D01*
D23*
X219475002Y-114850000D02*
X217725002Y-114850000D01*
D22*
X219999901Y-114850000D02*
X219475002Y-114850000D01*
D23*
X217725002Y-114850000D02*
X217475001Y-115100001D01*
D22*
%TO.N,Net-(U11-VLED)*%
X218874901Y-110550000D02*
X220275002Y-109149899D01*
X220275002Y-109350101D02*
X220275002Y-108900000D01*
X219449902Y-111675001D02*
X218874901Y-111100000D01*
X219475002Y-111675001D02*
X219449902Y-111675001D01*
X223425002Y-110350000D02*
X221274901Y-110350000D01*
X220275002Y-109149899D02*
X220275002Y-108900000D01*
X218874901Y-111100000D02*
X218874901Y-110550000D01*
X221274901Y-110350000D02*
X220275002Y-109350101D01*
D21*
%TO.N,VSEN1*%
X200449998Y-116325003D02*
X200950003Y-115824998D01*
X201675000Y-109000001D02*
X203324902Y-109000001D01*
D20*
X198025000Y-118850001D02*
X197675000Y-118850001D01*
X199100000Y-119925001D02*
X198025000Y-118850001D01*
X200125001Y-116700001D02*
X200125001Y-116325003D01*
X200000000Y-119925001D02*
X199100000Y-119925001D01*
D24*
X211074901Y-109350000D02*
X212824901Y-111100000D01*
D20*
X205849999Y-109324999D02*
X205875000Y-109350000D01*
D24*
X207100004Y-109350000D02*
X211074901Y-109350000D01*
D21*
X200000000Y-118625000D02*
X197900001Y-118625000D01*
D20*
X201575000Y-109000001D02*
X201675000Y-109000001D01*
D24*
X212824901Y-111100000D02*
X215475000Y-111100000D01*
D20*
X197900001Y-118625000D02*
X197675000Y-118850001D01*
D24*
X215475000Y-111100000D02*
X217475001Y-113100001D01*
D21*
X200950003Y-115824998D02*
X200950003Y-115500001D01*
X203649900Y-109324999D02*
X203875000Y-109324999D01*
X197675000Y-118850001D02*
X197675000Y-118150001D01*
X199125000Y-116700001D02*
X200125001Y-116700001D01*
D24*
X207100004Y-109350000D02*
X205875000Y-109350000D01*
D21*
X203875000Y-109324999D02*
X205849999Y-109324999D01*
X197675000Y-118150001D02*
X199125000Y-116700001D01*
X200125001Y-116325003D02*
X200449998Y-116325003D01*
X203324902Y-109000001D02*
X203649900Y-109324999D01*
D20*
%TO.N,/SENSORS/VOUT*%
X213990001Y-118640001D02*
X213475001Y-118125001D01*
X215735001Y-118640001D02*
X213990001Y-118640001D01*
X213475001Y-117900001D02*
X213475001Y-115100001D01*
X213475001Y-118125001D02*
X213475001Y-117900001D01*
X216250001Y-117900001D02*
X216250001Y-118125001D01*
X216250001Y-118125001D02*
X215735001Y-118640001D01*
%TO.N,Net-(U11-VOUT)*%
X221450001Y-118800001D02*
X220550001Y-117900001D01*
X223425002Y-116350000D02*
X225000000Y-116350000D01*
X220550001Y-117900001D02*
X217700001Y-117900001D01*
X225350001Y-118500001D02*
X225050001Y-118800001D01*
X225000000Y-116350000D02*
X225350001Y-116700001D01*
X225050001Y-118800001D02*
X221450001Y-118800001D01*
X225350001Y-116700001D02*
X225350001Y-118500001D01*
%TO.N,/SENSORS/SCL1*%
X206697452Y-119425001D02*
X210524901Y-115597552D01*
X202850000Y-120245001D02*
X205070000Y-120245001D01*
X205070000Y-120245001D02*
X205250000Y-120425001D01*
X200175000Y-109000001D02*
X200275000Y-109000001D01*
X206050000Y-119625001D02*
X206250000Y-119425001D01*
X208725000Y-110350000D02*
X211475001Y-113100001D01*
X201750000Y-120575002D02*
X202519999Y-120575002D01*
X202519999Y-120575002D02*
X202850000Y-120245001D01*
X205250000Y-120425001D02*
X205750000Y-120425001D01*
X201624999Y-110350000D02*
X208725000Y-110350000D01*
X210524901Y-115597552D02*
X210524901Y-114050101D01*
X210524901Y-114050101D02*
X211475001Y-113100001D01*
X206050000Y-120125001D02*
X206050000Y-119625001D01*
X206250000Y-119425001D02*
X206697452Y-119425001D01*
X205750000Y-120425001D02*
X206050000Y-120125001D01*
X200275000Y-109000001D02*
X201624999Y-110350000D01*
%TO.N,/SENSORS/SDA1*%
X212475001Y-114100001D02*
X212475001Y-112700001D01*
X201799999Y-110025000D02*
X200850000Y-109075001D01*
X210000000Y-116575001D02*
X207575001Y-119000001D01*
X200850000Y-109075001D02*
X200850000Y-108400000D01*
X212475001Y-112700001D02*
X211925000Y-112150000D01*
X200650001Y-108200001D02*
X200175000Y-108200001D01*
X200850000Y-108400000D02*
X200650001Y-108200001D01*
X211475001Y-115100001D02*
X210000000Y-116575001D01*
X206650000Y-119925001D02*
X210000000Y-116575001D01*
X208852548Y-110025000D02*
X201799999Y-110025000D01*
X211475001Y-115100001D02*
X212475001Y-114100001D01*
X201750000Y-119925001D02*
X205450000Y-119925001D01*
X210977548Y-112150000D02*
X208852548Y-110025000D01*
X211925000Y-112150000D02*
X210977548Y-112150000D01*
%TO.N,/SENSORS/~{LED_EN}*%
X223425002Y-113350000D02*
X221425002Y-113350000D01*
%TD*%
%TA.AperFunction,Conductor*%
%TO.N,VSEN1*%
G36*
X201093058Y-115218483D02*
G01*
X201098139Y-115223140D01*
X201251861Y-115376862D01*
X201274699Y-115425838D01*
X201275000Y-115432723D01*
X201275000Y-115667278D01*
X201256518Y-115718058D01*
X201251861Y-115723139D01*
X200743002Y-116231997D01*
X200743000Y-116232000D01*
X200350000Y-116625001D01*
X200350000Y-116651779D01*
X200125001Y-116876778D01*
X200125001Y-116876779D01*
X199620826Y-117380951D01*
X199702457Y-117435496D01*
X199702455Y-117435496D01*
X199775377Y-117450001D01*
X200271000Y-117450001D01*
X200321780Y-117468483D01*
X200348800Y-117515283D01*
X200350000Y-117529001D01*
X200350000Y-118121000D01*
X200331518Y-118171780D01*
X200284718Y-118198800D01*
X200271000Y-118200000D01*
X199751776Y-118200000D01*
X200120915Y-118569139D01*
X200143753Y-118618115D01*
X200129767Y-118670313D01*
X200120915Y-118680861D01*
X200055861Y-118745915D01*
X200006885Y-118768753D01*
X199954687Y-118754767D01*
X199944139Y-118745915D01*
X199469049Y-118270825D01*
X199469047Y-118270825D01*
X199414505Y-118352454D01*
X199414504Y-118352455D01*
X199400000Y-118425376D01*
X199400000Y-118824623D01*
X199400120Y-118825227D01*
X199400082Y-118825468D01*
X199400380Y-118828485D01*
X199399606Y-118828561D01*
X199391899Y-118878637D01*
X199378500Y-118896500D01*
X199275000Y-118999999D01*
X199275000Y-119000001D01*
X199275000Y-119600001D01*
X199376861Y-119701862D01*
X199399699Y-119750837D01*
X199400000Y-119757723D01*
X199400000Y-120021001D01*
X199381518Y-120071781D01*
X199334718Y-120098801D01*
X199321000Y-120100001D01*
X199257722Y-120100001D01*
X199206942Y-120081519D01*
X199201861Y-120076862D01*
X198601084Y-119476085D01*
X198578246Y-119427109D01*
X198591260Y-119376333D01*
X198610494Y-119347548D01*
X198610495Y-119347546D01*
X198625000Y-119274624D01*
X198625000Y-118425377D01*
X198610495Y-118352455D01*
X198610494Y-118352454D01*
X198555240Y-118269761D01*
X198481372Y-118220404D01*
X198481370Y-118220404D01*
X197730860Y-118970916D01*
X197681884Y-118993754D01*
X197629687Y-118979768D01*
X197619138Y-118970916D01*
X197554084Y-118905862D01*
X197531246Y-118856886D01*
X197545232Y-118804688D01*
X197554084Y-118794140D01*
X198148224Y-118200001D01*
X197415722Y-118200001D01*
X197364942Y-118181519D01*
X197337922Y-118134719D01*
X197347306Y-118081501D01*
X197359861Y-118065140D01*
X198326777Y-117098224D01*
X199550001Y-117098224D01*
X199948224Y-116700002D01*
X199948224Y-116700000D01*
X199550001Y-116301777D01*
X199550001Y-117098224D01*
X198326777Y-117098224D01*
X199405951Y-116019049D01*
X199620825Y-116019049D01*
X200125000Y-116523224D01*
X200125002Y-116523224D01*
X200629174Y-116019050D01*
X200629174Y-116019048D01*
X200547547Y-115964506D01*
X200547546Y-115964505D01*
X200474625Y-115950001D01*
X199775377Y-115950001D01*
X199702456Y-115964505D01*
X199702456Y-115964506D01*
X199640187Y-116006112D01*
X199621653Y-116010646D01*
X199620825Y-116019049D01*
X199405951Y-116019049D01*
X199488180Y-115936820D01*
X199525032Y-115919635D01*
X199532589Y-115893711D01*
X199540437Y-115884564D01*
X200201861Y-115223140D01*
X200250837Y-115200302D01*
X200257722Y-115200001D01*
X201042278Y-115200001D01*
X201093058Y-115218483D01*
G37*
%TD.AperFunction*%
%TD*%
%TA.AperFunction,Conductor*%
%TO.N,GND1*%
G36*
X198646780Y-106318982D02*
G01*
X198673800Y-106365782D01*
X198675000Y-106379500D01*
X198675000Y-110900001D01*
X203075000Y-110900001D01*
X203075000Y-110669500D01*
X203093482Y-110618720D01*
X203140282Y-110591700D01*
X203154000Y-110590500D01*
X208592659Y-110590500D01*
X208643439Y-110608982D01*
X208648520Y-110613639D01*
X210677715Y-112642833D01*
X210700553Y-112691809D01*
X210690272Y-112738191D01*
X210684564Y-112748076D01*
X210684562Y-112748083D01*
X210628671Y-112920097D01*
X210628669Y-112920106D01*
X210609761Y-113099999D01*
X210609761Y-113100002D01*
X210628669Y-113279895D01*
X210628671Y-113279904D01*
X210684562Y-113451918D01*
X210684565Y-113451926D01*
X210690269Y-113461806D01*
X210699653Y-113515023D01*
X210677715Y-113557166D01*
X210321015Y-113913867D01*
X210317277Y-113922893D01*
X210284401Y-114002263D01*
X210284401Y-114002264D01*
X210284401Y-115465211D01*
X210265919Y-115515991D01*
X210261262Y-115521072D01*
X206620972Y-119161362D01*
X206571996Y-119184200D01*
X206565111Y-119184501D01*
X206297839Y-119184501D01*
X206202162Y-119184501D01*
X206155360Y-119203887D01*
X206113769Y-119221114D01*
X206113768Y-119221115D01*
X205846114Y-119488767D01*
X205846112Y-119488770D01*
X205816230Y-119560910D01*
X205816231Y-119560911D01*
X205813466Y-119567588D01*
X205776961Y-119607434D01*
X205723385Y-119614492D01*
X205694711Y-119598761D01*
X205693372Y-119600605D01*
X205688340Y-119596949D01*
X205575306Y-119539355D01*
X205575302Y-119539354D01*
X205450002Y-119519509D01*
X205449998Y-119519509D01*
X205324697Y-119539354D01*
X205324693Y-119539355D01*
X205211659Y-119596949D01*
X205194117Y-119614492D01*
X205147246Y-119661362D01*
X205098272Y-119684200D01*
X205091386Y-119684501D01*
X202291492Y-119684501D01*
X202240712Y-119666019D01*
X202225808Y-119649394D01*
X202222132Y-119643893D01*
X202209285Y-119591403D01*
X202222130Y-119556112D01*
X202251187Y-119512625D01*
X202260500Y-119465807D01*
X202260500Y-119084195D01*
X202254765Y-119055366D01*
X202262985Y-119001958D01*
X202276389Y-118984091D01*
X202280239Y-118980240D01*
X202335494Y-118897546D01*
X202335495Y-118897545D01*
X202350000Y-118824623D01*
X202350000Y-118425376D01*
X202335495Y-118352455D01*
X202280950Y-118270825D01*
X202280949Y-118270825D01*
X201805860Y-118745915D01*
X201756884Y-118768753D01*
X201704686Y-118754767D01*
X201694138Y-118745915D01*
X201219049Y-118270825D01*
X201219047Y-118270825D01*
X201164505Y-118352454D01*
X201164504Y-118352455D01*
X201150000Y-118425376D01*
X201150000Y-118824623D01*
X201164504Y-118897545D01*
X201164505Y-118897546D01*
X201219760Y-118980240D01*
X201223610Y-118984090D01*
X201246451Y-119033064D01*
X201245234Y-119055365D01*
X201239500Y-119084194D01*
X201239500Y-119465806D01*
X201248812Y-119512624D01*
X201277869Y-119556112D01*
X201290712Y-119608603D01*
X201277869Y-119643890D01*
X201248812Y-119687377D01*
X201239500Y-119734195D01*
X201239500Y-120115806D01*
X201248812Y-120162624D01*
X201255638Y-120172840D01*
X201277869Y-120206111D01*
X201290713Y-120258600D01*
X201277870Y-120293888D01*
X201248813Y-120337376D01*
X201248812Y-120337378D01*
X201239500Y-120384196D01*
X201239500Y-120765807D01*
X201248812Y-120812625D01*
X201284285Y-120865716D01*
X201306509Y-120880565D01*
X201337376Y-120901189D01*
X201384194Y-120910502D01*
X202115806Y-120910502D01*
X202162624Y-120901189D01*
X202215714Y-120865716D01*
X202225805Y-120850612D01*
X202269384Y-120818658D01*
X202291492Y-120815502D01*
X202567836Y-120815502D01*
X202567838Y-120815502D01*
X202656232Y-120778888D01*
X202926480Y-120508639D01*
X202975456Y-120485802D01*
X202982341Y-120485501D01*
X204937658Y-120485501D01*
X204988438Y-120503983D01*
X204993519Y-120508639D01*
X205046100Y-120561219D01*
X205046114Y-120561233D01*
X205113768Y-120628887D01*
X205202162Y-120665501D01*
X205202164Y-120665501D01*
X205797837Y-120665501D01*
X205797839Y-120665501D01*
X205886233Y-120628887D01*
X205915121Y-120599999D01*
X226501778Y-120599999D01*
X226501779Y-120600000D01*
X227748225Y-120600000D01*
X227748225Y-120599999D01*
X227125003Y-119976777D01*
X227125001Y-119976777D01*
X226501778Y-120599999D01*
X205915121Y-120599999D01*
X206253886Y-120261234D01*
X206257247Y-120253120D01*
X206293754Y-120213277D01*
X206347330Y-120206222D01*
X206386095Y-120227489D01*
X206411656Y-120253050D01*
X206411659Y-120253052D01*
X206524693Y-120310646D01*
X206524695Y-120310646D01*
X206524696Y-120310647D01*
X206566464Y-120317262D01*
X206649998Y-120330493D01*
X206650000Y-120330493D01*
X206650002Y-120330493D01*
X206712652Y-120320570D01*
X206775304Y-120310647D01*
X206888342Y-120253051D01*
X206978050Y-120163343D01*
X207035646Y-120050305D01*
X207054691Y-119930061D01*
X207055492Y-119925003D01*
X207055492Y-119925001D01*
X207052850Y-119908324D01*
X207063160Y-119855277D01*
X207075012Y-119840106D01*
X207689741Y-119225376D01*
X225925002Y-119225376D01*
X225925002Y-120374623D01*
X225939506Y-120447545D01*
X225939507Y-120447546D01*
X225994761Y-120530240D01*
X226077456Y-120585494D01*
X226077458Y-120585495D01*
X226148584Y-120599641D01*
X226948225Y-119800001D01*
X226948225Y-119799998D01*
X227301778Y-119799998D01*
X227301778Y-119800001D01*
X228101419Y-120599642D01*
X228172545Y-120585495D01*
X228172547Y-120585494D01*
X228255242Y-120530240D01*
X228310496Y-120447546D01*
X228310497Y-120447545D01*
X228325002Y-120374623D01*
X228325002Y-119225376D01*
X228310497Y-119152454D01*
X228310496Y-119152453D01*
X228255242Y-119069759D01*
X228172548Y-119014505D01*
X228101419Y-119000356D01*
X227301778Y-119799998D01*
X226948225Y-119799998D01*
X226148583Y-119000356D01*
X226077456Y-119014505D01*
X226077455Y-119014505D01*
X225994761Y-119069759D01*
X225939507Y-119152453D01*
X225939506Y-119152454D01*
X225925002Y-119225376D01*
X207689741Y-119225376D01*
X207700119Y-119214998D01*
X207700128Y-119214993D01*
X207711234Y-119203887D01*
X210203886Y-116711234D01*
X211020193Y-115894925D01*
X211069167Y-115872089D01*
X211108183Y-115878617D01*
X211207627Y-115922893D01*
X211384559Y-115960501D01*
X211384563Y-115960501D01*
X211565439Y-115960501D01*
X211565443Y-115960501D01*
X211742375Y-115922893D01*
X211907621Y-115849321D01*
X212051133Y-115745054D01*
X212053956Y-115743003D01*
X212053956Y-115743002D01*
X212053960Y-115743000D01*
X212174995Y-115608576D01*
X212265437Y-115451926D01*
X212321333Y-115279895D01*
X212339598Y-115106118D01*
X212340241Y-115100002D01*
X212340241Y-115099999D01*
X212609761Y-115099999D01*
X212609761Y-115100002D01*
X212628669Y-115279895D01*
X212628671Y-115279904D01*
X212684562Y-115451918D01*
X212684565Y-115451926D01*
X212736781Y-115542367D01*
X212749928Y-115565139D01*
X212775007Y-115608576D01*
X212896042Y-115743000D01*
X212896043Y-115743001D01*
X212896045Y-115743003D01*
X213042375Y-115849317D01*
X213042381Y-115849321D01*
X213187633Y-115913991D01*
X213226506Y-115951530D01*
X213234501Y-115986161D01*
X213234501Y-117160501D01*
X213216019Y-117211281D01*
X213169219Y-117238301D01*
X213155501Y-117239501D01*
X213134195Y-117239501D01*
X213087377Y-117248813D01*
X213034286Y-117284286D01*
X212998813Y-117337377D01*
X212989501Y-117384195D01*
X212989501Y-118415806D01*
X212998813Y-118462624D01*
X213034286Y-118515715D01*
X213060832Y-118533451D01*
X213087377Y-118551188D01*
X213134195Y-118560501D01*
X213537660Y-118560501D01*
X213588440Y-118578983D01*
X213593510Y-118583629D01*
X213853768Y-118843887D01*
X213942162Y-118880501D01*
X213942163Y-118880501D01*
X213942164Y-118880501D01*
X215782838Y-118880501D01*
X215782840Y-118880501D01*
X215871234Y-118843887D01*
X216131481Y-118583639D01*
X216180457Y-118560802D01*
X216187342Y-118560501D01*
X216590807Y-118560501D01*
X216637625Y-118551188D01*
X216690715Y-118515715D01*
X216726188Y-118462625D01*
X216735501Y-118415807D01*
X216735501Y-117384195D01*
X216726188Y-117337377D01*
X216690715Y-117284286D01*
X216650985Y-117257741D01*
X216637625Y-117248814D01*
X216637624Y-117248813D01*
X216590807Y-117239501D01*
X215909195Y-117239501D01*
X215862377Y-117248813D01*
X215809286Y-117284286D01*
X215773813Y-117337377D01*
X215764501Y-117384195D01*
X215764501Y-118237660D01*
X215746019Y-118288440D01*
X215741362Y-118293521D01*
X215658521Y-118376362D01*
X215609545Y-118399200D01*
X215602660Y-118399501D01*
X215579001Y-118399501D01*
X215528221Y-118381019D01*
X215501201Y-118334219D01*
X215500001Y-118320501D01*
X215500001Y-117501777D01*
X215500000Y-117501777D01*
X214980862Y-118020916D01*
X214931886Y-118043754D01*
X214879688Y-118029768D01*
X214869140Y-118020916D01*
X214350001Y-117501777D01*
X214350001Y-118320501D01*
X214331519Y-118371281D01*
X214284719Y-118398301D01*
X214271001Y-118399501D01*
X214122342Y-118399501D01*
X214071562Y-118381019D01*
X214066481Y-118376362D01*
X213983640Y-118293521D01*
X213960802Y-118244545D01*
X213960501Y-118237660D01*
X213960501Y-117384195D01*
X213951188Y-117337377D01*
X213915715Y-117284286D01*
X213875985Y-117257741D01*
X213862625Y-117248814D01*
X213862624Y-117248813D01*
X213815807Y-117239501D01*
X213794501Y-117239501D01*
X213743721Y-117221019D01*
X213742583Y-117219048D01*
X214420826Y-117219048D01*
X214420826Y-117219050D01*
X214925000Y-117723224D01*
X214925002Y-117723224D01*
X215429174Y-117219050D01*
X215429174Y-117219048D01*
X215347547Y-117164506D01*
X215347546Y-117164505D01*
X215274625Y-117150001D01*
X214575377Y-117150001D01*
X214502456Y-117164505D01*
X214502455Y-117164506D01*
X214420826Y-117219048D01*
X213742583Y-117219048D01*
X213716701Y-117174219D01*
X213715501Y-117160501D01*
X213715501Y-116999999D01*
X219001778Y-116999999D01*
X219001779Y-117000000D01*
X219948225Y-117000000D01*
X219948225Y-116999999D01*
X219475003Y-116526777D01*
X219475001Y-116526777D01*
X219001778Y-116999999D01*
X213715501Y-116999999D01*
X213715501Y-115986161D01*
X213733983Y-115935381D01*
X213762369Y-115913991D01*
X213907621Y-115849321D01*
X214051133Y-115745054D01*
X214053956Y-115743003D01*
X214053956Y-115743002D01*
X214053960Y-115743000D01*
X214174995Y-115608576D01*
X214265437Y-115451926D01*
X214321333Y-115279895D01*
X214339598Y-115106118D01*
X214340241Y-115100002D01*
X214340241Y-115099999D01*
X214333373Y-115034658D01*
X214321333Y-114920107D01*
X214318808Y-114912337D01*
X214265439Y-114748083D01*
X214265437Y-114748076D01*
X214174995Y-114591426D01*
X214053960Y-114457002D01*
X214053957Y-114457000D01*
X214053956Y-114456998D01*
X213907626Y-114350684D01*
X213907623Y-114350682D01*
X213907621Y-114350681D01*
X213826357Y-114314500D01*
X213742378Y-114277110D01*
X213742373Y-114277108D01*
X213667905Y-114261280D01*
X213565443Y-114239501D01*
X213384559Y-114239501D01*
X213305392Y-114256328D01*
X213207628Y-114277108D01*
X213207623Y-114277110D01*
X213042385Y-114350679D01*
X213042375Y-114350684D01*
X212896045Y-114456998D01*
X212896042Y-114457002D01*
X212775006Y-114591426D01*
X212684565Y-114748076D01*
X212684562Y-114748083D01*
X212628671Y-114920097D01*
X212628669Y-114920106D01*
X212609761Y-115099999D01*
X212340241Y-115099999D01*
X212333373Y-115034658D01*
X212321333Y-114920107D01*
X212318808Y-114912337D01*
X212265439Y-114748083D01*
X212265437Y-114748076D01*
X212259732Y-114738194D01*
X212250347Y-114684976D01*
X212272283Y-114642835D01*
X212678887Y-114236233D01*
X212715501Y-114147839D01*
X212715501Y-114052162D01*
X212715501Y-113748290D01*
X212733983Y-113697510D01*
X212780783Y-113670490D01*
X212834001Y-113679874D01*
X212853207Y-113695426D01*
X212896042Y-113743000D01*
X212896043Y-113743001D01*
X212896045Y-113743003D01*
X213042375Y-113849317D01*
X213042381Y-113849321D01*
X213207627Y-113922893D01*
X213384559Y-113960501D01*
X213384563Y-113960501D01*
X213565439Y-113960501D01*
X213565443Y-113960501D01*
X213742375Y-113922893D01*
X213907621Y-113849321D01*
X214053960Y-113743000D01*
X214174995Y-113608576D01*
X214265437Y-113451926D01*
X214321333Y-113279895D01*
X214340241Y-113100001D01*
X214321333Y-112920107D01*
X214265437Y-112748076D01*
X214174995Y-112591426D01*
X214053960Y-112457002D01*
X214053957Y-112457000D01*
X214053956Y-112456998D01*
X213907626Y-112350684D01*
X213907623Y-112350682D01*
X213907621Y-112350681D01*
X213807906Y-112306285D01*
X213742378Y-112277110D01*
X213742373Y-112277108D01*
X213670998Y-112261937D01*
X213565443Y-112239501D01*
X213384559Y-112239501D01*
X213305392Y-112256328D01*
X213207628Y-112277108D01*
X213207623Y-112277110D01*
X213042385Y-112350679D01*
X213042375Y-112350684D01*
X212896045Y-112456998D01*
X212896041Y-112457003D01*
X212798273Y-112565585D01*
X212750559Y-112590954D01*
X212697701Y-112579719D01*
X212683704Y-112568584D01*
X212061234Y-111946114D01*
X212031768Y-111933909D01*
X211972839Y-111909500D01*
X211972838Y-111909500D01*
X211972837Y-111909500D01*
X211109888Y-111909500D01*
X211059108Y-111891018D01*
X211054027Y-111886361D01*
X208988784Y-109821116D01*
X208982310Y-109816790D01*
X208983665Y-109814761D01*
X208952254Y-109785979D01*
X208945199Y-109732403D01*
X208974234Y-109686826D01*
X209022327Y-109670500D01*
X210909424Y-109670500D01*
X210960204Y-109688982D01*
X210965285Y-109693639D01*
X212565673Y-111294027D01*
X212565678Y-111294033D01*
X212565679Y-111294033D01*
X212568435Y-111296789D01*
X212568437Y-111296792D01*
X212628109Y-111356464D01*
X212701192Y-111398659D01*
X212723034Y-111404511D01*
X212782707Y-111420501D01*
X212782708Y-111420501D01*
X212871932Y-111420501D01*
X212871948Y-111420500D01*
X215309523Y-111420500D01*
X215360303Y-111438982D01*
X215365384Y-111443639D01*
X216110064Y-112188319D01*
X216132902Y-112237295D01*
X216118916Y-112289493D01*
X216074650Y-112320488D01*
X216020816Y-112315778D01*
X216008748Y-112308183D01*
X216008577Y-112308441D01*
X216005353Y-112306287D01*
X215840306Y-112218067D01*
X215840303Y-112218065D01*
X215661240Y-112163747D01*
X215661237Y-112163746D01*
X215600001Y-112157715D01*
X215600001Y-112771148D01*
X215521079Y-112750001D01*
X215428923Y-112750001D01*
X215350001Y-112771148D01*
X215350001Y-112157715D01*
X215288764Y-112163746D01*
X215288761Y-112163747D01*
X215109698Y-112218065D01*
X215109695Y-112218067D01*
X214944652Y-112306285D01*
X214799998Y-112424998D01*
X214681285Y-112569652D01*
X214593067Y-112734695D01*
X214593065Y-112734698D01*
X214538747Y-112913761D01*
X214538746Y-112913764D01*
X214532716Y-112975001D01*
X215146148Y-112975001D01*
X215125001Y-113053923D01*
X215125001Y-113146079D01*
X215146148Y-113225001D01*
X214532716Y-113225001D01*
X214538746Y-113286237D01*
X214538747Y-113286240D01*
X214593065Y-113465303D01*
X214593067Y-113465306D01*
X214681285Y-113630349D01*
X214799998Y-113775003D01*
X214944652Y-113893716D01*
X215109695Y-113981934D01*
X215109699Y-113981936D01*
X215249692Y-114024403D01*
X215292920Y-114056830D01*
X215305191Y-114109458D01*
X215280763Y-114157660D01*
X215249692Y-114175599D01*
X215109699Y-114218065D01*
X215109695Y-114218067D01*
X214944652Y-114306285D01*
X214799998Y-114424998D01*
X214681285Y-114569652D01*
X214593067Y-114734695D01*
X214593065Y-114734698D01*
X214538747Y-114913761D01*
X214538746Y-114913764D01*
X214532716Y-114975001D01*
X215146148Y-114975001D01*
X215125001Y-115053923D01*
X215125001Y-115146079D01*
X215146148Y-115225001D01*
X214532716Y-115225001D01*
X214538746Y-115286237D01*
X214538747Y-115286240D01*
X214593065Y-115465303D01*
X214593067Y-115465306D01*
X214681285Y-115630349D01*
X214799998Y-115775003D01*
X214944652Y-115893716D01*
X215109695Y-115981934D01*
X215109701Y-115981937D01*
X215288759Y-116036253D01*
X215288766Y-116036255D01*
X215350000Y-116042285D01*
X215350001Y-116042285D01*
X215350001Y-115428853D01*
X215428923Y-115450001D01*
X215521079Y-115450001D01*
X215600001Y-115428853D01*
X215600001Y-116042285D01*
X215661235Y-116036255D01*
X215661242Y-116036253D01*
X215840300Y-115981937D01*
X215840306Y-115981934D01*
X216005349Y-115893716D01*
X216150003Y-115775003D01*
X216268716Y-115630349D01*
X216356934Y-115465306D01*
X216356936Y-115465303D01*
X216411254Y-115286240D01*
X216411255Y-115286237D01*
X216417286Y-115225001D01*
X215803854Y-115225001D01*
X215825001Y-115146079D01*
X215825001Y-115099999D01*
X216609761Y-115099999D01*
X216609761Y-115100002D01*
X216628669Y-115279895D01*
X216628671Y-115279904D01*
X216684562Y-115451918D01*
X216684565Y-115451926D01*
X216736781Y-115542367D01*
X216749928Y-115565139D01*
X216775007Y-115608576D01*
X216896042Y-115743000D01*
X216896043Y-115743001D01*
X216896045Y-115743003D01*
X217042375Y-115849317D01*
X217042381Y-115849321D01*
X217207627Y-115922893D01*
X217384559Y-115960501D01*
X217384563Y-115960501D01*
X217565439Y-115960501D01*
X217565443Y-115960501D01*
X217730693Y-115925376D01*
X218525002Y-115925376D01*
X218525002Y-116774623D01*
X218539506Y-116847545D01*
X218539507Y-116847546D01*
X218594760Y-116930238D01*
X218594761Y-116930239D01*
X218668628Y-116979595D01*
X218668630Y-116979595D01*
X219298225Y-116350001D01*
X219298225Y-116349998D01*
X218668630Y-115720403D01*
X218668628Y-115720403D01*
X218594764Y-115769758D01*
X218539506Y-115852455D01*
X218525002Y-115925376D01*
X217730693Y-115925376D01*
X217742375Y-115922893D01*
X217907621Y-115849321D01*
X218051133Y-115745054D01*
X218053956Y-115743003D01*
X218053956Y-115743002D01*
X218053960Y-115743000D01*
X218174995Y-115608576D01*
X218265437Y-115451926D01*
X218269284Y-115440087D01*
X218302554Y-115397504D01*
X218344417Y-115385500D01*
X218664936Y-115385500D01*
X218708822Y-115398811D01*
X218712378Y-115401187D01*
X218759196Y-115410500D01*
X219947144Y-115410500D01*
X219997924Y-115428982D01*
X220003005Y-115433639D01*
X220134505Y-115565139D01*
X220157343Y-115614115D01*
X220143357Y-115666313D01*
X220099091Y-115697308D01*
X220078644Y-115700000D01*
X219001778Y-115700000D01*
X219475002Y-116173223D01*
X219475003Y-116173223D01*
X220281373Y-116979595D01*
X220281374Y-116979595D01*
X220355242Y-116930239D01*
X220410496Y-116847546D01*
X220410497Y-116847545D01*
X220425002Y-116774623D01*
X220425002Y-116046358D01*
X220443484Y-115995578D01*
X220490284Y-115968558D01*
X220543502Y-115977942D01*
X220559863Y-115990497D01*
X221091262Y-116521896D01*
X221114100Y-116570872D01*
X221114401Y-116577757D01*
X221114401Y-117204043D01*
X221142375Y-117308446D01*
X221142376Y-117308448D01*
X221196420Y-117402055D01*
X221891363Y-118096997D01*
X221914201Y-118145973D01*
X221914502Y-118152858D01*
X221914502Y-118215805D01*
X221923814Y-118262623D01*
X221959287Y-118315714D01*
X221964852Y-118319432D01*
X222012378Y-118351187D01*
X222059196Y-118360500D01*
X224790808Y-118360500D01*
X224837626Y-118351187D01*
X224890716Y-118315714D01*
X224926189Y-118262624D01*
X224935502Y-118215806D01*
X224935502Y-117484194D01*
X224926189Y-117437376D01*
X224902589Y-117402055D01*
X224890716Y-117384285D01*
X224841180Y-117351188D01*
X224837626Y-117348813D01*
X224837625Y-117348812D01*
X224790808Y-117339500D01*
X222327658Y-117339500D01*
X222276878Y-117321018D01*
X222271797Y-117316361D01*
X221958540Y-117003104D01*
X221935702Y-116954128D01*
X221935401Y-116947243D01*
X221935401Y-116932137D01*
X221953883Y-116881357D01*
X222000683Y-116854337D01*
X222029812Y-116854654D01*
X222059196Y-116860500D01*
X222059197Y-116860500D01*
X224790808Y-116860500D01*
X224837626Y-116851187D01*
X224890716Y-116815714D01*
X224926189Y-116762624D01*
X224926189Y-116762623D01*
X224930511Y-116756155D01*
X224933306Y-116758022D01*
X224960292Y-116728560D01*
X225013867Y-116721495D01*
X225052646Y-116742765D01*
X225086362Y-116776481D01*
X225109200Y-116825457D01*
X225109501Y-116832342D01*
X225109501Y-118367660D01*
X225091019Y-118418440D01*
X225086362Y-118423521D01*
X224973521Y-118536362D01*
X224924545Y-118559200D01*
X224917660Y-118559501D01*
X221582342Y-118559501D01*
X221531562Y-118541019D01*
X221526481Y-118536362D01*
X220686237Y-117696117D01*
X220686235Y-117696115D01*
X220656769Y-117683910D01*
X220597840Y-117659501D01*
X220597839Y-117659501D01*
X220597838Y-117659501D01*
X218264501Y-117659501D01*
X218213721Y-117641019D01*
X218186701Y-117594219D01*
X218185501Y-117580501D01*
X218185501Y-117384195D01*
X218176188Y-117337377D01*
X218140715Y-117284286D01*
X218100985Y-117257741D01*
X218087625Y-117248814D01*
X218087624Y-117248813D01*
X218040807Y-117239501D01*
X217359195Y-117239501D01*
X217312377Y-117248813D01*
X217259286Y-117284286D01*
X217223813Y-117337377D01*
X217214501Y-117384195D01*
X217214501Y-118415806D01*
X217223813Y-118462624D01*
X217259286Y-118515715D01*
X217285832Y-118533451D01*
X217312377Y-118551188D01*
X217359195Y-118560501D01*
X218040807Y-118560501D01*
X218087625Y-118551188D01*
X218140715Y-118515715D01*
X218176188Y-118462625D01*
X218185501Y-118415807D01*
X218185501Y-118219501D01*
X218203983Y-118168721D01*
X218250783Y-118141701D01*
X218264501Y-118140501D01*
X220417660Y-118140501D01*
X220468440Y-118158983D01*
X220473521Y-118163640D01*
X221313764Y-119003884D01*
X221313766Y-119003886D01*
X221313767Y-119003886D01*
X221313768Y-119003887D01*
X221402162Y-119040501D01*
X221402163Y-119040501D01*
X221402164Y-119040501D01*
X225097838Y-119040501D01*
X225097840Y-119040501D01*
X225186234Y-119003887D01*
X225190121Y-119000000D01*
X226501778Y-119000000D01*
X227125001Y-119623223D01*
X227125003Y-119623223D01*
X227748226Y-119000000D01*
X226501778Y-119000000D01*
X225190121Y-119000000D01*
X225553887Y-118636234D01*
X225590501Y-118547840D01*
X225590501Y-118452162D01*
X225590501Y-116652163D01*
X225580101Y-116627053D01*
X225568295Y-116598551D01*
X225553889Y-116563771D01*
X225553884Y-116563764D01*
X225136234Y-116146114D01*
X225106768Y-116133909D01*
X225047839Y-116109500D01*
X225047838Y-116109500D01*
X225047837Y-116109500D01*
X225014502Y-116109500D01*
X224963722Y-116091018D01*
X224936702Y-116044218D01*
X224935502Y-116030500D01*
X224935502Y-115984194D01*
X224926189Y-115937376D01*
X224890716Y-115884285D01*
X224849183Y-115856535D01*
X224837626Y-115848813D01*
X224837625Y-115848812D01*
X224790808Y-115839500D01*
X222059196Y-115839500D01*
X222012378Y-115848812D01*
X221959287Y-115884285D01*
X221923814Y-115937376D01*
X221914502Y-115984194D01*
X221914502Y-115993343D01*
X221896020Y-116044123D01*
X221849220Y-116071143D01*
X221796002Y-116061759D01*
X221779651Y-116049215D01*
X221776954Y-116046518D01*
X220358641Y-114628205D01*
X220335803Y-114579229D01*
X220335502Y-114572344D01*
X220335502Y-114475376D01*
X221825002Y-114475376D01*
X221825002Y-115224623D01*
X221839506Y-115297545D01*
X221839507Y-115297546D01*
X221894761Y-115380240D01*
X221977455Y-115435494D01*
X221977456Y-115435495D01*
X222050378Y-115450000D01*
X222648224Y-115450000D01*
X222648226Y-115449999D01*
X223001778Y-115449999D01*
X223001779Y-115450000D01*
X223848225Y-115450000D01*
X223848225Y-115449999D01*
X223425003Y-115026777D01*
X223425001Y-115026777D01*
X223001778Y-115449999D01*
X222648226Y-115449999D01*
X222648227Y-115449998D01*
X223248225Y-114850001D01*
X223248225Y-114849999D01*
X223601779Y-114849999D01*
X223601779Y-114850001D01*
X224201776Y-115449998D01*
X224201780Y-115450000D01*
X224799626Y-115450000D01*
X224872547Y-115435495D01*
X224872548Y-115435494D01*
X224955242Y-115380240D01*
X225010496Y-115297546D01*
X225010497Y-115297545D01*
X225025002Y-115224623D01*
X225025002Y-114475376D01*
X225010497Y-114402454D01*
X225010496Y-114402453D01*
X224955242Y-114319759D01*
X224872548Y-114264505D01*
X224872547Y-114264504D01*
X224799626Y-114250000D01*
X224201780Y-114250000D01*
X224201776Y-114250001D01*
X223601779Y-114849999D01*
X223248225Y-114849999D01*
X222648227Y-114250001D01*
X222648224Y-114250000D01*
X223001778Y-114250000D01*
X223425001Y-114673223D01*
X223425003Y-114673223D01*
X223848226Y-114250000D01*
X223001778Y-114250000D01*
X222648224Y-114250000D01*
X222050378Y-114250000D01*
X221977456Y-114264504D01*
X221977455Y-114264505D01*
X221894761Y-114319759D01*
X221839507Y-114402453D01*
X221839506Y-114402454D01*
X221825002Y-114475376D01*
X220335502Y-114475376D01*
X220335502Y-114434194D01*
X220326189Y-114387376D01*
X220290716Y-114334285D01*
X220241180Y-114301188D01*
X220237626Y-114298813D01*
X220237625Y-114298812D01*
X220190808Y-114289500D01*
X219964502Y-114289500D01*
X219913722Y-114271018D01*
X219886702Y-114224218D01*
X219885502Y-114210500D01*
X219885502Y-113689499D01*
X219903984Y-113638719D01*
X219950784Y-113611699D01*
X219964502Y-113610499D01*
X219990808Y-113610499D01*
X220037626Y-113601186D01*
X220090716Y-113565713D01*
X220126189Y-113512623D01*
X220135502Y-113465805D01*
X220135502Y-113349997D01*
X221019510Y-113349997D01*
X221019510Y-113350002D01*
X221039355Y-113475302D01*
X221039356Y-113475306D01*
X221096950Y-113588340D01*
X221096952Y-113588343D01*
X221186658Y-113678049D01*
X221186661Y-113678051D01*
X221299695Y-113735645D01*
X221299697Y-113735645D01*
X221299698Y-113735646D01*
X221341466Y-113742261D01*
X221425000Y-113755492D01*
X221425002Y-113755492D01*
X221425004Y-113755492D01*
X221503874Y-113743000D01*
X221550306Y-113735646D01*
X221663344Y-113678050D01*
X221727755Y-113613638D01*
X221776730Y-113590801D01*
X221783616Y-113590500D01*
X221835502Y-113590500D01*
X221886282Y-113608982D01*
X221913302Y-113655782D01*
X221914502Y-113669500D01*
X221914502Y-113715806D01*
X221916354Y-113725118D01*
X221923814Y-113762623D01*
X221959287Y-113815714D01*
X221985833Y-113833450D01*
X222012378Y-113851187D01*
X222059196Y-113860500D01*
X224790808Y-113860500D01*
X224837626Y-113851187D01*
X224890716Y-113815714D01*
X224926189Y-113762624D01*
X224935502Y-113715806D01*
X224935502Y-112984194D01*
X224926189Y-112937376D01*
X224890716Y-112884285D01*
X224850986Y-112857740D01*
X224837626Y-112848813D01*
X224837625Y-112848812D01*
X224790808Y-112839500D01*
X222059196Y-112839500D01*
X222012378Y-112848812D01*
X221959287Y-112884285D01*
X221923814Y-112937376D01*
X221914502Y-112984194D01*
X221914502Y-113030500D01*
X221896020Y-113081280D01*
X221849220Y-113108300D01*
X221835502Y-113109500D01*
X221783616Y-113109500D01*
X221732836Y-113091018D01*
X221727765Y-113086371D01*
X221663344Y-113021950D01*
X221663341Y-113021948D01*
X221663342Y-113021948D01*
X221550308Y-112964354D01*
X221550304Y-112964353D01*
X221425004Y-112944508D01*
X221425000Y-112944508D01*
X221299699Y-112964353D01*
X221299695Y-112964354D01*
X221186661Y-113021948D01*
X221186658Y-113021950D01*
X221096952Y-113111656D01*
X221096950Y-113111659D01*
X221039356Y-113224693D01*
X221039355Y-113224697D01*
X221019510Y-113349997D01*
X220135502Y-113349997D01*
X220135502Y-112784193D01*
X220126189Y-112737375D01*
X220097537Y-112694493D01*
X220090716Y-112684284D01*
X220042641Y-112652163D01*
X220037626Y-112648812D01*
X220037625Y-112648811D01*
X219990808Y-112639499D01*
X218959196Y-112639499D01*
X218912378Y-112648811D01*
X218859287Y-112684284D01*
X218823814Y-112737375D01*
X218814502Y-112784193D01*
X218814502Y-113465804D01*
X218823814Y-113512622D01*
X218859287Y-113565713D01*
X218885833Y-113583449D01*
X218912378Y-113601186D01*
X218959196Y-113610499D01*
X218985502Y-113610499D01*
X219036282Y-113628981D01*
X219063302Y-113675781D01*
X219064502Y-113689499D01*
X219064502Y-114210500D01*
X219046020Y-114261280D01*
X218999220Y-114288300D01*
X218985502Y-114289500D01*
X218759196Y-114289500D01*
X218712379Y-114298812D01*
X218712378Y-114298813D01*
X218708822Y-114301188D01*
X218664936Y-114314500D01*
X217843149Y-114314500D01*
X217811017Y-114307670D01*
X217742378Y-114277110D01*
X217742373Y-114277108D01*
X217667905Y-114261280D01*
X217565443Y-114239501D01*
X217384559Y-114239501D01*
X217305392Y-114256328D01*
X217207628Y-114277108D01*
X217207623Y-114277110D01*
X217042385Y-114350679D01*
X217042375Y-114350684D01*
X216896045Y-114456998D01*
X216896042Y-114457002D01*
X216775006Y-114591426D01*
X216684565Y-114748076D01*
X216684562Y-114748083D01*
X216628671Y-114920097D01*
X216628669Y-114920106D01*
X216609761Y-115099999D01*
X215825001Y-115099999D01*
X215825001Y-115053923D01*
X215803854Y-114975001D01*
X216417286Y-114975001D01*
X216411255Y-114913764D01*
X216411254Y-114913761D01*
X216356936Y-114734698D01*
X216356934Y-114734695D01*
X216268716Y-114569652D01*
X216150003Y-114424998D01*
X216005349Y-114306285D01*
X215840306Y-114218067D01*
X215840303Y-114218065D01*
X215700309Y-114175599D01*
X215657081Y-114143172D01*
X215644810Y-114090544D01*
X215669238Y-114042342D01*
X215700309Y-114024403D01*
X215840303Y-113981936D01*
X215840306Y-113981934D01*
X216005349Y-113893716D01*
X216150003Y-113775003D01*
X216268716Y-113630349D01*
X216356934Y-113465306D01*
X216356936Y-113465303D01*
X216411254Y-113286240D01*
X216411255Y-113286237D01*
X216417286Y-113225001D01*
X215803854Y-113225001D01*
X215825001Y-113146079D01*
X215825001Y-113053923D01*
X215803854Y-112975001D01*
X216417286Y-112975001D01*
X216411255Y-112913764D01*
X216411254Y-112913761D01*
X216356936Y-112734698D01*
X216356934Y-112734695D01*
X216268714Y-112569648D01*
X216266561Y-112566425D01*
X216267867Y-112565552D01*
X216251826Y-112519937D01*
X216270861Y-112469361D01*
X216317952Y-112442853D01*
X216371064Y-112452817D01*
X216386682Y-112464937D01*
X216646716Y-112724971D01*
X216669554Y-112773947D01*
X216665989Y-112805244D01*
X216628669Y-112920106D01*
X216609761Y-113099999D01*
X216609761Y-113100002D01*
X216628669Y-113279895D01*
X216628671Y-113279904D01*
X216684562Y-113451918D01*
X216684565Y-113451926D01*
X216720579Y-113514304D01*
X216775006Y-113608575D01*
X216776738Y-113610499D01*
X216896042Y-113743000D01*
X216896043Y-113743001D01*
X216896045Y-113743003D01*
X217042375Y-113849317D01*
X217042381Y-113849321D01*
X217207627Y-113922893D01*
X217384559Y-113960501D01*
X217384563Y-113960501D01*
X217565439Y-113960501D01*
X217565443Y-113960501D01*
X217742375Y-113922893D01*
X217907621Y-113849321D01*
X218053960Y-113743000D01*
X218174995Y-113608576D01*
X218265437Y-113451926D01*
X218321333Y-113279895D01*
X218340241Y-113100001D01*
X218321333Y-112920107D01*
X218265437Y-112748076D01*
X218174995Y-112591426D01*
X218053960Y-112457002D01*
X218053957Y-112457000D01*
X218053956Y-112456998D01*
X217907626Y-112350684D01*
X217907623Y-112350682D01*
X217907621Y-112350681D01*
X217807906Y-112306285D01*
X217742378Y-112277110D01*
X217742373Y-112277108D01*
X217670998Y-112261937D01*
X217565443Y-112239501D01*
X217384559Y-112239501D01*
X217291515Y-112259278D01*
X217207629Y-112277108D01*
X217207623Y-112277110D01*
X217186466Y-112286530D01*
X217132558Y-112290298D01*
X217098475Y-112270220D01*
X215735973Y-110907718D01*
X215735961Y-110907704D01*
X215671796Y-110843539D01*
X215671793Y-110843537D01*
X215671792Y-110843536D01*
X215598709Y-110801341D01*
X215598706Y-110801340D01*
X215517197Y-110779500D01*
X215517195Y-110779500D01*
X212990378Y-110779500D01*
X212939598Y-110761018D01*
X212934517Y-110756361D01*
X212404934Y-110226778D01*
X214125002Y-110226778D01*
X214125002Y-110274623D01*
X214139506Y-110347545D01*
X214139507Y-110347546D01*
X214194761Y-110430240D01*
X214277455Y-110485494D01*
X214277456Y-110485495D01*
X214350378Y-110500000D01*
X216199626Y-110500000D01*
X216219956Y-110495956D01*
X218464401Y-110495956D01*
X218464401Y-111154043D01*
X218492375Y-111258446D01*
X218492376Y-111258448D01*
X218514514Y-111296792D01*
X218546419Y-111352053D01*
X218669742Y-111475376D01*
X218791363Y-111596996D01*
X218814201Y-111645973D01*
X218814502Y-111652858D01*
X218814502Y-112015806D01*
X218823814Y-112062624D01*
X218859287Y-112115715D01*
X218885833Y-112133451D01*
X218912378Y-112151188D01*
X218959196Y-112160501D01*
X219990808Y-112160501D01*
X220037626Y-112151188D01*
X220090716Y-112115715D01*
X220126189Y-112062625D01*
X220135502Y-112015807D01*
X220135502Y-111475376D01*
X221825002Y-111475376D01*
X221825002Y-112224623D01*
X221839506Y-112297545D01*
X221839507Y-112297546D01*
X221894761Y-112380240D01*
X221977455Y-112435494D01*
X221977456Y-112435495D01*
X222050378Y-112450000D01*
X222648224Y-112450000D01*
X222648226Y-112449999D01*
X223001778Y-112449999D01*
X223001779Y-112450000D01*
X223848225Y-112450000D01*
X223848225Y-112449999D01*
X223425003Y-112026777D01*
X223425001Y-112026777D01*
X223001778Y-112449999D01*
X222648226Y-112449999D01*
X222648227Y-112449998D01*
X223248225Y-111850001D01*
X223248225Y-111849999D01*
X223601779Y-111849999D01*
X223601779Y-111850001D01*
X224201776Y-112449998D01*
X224201780Y-112450000D01*
X224799626Y-112450000D01*
X224872547Y-112435495D01*
X224872548Y-112435494D01*
X224955242Y-112380240D01*
X225010496Y-112297546D01*
X225010497Y-112297545D01*
X225025002Y-112224623D01*
X225025002Y-111475376D01*
X225010497Y-111402454D01*
X225010496Y-111402453D01*
X224955242Y-111319759D01*
X224872548Y-111264505D01*
X224872547Y-111264504D01*
X224799626Y-111250000D01*
X224201780Y-111250000D01*
X224201776Y-111250001D01*
X223601779Y-111849999D01*
X223248225Y-111849999D01*
X222648227Y-111250001D01*
X222648224Y-111250000D01*
X223001778Y-111250000D01*
X223425001Y-111673223D01*
X223425003Y-111673223D01*
X223848226Y-111250000D01*
X223001778Y-111250000D01*
X222648224Y-111250000D01*
X222050378Y-111250000D01*
X221977456Y-111264504D01*
X221977455Y-111264505D01*
X221894761Y-111319759D01*
X221839507Y-111402453D01*
X221839506Y-111402454D01*
X221825002Y-111475376D01*
X220135502Y-111475376D01*
X220135502Y-111334195D01*
X220126189Y-111287377D01*
X220106859Y-111258447D01*
X220090716Y-111234286D01*
X220050986Y-111207741D01*
X220037626Y-111198814D01*
X220037625Y-111198813D01*
X219990808Y-111189501D01*
X219577659Y-111189501D01*
X219526879Y-111171019D01*
X219521797Y-111166362D01*
X219308539Y-110953103D01*
X219285702Y-110904127D01*
X219285401Y-110897242D01*
X219285401Y-110752757D01*
X219303883Y-110701977D01*
X219308540Y-110696896D01*
X219571797Y-110433639D01*
X219620773Y-110410801D01*
X219627658Y-110410500D01*
X220722144Y-110410500D01*
X220772924Y-110428982D01*
X220777994Y-110433628D01*
X221022848Y-110678482D01*
X221063543Y-110701977D01*
X221094820Y-110720035D01*
X221116454Y-110732525D01*
X221220858Y-110760500D01*
X221328945Y-110760500D01*
X221880169Y-110760500D01*
X221930949Y-110778982D01*
X221945855Y-110795610D01*
X221959288Y-110815714D01*
X222012378Y-110851187D01*
X222059196Y-110860500D01*
X224790808Y-110860500D01*
X224837626Y-110851187D01*
X224890716Y-110815714D01*
X224926189Y-110762624D01*
X224935502Y-110715806D01*
X224935502Y-109984194D01*
X224926189Y-109937376D01*
X224915259Y-109921018D01*
X224890716Y-109884285D01*
X224844199Y-109853205D01*
X224837626Y-109848813D01*
X224837625Y-109848812D01*
X224790808Y-109839500D01*
X222059196Y-109839500D01*
X222012378Y-109848812D01*
X221959288Y-109884285D01*
X221945856Y-109904389D01*
X221902277Y-109936344D01*
X221880169Y-109939500D01*
X221477658Y-109939500D01*
X221426878Y-109921018D01*
X221421797Y-109916361D01*
X221358641Y-109853205D01*
X221335803Y-109804229D01*
X221335502Y-109797344D01*
X221335502Y-109199999D01*
X226501778Y-109199999D01*
X226501779Y-109200000D01*
X227748225Y-109200000D01*
X227748225Y-109199999D01*
X227125003Y-108576777D01*
X227125001Y-108576777D01*
X226501778Y-109199999D01*
X221335502Y-109199999D01*
X221335502Y-107825376D01*
X225925002Y-107825376D01*
X225925002Y-108974623D01*
X225939506Y-109047545D01*
X225939507Y-109047546D01*
X225994761Y-109130240D01*
X226077456Y-109185494D01*
X226077458Y-109185495D01*
X226148584Y-109199641D01*
X226948225Y-108400001D01*
X226948225Y-108399998D01*
X227301778Y-108399998D01*
X227301778Y-108400001D01*
X228101419Y-109199642D01*
X228172545Y-109185495D01*
X228172547Y-109185494D01*
X228255242Y-109130240D01*
X228310496Y-109047546D01*
X228310497Y-109047545D01*
X228325002Y-108974623D01*
X228325002Y-107825376D01*
X228310497Y-107752454D01*
X228310496Y-107752453D01*
X228255242Y-107669759D01*
X228172548Y-107614505D01*
X228101419Y-107600356D01*
X227301778Y-108399998D01*
X226948225Y-108399998D01*
X226148583Y-107600356D01*
X226077456Y-107614505D01*
X226077455Y-107614505D01*
X225994761Y-107669759D01*
X225939507Y-107752453D01*
X225939506Y-107752454D01*
X225925002Y-107825376D01*
X221335502Y-107825376D01*
X221335502Y-107600000D01*
X226501778Y-107600000D01*
X227125001Y-108223223D01*
X227125003Y-108223223D01*
X227748226Y-107600000D01*
X226501778Y-107600000D01*
X221335502Y-107600000D01*
X221335502Y-107534194D01*
X221326189Y-107487376D01*
X221290716Y-107434285D01*
X221250986Y-107407740D01*
X221237626Y-107398813D01*
X221237625Y-107398812D01*
X221190808Y-107389500D01*
X219359196Y-107389500D01*
X219312378Y-107398812D01*
X219259287Y-107434285D01*
X219223814Y-107487376D01*
X219214502Y-107534194D01*
X219214502Y-109597142D01*
X219196020Y-109647922D01*
X219191363Y-109653003D01*
X218622848Y-110221518D01*
X218599316Y-110245050D01*
X218546419Y-110297946D01*
X218492376Y-110391551D01*
X218492375Y-110391553D01*
X218464401Y-110495956D01*
X216219956Y-110495956D01*
X216272547Y-110485495D01*
X216272548Y-110485494D01*
X216355242Y-110430240D01*
X216410496Y-110347546D01*
X216410497Y-110347545D01*
X216425002Y-110274623D01*
X216425002Y-110226778D01*
X216425000Y-110226774D01*
X215275003Y-109076777D01*
X215275001Y-109076777D01*
X214125003Y-110226774D01*
X214125002Y-110226778D01*
X212404934Y-110226778D01*
X212051379Y-109873223D01*
X214125002Y-109873223D01*
X215098225Y-108900001D01*
X215098225Y-108899999D01*
X215451779Y-108899999D01*
X215451779Y-108900001D01*
X216425001Y-109873223D01*
X216425002Y-109873223D01*
X216425002Y-107926776D01*
X216425001Y-107926776D01*
X215451779Y-108899999D01*
X215098225Y-108899999D01*
X214125002Y-107926776D01*
X214125002Y-109873223D01*
X212051379Y-109873223D01*
X211335874Y-109157718D01*
X211335862Y-109157704D01*
X211271697Y-109093539D01*
X211271694Y-109093537D01*
X211271693Y-109093536D01*
X211198610Y-109051341D01*
X211198607Y-109051340D01*
X211117098Y-109029500D01*
X211117096Y-109029500D01*
X207372130Y-109029500D01*
X207336265Y-109020889D01*
X207225310Y-108964354D01*
X207225306Y-108964353D01*
X207100006Y-108944508D01*
X207100002Y-108944508D01*
X206974701Y-108964353D01*
X206974697Y-108964354D01*
X206863743Y-109020889D01*
X206827878Y-109029500D01*
X206814500Y-109029500D01*
X206763720Y-109011018D01*
X206736700Y-108964218D01*
X206735500Y-108950500D01*
X206735500Y-108934194D01*
X206726187Y-108887376D01*
X206690714Y-108834285D01*
X206650984Y-108807740D01*
X206637624Y-108798813D01*
X206637623Y-108798812D01*
X206590806Y-108789500D01*
X205159194Y-108789500D01*
X205112376Y-108798812D01*
X205059285Y-108834285D01*
X205023812Y-108887376D01*
X205014500Y-108934194D01*
X205014500Y-108960499D01*
X204996018Y-109011279D01*
X204949218Y-109038299D01*
X204935500Y-109039499D01*
X204611335Y-109039499D01*
X204560555Y-109021017D01*
X204533853Y-108975912D01*
X204526187Y-108937375D01*
X204490714Y-108884284D01*
X204450984Y-108857739D01*
X204437624Y-108848812D01*
X204437623Y-108848811D01*
X204390806Y-108839499D01*
X203600880Y-108839499D01*
X203550100Y-108821017D01*
X203545029Y-108816370D01*
X203500203Y-108771544D01*
X203435102Y-108733957D01*
X203435098Y-108733956D01*
X203362491Y-108714501D01*
X203362489Y-108714501D01*
X203154000Y-108714501D01*
X203103220Y-108696019D01*
X203076200Y-108649219D01*
X203075000Y-108635501D01*
X203075000Y-108499999D01*
X205401776Y-108499999D01*
X205401777Y-108500000D01*
X206348223Y-108500000D01*
X206348223Y-108499999D01*
X205875001Y-108026777D01*
X205874999Y-108026777D01*
X205401776Y-108499999D01*
X203075000Y-108499999D01*
X203075000Y-108454612D01*
X203076679Y-108450000D01*
X203476776Y-108450000D01*
X203476777Y-108450001D01*
X204273223Y-108450001D01*
X204273223Y-108450000D01*
X203875001Y-108051778D01*
X203874999Y-108051778D01*
X203476776Y-108450000D01*
X203076679Y-108450000D01*
X203093482Y-108403832D01*
X203140282Y-108376812D01*
X203161744Y-108375993D01*
X203194048Y-108379175D01*
X203698223Y-107875001D01*
X203698223Y-107875000D01*
X203698222Y-107874999D01*
X204051777Y-107874999D01*
X204051777Y-107875002D01*
X204555950Y-108379175D01*
X204610495Y-108297545D01*
X204625000Y-108224624D01*
X204625000Y-107525377D01*
X204610495Y-107452456D01*
X204592400Y-107425376D01*
X204925000Y-107425376D01*
X204925000Y-108274623D01*
X204939504Y-108347545D01*
X204939505Y-108347546D01*
X204994758Y-108430238D01*
X204994759Y-108430239D01*
X205068626Y-108479595D01*
X205068628Y-108479595D01*
X205698223Y-107850001D01*
X205698223Y-107849998D01*
X206051776Y-107849998D01*
X206051776Y-107850001D01*
X206681370Y-108479595D01*
X206681372Y-108479595D01*
X206755240Y-108430239D01*
X206810494Y-108347546D01*
X206810495Y-108347545D01*
X206825000Y-108274623D01*
X206825000Y-107525376D01*
X214125002Y-107525376D01*
X214125002Y-107573221D01*
X214125003Y-107573225D01*
X215275001Y-108723223D01*
X215275003Y-108723223D01*
X216425000Y-107573225D01*
X216425002Y-107573221D01*
X216425002Y-107525376D01*
X216410497Y-107452454D01*
X216410496Y-107452453D01*
X216355242Y-107369759D01*
X216272548Y-107314505D01*
X216272547Y-107314504D01*
X216199626Y-107300000D01*
X214350378Y-107300000D01*
X214277456Y-107314504D01*
X214277455Y-107314505D01*
X214194761Y-107369759D01*
X214139507Y-107452453D01*
X214139506Y-107452454D01*
X214125002Y-107525376D01*
X206825000Y-107525376D01*
X206825000Y-107425376D01*
X206810495Y-107352454D01*
X206810494Y-107352453D01*
X206755240Y-107269760D01*
X206681372Y-107220403D01*
X206681370Y-107220403D01*
X206051776Y-107849998D01*
X205698223Y-107849998D01*
X205068628Y-107220403D01*
X205068626Y-107220403D01*
X204994762Y-107269758D01*
X204939504Y-107352455D01*
X204925000Y-107425376D01*
X204592400Y-107425376D01*
X204555950Y-107370826D01*
X204555949Y-107370826D01*
X204051777Y-107874999D01*
X203698222Y-107874999D01*
X203194049Y-107370826D01*
X203161743Y-107374008D01*
X203109396Y-107360591D01*
X203077919Y-107316666D01*
X203075633Y-107300001D01*
X203476776Y-107300001D01*
X203874999Y-107698224D01*
X203875001Y-107698224D01*
X204273224Y-107300001D01*
X203476776Y-107300001D01*
X203075633Y-107300001D01*
X203075000Y-107295388D01*
X203075000Y-107200000D01*
X205401776Y-107200000D01*
X205874999Y-107673223D01*
X205875001Y-107673223D01*
X206348224Y-107200000D01*
X205401776Y-107200000D01*
X203075000Y-107200000D01*
X203075000Y-106379500D01*
X203093482Y-106328720D01*
X203140282Y-106301700D01*
X203154000Y-106300500D01*
X226335020Y-106300500D01*
X226835019Y-106300500D01*
X226872512Y-106300500D01*
X226877281Y-106300643D01*
X227147314Y-106316978D01*
X227156768Y-106318126D01*
X227420510Y-106366458D01*
X227429763Y-106368738D01*
X227685759Y-106448510D01*
X227694667Y-106451888D01*
X227939180Y-106561935D01*
X227947609Y-106566359D01*
X228147765Y-106687358D01*
X228177074Y-106705076D01*
X228184925Y-106710495D01*
X228395996Y-106875858D01*
X228403136Y-106882185D01*
X228592719Y-107071768D01*
X228599045Y-107078908D01*
X228764401Y-107289968D01*
X228769819Y-107297817D01*
X228894665Y-107504338D01*
X228908535Y-107527281D01*
X228912968Y-107535728D01*
X229023008Y-107780227D01*
X229026391Y-107789147D01*
X229106159Y-108045132D01*
X229108442Y-108054395D01*
X229156772Y-108318124D01*
X229157922Y-108327594D01*
X229174258Y-108597650D01*
X229174402Y-108602420D01*
X229174402Y-119551849D01*
X229174302Y-119552866D01*
X229174302Y-119597609D01*
X229174158Y-119602379D01*
X229157824Y-119872404D01*
X229156674Y-119881874D01*
X229108344Y-120145604D01*
X229106061Y-120154867D01*
X229026293Y-120410852D01*
X229022910Y-120419772D01*
X228912870Y-120664271D01*
X228908437Y-120672718D01*
X228769726Y-120902174D01*
X228764307Y-120910025D01*
X228598944Y-121121096D01*
X228592617Y-121128236D01*
X228403038Y-121317815D01*
X228395898Y-121324142D01*
X228184827Y-121489505D01*
X228176976Y-121494924D01*
X227947520Y-121633636D01*
X227939073Y-121638069D01*
X227694574Y-121748109D01*
X227685654Y-121751492D01*
X227429669Y-121831260D01*
X227420406Y-121833543D01*
X227156677Y-121881874D01*
X227147207Y-121883024D01*
X226877216Y-121899356D01*
X226872446Y-121899500D01*
X193864164Y-121899500D01*
X193859394Y-121899356D01*
X193602595Y-121883822D01*
X193593125Y-121882672D01*
X193329395Y-121834342D01*
X193320132Y-121832059D01*
X193064148Y-121752291D01*
X193055228Y-121748908D01*
X192810729Y-121638868D01*
X192802282Y-121634435D01*
X192800960Y-121633636D01*
X192671676Y-121555481D01*
X192572826Y-121495724D01*
X192564975Y-121490305D01*
X192353904Y-121324942D01*
X192346764Y-121318615D01*
X192157185Y-121129036D01*
X192150858Y-121121896D01*
X191985495Y-120910825D01*
X191980076Y-120902974D01*
X191950211Y-120853572D01*
X191841359Y-120673509D01*
X191836936Y-120665080D01*
X191726888Y-120420566D01*
X191723508Y-120411652D01*
X191714952Y-120384196D01*
X191643738Y-120155663D01*
X191641457Y-120146405D01*
X191593126Y-119882667D01*
X191591978Y-119873213D01*
X191575644Y-119603180D01*
X191575548Y-119600000D01*
X191919519Y-119600000D01*
X191939423Y-119878294D01*
X191945956Y-119908324D01*
X191998730Y-120150923D01*
X192095976Y-120411652D01*
X192096232Y-120412337D01*
X192214477Y-120628886D01*
X192229946Y-120657214D01*
X192229950Y-120657220D01*
X192235827Y-120665071D01*
X192386026Y-120865714D01*
X192397144Y-120880565D01*
X192397154Y-120880577D01*
X192594423Y-121077846D01*
X192594429Y-121077851D01*
X192594433Y-121077855D01*
X192817788Y-121245056D01*
X193062664Y-121378769D01*
X193324078Y-121476271D01*
X193596707Y-121535578D01*
X193875001Y-121555482D01*
X194153295Y-121535578D01*
X194425924Y-121476271D01*
X194687338Y-121378769D01*
X194932214Y-121245056D01*
X195155569Y-121077855D01*
X195233424Y-121000000D01*
X197201776Y-121000000D01*
X197201777Y-121000001D01*
X198148223Y-121000001D01*
X198148223Y-121000000D01*
X197675001Y-120526778D01*
X197674999Y-120526778D01*
X197201776Y-121000000D01*
X195233424Y-121000000D01*
X195352856Y-120880568D01*
X195520057Y-120657213D01*
X195653770Y-120412337D01*
X195751272Y-120150923D01*
X195800337Y-119925377D01*
X196725000Y-119925377D01*
X196725000Y-120774624D01*
X196739504Y-120847546D01*
X196739505Y-120847547D01*
X196794758Y-120930239D01*
X196794759Y-120930240D01*
X196868626Y-120979596D01*
X196868628Y-120979596D01*
X197498223Y-120350002D01*
X197498223Y-120349999D01*
X196868628Y-119720404D01*
X196868626Y-119720404D01*
X196794762Y-119769759D01*
X196739504Y-119852456D01*
X196725000Y-119925377D01*
X195800337Y-119925377D01*
X195810579Y-119878294D01*
X195823331Y-119700001D01*
X197201776Y-119700001D01*
X197674999Y-120173224D01*
X197675001Y-120173224D01*
X198148224Y-119700001D01*
X197201776Y-119700001D01*
X195823331Y-119700001D01*
X195830483Y-119600000D01*
X195810579Y-119321706D01*
X195751272Y-119049077D01*
X195653770Y-118787663D01*
X195520057Y-118542787D01*
X195438766Y-118434195D01*
X196814500Y-118434195D01*
X196814500Y-119265806D01*
X196823812Y-119312624D01*
X196859285Y-119365715D01*
X196885831Y-119383451D01*
X196912376Y-119401188D01*
X196959194Y-119410501D01*
X198212659Y-119410501D01*
X198263439Y-119428983D01*
X198268520Y-119433640D01*
X198462466Y-119627586D01*
X198485304Y-119676562D01*
X198471318Y-119728760D01*
X198462467Y-119739308D01*
X197851776Y-120350000D01*
X197851776Y-120350002D01*
X198481370Y-120979596D01*
X198481372Y-120979596D01*
X198555240Y-120930240D01*
X198610494Y-120847547D01*
X198610495Y-120847546D01*
X198625000Y-120774624D01*
X198625000Y-119980841D01*
X198643482Y-119930061D01*
X198690282Y-119903041D01*
X198743500Y-119912425D01*
X198759860Y-119924979D01*
X198896114Y-120061233D01*
X198963768Y-120128887D01*
X199044963Y-120162519D01*
X199070588Y-120179641D01*
X199084827Y-120193880D01*
X199090033Y-120198865D01*
X199095118Y-120203526D01*
X199150333Y-120237036D01*
X199150335Y-120237036D01*
X199150339Y-120237039D01*
X199201119Y-120255521D01*
X199257722Y-120265501D01*
X199257726Y-120265501D01*
X199320997Y-120265501D01*
X199321000Y-120265501D01*
X199335422Y-120264871D01*
X199335428Y-120264870D01*
X199335438Y-120264870D01*
X199349135Y-120263672D01*
X199349138Y-120263671D01*
X199349140Y-120263671D01*
X199397197Y-120248519D01*
X199451184Y-120250875D01*
X199491027Y-120287383D01*
X199498435Y-120339273D01*
X199489500Y-120384195D01*
X199489500Y-120765807D01*
X199498812Y-120812625D01*
X199534285Y-120865716D01*
X199556509Y-120880565D01*
X199587376Y-120901189D01*
X199634194Y-120910502D01*
X200365806Y-120910502D01*
X200412624Y-120901189D01*
X200465714Y-120865716D01*
X200501187Y-120812626D01*
X200510500Y-120765808D01*
X200510500Y-120384196D01*
X200501187Y-120337378D01*
X200472129Y-120293890D01*
X200459286Y-120241400D01*
X200472128Y-120206114D01*
X200501187Y-120162625D01*
X200510500Y-120115807D01*
X200510500Y-119734195D01*
X200504765Y-119705366D01*
X200512985Y-119651958D01*
X200526392Y-119634088D01*
X200530240Y-119630240D01*
X200585494Y-119547547D01*
X200585495Y-119547546D01*
X200600000Y-119474624D01*
X200600000Y-119075377D01*
X200585495Y-119002455D01*
X200585494Y-119002454D01*
X200530238Y-118919758D01*
X200526386Y-118915906D01*
X200503548Y-118866930D01*
X200504764Y-118844638D01*
X200510500Y-118815806D01*
X200510500Y-118434194D01*
X200501187Y-118387376D01*
X200470289Y-118341134D01*
X200457447Y-118288645D01*
X200470365Y-118253246D01*
X200473294Y-118248876D01*
X200487038Y-118228383D01*
X200497368Y-118200000D01*
X201501776Y-118200000D01*
X201749999Y-118448223D01*
X201750001Y-118448223D01*
X201998224Y-118200000D01*
X201501776Y-118200000D01*
X200497368Y-118200000D01*
X200505520Y-118177603D01*
X200515500Y-118121000D01*
X200515500Y-117529001D01*
X200514870Y-117514579D01*
X200514869Y-117514562D01*
X200513671Y-117500865D01*
X200513670Y-117500862D01*
X200492329Y-117433173D01*
X200494610Y-117380950D01*
X201070824Y-117380950D01*
X201070824Y-117380951D01*
X201152455Y-117435496D01*
X201152453Y-117435496D01*
X201225375Y-117450001D01*
X201924623Y-117450001D01*
X201997543Y-117435496D01*
X202079173Y-117380951D01*
X201575000Y-116876778D01*
X201574998Y-116876778D01*
X201070824Y-117380950D01*
X200494610Y-117380950D01*
X200494687Y-117379185D01*
X200523782Y-117343733D01*
X200565715Y-117315715D01*
X200601188Y-117262625D01*
X200610501Y-117215807D01*
X200610501Y-116631273D01*
X200628983Y-116580493D01*
X200633640Y-116575412D01*
X200862785Y-116346267D01*
X200862789Y-116346261D01*
X200865150Y-116343900D01*
X200914130Y-116321073D01*
X200966325Y-116335071D01*
X200997311Y-116379344D01*
X200999999Y-116399774D01*
X200999999Y-117098224D01*
X201398223Y-116700000D01*
X201751776Y-116700000D01*
X201751776Y-116700002D01*
X202149998Y-117098224D01*
X202149999Y-117098224D01*
X202149999Y-116301777D01*
X202149998Y-116301777D01*
X201751776Y-116700000D01*
X201398223Y-116700000D01*
X201574999Y-116523224D01*
X202079172Y-116019050D01*
X202079172Y-116019048D01*
X201997545Y-115964506D01*
X201997544Y-115964505D01*
X201924623Y-115950001D01*
X201445980Y-115950001D01*
X201395200Y-115931519D01*
X201368180Y-115884719D01*
X201377564Y-115831501D01*
X201378444Y-115830014D01*
X201378524Y-115829883D01*
X201412038Y-115774661D01*
X201430520Y-115723881D01*
X201440500Y-115667278D01*
X201440500Y-115432723D01*
X201440342Y-115425495D01*
X201440041Y-115418610D01*
X201424693Y-115355894D01*
X201423610Y-115353572D01*
X201417118Y-115339651D01*
X201401855Y-115306918D01*
X201401852Y-115306915D01*
X201401852Y-115306913D01*
X201368891Y-115259840D01*
X201368882Y-115259830D01*
X201215197Y-115106145D01*
X201215159Y-115106109D01*
X201209964Y-115101134D01*
X201204883Y-115096477D01*
X201204881Y-115096475D01*
X201149666Y-115062965D01*
X201098882Y-115044481D01*
X201042282Y-115034501D01*
X201042278Y-115034501D01*
X200257722Y-115034501D01*
X200257720Y-115034501D01*
X200250514Y-115034658D01*
X200243608Y-115034960D01*
X200180891Y-115050308D01*
X200180888Y-115050309D01*
X200131912Y-115073148D01*
X200084839Y-115106109D01*
X200084829Y-115106118D01*
X199423413Y-115767534D01*
X199414849Y-115776777D01*
X199406981Y-115785947D01*
X199404604Y-115789403D01*
X199403679Y-115788766D01*
X199384070Y-115810748D01*
X199371159Y-115819789D01*
X199371155Y-115819792D01*
X199342136Y-115848812D01*
X199288925Y-115902023D01*
X199075447Y-116115501D01*
X198209751Y-116981198D01*
X197242849Y-117948098D01*
X197242816Y-117948133D01*
X197228576Y-117964371D01*
X197228563Y-117964386D01*
X197216007Y-117980748D01*
X197184321Y-118052759D01*
X197184319Y-118052765D01*
X197174935Y-118105985D01*
X197174935Y-118105986D01*
X197172555Y-118141380D01*
X197172555Y-118141382D01*
X197186210Y-118188521D01*
X197182585Y-118242439D01*
X197145151Y-118281412D01*
X197110329Y-118289501D01*
X196959194Y-118289501D01*
X196912376Y-118298813D01*
X196859285Y-118334286D01*
X196823812Y-118387377D01*
X196814500Y-118434195D01*
X195438766Y-118434195D01*
X195352856Y-118319432D01*
X195352852Y-118319428D01*
X195352847Y-118319422D01*
X195155578Y-118122153D01*
X195155572Y-118122148D01*
X195155569Y-118122145D01*
X194932214Y-117954944D01*
X194687338Y-117821231D01*
X194687335Y-117821230D01*
X194687336Y-117821230D01*
X194425924Y-117723729D01*
X194425925Y-117723729D01*
X194289609Y-117694075D01*
X194153295Y-117664422D01*
X193875001Y-117644518D01*
X193596707Y-117664422D01*
X193324077Y-117723729D01*
X193062665Y-117821230D01*
X192817786Y-117954945D01*
X192817780Y-117954949D01*
X192594435Y-118122143D01*
X192594423Y-118122153D01*
X192397154Y-118319422D01*
X192397144Y-118319434D01*
X192229950Y-118542779D01*
X192229946Y-118542785D01*
X192096231Y-118787664D01*
X191998730Y-119049076D01*
X191961305Y-119221115D01*
X191939423Y-119321706D01*
X191919519Y-119600000D01*
X191575548Y-119600000D01*
X191575500Y-119598410D01*
X191575500Y-114100000D01*
X195419519Y-114100000D01*
X195439423Y-114378294D01*
X195456544Y-114456998D01*
X195498730Y-114650923D01*
X195586071Y-114885096D01*
X195596232Y-114912337D01*
X195729945Y-115157213D01*
X195896900Y-115380240D01*
X195897144Y-115380565D01*
X195897154Y-115380577D01*
X196094423Y-115577846D01*
X196094429Y-115577851D01*
X196094433Y-115577855D01*
X196317788Y-115745056D01*
X196562664Y-115878769D01*
X196824078Y-115976271D01*
X197096707Y-116035578D01*
X197375001Y-116055482D01*
X197653295Y-116035578D01*
X197925924Y-115976271D01*
X198187338Y-115878769D01*
X198432214Y-115745056D01*
X198655569Y-115577855D01*
X198852856Y-115380568D01*
X199020057Y-115157213D01*
X199153770Y-114912337D01*
X199251272Y-114650923D01*
X199310579Y-114378294D01*
X199330483Y-114100000D01*
X199310579Y-113821706D01*
X199251272Y-113549077D01*
X199153770Y-113287663D01*
X199020057Y-113042787D01*
X198852856Y-112819432D01*
X198852852Y-112819428D01*
X198852847Y-112819422D01*
X198655578Y-112622153D01*
X198655572Y-112622148D01*
X198655569Y-112622145D01*
X198432214Y-112454944D01*
X198187338Y-112321231D01*
X198187335Y-112321230D01*
X198187336Y-112321230D01*
X197925924Y-112223729D01*
X197925925Y-112223729D01*
X197763147Y-112188319D01*
X197653295Y-112164422D01*
X197375001Y-112144518D01*
X197096707Y-112164422D01*
X196824077Y-112223729D01*
X196562665Y-112321230D01*
X196317786Y-112454945D01*
X196317780Y-112454949D01*
X196094435Y-112622143D01*
X196094423Y-112622153D01*
X195897154Y-112819422D01*
X195897144Y-112819434D01*
X195729950Y-113042779D01*
X195729946Y-113042785D01*
X195596231Y-113287664D01*
X195498730Y-113549076D01*
X195449583Y-113775003D01*
X195439423Y-113821706D01*
X195419519Y-114100000D01*
X191575500Y-114100000D01*
X191575500Y-108602389D01*
X191575572Y-108600000D01*
X191919518Y-108600000D01*
X191939422Y-108878294D01*
X191998729Y-109150923D01*
X192096231Y-109412337D01*
X192229944Y-109657213D01*
X192376661Y-109853205D01*
X192397143Y-109880565D01*
X192397153Y-109880577D01*
X192594422Y-110077846D01*
X192594428Y-110077851D01*
X192594432Y-110077855D01*
X192817787Y-110245056D01*
X193062663Y-110378769D01*
X193324077Y-110476271D01*
X193596706Y-110535578D01*
X193875000Y-110555482D01*
X194153294Y-110535578D01*
X194425923Y-110476271D01*
X194687337Y-110378769D01*
X194932213Y-110245056D01*
X195155568Y-110077855D01*
X195352855Y-109880568D01*
X195520056Y-109657213D01*
X195653769Y-109412337D01*
X195751271Y-109150923D01*
X195810578Y-108878294D01*
X195830482Y-108600000D01*
X195810578Y-108321706D01*
X195751271Y-108049077D01*
X195653769Y-107787663D01*
X195520056Y-107542787D01*
X195352855Y-107319432D01*
X195352851Y-107319428D01*
X195352846Y-107319422D01*
X195155577Y-107122153D01*
X195155571Y-107122148D01*
X195155568Y-107122145D01*
X194932213Y-106954944D01*
X194687337Y-106821231D01*
X194687334Y-106821230D01*
X194687335Y-106821230D01*
X194425923Y-106723729D01*
X194425924Y-106723729D01*
X194289608Y-106694075D01*
X194153294Y-106664422D01*
X193875000Y-106644518D01*
X193596706Y-106664422D01*
X193324076Y-106723729D01*
X193062664Y-106821230D01*
X192817785Y-106954945D01*
X192817779Y-106954949D01*
X192594434Y-107122143D01*
X192594422Y-107122153D01*
X192397153Y-107319422D01*
X192397143Y-107319434D01*
X192229949Y-107542779D01*
X192229945Y-107542785D01*
X192096230Y-107787664D01*
X192007046Y-108026777D01*
X191998729Y-108049077D01*
X191939422Y-108321706D01*
X191919518Y-108600000D01*
X191575572Y-108600000D01*
X191575644Y-108597619D01*
X191584573Y-108450000D01*
X191591978Y-108327584D01*
X191593125Y-108318134D01*
X191641459Y-108054386D01*
X191643737Y-108045140D01*
X191723512Y-107789136D01*
X191726886Y-107780238D01*
X191836939Y-107535712D01*
X191841355Y-107527297D01*
X191980080Y-107297819D01*
X191985490Y-107289979D01*
X192150866Y-107078893D01*
X192157181Y-107071768D01*
X192346771Y-106882177D01*
X192353893Y-106875866D01*
X192564979Y-106710490D01*
X192572819Y-106705080D01*
X192802297Y-106566355D01*
X192810712Y-106561939D01*
X193055238Y-106451886D01*
X193064136Y-106448512D01*
X193320140Y-106368737D01*
X193329386Y-106366459D01*
X193593134Y-106318125D01*
X193602584Y-106316978D01*
X193872619Y-106300643D01*
X193877389Y-106300500D01*
X194335118Y-106300500D01*
X198596000Y-106300500D01*
X198646780Y-106318982D01*
G37*
%TD.AperFunction*%
%TD*%
M02*
