%TF.GenerationSoftware,KiCad,Pcbnew,8.0.3*%
%TF.CreationDate,2024-07-01T09:22:26+07:00*%
%TF.ProjectId,WeatherStation,57656174-6865-4725-9374-6174696f6e2e,rev?*%
%TF.SameCoordinates,Original*%
%TF.FileFunction,Drillmap*%
%TF.FilePolarity,Positive*%
%FSLAX45Y45*%
G04 Gerber Fmt 4.5, Leading zero omitted, Abs format (unit mm)*
G04 Created by KiCad (PCBNEW 8.0.3) date 2024-07-01 09:22:26*
%MOMM*%
%LPD*%
G01*
G04 APERTURE LIST*
%ADD10C,0.100000*%
%ADD11C,0.010000*%
%ADD12C,0.200000*%
G04 APERTURE END LIST*
D10*
X19387500Y-12210000D02*
X22687480Y-12210000D01*
X22937490Y-11960000D02*
X22937490Y-10860000D01*
X22937480Y-11960000D02*
G75*
G02*
X22687480Y-12210000I-250000J0D01*
G01*
X19437500Y-10610000D02*
X19387500Y-10610000D01*
D11*
X19562500Y-11960000D02*
G75*
G02*
X19212500Y-11960000I-175000J0D01*
G01*
X19212500Y-11960000D02*
G75*
G02*
X19562500Y-11960000I175000J0D01*
G01*
D10*
X19137500Y-10860000D02*
G75*
G02*
X19387500Y-10610000I250000J0D01*
G01*
X22687490Y-10610000D02*
G75*
G02*
X22937490Y-10860000I0J-250000D01*
G01*
D11*
X19912500Y-11410000D02*
G75*
G02*
X19562500Y-11410000I-175000J0D01*
G01*
X19562500Y-11410000D02*
G75*
G02*
X19912500Y-11410000I175000J0D01*
G01*
D10*
X19387500Y-12210080D02*
G75*
G02*
X19137500Y-11960080I0J250000D01*
G01*
D11*
X19562500Y-10860000D02*
G75*
G02*
X19212500Y-10860000I-175000J0D01*
G01*
X19212500Y-10860000D02*
G75*
G02*
X19562500Y-10860000I175000J0D01*
G01*
D10*
X19137500Y-11960000D02*
X19137500Y-10860000D01*
X19437500Y-10610000D02*
X22637500Y-10610000D01*
X22687490Y-10610000D02*
X22637490Y-10610000D01*
D12*
D10*
X19372500Y-11120000D02*
X19402500Y-11150000D01*
X19402500Y-11120000D02*
X19372500Y-11150000D01*
X19372500Y-11370000D02*
X19402500Y-11400000D01*
X19402500Y-11370000D02*
X19372500Y-11400000D01*
X19372500Y-11670000D02*
X19402500Y-11700000D01*
X19402500Y-11670000D02*
X19372500Y-11700000D01*
X19722500Y-10870000D02*
X19752500Y-10900000D01*
X19752500Y-10870000D02*
X19722500Y-10900000D01*
X19722500Y-11120000D02*
X19752500Y-11150000D01*
X19752500Y-11120000D02*
X19722500Y-11150000D01*
X19722500Y-11670000D02*
X19752500Y-11700000D01*
X19752500Y-11670000D02*
X19722500Y-11700000D01*
X19972500Y-11120000D02*
X20002500Y-11150000D01*
X20002500Y-11120000D02*
X19972500Y-11150000D01*
X20072500Y-11795000D02*
X20102500Y-11825000D01*
X20102500Y-11795000D02*
X20072500Y-11825000D01*
X20072500Y-11945000D02*
X20102500Y-11975000D01*
X20102500Y-11945000D02*
X20072500Y-11975000D01*
X20072500Y-12085000D02*
X20102500Y-12115000D01*
X20102500Y-12085000D02*
X20072500Y-12115000D01*
X20080000Y-11535000D02*
X20110000Y-11565000D01*
X20110000Y-11535000D02*
X20080000Y-11565000D01*
X20222500Y-11120000D02*
X20252500Y-11150000D01*
X20252500Y-11120000D02*
X20222500Y-11150000D01*
X20422500Y-11370000D02*
X20452500Y-11400000D01*
X20452500Y-11370000D02*
X20422500Y-11400000D01*
X20422500Y-11670000D02*
X20452500Y-11700000D01*
X20452500Y-11670000D02*
X20422500Y-11700000D01*
X20530000Y-11977500D02*
X20560000Y-12007500D01*
X20560000Y-11977500D02*
X20530000Y-12007500D01*
X20650000Y-11977500D02*
X20680000Y-12007500D01*
X20680000Y-11977500D02*
X20650000Y-12007500D01*
X20695000Y-10920000D02*
X20725000Y-10950000D01*
X20725000Y-10920000D02*
X20695000Y-10950000D01*
X20722500Y-10770000D02*
X20752500Y-10800000D01*
X20752500Y-10770000D02*
X20722500Y-10800000D01*
X20722500Y-11120000D02*
X20752500Y-11150000D01*
X20752500Y-11120000D02*
X20722500Y-11150000D01*
X20722500Y-11370000D02*
X20752500Y-11400000D01*
X20752500Y-11370000D02*
X20722500Y-11400000D01*
X20722500Y-11670000D02*
X20752500Y-11700000D01*
X20752500Y-11670000D02*
X20722500Y-11700000D01*
X20760000Y-12042500D02*
X20790000Y-12072500D01*
X20790000Y-12042500D02*
X20760000Y-12072500D01*
X20972500Y-10770000D02*
X21002500Y-10800000D01*
X21002500Y-10770000D02*
X20972500Y-10800000D01*
X21010000Y-12042500D02*
X21040000Y-12072500D01*
X21040000Y-12042500D02*
X21010000Y-12072500D01*
X21022500Y-11020000D02*
X21052500Y-11050000D01*
X21052500Y-11020000D02*
X21022500Y-11050000D01*
X21072500Y-11670000D02*
X21102500Y-11700000D01*
X21102500Y-11670000D02*
X21072500Y-11700000D01*
X21222500Y-10770000D02*
X21252500Y-10800000D01*
X21252500Y-10770000D02*
X21222500Y-10800000D01*
X21260000Y-12042500D02*
X21290000Y-12072500D01*
X21290000Y-12042500D02*
X21260000Y-12072500D01*
X21372500Y-10775000D02*
X21402500Y-10805000D01*
X21402500Y-10775000D02*
X21372500Y-10805000D01*
X21372500Y-10875000D02*
X21402500Y-10905000D01*
X21402500Y-10875000D02*
X21372500Y-10905000D01*
X21372500Y-10975000D02*
X21402500Y-11005000D01*
X21402500Y-10975000D02*
X21372500Y-11005000D01*
X21510000Y-12042500D02*
X21540000Y-12072500D01*
X21540000Y-12042500D02*
X21510000Y-12072500D01*
X21652500Y-10775000D02*
X21682500Y-10805000D01*
X21682500Y-10775000D02*
X21652500Y-10805000D01*
X21652500Y-10875000D02*
X21682500Y-10905000D01*
X21682500Y-10875000D02*
X21652500Y-10905000D01*
X21652500Y-10975000D02*
X21682500Y-11005000D01*
X21682500Y-10975000D02*
X21652500Y-11005000D01*
X21760000Y-12042500D02*
X21790000Y-12072500D01*
X21790000Y-12042500D02*
X21760000Y-12072500D01*
X22010000Y-12042500D02*
X22040000Y-12072500D01*
X22040000Y-12042500D02*
X22010000Y-12072500D01*
X22022500Y-11720000D02*
X22052500Y-11750000D01*
X22052500Y-11720000D02*
X22022500Y-11750000D01*
X22127500Y-11320000D02*
X22157500Y-11350000D01*
X22157500Y-11320000D02*
X22127500Y-11350000D01*
X22222500Y-10770000D02*
X22252500Y-10800000D01*
X22252500Y-10770000D02*
X22222500Y-10800000D01*
X22260000Y-12042500D02*
X22290000Y-12072500D01*
X22290000Y-12042500D02*
X22260000Y-12072500D01*
X22472500Y-10770000D02*
X22502500Y-10800000D01*
X22502500Y-10770000D02*
X22472500Y-10800000D01*
X22510000Y-12042500D02*
X22540000Y-12072500D01*
X22540000Y-12042500D02*
X22510000Y-12072500D01*
X22797500Y-11065000D02*
X22827500Y-11095000D01*
X22827500Y-11065000D02*
X22797500Y-11095000D01*
X22797500Y-11315000D02*
X22827500Y-11345000D01*
X22827500Y-11315000D02*
X22797500Y-11345000D01*
X22797500Y-11565000D02*
X22827500Y-11595000D01*
X22827500Y-11565000D02*
X22797500Y-11595000D01*
X22797500Y-11815000D02*
X22827500Y-11845000D01*
X22827500Y-11815000D02*
X22797500Y-11845000D01*
X21182500Y-11310000D02*
G75*
G02*
X21112500Y-11310000I-35000J0D01*
G01*
X21112500Y-11310000D02*
G75*
G02*
X21182500Y-11310000I35000J0D01*
G01*
X21182500Y-11510000D02*
G75*
G02*
X21112500Y-11510000I-35000J0D01*
G01*
X21112500Y-11510000D02*
G75*
G02*
X21182500Y-11510000I35000J0D01*
G01*
X21382500Y-11310000D02*
G75*
G02*
X21312500Y-11310000I-35000J0D01*
G01*
X21312500Y-11310000D02*
G75*
G02*
X21382500Y-11310000I35000J0D01*
G01*
X21382500Y-11510000D02*
G75*
G02*
X21312500Y-11510000I-35000J0D01*
G01*
X21312500Y-11510000D02*
G75*
G02*
X21382500Y-11510000I35000J0D01*
G01*
X21582500Y-11310000D02*
G75*
G02*
X21512500Y-11310000I-35000J0D01*
G01*
X21512500Y-11310000D02*
G75*
G02*
X21582500Y-11310000I35000J0D01*
G01*
X21582500Y-11510000D02*
G75*
G02*
X21512500Y-11510000I-35000J0D01*
G01*
X21512500Y-11510000D02*
G75*
G02*
X21582500Y-11510000I35000J0D01*
G01*
X21782500Y-11310000D02*
G75*
G02*
X21712500Y-11310000I-35000J0D01*
G01*
X21712500Y-11310000D02*
G75*
G02*
X21782500Y-11310000I35000J0D01*
G01*
X21782500Y-11510000D02*
G75*
G02*
X21712500Y-11510000I-35000J0D01*
G01*
X21712500Y-11510000D02*
G75*
G02*
X21782500Y-11510000I35000J0D01*
G01*
D12*
X19393277Y-12526564D02*
X19393277Y-12326564D01*
X19393277Y-12326564D02*
X19440896Y-12326564D01*
X19440896Y-12326564D02*
X19469467Y-12336088D01*
X19469467Y-12336088D02*
X19488515Y-12355135D01*
X19488515Y-12355135D02*
X19498039Y-12374183D01*
X19498039Y-12374183D02*
X19507563Y-12412278D01*
X19507563Y-12412278D02*
X19507563Y-12440849D01*
X19507563Y-12440849D02*
X19498039Y-12478945D01*
X19498039Y-12478945D02*
X19488515Y-12497992D01*
X19488515Y-12497992D02*
X19469467Y-12517040D01*
X19469467Y-12517040D02*
X19440896Y-12526564D01*
X19440896Y-12526564D02*
X19393277Y-12526564D01*
X19593277Y-12526564D02*
X19593277Y-12393230D01*
X19593277Y-12431326D02*
X19602801Y-12412278D01*
X19602801Y-12412278D02*
X19612324Y-12402754D01*
X19612324Y-12402754D02*
X19631372Y-12393230D01*
X19631372Y-12393230D02*
X19650420Y-12393230D01*
X19717086Y-12526564D02*
X19717086Y-12393230D01*
X19717086Y-12326564D02*
X19707563Y-12336088D01*
X19707563Y-12336088D02*
X19717086Y-12345611D01*
X19717086Y-12345611D02*
X19726610Y-12336088D01*
X19726610Y-12336088D02*
X19717086Y-12326564D01*
X19717086Y-12326564D02*
X19717086Y-12345611D01*
X19840896Y-12526564D02*
X19821848Y-12517040D01*
X19821848Y-12517040D02*
X19812324Y-12497992D01*
X19812324Y-12497992D02*
X19812324Y-12326564D01*
X19945658Y-12526564D02*
X19926610Y-12517040D01*
X19926610Y-12517040D02*
X19917086Y-12497992D01*
X19917086Y-12497992D02*
X19917086Y-12326564D01*
X20174229Y-12526564D02*
X20174229Y-12326564D01*
X20174229Y-12326564D02*
X20240896Y-12469421D01*
X20240896Y-12469421D02*
X20307563Y-12326564D01*
X20307563Y-12326564D02*
X20307563Y-12526564D01*
X20488515Y-12526564D02*
X20488515Y-12421802D01*
X20488515Y-12421802D02*
X20478991Y-12402754D01*
X20478991Y-12402754D02*
X20459944Y-12393230D01*
X20459944Y-12393230D02*
X20421848Y-12393230D01*
X20421848Y-12393230D02*
X20402801Y-12402754D01*
X20488515Y-12517040D02*
X20469467Y-12526564D01*
X20469467Y-12526564D02*
X20421848Y-12526564D01*
X20421848Y-12526564D02*
X20402801Y-12517040D01*
X20402801Y-12517040D02*
X20393277Y-12497992D01*
X20393277Y-12497992D02*
X20393277Y-12478945D01*
X20393277Y-12478945D02*
X20402801Y-12459897D01*
X20402801Y-12459897D02*
X20421848Y-12450373D01*
X20421848Y-12450373D02*
X20469467Y-12450373D01*
X20469467Y-12450373D02*
X20488515Y-12440849D01*
X20583753Y-12393230D02*
X20583753Y-12593230D01*
X20583753Y-12402754D02*
X20602801Y-12393230D01*
X20602801Y-12393230D02*
X20640896Y-12393230D01*
X20640896Y-12393230D02*
X20659944Y-12402754D01*
X20659944Y-12402754D02*
X20669467Y-12412278D01*
X20669467Y-12412278D02*
X20678991Y-12431326D01*
X20678991Y-12431326D02*
X20678991Y-12488468D01*
X20678991Y-12488468D02*
X20669467Y-12507516D01*
X20669467Y-12507516D02*
X20659944Y-12517040D01*
X20659944Y-12517040D02*
X20640896Y-12526564D01*
X20640896Y-12526564D02*
X20602801Y-12526564D01*
X20602801Y-12526564D02*
X20583753Y-12517040D01*
X20764705Y-12507516D02*
X20774229Y-12517040D01*
X20774229Y-12517040D02*
X20764705Y-12526564D01*
X20764705Y-12526564D02*
X20755182Y-12517040D01*
X20755182Y-12517040D02*
X20764705Y-12507516D01*
X20764705Y-12507516D02*
X20764705Y-12526564D01*
X20764705Y-12402754D02*
X20774229Y-12412278D01*
X20774229Y-12412278D02*
X20764705Y-12421802D01*
X20764705Y-12421802D02*
X20755182Y-12412278D01*
X20755182Y-12412278D02*
X20764705Y-12402754D01*
X20764705Y-12402754D02*
X20764705Y-12421802D01*
D10*
X19102500Y-12840080D02*
X19132500Y-12870080D01*
X19132500Y-12840080D02*
X19102500Y-12870080D01*
D12*
X19431372Y-12746564D02*
X19450420Y-12746564D01*
X19450420Y-12746564D02*
X19469467Y-12756088D01*
X19469467Y-12756088D02*
X19478991Y-12765611D01*
X19478991Y-12765611D02*
X19488515Y-12784659D01*
X19488515Y-12784659D02*
X19498039Y-12822754D01*
X19498039Y-12822754D02*
X19498039Y-12870373D01*
X19498039Y-12870373D02*
X19488515Y-12908468D01*
X19488515Y-12908468D02*
X19478991Y-12927516D01*
X19478991Y-12927516D02*
X19469467Y-12937040D01*
X19469467Y-12937040D02*
X19450420Y-12946564D01*
X19450420Y-12946564D02*
X19431372Y-12946564D01*
X19431372Y-12946564D02*
X19412324Y-12937040D01*
X19412324Y-12937040D02*
X19402801Y-12927516D01*
X19402801Y-12927516D02*
X19393277Y-12908468D01*
X19393277Y-12908468D02*
X19383753Y-12870373D01*
X19383753Y-12870373D02*
X19383753Y-12822754D01*
X19383753Y-12822754D02*
X19393277Y-12784659D01*
X19393277Y-12784659D02*
X19402801Y-12765611D01*
X19402801Y-12765611D02*
X19412324Y-12756088D01*
X19412324Y-12756088D02*
X19431372Y-12746564D01*
X19583753Y-12927516D02*
X19593277Y-12937040D01*
X19593277Y-12937040D02*
X19583753Y-12946564D01*
X19583753Y-12946564D02*
X19574229Y-12937040D01*
X19574229Y-12937040D02*
X19583753Y-12927516D01*
X19583753Y-12927516D02*
X19583753Y-12946564D01*
X19659944Y-12746564D02*
X19783753Y-12746564D01*
X19783753Y-12746564D02*
X19717086Y-12822754D01*
X19717086Y-12822754D02*
X19745658Y-12822754D01*
X19745658Y-12822754D02*
X19764705Y-12832278D01*
X19764705Y-12832278D02*
X19774229Y-12841802D01*
X19774229Y-12841802D02*
X19783753Y-12860849D01*
X19783753Y-12860849D02*
X19783753Y-12908468D01*
X19783753Y-12908468D02*
X19774229Y-12927516D01*
X19774229Y-12927516D02*
X19764705Y-12937040D01*
X19764705Y-12937040D02*
X19745658Y-12946564D01*
X19745658Y-12946564D02*
X19688515Y-12946564D01*
X19688515Y-12946564D02*
X19669467Y-12937040D01*
X19669467Y-12937040D02*
X19659944Y-12927516D01*
X19907563Y-12746564D02*
X19926610Y-12746564D01*
X19926610Y-12746564D02*
X19945658Y-12756088D01*
X19945658Y-12756088D02*
X19955182Y-12765611D01*
X19955182Y-12765611D02*
X19964705Y-12784659D01*
X19964705Y-12784659D02*
X19974229Y-12822754D01*
X19974229Y-12822754D02*
X19974229Y-12870373D01*
X19974229Y-12870373D02*
X19964705Y-12908468D01*
X19964705Y-12908468D02*
X19955182Y-12927516D01*
X19955182Y-12927516D02*
X19945658Y-12937040D01*
X19945658Y-12937040D02*
X19926610Y-12946564D01*
X19926610Y-12946564D02*
X19907563Y-12946564D01*
X19907563Y-12946564D02*
X19888515Y-12937040D01*
X19888515Y-12937040D02*
X19878991Y-12927516D01*
X19878991Y-12927516D02*
X19869467Y-12908468D01*
X19869467Y-12908468D02*
X19859944Y-12870373D01*
X19859944Y-12870373D02*
X19859944Y-12822754D01*
X19859944Y-12822754D02*
X19869467Y-12784659D01*
X19869467Y-12784659D02*
X19878991Y-12765611D01*
X19878991Y-12765611D02*
X19888515Y-12756088D01*
X19888515Y-12756088D02*
X19907563Y-12746564D01*
X20098039Y-12746564D02*
X20117086Y-12746564D01*
X20117086Y-12746564D02*
X20136134Y-12756088D01*
X20136134Y-12756088D02*
X20145658Y-12765611D01*
X20145658Y-12765611D02*
X20155182Y-12784659D01*
X20155182Y-12784659D02*
X20164705Y-12822754D01*
X20164705Y-12822754D02*
X20164705Y-12870373D01*
X20164705Y-12870373D02*
X20155182Y-12908468D01*
X20155182Y-12908468D02*
X20145658Y-12927516D01*
X20145658Y-12927516D02*
X20136134Y-12937040D01*
X20136134Y-12937040D02*
X20117086Y-12946564D01*
X20117086Y-12946564D02*
X20098039Y-12946564D01*
X20098039Y-12946564D02*
X20078991Y-12937040D01*
X20078991Y-12937040D02*
X20069467Y-12927516D01*
X20069467Y-12927516D02*
X20059944Y-12908468D01*
X20059944Y-12908468D02*
X20050420Y-12870373D01*
X20050420Y-12870373D02*
X20050420Y-12822754D01*
X20050420Y-12822754D02*
X20059944Y-12784659D01*
X20059944Y-12784659D02*
X20069467Y-12765611D01*
X20069467Y-12765611D02*
X20078991Y-12756088D01*
X20078991Y-12756088D02*
X20098039Y-12746564D01*
X20250420Y-12946564D02*
X20250420Y-12813230D01*
X20250420Y-12832278D02*
X20259944Y-12822754D01*
X20259944Y-12822754D02*
X20278991Y-12813230D01*
X20278991Y-12813230D02*
X20307563Y-12813230D01*
X20307563Y-12813230D02*
X20326610Y-12822754D01*
X20326610Y-12822754D02*
X20336134Y-12841802D01*
X20336134Y-12841802D02*
X20336134Y-12946564D01*
X20336134Y-12841802D02*
X20345658Y-12822754D01*
X20345658Y-12822754D02*
X20364705Y-12813230D01*
X20364705Y-12813230D02*
X20393277Y-12813230D01*
X20393277Y-12813230D02*
X20412325Y-12822754D01*
X20412325Y-12822754D02*
X20421848Y-12841802D01*
X20421848Y-12841802D02*
X20421848Y-12946564D01*
X20517086Y-12946564D02*
X20517086Y-12813230D01*
X20517086Y-12832278D02*
X20526610Y-12822754D01*
X20526610Y-12822754D02*
X20545658Y-12813230D01*
X20545658Y-12813230D02*
X20574229Y-12813230D01*
X20574229Y-12813230D02*
X20593277Y-12822754D01*
X20593277Y-12822754D02*
X20602801Y-12841802D01*
X20602801Y-12841802D02*
X20602801Y-12946564D01*
X20602801Y-12841802D02*
X20612325Y-12822754D01*
X20612325Y-12822754D02*
X20631372Y-12813230D01*
X20631372Y-12813230D02*
X20659944Y-12813230D01*
X20659944Y-12813230D02*
X20678991Y-12822754D01*
X20678991Y-12822754D02*
X20688515Y-12841802D01*
X20688515Y-12841802D02*
X20688515Y-12946564D01*
X21078991Y-12737040D02*
X20907563Y-12994183D01*
X21336134Y-12746564D02*
X21355182Y-12746564D01*
X21355182Y-12746564D02*
X21374229Y-12756088D01*
X21374229Y-12756088D02*
X21383753Y-12765611D01*
X21383753Y-12765611D02*
X21393277Y-12784659D01*
X21393277Y-12784659D02*
X21402801Y-12822754D01*
X21402801Y-12822754D02*
X21402801Y-12870373D01*
X21402801Y-12870373D02*
X21393277Y-12908468D01*
X21393277Y-12908468D02*
X21383753Y-12927516D01*
X21383753Y-12927516D02*
X21374229Y-12937040D01*
X21374229Y-12937040D02*
X21355182Y-12946564D01*
X21355182Y-12946564D02*
X21336134Y-12946564D01*
X21336134Y-12946564D02*
X21317087Y-12937040D01*
X21317087Y-12937040D02*
X21307563Y-12927516D01*
X21307563Y-12927516D02*
X21298039Y-12908468D01*
X21298039Y-12908468D02*
X21288515Y-12870373D01*
X21288515Y-12870373D02*
X21288515Y-12822754D01*
X21288515Y-12822754D02*
X21298039Y-12784659D01*
X21298039Y-12784659D02*
X21307563Y-12765611D01*
X21307563Y-12765611D02*
X21317087Y-12756088D01*
X21317087Y-12756088D02*
X21336134Y-12746564D01*
X21488515Y-12927516D02*
X21498039Y-12937040D01*
X21498039Y-12937040D02*
X21488515Y-12946564D01*
X21488515Y-12946564D02*
X21478991Y-12937040D01*
X21478991Y-12937040D02*
X21488515Y-12927516D01*
X21488515Y-12927516D02*
X21488515Y-12946564D01*
X21621848Y-12746564D02*
X21640896Y-12746564D01*
X21640896Y-12746564D02*
X21659944Y-12756088D01*
X21659944Y-12756088D02*
X21669468Y-12765611D01*
X21669468Y-12765611D02*
X21678991Y-12784659D01*
X21678991Y-12784659D02*
X21688515Y-12822754D01*
X21688515Y-12822754D02*
X21688515Y-12870373D01*
X21688515Y-12870373D02*
X21678991Y-12908468D01*
X21678991Y-12908468D02*
X21669468Y-12927516D01*
X21669468Y-12927516D02*
X21659944Y-12937040D01*
X21659944Y-12937040D02*
X21640896Y-12946564D01*
X21640896Y-12946564D02*
X21621848Y-12946564D01*
X21621848Y-12946564D02*
X21602801Y-12937040D01*
X21602801Y-12937040D02*
X21593277Y-12927516D01*
X21593277Y-12927516D02*
X21583753Y-12908468D01*
X21583753Y-12908468D02*
X21574229Y-12870373D01*
X21574229Y-12870373D02*
X21574229Y-12822754D01*
X21574229Y-12822754D02*
X21583753Y-12784659D01*
X21583753Y-12784659D02*
X21593277Y-12765611D01*
X21593277Y-12765611D02*
X21602801Y-12756088D01*
X21602801Y-12756088D02*
X21621848Y-12746564D01*
X21878991Y-12946564D02*
X21764706Y-12946564D01*
X21821848Y-12946564D02*
X21821848Y-12746564D01*
X21821848Y-12746564D02*
X21802801Y-12775135D01*
X21802801Y-12775135D02*
X21783753Y-12794183D01*
X21783753Y-12794183D02*
X21764706Y-12803707D01*
X22069468Y-12946564D02*
X21955182Y-12946564D01*
X22012325Y-12946564D02*
X22012325Y-12746564D01*
X22012325Y-12746564D02*
X21993277Y-12775135D01*
X21993277Y-12775135D02*
X21974229Y-12794183D01*
X21974229Y-12794183D02*
X21955182Y-12803707D01*
X22183753Y-12832278D02*
X22164706Y-12822754D01*
X22164706Y-12822754D02*
X22155182Y-12813230D01*
X22155182Y-12813230D02*
X22145658Y-12794183D01*
X22145658Y-12794183D02*
X22145658Y-12784659D01*
X22145658Y-12784659D02*
X22155182Y-12765611D01*
X22155182Y-12765611D02*
X22164706Y-12756088D01*
X22164706Y-12756088D02*
X22183753Y-12746564D01*
X22183753Y-12746564D02*
X22221849Y-12746564D01*
X22221849Y-12746564D02*
X22240896Y-12756088D01*
X22240896Y-12756088D02*
X22250420Y-12765611D01*
X22250420Y-12765611D02*
X22259944Y-12784659D01*
X22259944Y-12784659D02*
X22259944Y-12794183D01*
X22259944Y-12794183D02*
X22250420Y-12813230D01*
X22250420Y-12813230D02*
X22240896Y-12822754D01*
X22240896Y-12822754D02*
X22221849Y-12832278D01*
X22221849Y-12832278D02*
X22183753Y-12832278D01*
X22183753Y-12832278D02*
X22164706Y-12841802D01*
X22164706Y-12841802D02*
X22155182Y-12851326D01*
X22155182Y-12851326D02*
X22145658Y-12870373D01*
X22145658Y-12870373D02*
X22145658Y-12908468D01*
X22145658Y-12908468D02*
X22155182Y-12927516D01*
X22155182Y-12927516D02*
X22164706Y-12937040D01*
X22164706Y-12937040D02*
X22183753Y-12946564D01*
X22183753Y-12946564D02*
X22221849Y-12946564D01*
X22221849Y-12946564D02*
X22240896Y-12937040D01*
X22240896Y-12937040D02*
X22250420Y-12927516D01*
X22250420Y-12927516D02*
X22259944Y-12908468D01*
X22259944Y-12908468D02*
X22259944Y-12870373D01*
X22259944Y-12870373D02*
X22250420Y-12851326D01*
X22250420Y-12851326D02*
X22240896Y-12841802D01*
X22240896Y-12841802D02*
X22221849Y-12832278D01*
X22336134Y-12746564D02*
X22336134Y-12784659D01*
X22412325Y-12746564D02*
X22412325Y-12784659D01*
X22707563Y-13022754D02*
X22698039Y-13013230D01*
X22698039Y-13013230D02*
X22678991Y-12984659D01*
X22678991Y-12984659D02*
X22669468Y-12965611D01*
X22669468Y-12965611D02*
X22659944Y-12937040D01*
X22659944Y-12937040D02*
X22650420Y-12889421D01*
X22650420Y-12889421D02*
X22650420Y-12851326D01*
X22650420Y-12851326D02*
X22659944Y-12803707D01*
X22659944Y-12803707D02*
X22669468Y-12775135D01*
X22669468Y-12775135D02*
X22678991Y-12756088D01*
X22678991Y-12756088D02*
X22698039Y-12727516D01*
X22698039Y-12727516D02*
X22707563Y-12717992D01*
X22869468Y-12813230D02*
X22869468Y-12946564D01*
X22821848Y-12737040D02*
X22774229Y-12879897D01*
X22774229Y-12879897D02*
X22898039Y-12879897D01*
X22955182Y-12746564D02*
X23088515Y-12746564D01*
X23088515Y-12746564D02*
X23002801Y-12946564D01*
X23317087Y-12946564D02*
X23317087Y-12746564D01*
X23402801Y-12946564D02*
X23402801Y-12841802D01*
X23402801Y-12841802D02*
X23393277Y-12822754D01*
X23393277Y-12822754D02*
X23374230Y-12813230D01*
X23374230Y-12813230D02*
X23345658Y-12813230D01*
X23345658Y-12813230D02*
X23326610Y-12822754D01*
X23326610Y-12822754D02*
X23317087Y-12832278D01*
X23526610Y-12946564D02*
X23507563Y-12937040D01*
X23507563Y-12937040D02*
X23498039Y-12927516D01*
X23498039Y-12927516D02*
X23488515Y-12908468D01*
X23488515Y-12908468D02*
X23488515Y-12851326D01*
X23488515Y-12851326D02*
X23498039Y-12832278D01*
X23498039Y-12832278D02*
X23507563Y-12822754D01*
X23507563Y-12822754D02*
X23526610Y-12813230D01*
X23526610Y-12813230D02*
X23555182Y-12813230D01*
X23555182Y-12813230D02*
X23574230Y-12822754D01*
X23574230Y-12822754D02*
X23583753Y-12832278D01*
X23583753Y-12832278D02*
X23593277Y-12851326D01*
X23593277Y-12851326D02*
X23593277Y-12908468D01*
X23593277Y-12908468D02*
X23583753Y-12927516D01*
X23583753Y-12927516D02*
X23574230Y-12937040D01*
X23574230Y-12937040D02*
X23555182Y-12946564D01*
X23555182Y-12946564D02*
X23526610Y-12946564D01*
X23707563Y-12946564D02*
X23688515Y-12937040D01*
X23688515Y-12937040D02*
X23678991Y-12917992D01*
X23678991Y-12917992D02*
X23678991Y-12746564D01*
X23859944Y-12937040D02*
X23840896Y-12946564D01*
X23840896Y-12946564D02*
X23802801Y-12946564D01*
X23802801Y-12946564D02*
X23783753Y-12937040D01*
X23783753Y-12937040D02*
X23774230Y-12917992D01*
X23774230Y-12917992D02*
X23774230Y-12841802D01*
X23774230Y-12841802D02*
X23783753Y-12822754D01*
X23783753Y-12822754D02*
X23802801Y-12813230D01*
X23802801Y-12813230D02*
X23840896Y-12813230D01*
X23840896Y-12813230D02*
X23859944Y-12822754D01*
X23859944Y-12822754D02*
X23869468Y-12841802D01*
X23869468Y-12841802D02*
X23869468Y-12860849D01*
X23869468Y-12860849D02*
X23774230Y-12879897D01*
X23945658Y-12937040D02*
X23964706Y-12946564D01*
X23964706Y-12946564D02*
X24002801Y-12946564D01*
X24002801Y-12946564D02*
X24021849Y-12937040D01*
X24021849Y-12937040D02*
X24031372Y-12917992D01*
X24031372Y-12917992D02*
X24031372Y-12908468D01*
X24031372Y-12908468D02*
X24021849Y-12889421D01*
X24021849Y-12889421D02*
X24002801Y-12879897D01*
X24002801Y-12879897D02*
X23974230Y-12879897D01*
X23974230Y-12879897D02*
X23955182Y-12870373D01*
X23955182Y-12870373D02*
X23945658Y-12851326D01*
X23945658Y-12851326D02*
X23945658Y-12841802D01*
X23945658Y-12841802D02*
X23955182Y-12822754D01*
X23955182Y-12822754D02*
X23974230Y-12813230D01*
X23974230Y-12813230D02*
X24002801Y-12813230D01*
X24002801Y-12813230D02*
X24021849Y-12822754D01*
X24098039Y-13022754D02*
X24107563Y-13013230D01*
X24107563Y-13013230D02*
X24126611Y-12984659D01*
X24126611Y-12984659D02*
X24136134Y-12965611D01*
X24136134Y-12965611D02*
X24145658Y-12937040D01*
X24145658Y-12937040D02*
X24155182Y-12889421D01*
X24155182Y-12889421D02*
X24155182Y-12851326D01*
X24155182Y-12851326D02*
X24145658Y-12803707D01*
X24145658Y-12803707D02*
X24136134Y-12775135D01*
X24136134Y-12775135D02*
X24126611Y-12756088D01*
X24126611Y-12756088D02*
X24107563Y-12727516D01*
X24107563Y-12727516D02*
X24098039Y-12717992D01*
D10*
X19132500Y-13119080D02*
G75*
G02*
X19062500Y-13119080I-35000J0D01*
G01*
X19062500Y-13119080D02*
G75*
G02*
X19132500Y-13119080I35000J0D01*
G01*
D12*
X19431372Y-13010564D02*
X19450420Y-13010564D01*
X19450420Y-13010564D02*
X19469467Y-13020088D01*
X19469467Y-13020088D02*
X19478991Y-13029611D01*
X19478991Y-13029611D02*
X19488515Y-13048659D01*
X19488515Y-13048659D02*
X19498039Y-13086754D01*
X19498039Y-13086754D02*
X19498039Y-13134373D01*
X19498039Y-13134373D02*
X19488515Y-13172468D01*
X19488515Y-13172468D02*
X19478991Y-13191516D01*
X19478991Y-13191516D02*
X19469467Y-13201040D01*
X19469467Y-13201040D02*
X19450420Y-13210564D01*
X19450420Y-13210564D02*
X19431372Y-13210564D01*
X19431372Y-13210564D02*
X19412324Y-13201040D01*
X19412324Y-13201040D02*
X19402801Y-13191516D01*
X19402801Y-13191516D02*
X19393277Y-13172468D01*
X19393277Y-13172468D02*
X19383753Y-13134373D01*
X19383753Y-13134373D02*
X19383753Y-13086754D01*
X19383753Y-13086754D02*
X19393277Y-13048659D01*
X19393277Y-13048659D02*
X19402801Y-13029611D01*
X19402801Y-13029611D02*
X19412324Y-13020088D01*
X19412324Y-13020088D02*
X19431372Y-13010564D01*
X19583753Y-13191516D02*
X19593277Y-13201040D01*
X19593277Y-13201040D02*
X19583753Y-13210564D01*
X19583753Y-13210564D02*
X19574229Y-13201040D01*
X19574229Y-13201040D02*
X19583753Y-13191516D01*
X19583753Y-13191516D02*
X19583753Y-13210564D01*
X19659944Y-13010564D02*
X19793277Y-13010564D01*
X19793277Y-13010564D02*
X19707563Y-13210564D01*
X19907563Y-13010564D02*
X19926610Y-13010564D01*
X19926610Y-13010564D02*
X19945658Y-13020088D01*
X19945658Y-13020088D02*
X19955182Y-13029611D01*
X19955182Y-13029611D02*
X19964705Y-13048659D01*
X19964705Y-13048659D02*
X19974229Y-13086754D01*
X19974229Y-13086754D02*
X19974229Y-13134373D01*
X19974229Y-13134373D02*
X19964705Y-13172468D01*
X19964705Y-13172468D02*
X19955182Y-13191516D01*
X19955182Y-13191516D02*
X19945658Y-13201040D01*
X19945658Y-13201040D02*
X19926610Y-13210564D01*
X19926610Y-13210564D02*
X19907563Y-13210564D01*
X19907563Y-13210564D02*
X19888515Y-13201040D01*
X19888515Y-13201040D02*
X19878991Y-13191516D01*
X19878991Y-13191516D02*
X19869467Y-13172468D01*
X19869467Y-13172468D02*
X19859944Y-13134373D01*
X19859944Y-13134373D02*
X19859944Y-13086754D01*
X19859944Y-13086754D02*
X19869467Y-13048659D01*
X19869467Y-13048659D02*
X19878991Y-13029611D01*
X19878991Y-13029611D02*
X19888515Y-13020088D01*
X19888515Y-13020088D02*
X19907563Y-13010564D01*
X20098039Y-13010564D02*
X20117086Y-13010564D01*
X20117086Y-13010564D02*
X20136134Y-13020088D01*
X20136134Y-13020088D02*
X20145658Y-13029611D01*
X20145658Y-13029611D02*
X20155182Y-13048659D01*
X20155182Y-13048659D02*
X20164705Y-13086754D01*
X20164705Y-13086754D02*
X20164705Y-13134373D01*
X20164705Y-13134373D02*
X20155182Y-13172468D01*
X20155182Y-13172468D02*
X20145658Y-13191516D01*
X20145658Y-13191516D02*
X20136134Y-13201040D01*
X20136134Y-13201040D02*
X20117086Y-13210564D01*
X20117086Y-13210564D02*
X20098039Y-13210564D01*
X20098039Y-13210564D02*
X20078991Y-13201040D01*
X20078991Y-13201040D02*
X20069467Y-13191516D01*
X20069467Y-13191516D02*
X20059944Y-13172468D01*
X20059944Y-13172468D02*
X20050420Y-13134373D01*
X20050420Y-13134373D02*
X20050420Y-13086754D01*
X20050420Y-13086754D02*
X20059944Y-13048659D01*
X20059944Y-13048659D02*
X20069467Y-13029611D01*
X20069467Y-13029611D02*
X20078991Y-13020088D01*
X20078991Y-13020088D02*
X20098039Y-13010564D01*
X20250420Y-13210564D02*
X20250420Y-13077230D01*
X20250420Y-13096278D02*
X20259944Y-13086754D01*
X20259944Y-13086754D02*
X20278991Y-13077230D01*
X20278991Y-13077230D02*
X20307563Y-13077230D01*
X20307563Y-13077230D02*
X20326610Y-13086754D01*
X20326610Y-13086754D02*
X20336134Y-13105802D01*
X20336134Y-13105802D02*
X20336134Y-13210564D01*
X20336134Y-13105802D02*
X20345658Y-13086754D01*
X20345658Y-13086754D02*
X20364705Y-13077230D01*
X20364705Y-13077230D02*
X20393277Y-13077230D01*
X20393277Y-13077230D02*
X20412325Y-13086754D01*
X20412325Y-13086754D02*
X20421848Y-13105802D01*
X20421848Y-13105802D02*
X20421848Y-13210564D01*
X20517086Y-13210564D02*
X20517086Y-13077230D01*
X20517086Y-13096278D02*
X20526610Y-13086754D01*
X20526610Y-13086754D02*
X20545658Y-13077230D01*
X20545658Y-13077230D02*
X20574229Y-13077230D01*
X20574229Y-13077230D02*
X20593277Y-13086754D01*
X20593277Y-13086754D02*
X20602801Y-13105802D01*
X20602801Y-13105802D02*
X20602801Y-13210564D01*
X20602801Y-13105802D02*
X20612325Y-13086754D01*
X20612325Y-13086754D02*
X20631372Y-13077230D01*
X20631372Y-13077230D02*
X20659944Y-13077230D01*
X20659944Y-13077230D02*
X20678991Y-13086754D01*
X20678991Y-13086754D02*
X20688515Y-13105802D01*
X20688515Y-13105802D02*
X20688515Y-13210564D01*
X21078991Y-13001040D02*
X20907563Y-13258183D01*
X21336134Y-13010564D02*
X21355182Y-13010564D01*
X21355182Y-13010564D02*
X21374229Y-13020088D01*
X21374229Y-13020088D02*
X21383753Y-13029611D01*
X21383753Y-13029611D02*
X21393277Y-13048659D01*
X21393277Y-13048659D02*
X21402801Y-13086754D01*
X21402801Y-13086754D02*
X21402801Y-13134373D01*
X21402801Y-13134373D02*
X21393277Y-13172468D01*
X21393277Y-13172468D02*
X21383753Y-13191516D01*
X21383753Y-13191516D02*
X21374229Y-13201040D01*
X21374229Y-13201040D02*
X21355182Y-13210564D01*
X21355182Y-13210564D02*
X21336134Y-13210564D01*
X21336134Y-13210564D02*
X21317087Y-13201040D01*
X21317087Y-13201040D02*
X21307563Y-13191516D01*
X21307563Y-13191516D02*
X21298039Y-13172468D01*
X21298039Y-13172468D02*
X21288515Y-13134373D01*
X21288515Y-13134373D02*
X21288515Y-13086754D01*
X21288515Y-13086754D02*
X21298039Y-13048659D01*
X21298039Y-13048659D02*
X21307563Y-13029611D01*
X21307563Y-13029611D02*
X21317087Y-13020088D01*
X21317087Y-13020088D02*
X21336134Y-13010564D01*
X21488515Y-13191516D02*
X21498039Y-13201040D01*
X21498039Y-13201040D02*
X21488515Y-13210564D01*
X21488515Y-13210564D02*
X21478991Y-13201040D01*
X21478991Y-13201040D02*
X21488515Y-13191516D01*
X21488515Y-13191516D02*
X21488515Y-13210564D01*
X21621848Y-13010564D02*
X21640896Y-13010564D01*
X21640896Y-13010564D02*
X21659944Y-13020088D01*
X21659944Y-13020088D02*
X21669468Y-13029611D01*
X21669468Y-13029611D02*
X21678991Y-13048659D01*
X21678991Y-13048659D02*
X21688515Y-13086754D01*
X21688515Y-13086754D02*
X21688515Y-13134373D01*
X21688515Y-13134373D02*
X21678991Y-13172468D01*
X21678991Y-13172468D02*
X21669468Y-13191516D01*
X21669468Y-13191516D02*
X21659944Y-13201040D01*
X21659944Y-13201040D02*
X21640896Y-13210564D01*
X21640896Y-13210564D02*
X21621848Y-13210564D01*
X21621848Y-13210564D02*
X21602801Y-13201040D01*
X21602801Y-13201040D02*
X21593277Y-13191516D01*
X21593277Y-13191516D02*
X21583753Y-13172468D01*
X21583753Y-13172468D02*
X21574229Y-13134373D01*
X21574229Y-13134373D02*
X21574229Y-13086754D01*
X21574229Y-13086754D02*
X21583753Y-13048659D01*
X21583753Y-13048659D02*
X21593277Y-13029611D01*
X21593277Y-13029611D02*
X21602801Y-13020088D01*
X21602801Y-13020088D02*
X21621848Y-13010564D01*
X21764706Y-13029611D02*
X21774229Y-13020088D01*
X21774229Y-13020088D02*
X21793277Y-13010564D01*
X21793277Y-13010564D02*
X21840896Y-13010564D01*
X21840896Y-13010564D02*
X21859944Y-13020088D01*
X21859944Y-13020088D02*
X21869468Y-13029611D01*
X21869468Y-13029611D02*
X21878991Y-13048659D01*
X21878991Y-13048659D02*
X21878991Y-13067707D01*
X21878991Y-13067707D02*
X21869468Y-13096278D01*
X21869468Y-13096278D02*
X21755182Y-13210564D01*
X21755182Y-13210564D02*
X21878991Y-13210564D01*
X21945658Y-13010564D02*
X22078991Y-13010564D01*
X22078991Y-13010564D02*
X21993277Y-13210564D01*
X22240896Y-13010564D02*
X22202801Y-13010564D01*
X22202801Y-13010564D02*
X22183753Y-13020088D01*
X22183753Y-13020088D02*
X22174229Y-13029611D01*
X22174229Y-13029611D02*
X22155182Y-13058183D01*
X22155182Y-13058183D02*
X22145658Y-13096278D01*
X22145658Y-13096278D02*
X22145658Y-13172468D01*
X22145658Y-13172468D02*
X22155182Y-13191516D01*
X22155182Y-13191516D02*
X22164706Y-13201040D01*
X22164706Y-13201040D02*
X22183753Y-13210564D01*
X22183753Y-13210564D02*
X22221849Y-13210564D01*
X22221849Y-13210564D02*
X22240896Y-13201040D01*
X22240896Y-13201040D02*
X22250420Y-13191516D01*
X22250420Y-13191516D02*
X22259944Y-13172468D01*
X22259944Y-13172468D02*
X22259944Y-13124849D01*
X22259944Y-13124849D02*
X22250420Y-13105802D01*
X22250420Y-13105802D02*
X22240896Y-13096278D01*
X22240896Y-13096278D02*
X22221849Y-13086754D01*
X22221849Y-13086754D02*
X22183753Y-13086754D01*
X22183753Y-13086754D02*
X22164706Y-13096278D01*
X22164706Y-13096278D02*
X22155182Y-13105802D01*
X22155182Y-13105802D02*
X22145658Y-13124849D01*
X22336134Y-13010564D02*
X22336134Y-13048659D01*
X22412325Y-13010564D02*
X22412325Y-13048659D01*
X22707563Y-13286754D02*
X22698039Y-13277230D01*
X22698039Y-13277230D02*
X22678991Y-13248659D01*
X22678991Y-13248659D02*
X22669468Y-13229611D01*
X22669468Y-13229611D02*
X22659944Y-13201040D01*
X22659944Y-13201040D02*
X22650420Y-13153421D01*
X22650420Y-13153421D02*
X22650420Y-13115326D01*
X22650420Y-13115326D02*
X22659944Y-13067707D01*
X22659944Y-13067707D02*
X22669468Y-13039135D01*
X22669468Y-13039135D02*
X22678991Y-13020088D01*
X22678991Y-13020088D02*
X22698039Y-12991516D01*
X22698039Y-12991516D02*
X22707563Y-12981992D01*
X22812325Y-13096278D02*
X22793277Y-13086754D01*
X22793277Y-13086754D02*
X22783753Y-13077230D01*
X22783753Y-13077230D02*
X22774229Y-13058183D01*
X22774229Y-13058183D02*
X22774229Y-13048659D01*
X22774229Y-13048659D02*
X22783753Y-13029611D01*
X22783753Y-13029611D02*
X22793277Y-13020088D01*
X22793277Y-13020088D02*
X22812325Y-13010564D01*
X22812325Y-13010564D02*
X22850420Y-13010564D01*
X22850420Y-13010564D02*
X22869468Y-13020088D01*
X22869468Y-13020088D02*
X22878991Y-13029611D01*
X22878991Y-13029611D02*
X22888515Y-13048659D01*
X22888515Y-13048659D02*
X22888515Y-13058183D01*
X22888515Y-13058183D02*
X22878991Y-13077230D01*
X22878991Y-13077230D02*
X22869468Y-13086754D01*
X22869468Y-13086754D02*
X22850420Y-13096278D01*
X22850420Y-13096278D02*
X22812325Y-13096278D01*
X22812325Y-13096278D02*
X22793277Y-13105802D01*
X22793277Y-13105802D02*
X22783753Y-13115326D01*
X22783753Y-13115326D02*
X22774229Y-13134373D01*
X22774229Y-13134373D02*
X22774229Y-13172468D01*
X22774229Y-13172468D02*
X22783753Y-13191516D01*
X22783753Y-13191516D02*
X22793277Y-13201040D01*
X22793277Y-13201040D02*
X22812325Y-13210564D01*
X22812325Y-13210564D02*
X22850420Y-13210564D01*
X22850420Y-13210564D02*
X22869468Y-13201040D01*
X22869468Y-13201040D02*
X22878991Y-13191516D01*
X22878991Y-13191516D02*
X22888515Y-13172468D01*
X22888515Y-13172468D02*
X22888515Y-13134373D01*
X22888515Y-13134373D02*
X22878991Y-13115326D01*
X22878991Y-13115326D02*
X22869468Y-13105802D01*
X22869468Y-13105802D02*
X22850420Y-13096278D01*
X23126610Y-13210564D02*
X23126610Y-13010564D01*
X23212325Y-13210564D02*
X23212325Y-13105802D01*
X23212325Y-13105802D02*
X23202801Y-13086754D01*
X23202801Y-13086754D02*
X23183753Y-13077230D01*
X23183753Y-13077230D02*
X23155182Y-13077230D01*
X23155182Y-13077230D02*
X23136134Y-13086754D01*
X23136134Y-13086754D02*
X23126610Y-13096278D01*
X23336134Y-13210564D02*
X23317087Y-13201040D01*
X23317087Y-13201040D02*
X23307563Y-13191516D01*
X23307563Y-13191516D02*
X23298039Y-13172468D01*
X23298039Y-13172468D02*
X23298039Y-13115326D01*
X23298039Y-13115326D02*
X23307563Y-13096278D01*
X23307563Y-13096278D02*
X23317087Y-13086754D01*
X23317087Y-13086754D02*
X23336134Y-13077230D01*
X23336134Y-13077230D02*
X23364706Y-13077230D01*
X23364706Y-13077230D02*
X23383753Y-13086754D01*
X23383753Y-13086754D02*
X23393277Y-13096278D01*
X23393277Y-13096278D02*
X23402801Y-13115326D01*
X23402801Y-13115326D02*
X23402801Y-13172468D01*
X23402801Y-13172468D02*
X23393277Y-13191516D01*
X23393277Y-13191516D02*
X23383753Y-13201040D01*
X23383753Y-13201040D02*
X23364706Y-13210564D01*
X23364706Y-13210564D02*
X23336134Y-13210564D01*
X23517087Y-13210564D02*
X23498039Y-13201040D01*
X23498039Y-13201040D02*
X23488515Y-13181992D01*
X23488515Y-13181992D02*
X23488515Y-13010564D01*
X23669468Y-13201040D02*
X23650420Y-13210564D01*
X23650420Y-13210564D02*
X23612325Y-13210564D01*
X23612325Y-13210564D02*
X23593277Y-13201040D01*
X23593277Y-13201040D02*
X23583753Y-13181992D01*
X23583753Y-13181992D02*
X23583753Y-13105802D01*
X23583753Y-13105802D02*
X23593277Y-13086754D01*
X23593277Y-13086754D02*
X23612325Y-13077230D01*
X23612325Y-13077230D02*
X23650420Y-13077230D01*
X23650420Y-13077230D02*
X23669468Y-13086754D01*
X23669468Y-13086754D02*
X23678991Y-13105802D01*
X23678991Y-13105802D02*
X23678991Y-13124849D01*
X23678991Y-13124849D02*
X23583753Y-13143897D01*
X23755182Y-13201040D02*
X23774230Y-13210564D01*
X23774230Y-13210564D02*
X23812325Y-13210564D01*
X23812325Y-13210564D02*
X23831372Y-13201040D01*
X23831372Y-13201040D02*
X23840896Y-13181992D01*
X23840896Y-13181992D02*
X23840896Y-13172468D01*
X23840896Y-13172468D02*
X23831372Y-13153421D01*
X23831372Y-13153421D02*
X23812325Y-13143897D01*
X23812325Y-13143897D02*
X23783753Y-13143897D01*
X23783753Y-13143897D02*
X23764706Y-13134373D01*
X23764706Y-13134373D02*
X23755182Y-13115326D01*
X23755182Y-13115326D02*
X23755182Y-13105802D01*
X23755182Y-13105802D02*
X23764706Y-13086754D01*
X23764706Y-13086754D02*
X23783753Y-13077230D01*
X23783753Y-13077230D02*
X23812325Y-13077230D01*
X23812325Y-13077230D02*
X23831372Y-13086754D01*
X23907563Y-13286754D02*
X23917087Y-13277230D01*
X23917087Y-13277230D02*
X23936134Y-13248659D01*
X23936134Y-13248659D02*
X23945658Y-13229611D01*
X23945658Y-13229611D02*
X23955182Y-13201040D01*
X23955182Y-13201040D02*
X23964706Y-13153421D01*
X23964706Y-13153421D02*
X23964706Y-13115326D01*
X23964706Y-13115326D02*
X23955182Y-13067707D01*
X23955182Y-13067707D02*
X23945658Y-13039135D01*
X23945658Y-13039135D02*
X23936134Y-13020088D01*
X23936134Y-13020088D02*
X23917087Y-12991516D01*
X23917087Y-12991516D02*
X23907563Y-12981992D01*
M02*
