  0
SECTION
  2
HEADER
  9
$ACADVER
  1
AC1009
  9
$DWGCODEPAGE
  3
ansi_1252
  9
$INSBASE
 10
0.0
 20
0.0
 30
0.0
  9
$EXTMIN
 10
-90.398
 20
-67.5016
 30
0.0
  9
$EXTMAX
 10
-11.7216
 20
20.6748
 30
0.0
  9
$LIMMIN
 10
0.0
 20
0.0
  9
$LIMMAX
 10
12.0
 20
9.0
  9
$ORTHOMODE
 70
     0
  9
$REGENMODE
 70
     1
  9
$FILLMODE
 70
     1
  9
$QTEXTMODE
 70
     0
  9
$MIRRTEXT
 70
     1
  9
$DRAGMODE
 70
     2
  9
$LTSCALE
 40
1.0
  9
$OSMODE
 70
    37
  9
$ATTMODE
 70
     1
  9
$TEXTSIZE
 40
0.2
  9
$TRACEWID
 40
0.05
  9
$TEXTSTYLE
  7
STANDARD
  9
$CLAYER
  8
0
  9
$CELTYPE
  6
BYLAYER
  9
$CECOLOR
 62
   256
  9
$DIMSCALE
 40
1.0
  9
$DIMASZ
 40
0.18
  9
$DIMEXO
 40
0.0625
  9
$DIMDLI
 40
0.38
  9
$DIMRND
 40
0.0
  9
$DIMDLE
 40
0.0
  9
$DIMEXE
 40
0.18
  9
$DIMTP
 40
0.0
  9
$DIMTM
 40
0.0
  9
$DIMTXT
 40
0.18
  9
$DIMCEN
 40
0.09
  9
$DIMTSZ
 40
0.0
  9
$DIMTOL
 70
     0
  9
$DIMLIM
 70
     0
  9
$DIMTIH
 70
     1
  9
$DIMTOH
 70
     1
  9
$DIMSE1
 70
     0
  9
$DIMSE2
 70
     0
  9
$DIMTAD
 70
     0
  9
$DIMZIN
 70
     0
  9
$DIMBLK
  1

  9
$DIMASO
 70
     1
  9
$DIMSHO
 70
     1
  9
$DIMPOST
  1

  9
$DIMAPOST
  1

  9
$DIMALT
 70
     0
  9
$DIMALTD
 70
     2
  9
$DIMALTF
 40
25.4
  9
$DIMLFAC
 40
1.0
  9
$DIMTOFL
 70
     0
  9
$DIMTVP
 40
0.0
  9
$DIMTIX
 70
     0
  9
$DIMSOXD
 70
     0
  9
$DIMSAH
 70
     0
  9
$DIMBLK1
  1

  9
$DIMBLK2
  1

  9
$DIMSTYLE
  2
STANDARD
  9
$DIMCLRD
 70
     0
  9
$DIMCLRE
 70
     0
  9
$DIMCLRT
 70
     0
  9
$DIMTFAC
 40
1.0
  9
$DIMGAP
 40
0.09
  9
$LUNITS
 70
     2
  9
$LUPREC
 70
     4
  9
$SKETCHINC
 40
0.1
  9
$FILLETRAD
 40
0.0
  9
$AUNITS
 70
     0
  9
$AUPREC
 70
     0
  9
$MENU
  1
.
  9
$ELEVATION
 40
0.0
  9
$PELEVATION
 40
0.0
  9
$THICKNESS
 40
0.0
  9
$LIMCHECK
 70
     0
  9
$CHAMFERA
 40
0.0
  9
$CHAMFERB
 40
0.0
  9
$SKPOLY
 70
     0
  9
$TDCREATE
 40
2460510.697232245
  9
$TDUPDATE
 40
2460510.69723228
  9
$TDINDWG
 40
0.0000000116
  9
$TDUSRTIMER
 40
0.0000000116
  9
$USRTIMER
 70
     1
  9
$ANGBASE
 50
0.0
  9
$ANGDIR
 70
     0
  9
$PDMODE
 70
     0
  9
$PDSIZE
 40
0.0
  9
$PLINEWID
 40
0.0
  9
$COORDS
 70
     1
  9
$SPLFRAME
 70
     0
  9
$SPLINETYPE
 70
     6
  9
$SPLINESEGS
 70
     8
  9
$ATTDIA
 70
     0
  9
$ATTREQ
 70
     1
  9
$HANDLING
 70
     1
  9
$HANDSEED
  5
1CE
  9
$SURFTAB1
 70
     6
  9
$SURFTAB2
 70
     6
  9
$SURFTYPE
 70
     6
  9
$SURFU
 70
     6
  9
$SURFV
 70
     6
  9
$UCSNAME
  2

  9
$UCSORG
 10
0.0
 20
0.0
 30
0.0
  9
$UCSXDIR
 10
1.0
 20
0.0
 30
0.0
  9
$UCSYDIR
 10
0.0
 20
1.0
 30
0.0
  9
$PUCSNAME
  2

  9
$PUCSORG
 10
0.0
 20
0.0
 30
0.0
  9
$PUCSXDIR
 10
1.0
 20
0.0
 30
0.0
  9
$PUCSYDIR
 10
0.0
 20
1.0
 30
0.0
  9
$USERI1
 70
     0
  9
$USERI2
 70
     0
  9
$USERI3
 70
     0
  9
$USERI4
 70
     0
  9
$USERI5
 70
     0
  9
$USERR1
 40
0.0
  9
$USERR2
 40
0.0
  9
$USERR3
 40
0.0
  9
$USERR4
 40
0.0
  9
$USERR5
 40
0.0
  9
$WORLDVIEW
 70
     1
  9
$SHADEDGE
 70
     3
  9
$SHADEDIF
 70
    70
  9
$TILEMODE
 70
     1
  9
$MAXACTVP
 70
    64
  9
$PLIMCHECK
 70
     0
  9
$PEXTMIN
 10
1.000000000000000E+20
 20
1.000000000000000E+20
 30
1.000000000000000E+20
  9
$PEXTMAX
 10
-1.000000000000000E+20
 20
-1.000000000000000E+20
 30
-1.000000000000000E+20
  9
$PLIMMIN
 10
0.0
 20
0.0
  9
$PLIMMAX
 10
12.0
 20
9.0
  9
$UNITMODE
 70
     0
  9
$VISRETAIN
 70
     1
  9
$PLINEGEN
 70
     0
  9
$PSLTSCALE
 70
     1
  0
ENDSEC
  0
SECTION
  2
TABLES
  0
TABLE
  2
VPORT
 70
     1
  0
VPORT
  2
*ACTIVE
 70
     0
 10
0.0
 20
0.0
 11
1.0
 21
1.0
 12
10.42990654205607
 22
4.5
 13
0.0
 23
0.0
 14
0.5
 24
0.5
 15
0.5
 25
0.5
 16
0.0
 26
0.0
 36
1.0
 17
0.0
 27
0.0
 37
0.0
 40
9.0
 41
1.972972972850329
 42
50.0
 43
0.0
 44
0.0
 50
0.0
 51
0.0
 71
     0
 72
   100
 73
     1
 74
     3
 75
     0
 76
     0
 77
     0
 78
     0
  0
ENDTAB
  0
TABLE
  2
LTYPE
 70
     1
  0
LTYPE
  2
CONTINUOUS
 70
     0
  3
Solid line
 72
    65
 73
     0
 40
0.0
  0
ENDTAB
  0
TABLE
  2
LAYER
 70
     2
  0
LAYER
  2
0
 70
     0
 62
     7
  6
CONTINUOUS
  0
LAYER
  2
LAYER_1
 70
     0
 62
     7
  6
CONTINUOUS
  0
ENDTAB
  0
TABLE
  2
STYLE
 70
     1
  0
STYLE
  2
STANDARD
 70
     0
 40
0.0
 41
1.0
 50
0.0
 71
     0
 42
0.2
  3
txt
  4

  0
ENDTAB
  0
TABLE
  2
VIEW
 70
     0
  0
ENDTAB
  0
TABLE
  2
UCS
 70
     0
  0
ENDTAB
  0
TABLE
  2
APPID
 70
     2
  0
APPID
  2
ACAD
 70
     0
  0
APPID
  2
ODA
 70
     0
  0
ENDTAB
  0
TABLE
  2
DIMSTYLE
 70
     1
  0
DIMSTYLE
  2
STANDARD
 70
     0
  3

  4

  5

  6

  7

 40
1.0
 41
0.18
 42
0.0625
 43
0.38
 44
0.18
 45
0.0
 46
0.0
 47
0.0
 48
0.0
140
0.18
141
0.09
142
0.0
143
25.4
144
1.0
145
0.0
146
1.0
147
0.09
 71
     0
 72
     0
 73
     1
 74
     1
 75
     0
 76
     0
 77
     0
 78
     0
170
     0
171
     2
172
     0
173
     0
174
     0
175
     0
176
     0
177
     0
178
     0
  0
ENDTAB
  0
ENDSEC
  0
SECTION
  2
BLOCKS
  0
BLOCK
  8
0
  2
$MODEL_SPACE
 70
     0
 10
0.0
 20
0.0
 30
0.0
  3
$MODEL_SPACE
  1

  0
ENDBLK
  5
21
  8
0
  0
BLOCK
 67
     1
  8
0
  2
$PAPER_SPACE
 70
     0
 10
0.0
 20
0.0
 30
0.0
  3
$PAPER_SPACE
  1

  0
ENDBLK
  5
1D
 67
     1
  8
0
  0
ENDSEC
  0
SECTION
  2
ENTITIES
  0
POLYLINE
  5
60
  8
LAYER_1
 62
   250
 66
     1
 10
0.0
 20
0.0
 30
0.0
 70
     1
  0
VERTEX
  5
7C
  8
LAYER_1
 62
   250
 10
-87.1906
 20
20.5866
 30
0.0
  0
VERTEX
  5
7D
  8
LAYER_1
 62
   250
 10
-14.929
 20
20.5866
 30
0.0
  0
VERTEX
  5
7E
  8
LAYER_1
 62
   250
 10
-14.3024
 20
20.5229
 30
0.0
  0
VERTEX
  5
7F
  8
LAYER_1
 62
   250
 10
-13.7179
 20
20.3405
 30
0.0
  0
VERTEX
  5
80
  8
LAYER_1
 62
   250
 10
-13.1881
 20
20.052
 30
0.0
  0
VERTEX
  5
81
  8
LAYER_1
 62
   250
 10
-12.7261
 20
19.6703
 30
0.0
  0
VERTEX
  5
82
  8
LAYER_1
 62
   250
 10
-12.3444
 20
19.2082
 30
0.0
  0
VERTEX
  5
83
  8
LAYER_1
 62
   250
 10
-12.0559
 20
18.6785
 30
0.0
  0
VERTEX
  5
84
  8
LAYER_1
 62
   250
 10
-11.8735
 20
18.0939
 30
0.0
  0
VERTEX
  5
85
  8
LAYER_1
 62
   250
 10
-11.8098
 20
17.4673
 30
0.0
  0
VERTEX
  5
86
  8
LAYER_1
 62
   250
 10
-11.8098
 20
-64.2942
 30
0.0
  0
VERTEX
  5
87
  8
LAYER_1
 62
   250
 10
-11.8735
 20
-64.9208
 30
0.0
  0
VERTEX
  5
88
  8
LAYER_1
 62
   250
 10
-12.0559
 20
-65.5053
 30
0.0
  0
VERTEX
  5
89
  8
LAYER_1
 62
   250
 10
-12.3444
 20
-66.0351
 30
0.0
  0
VERTEX
  5
8A
  8
LAYER_1
 62
   250
 10
-12.7261
 20
-66.4972
 30
0.0
  0
VERTEX
  5
8B
  8
LAYER_1
 62
   250
 10
-13.1881
 20
-66.8788
 30
0.0
  0
VERTEX
  5
8C
  8
LAYER_1
 62
   250
 10
-13.7179
 20
-67.1673
 30
0.0
  0
VERTEX
  5
8D
  8
LAYER_1
 62
   250
 10
-14.3024
 20
-67.3497
 30
0.0
  0
VERTEX
  5
8E
  8
LAYER_1
 62
   250
 10
-14.929
 20
-67.4134
 30
0.0
  0
VERTEX
  5
8F
  8
LAYER_1
 62
   250
 10
-87.1906
 20
-67.4134
 30
0.0
  0
VERTEX
  5
90
  8
LAYER_1
 62
   250
 10
-87.8172
 20
-67.3497
 30
0.0
  0
VERTEX
  5
91
  8
LAYER_1
 62
   250
 10
-88.4017
 20
-67.1673
 30
0.0
  0
VERTEX
  5
92
  8
LAYER_1
 62
   250
 10
-88.9315
 20
-66.8788
 30
0.0
  0
VERTEX
  5
93
  8
LAYER_1
 62
   250
 10
-89.3936
 20
-66.4972
 30
0.0
  0
VERTEX
  5
94
  8
LAYER_1
 62
   250
 10
-89.7752
 20
-66.0351
 30
0.0
  0
VERTEX
  5
95
  8
LAYER_1
 62
   250
 10
-90.0637
 20
-65.5053
 30
0.0
  0
VERTEX
  5
96
  8
LAYER_1
 62
   250
 10
-90.2461
 20
-64.9208
 30
0.0
  0
VERTEX
  5
97
  8
LAYER_1
 62
   250
 10
-90.3098
 20
-64.2942
 30
0.0
  0
VERTEX
  5
98
  8
LAYER_1
 62
   250
 10
-90.3098
 20
17.4673
 30
0.0
  0
VERTEX
  5
99
  8
LAYER_1
 62
   250
 10
-90.2461
 20
18.0939
 30
0.0
  0
VERTEX
  5
9A
  8
LAYER_1
 62
   250
 10
-90.0637
 20
18.6785
 30
0.0
  0
VERTEX
  5
9B
  8
LAYER_1
 62
   250
 10
-89.7752
 20
19.2082
 30
0.0
  0
VERTEX
  5
9C
  8
LAYER_1
 62
   250
 10
-89.3936
 20
19.6703
 30
0.0
  0
VERTEX
  5
9D
  8
LAYER_1
 62
   250
 10
-88.9315
 20
20.052
 30
0.0
  0
VERTEX
  5
9E
  8
LAYER_1
 62
   250
 10
-88.4017
 20
20.3405
 30
0.0
  0
VERTEX
  5
9F
  8
LAYER_1
 62
   250
 10
-87.8172
 20
20.5229
 30
0.0
  0
VERTEX
  5
A0
  8
LAYER_1
 62
   250
 10
-87.1906
 20
20.5866
 30
0.0
  0
SEQEND
  5
1B9
  8
LAYER_1
 62
   250
  0
POLYLINE
  5
61
  8
LAYER_1
 62
   250
 66
     1
 10
0.0
 20
0.0
 30
0.0
 70
     1
  0
VERTEX
  5
A1
  8
LAYER_1
 62
   250
 10
-84.4598
 20
8.9616
 30
0.0
  0
VERTEX
  5
A2
  8
LAYER_1
 62
   250
 10
-84.7524354830242
 20
8.932777920604845
 30
0.0
  0
VERTEX
  5
A3
  8
LAYER_1
 62
   250
 10
-85.03382514854763
 20
8.84741929876693
 30
0.0
  0
VERTEX
  5
A4
  8
LAYER_1
 62
   250
 10
-85.2931553495294
 20
8.708804418453818
 30
0.0
  0
VERTEX
  5
A5
  8
LAYER_1
 62
   250
 10
-85.52046017177982
 20
8.522260171779822
 30
0.0
  0
VERTEX
  5
A6
  8
LAYER_1
 62
   250
 10
-85.70700441845382
 20
8.294955349529403
 30
0.0
  0
VERTEX
  5
A7
  8
LAYER_1
 62
   250
 10
-85.84561929876693
 20
8.035625148547634
 30
0.0
  0
VERTEX
  5
A8
  8
LAYER_1
 62
   250
 10
-85.93097792060485
 20
7.754235483024193
 30
0.0
  0
VERTEX
  5
A9
  8
LAYER_1
 62
   250
 10
-85.9598
 20
7.4616
 30
0.0
  0
VERTEX
  5
AA
  8
LAYER_1
 62
   250
 10
-85.93097792060485
 20
7.168964516975808
 30
0.0
  0
VERTEX
  5
AB
  8
LAYER_1
 62
   250
 10
-85.84561929876693
 20
6.887574851452365
 30
0.0
  0
VERTEX
  5
AC
  8
LAYER_1
 62
   250
 10
-85.70700441845382
 20
6.628244650470597
 30
0.0
  0
VERTEX
  5
AD
  8
LAYER_1
 62
   250
 10
-85.52046017177982
 20
6.400939828220179
 30
0.0
  0
VERTEX
  5
AE
  8
LAYER_1
 62
   250
 10
-85.2931553495294
 20
6.214395581546182
 30
0.0
  0
VERTEX
  5
AF
  8
LAYER_1
 62
   250
 10
-85.03382514854763
 20
6.07578070123307
 30
0.0
  0
VERTEX
  5
B0
  8
LAYER_1
 62
   250
 10
-84.75243548302419
 20
5.990422079395154
 30
0.0
  0
VERTEX
  5
B1
  8
LAYER_1
 62
   250
 10
-84.4598
 20
5.9616
 30
0.0
  0
VERTEX
  5
B2
  8
LAYER_1
 62
   250
 10
-84.1671645169758
 20
5.990422079395154
 30
0.0
  0
VERTEX
  5
B3
  8
LAYER_1
 62
   250
 10
-83.88577485145237
 20
6.07578070123307
 30
0.0
  0
VERTEX
  5
B4
  8
LAYER_1
 62
   250
 10
-83.6264446504706
 20
6.214395581546183
 30
0.0
  0
VERTEX
  5
B5
  8
LAYER_1
 62
   250
 10
-83.39913982822017
 20
6.40093982822018
 30
0.0
  0
VERTEX
  5
B6
  8
LAYER_1
 62
   250
 10
-83.21259558154618
 20
6.628244650470599
 30
0.0
  0
VERTEX
  5
B7
  8
LAYER_1
 62
   250
 10
-83.07398070123307
 20
6.887574851452368
 30
0.0
  0
VERTEX
  5
B8
  8
LAYER_1
 62
   250
 10
-82.98862207939516
 20
7.16896451697581
 30
0.0
  0
VERTEX
  5
B9
  8
LAYER_1
 62
   250
 10
-82.9598
 20
7.461600000000003
 30
0.0
  0
VERTEX
  5
BA
  8
LAYER_1
 62
   250
 10
-82.98862207939516
 20
7.754235483024196
 30
0.0
  0
VERTEX
  5
BB
  8
LAYER_1
 62
   250
 10
-83.07398070123307
 20
8.035625148547638
 30
0.0
  0
VERTEX
  5
BC
  8
LAYER_1
 62
   250
 10
-83.21259558154618
 20
8.294955349529406
 30
0.0
  0
VERTEX
  5
BD
  8
LAYER_1
 62
   250
 10
-83.39913982822019
 20
8.522260171779825
 30
0.0
  0
VERTEX
  5
BE
  8
LAYER_1
 62
   250
 10
-83.6264446504706
 20
8.70880441845382
 30
0.0
  0
VERTEX
  5
BF
  8
LAYER_1
 62
   250
 10
-83.88577485145237
 20
8.847419298766932
 30
0.0
  0
VERTEX
  5
C0
  8
LAYER_1
 62
   250
 10
-84.16716451697582
 20
8.932777920604847
 30
0.0
  0
SEQEND
  5
1BA
  8
LAYER_1
 62
   250
  0
POLYLINE
  5
62
  8
LAYER_1
 62
   250
 66
     1
 10
0.0
 20
0.0
 30
0.0
 70
     1
  0
VERTEX
  5
C1
  8
LAYER_1
 62
   250
 10
-17.6598
 20
8.9616
 30
0.0
  0
VERTEX
  5
C2
  8
LAYER_1
 62
   250
 10
-17.95243548302419
 20
8.932777920604845
 30
0.0
  0
VERTEX
  5
C3
  8
LAYER_1
 62
   250
 10
-18.23382514854763
 20
8.84741929876693
 30
0.0
  0
VERTEX
  5
C4
  8
LAYER_1
 62
   250
 10
-18.4931553495294
 20
8.708804418453818
 30
0.0
  0
VERTEX
  5
C5
  8
LAYER_1
 62
   250
 10
-18.72046017177982
 20
8.522260171779822
 30
0.0
  0
VERTEX
  5
C6
  8
LAYER_1
 62
   250
 10
-18.90700441845382
 20
8.294955349529403
 30
0.0
  0
VERTEX
  5
C7
  8
LAYER_1
 62
   250
 10
-19.04561929876693
 20
8.035625148547634
 30
0.0
  0
VERTEX
  5
C8
  8
LAYER_1
 62
   250
 10
-19.13097792060485
 20
7.754235483024193
 30
0.0
  0
VERTEX
  5
C9
  8
LAYER_1
 62
   250
 10
-19.1598
 20
7.4616
 30
0.0
  0
VERTEX
  5
CA
  8
LAYER_1
 62
   250
 10
-19.13097792060485
 20
7.168964516975808
 30
0.0
  0
VERTEX
  5
CB
  8
LAYER_1
 62
   250
 10
-19.04561929876693
 20
6.887574851452365
 30
0.0
  0
VERTEX
  5
CC
  8
LAYER_1
 62
   250
 10
-18.90700441845382
 20
6.628244650470597
 30
0.0
  0
VERTEX
  5
CD
  8
LAYER_1
 62
   250
 10
-18.72046017177982
 20
6.400939828220179
 30
0.0
  0
VERTEX
  5
CE
  8
LAYER_1
 62
   250
 10
-18.4931553495294
 20
6.214395581546182
 30
0.0
  0
VERTEX
  5
CF
  8
LAYER_1
 62
   250
 10
-18.23382514854763
 20
6.07578070123307
 30
0.0
  0
VERTEX
  5
D0
  8
LAYER_1
 62
   250
 10
-17.95243548302419
 20
5.990422079395154
 30
0.0
  0
VERTEX
  5
D1
  8
LAYER_1
 62
   250
 10
-17.6598
 20
5.9616
 30
0.0
  0
VERTEX
  5
D2
  8
LAYER_1
 62
   250
 10
-17.36716451697581
 20
5.990422079395154
 30
0.0
  0
VERTEX
  5
D3
  8
LAYER_1
 62
   250
 10
-17.08577485145236
 20
6.07578070123307
 30
0.0
  0
VERTEX
  5
D4
  8
LAYER_1
 62
   250
 10
-16.8264446504706
 20
6.214395581546183
 30
0.0
  0
VERTEX
  5
D5
  8
LAYER_1
 62
   250
 10
-16.59913982822018
 20
6.40093982822018
 30
0.0
  0
VERTEX
  5
D6
  8
LAYER_1
 62
   250
 10
-16.41259558154618
 20
6.628244650470599
 30
0.0
  0
VERTEX
  5
D7
  8
LAYER_1
 62
   250
 10
-16.27398070123307
 20
6.887574851452368
 30
0.0
  0
VERTEX
  5
D8
  8
LAYER_1
 62
   250
 10
-16.18862207939516
 20
7.16896451697581
 30
0.0
  0
VERTEX
  5
D9
  8
LAYER_1
 62
   250
 10
-16.1598
 20
7.461600000000003
 30
0.0
  0
VERTEX
  5
DA
  8
LAYER_1
 62
   250
 10
-16.18862207939516
 20
7.754235483024196
 30
0.0
  0
VERTEX
  5
DB
  8
LAYER_1
 62
   250
 10
-16.27398070123307
 20
8.035625148547638
 30
0.0
  0
VERTEX
  5
DC
  8
LAYER_1
 62
   250
 10
-16.41259558154619
 20
8.294955349529406
 30
0.0
  0
VERTEX
  5
DD
  8
LAYER_1
 62
   250
 10
-16.59913982822018
 20
8.522260171779825
 30
0.0
  0
VERTEX
  5
DE
  8
LAYER_1
 62
   250
 10
-16.8264446504706
 20
8.70880441845382
 30
0.0
  0
VERTEX
  5
DF
  8
LAYER_1
 62
   250
 10
-17.08577485145237
 20
8.847419298766932
 30
0.0
  0
VERTEX
  5
E0
  8
LAYER_1
 62
   250
 10
-17.36716451697582
 20
8.932777920604847
 30
0.0
  0
SEQEND
  5
1BB
  8
LAYER_1
 62
   250
  0
POLYLINE
  5
63
  8
LAYER_1
 62
   250
 66
     1
 10
0.0
 20
0.0
 30
0.0
 70
     1
  0
VERTEX
  5
E1
  8
LAYER_1
 62
   250
 10
-17.6598
 20
-52.7884
 30
0.0
  0
VERTEX
  5
E2
  8
LAYER_1
 62
   250
 10
-17.95243548302419
 20
-52.81722207939516
 30
0.0
  0
VERTEX
  5
E3
  8
LAYER_1
 62
   250
 10
-18.23382514854763
 20
-52.90258070123307
 30
0.0
  0
VERTEX
  5
E4
  8
LAYER_1
 62
   250
 10
-18.4931553495294
 20
-53.04119558154618
 30
0.0
  0
VERTEX
  5
E5
  8
LAYER_1
 62
   250
 10
-18.72046017177982
 20
-53.22773982822018
 30
0.0
  0
VERTEX
  5
E6
  8
LAYER_1
 62
   250
 10
-18.90700441845382
 20
-53.4550446504706
 30
0.0
  0
VERTEX
  5
E7
  8
LAYER_1
 62
   250
 10
-19.04561929876693
 20
-53.71437485145237
 30
0.0
  0
VERTEX
  5
E8
  8
LAYER_1
 62
   250
 10
-19.13097792060485
 20
-53.99576451697581
 30
0.0
  0
VERTEX
  5
E9
  8
LAYER_1
 62
   250
 10
-19.1598
 20
-54.2884
 30
0.0
  0
VERTEX
  5
EA
  8
LAYER_1
 62
   250
 10
-19.13097792060485
 20
-54.58103548302419
 30
0.0
  0
VERTEX
  5
EB
  8
LAYER_1
 62
   250
 10
-19.04561929876693
 20
-54.86242514854764
 30
0.0
  0
VERTEX
  5
EC
  8
LAYER_1
 62
   250
 10
-18.90700441845382
 20
-55.12175534952941
 30
0.0
  0
VERTEX
  5
ED
  8
LAYER_1
 62
   250
 10
-18.72046017177982
 20
-55.34906017177983
 30
0.0
  0
VERTEX
  5
EE
  8
LAYER_1
 62
   250
 10
-18.4931553495294
 20
-55.53560441845382
 30
0.0
  0
VERTEX
  5
EF
  8
LAYER_1
 62
   250
 10
-18.23382514854763
 20
-55.67421929876694
 30
0.0
  0
VERTEX
  5
F0
  8
LAYER_1
 62
   250
 10
-17.95243548302419
 20
-55.75957792060485
 30
0.0
  0
VERTEX
  5
F1
  8
LAYER_1
 62
   250
 10
-17.6598
 20
-55.7884
 30
0.0
  0
VERTEX
  5
F2
  8
LAYER_1
 62
   250
 10
-17.36716451697581
 20
-55.75957792060485
 30
0.0
  0
VERTEX
  5
F3
  8
LAYER_1
 62
   250
 10
-17.08577485145236
 20
-55.67421929876694
 30
0.0
  0
VERTEX
  5
F4
  8
LAYER_1
 62
   250
 10
-16.8264446504706
 20
-55.53560441845382
 30
0.0
  0
VERTEX
  5
F5
  8
LAYER_1
 62
   250
 10
-16.59913982822018
 20
-55.34906017177983
 30
0.0
  0
VERTEX
  5
F6
  8
LAYER_1
 62
   250
 10
-16.41259558154618
 20
-55.1217553495294
 30
0.0
  0
VERTEX
  5
F7
  8
LAYER_1
 62
   250
 10
-16.27398070123307
 20
-54.86242514854764
 30
0.0
  0
VERTEX
  5
F8
  8
LAYER_1
 62
   250
 10
-16.18862207939516
 20
-54.58103548302419
 30
0.0
  0
VERTEX
  5
F9
  8
LAYER_1
 62
   250
 10
-16.1598
 20
-54.2884
 30
0.0
  0
VERTEX
  5
FA
  8
LAYER_1
 62
   250
 10
-16.18862207939516
 20
-53.9957645169758
 30
0.0
  0
VERTEX
  5
FB
  8
LAYER_1
 62
   250
 10
-16.27398070123307
 20
-53.71437485145236
 30
0.0
  0
VERTEX
  5
FC
  8
LAYER_1
 62
   250
 10
-16.41259558154619
 20
-53.4550446504706
 30
0.0
  0
VERTEX
  5
FD
  8
LAYER_1
 62
   250
 10
-16.59913982822018
 20
-53.22773982822018
 30
0.0
  0
VERTEX
  5
FE
  8
LAYER_1
 62
   250
 10
-16.8264446504706
 20
-53.04119558154618
 30
0.0
  0
VERTEX
  5
FF
  8
LAYER_1
 62
   250
 10
-17.08577485145237
 20
-52.90258070123307
 30
0.0
  0
VERTEX
  5
100
  8
LAYER_1
 62
   250
 10
-17.36716451697582
 20
-52.81722207939516
 30
0.0
  0
SEQEND
  5
1BC
  8
LAYER_1
 62
   250
  0
POLYLINE
  5
64
  8
LAYER_1
 62
   250
 66
     1
 10
0.0
 20
0.0
 30
0.0
 70
     1
  0
VERTEX
  5
101
  8
LAYER_1
 62
   250
 10
-84.4598
 20
-52.7884
 30
0.0
  0
VERTEX
  5
102
  8
LAYER_1
 62
   250
 10
-84.7524354830242
 20
-52.81722207939516
 30
0.0
  0
VERTEX
  5
103
  8
LAYER_1
 62
   250
 10
-85.03382514854763
 20
-52.90258070123307
 30
0.0
  0
VERTEX
  5
104
  8
LAYER_1
 62
   250
 10
-85.2931553495294
 20
-53.04119558154618
 30
0.0
  0
VERTEX
  5
105
  8
LAYER_1
 62
   250
 10
-85.52046017177982
 20
-53.22773982822018
 30
0.0
  0
VERTEX
  5
106
  8
LAYER_1
 62
   250
 10
-85.70700441845382
 20
-53.4550446504706
 30
0.0
  0
VERTEX
  5
107
  8
LAYER_1
 62
   250
 10
-85.84561929876693
 20
-53.71437485145237
 30
0.0
  0
VERTEX
  5
108
  8
LAYER_1
 62
   250
 10
-85.93097792060485
 20
-53.99576451697581
 30
0.0
  0
VERTEX
  5
109
  8
LAYER_1
 62
   250
 10
-85.9598
 20
-54.2884
 30
0.0
  0
VERTEX
  5
10A
  8
LAYER_1
 62
   250
 10
-85.93097792060485
 20
-54.58103548302419
 30
0.0
  0
VERTEX
  5
10B
  8
LAYER_1
 62
   250
 10
-85.84561929876693
 20
-54.86242514854764
 30
0.0
  0
VERTEX
  5
10C
  8
LAYER_1
 62
   250
 10
-85.70700441845382
 20
-55.12175534952941
 30
0.0
  0
VERTEX
  5
10D
  8
LAYER_1
 62
   250
 10
-85.52046017177982
 20
-55.34906017177983
 30
0.0
  0
VERTEX
  5
10E
  8
LAYER_1
 62
   250
 10
-85.2931553495294
 20
-55.53560441845382
 30
0.0
  0
VERTEX
  5
10F
  8
LAYER_1
 62
   250
 10
-85.03382514854763
 20
-55.67421929876694
 30
0.0
  0
VERTEX
  5
110
  8
LAYER_1
 62
   250
 10
-84.75243548302419
 20
-55.75957792060485
 30
0.0
  0
VERTEX
  5
111
  8
LAYER_1
 62
   250
 10
-84.4598
 20
-55.7884
 30
0.0
  0
VERTEX
  5
112
  8
LAYER_1
 62
   250
 10
-84.1671645169758
 20
-55.75957792060485
 30
0.0
  0
VERTEX
  5
113
  8
LAYER_1
 62
   250
 10
-83.88577485145237
 20
-55.67421929876694
 30
0.0
  0
VERTEX
  5
114
  8
LAYER_1
 62
   250
 10
-83.6264446504706
 20
-55.53560441845382
 30
0.0
  0
VERTEX
  5
115
  8
LAYER_1
 62
   250
 10
-83.39913982822017
 20
-55.34906017177983
 30
0.0
  0
VERTEX
  5
116
  8
LAYER_1
 62
   250
 10
-83.21259558154618
 20
-55.1217553495294
 30
0.0
  0
VERTEX
  5
117
  8
LAYER_1
 62
   250
 10
-83.07398070123307
 20
-54.86242514854764
 30
0.0
  0
VERTEX
  5
118
  8
LAYER_1
 62
   250
 10
-82.98862207939516
 20
-54.58103548302419
 30
0.0
  0
VERTEX
  5
119
  8
LAYER_1
 62
   250
 10
-82.9598
 20
-54.2884
 30
0.0
  0
VERTEX
  5
11A
  8
LAYER_1
 62
   250
 10
-82.98862207939516
 20
-53.9957645169758
 30
0.0
  0
VERTEX
  5
11B
  8
LAYER_1
 62
   250
 10
-83.07398070123307
 20
-53.71437485145236
 30
0.0
  0
VERTEX
  5
11C
  8
LAYER_1
 62
   250
 10
-83.21259558154618
 20
-53.4550446504706
 30
0.0
  0
VERTEX
  5
11D
  8
LAYER_1
 62
   250
 10
-83.39913982822019
 20
-53.22773982822018
 30
0.0
  0
VERTEX
  5
11E
  8
LAYER_1
 62
   250
 10
-83.6264446504706
 20
-53.04119558154618
 30
0.0
  0
VERTEX
  5
11F
  8
LAYER_1
 62
   250
 10
-83.88577485145237
 20
-52.90258070123307
 30
0.0
  0
VERTEX
  5
120
  8
LAYER_1
 62
   250
 10
-84.16716451697582
 20
-52.81722207939516
 30
0.0
  0
SEQEND
  5
1BD
  8
LAYER_1
 62
   250
  0
POLYLINE
  5
65
  8
LAYER_1
 62
   250
 66
     1
 10
0.0
 20
0.0
 30
0.0
  0
VERTEX
  5
121
  8
LAYER_1
 62
   250
 10
-87.0436
 20
-65.1397
 30
0.0
  0
VERTEX
  5
122
  8
LAYER_1
 62
   250
 10
-87.2955
 20
-65.1143
 30
0.0
  0
VERTEX
  5
123
  8
LAYER_1
 62
   250
 10
-87.5302
 20
-65.0415
 30
0.0
  0
VERTEX
  5
124
  8
LAYER_1
 62
   250
 10
-87.7425
 20
-64.9262
 30
0.0
  0
VERTEX
  5
125
  8
LAYER_1
 62
   250
 10
-87.9275
 20
-64.7736
 30
0.0
  0
VERTEX
  5
126
  8
LAYER_1
 62
   250
 10
-88.0801
 20
-64.5886
 30
0.0
  0
VERTEX
  5
127
  8
LAYER_1
 62
   250
 10
-88.1954
 20
-64.3762
 30
0.0
  0
VERTEX
  5
128
  8
LAYER_1
 62
   250
 10
-88.2682
 20
-64.1416
 30
0.0
  0
VERTEX
  5
129
  8
LAYER_1
 62
   250
 10
-88.2936
 20
-63.8897
 30
0.0
  0
VERTEX
  5
12A
  8
LAYER_1
 62
   250
 10
-88.2682
 20
-63.6378
 30
0.0
  0
VERTEX
  5
12B
  8
LAYER_1
 62
   250
 10
-88.1954
 20
-63.4032
 30
0.0
  0
VERTEX
  5
12C
  8
LAYER_1
 62
   250
 10
-88.0801
 20
-63.1908
 30
0.0
  0
VERTEX
  5
12D
  8
LAYER_1
 62
   250
 10
-87.9275
 20
-63.0058
 30
0.0
  0
VERTEX
  5
12E
  8
LAYER_1
 62
   250
 10
-87.7425
 20
-62.8532
 30
0.0
  0
VERTEX
  5
12F
  8
LAYER_1
 62
   250
 10
-87.5302
 20
-62.7379
 30
0.0
  0
VERTEX
  5
130
  8
LAYER_1
 62
   250
 10
-87.2955
 20
-62.6651
 30
0.0
  0
VERTEX
  5
131
  8
LAYER_1
 62
   250
 10
-87.0436
 20
-62.6397
 30
0.0
  0
SEQEND
  5
1BE
  8
LAYER_1
 62
   250
  0
POLYLINE
  5
66
  8
LAYER_1
 62
   250
 66
     1
 10
0.0
 20
0.0
 30
0.0
  0
VERTEX
  5
132
  8
LAYER_1
 62
   250
 10
-85.0436
 20
-65.1397
 30
0.0
  0
VERTEX
  5
133
  8
LAYER_1
 62
   250
 10
-84.7917
 20
-65.1143
 30
0.0
  0
VERTEX
  5
134
  8
LAYER_1
 62
   250
 10
-84.557
 20
-65.0415
 30
0.0
  0
VERTEX
  5
135
  8
LAYER_1
 62
   250
 10
-84.3447
 20
-64.9262
 30
0.0
  0
VERTEX
  5
136
  8
LAYER_1
 62
   250
 10
-84.1597
 20
-64.7736
 30
0.0
  0
VERTEX
  5
137
  8
LAYER_1
 62
   250
 10
-84.0071
 20
-64.5886
 30
0.0
  0
VERTEX
  5
138
  8
LAYER_1
 62
   250
 10
-83.8918
 20
-64.3762
 30
0.0
  0
VERTEX
  5
139
  8
LAYER_1
 62
   250
 10
-83.819
 20
-64.1416
 30
0.0
  0
VERTEX
  5
13A
  8
LAYER_1
 62
   250
 10
-83.7936
 20
-63.8897
 30
0.0
  0
VERTEX
  5
13B
  8
LAYER_1
 62
   250
 10
-83.819
 20
-63.6378
 30
0.0
  0
VERTEX
  5
13C
  8
LAYER_1
 62
   250
 10
-83.8918
 20
-63.4032
 30
0.0
  0
VERTEX
  5
13D
  8
LAYER_1
 62
   250
 10
-84.0071
 20
-63.1908
 30
0.0
  0
VERTEX
  5
13E
  8
LAYER_1
 62
   250
 10
-84.1597
 20
-63.0058
 30
0.0
  0
VERTEX
  5
13F
  8
LAYER_1
 62
   250
 10
-84.3447
 20
-62.8532
 30
0.0
  0
VERTEX
  5
140
  8
LAYER_1
 62
   250
 10
-84.557
 20
-62.7379
 30
0.0
  0
VERTEX
  5
141
  8
LAYER_1
 62
   250
 10
-84.7917
 20
-62.6651
 30
0.0
  0
VERTEX
  5
142
  8
LAYER_1
 62
   250
 10
-85.0436
 20
-62.6397
 30
0.0
  0
SEQEND
  5
1BF
  8
LAYER_1
 62
   250
  0
POLYLINE
  5
67
  8
LAYER_1
 62
   250
 66
     1
 10
0.0
 20
0.0
 30
0.0
  0
VERTEX
  5
143
  8
LAYER_1
 62
   250
 10
-87.0436
 20
-62.6397
 30
0.0
  0
VERTEX
  5
144
  8
LAYER_1
 62
   250
 10
-85.0436
 20
-62.6397
 30
0.0
  0
SEQEND
  5
1C0
  8
LAYER_1
 62
   250
  0
POLYLINE
  5
68
  8
LAYER_1
 62
   250
 66
     1
 10
0.0
 20
0.0
 30
0.0
  0
VERTEX
  5
145
  8
LAYER_1
 62
   250
 10
-87.0436
 20
-65.1397
 30
0.0
  0
VERTEX
  5
146
  8
LAYER_1
 62
   250
 10
-85.0436
 20
-65.1397
 30
0.0
  0
SEQEND
  5
1C1
  8
LAYER_1
 62
   250
  0
POLYLINE
  5
69
  8
LAYER_1
 62
   250
 66
     1
 10
0.0
 20
0.0
 30
0.0
  0
VERTEX
  5
147
  8
LAYER_1
 62
   250
 10
-17.076
 20
-65.1105
 30
0.0
  0
VERTEX
  5
148
  8
LAYER_1
 62
   250
 10
-17.3279
 20
-65.0851
 30
0.0
  0
VERTEX
  5
149
  8
LAYER_1
 62
   250
 10
-17.5626
 20
-65.0123
 30
0.0
  0
VERTEX
  5
14A
  8
LAYER_1
 62
   250
 10
-17.7749
 20
-64.897
 30
0.0
  0
VERTEX
  5
14B
  8
LAYER_1
 62
   250
 10
-17.9599
 20
-64.7444
 30
0.0
  0
VERTEX
  5
14C
  8
LAYER_1
 62
   250
 10
-18.1125
 20
-64.5594
 30
0.0
  0
VERTEX
  5
14D
  8
LAYER_1
 62
   250
 10
-18.2278
 20
-64.347
 30
0.0
  0
VERTEX
  5
14E
  8
LAYER_1
 62
   250
 10
-18.3006
 20
-64.1124
 30
0.0
  0
VERTEX
  5
14F
  8
LAYER_1
 62
   250
 10
-18.326
 20
-63.8605
 30
0.0
  0
VERTEX
  5
150
  8
LAYER_1
 62
   250
 10
-18.3006
 20
-63.6086
 30
0.0
  0
VERTEX
  5
151
  8
LAYER_1
 62
   250
 10
-18.2278
 20
-63.374
 30
0.0
  0
VERTEX
  5
152
  8
LAYER_1
 62
   250
 10
-18.1125
 20
-63.1616
 30
0.0
  0
VERTEX
  5
153
  8
LAYER_1
 62
   250
 10
-17.9599
 20
-62.9766
 30
0.0
  0
VERTEX
  5
154
  8
LAYER_1
 62
   250
 10
-17.7749
 20
-62.824
 30
0.0
  0
VERTEX
  5
155
  8
LAYER_1
 62
   250
 10
-17.5626
 20
-62.7087
 30
0.0
  0
VERTEX
  5
156
  8
LAYER_1
 62
   250
 10
-17.3279
 20
-62.6359
 30
0.0
  0
VERTEX
  5
157
  8
LAYER_1
 62
   250
 10
-17.076
 20
-62.6105
 30
0.0
  0
SEQEND
  5
1C2
  8
LAYER_1
 62
   250
  0
POLYLINE
  5
6A
  8
LAYER_1
 62
   250
 66
     1
 10
0.0
 20
0.0
 30
0.0
  0
VERTEX
  5
158
  8
LAYER_1
 62
   250
 10
-15.076
 20
-65.1105
 30
0.0
  0
VERTEX
  5
159
  8
LAYER_1
 62
   250
 10
-14.8241
 20
-65.0851
 30
0.0
  0
VERTEX
  5
15A
  8
LAYER_1
 62
   250
 10
-14.5894
 20
-65.0123
 30
0.0
  0
VERTEX
  5
15B
  8
LAYER_1
 62
   250
 10
-14.3771
 20
-64.897
 30
0.0
  0
VERTEX
  5
15C
  8
LAYER_1
 62
   250
 10
-14.1921
 20
-64.7444
 30
0.0
  0
VERTEX
  5
15D
  8
LAYER_1
 62
   250
 10
-14.0395
 20
-64.5594
 30
0.0
  0
VERTEX
  5
15E
  8
LAYER_1
 62
   250
 10
-13.9242
 20
-64.347
 30
0.0
  0
VERTEX
  5
15F
  8
LAYER_1
 62
   250
 10
-13.8514
 20
-64.1124
 30
0.0
  0
VERTEX
  5
160
  8
LAYER_1
 62
   250
 10
-13.826
 20
-63.8605
 30
0.0
  0
VERTEX
  5
161
  8
LAYER_1
 62
   250
 10
-13.8514
 20
-63.6086
 30
0.0
  0
VERTEX
  5
162
  8
LAYER_1
 62
   250
 10
-13.9242
 20
-63.374
 30
0.0
  0
VERTEX
  5
163
  8
LAYER_1
 62
   250
 10
-14.0395
 20
-63.1616
 30
0.0
  0
VERTEX
  5
164
  8
LAYER_1
 62
   250
 10
-14.1921
 20
-62.9766
 30
0.0
  0
VERTEX
  5
165
  8
LAYER_1
 62
   250
 10
-14.3771
 20
-62.824
 30
0.0
  0
VERTEX
  5
166
  8
LAYER_1
 62
   250
 10
-14.5894
 20
-62.7087
 30
0.0
  0
VERTEX
  5
167
  8
LAYER_1
 62
   250
 10
-14.8241
 20
-62.6359
 30
0.0
  0
VERTEX
  5
168
  8
LAYER_1
 62
   250
 10
-15.076
 20
-62.6105
 30
0.0
  0
SEQEND
  5
1C3
  8
LAYER_1
 62
   250
  0
POLYLINE
  5
6B
  8
LAYER_1
 62
   250
 66
     1
 10
0.0
 20
0.0
 30
0.0
  0
VERTEX
  5
169
  8
LAYER_1
 62
   250
 10
-17.076
 20
-62.6105
 30
0.0
  0
VERTEX
  5
16A
  8
LAYER_1
 62
   250
 10
-15.076
 20
-62.6105
 30
0.0
  0
SEQEND
  5
1C4
  8
LAYER_1
 62
   250
  0
POLYLINE
  5
6C
  8
LAYER_1
 62
   250
 66
     1
 10
0.0
 20
0.0
 30
0.0
  0
VERTEX
  5
16B
  8
LAYER_1
 62
   250
 10
-17.076
 20
-65.1105
 30
0.0
  0
VERTEX
  5
16C
  8
LAYER_1
 62
   250
 10
-15.076
 20
-65.1105
 30
0.0
  0
SEQEND
  5
1C5
  8
LAYER_1
 62
   250
  0
POLYLINE
  5
6D
  8
LAYER_1
 62
   250
 66
     1
 10
0.0
 20
0.0
 30
0.0
  0
VERTEX
  5
16D
  8
LAYER_1
 62
   250
 10
-87.0758
 20
14.813
 30
0.0
  0
VERTEX
  5
16E
  8
LAYER_1
 62
   250
 10
-87.3277
 20
14.8384
 30
0.0
  0
VERTEX
  5
16F
  8
LAYER_1
 62
   250
 10
-87.5624
 20
14.9112
 30
0.0
  0
VERTEX
  5
170
  8
LAYER_1
 62
   250
 10
-87.7747
 20
15.0265
 30
0.0
  0
VERTEX
  5
171
  8
LAYER_1
 62
   250
 10
-87.9597
 20
15.1791
 30
0.0
  0
VERTEX
  5
172
  8
LAYER_1
 62
   250
 10
-88.1123
 20
15.3641
 30
0.0
  0
VERTEX
  5
173
  8
LAYER_1
 62
   250
 10
-88.2276
 20
15.5765
 30
0.0
  0
VERTEX
  5
174
  8
LAYER_1
 62
   250
 10
-88.3004
 20
15.8111
 30
0.0
  0
VERTEX
  5
175
  8
LAYER_1
 62
   250
 10
-88.3258
 20
16.063
 30
0.0
  0
VERTEX
  5
176
  8
LAYER_1
 62
   250
 10
-88.3004
 20
16.3149
 30
0.0
  0
VERTEX
  5
177
  8
LAYER_1
 62
   250
 10
-88.2276
 20
16.5495
 30
0.0
  0
VERTEX
  5
178
  8
LAYER_1
 62
   250
 10
-88.1123
 20
16.7619
 30
0.0
  0
VERTEX
  5
179
  8
LAYER_1
 62
   250
 10
-87.9597
 20
16.9469
 30
0.0
  0
VERTEX
  5
17A
  8
LAYER_1
 62
   250
 10
-87.7747
 20
17.0995
 30
0.0
  0
VERTEX
  5
17B
  8
LAYER_1
 62
   250
 10
-87.5624
 20
17.2148
 30
0.0
  0
VERTEX
  5
17C
  8
LAYER_1
 62
   250
 10
-87.3277
 20
17.2876
 30
0.0
  0
VERTEX
  5
17D
  8
LAYER_1
 62
   250
 10
-87.0758
 20
17.313
 30
0.0
  0
SEQEND
  5
1C6
  8
LAYER_1
 62
   250
  0
POLYLINE
  5
6E
  8
LAYER_1
 62
   250
 66
     1
 10
0.0
 20
0.0
 30
0.0
  0
VERTEX
  5
17E
  8
LAYER_1
 62
   250
 10
-85.0758
 20
14.813
 30
0.0
  0
VERTEX
  5
17F
  8
LAYER_1
 62
   250
 10
-84.8239
 20
14.8384
 30
0.0
  0
VERTEX
  5
180
  8
LAYER_1
 62
   250
 10
-84.5892
 20
14.9112
 30
0.0
  0
VERTEX
  5
181
  8
LAYER_1
 62
   250
 10
-84.3769
 20
15.0265
 30
0.0
  0
VERTEX
  5
182
  8
LAYER_1
 62
   250
 10
-84.1919
 20
15.1791
 30
0.0
  0
VERTEX
  5
183
  8
LAYER_1
 62
   250
 10
-84.0393
 20
15.3641
 30
0.0
  0
VERTEX
  5
184
  8
LAYER_1
 62
   250
 10
-83.924
 20
15.5765
 30
0.0
  0
VERTEX
  5
185
  8
LAYER_1
 62
   250
 10
-83.8512
 20
15.8111
 30
0.0
  0
VERTEX
  5
186
  8
LAYER_1
 62
   250
 10
-83.8258
 20
16.063
 30
0.0
  0
VERTEX
  5
187
  8
LAYER_1
 62
   250
 10
-83.8512
 20
16.3149
 30
0.0
  0
VERTEX
  5
188
  8
LAYER_1
 62
   250
 10
-83.924
 20
16.5495
 30
0.0
  0
VERTEX
  5
189
  8
LAYER_1
 62
   250
 10
-84.0393
 20
16.7619
 30
0.0
  0
VERTEX
  5
18A
  8
LAYER_1
 62
   250
 10
-84.1919
 20
16.9469
 30
0.0
  0
VERTEX
  5
18B
  8
LAYER_1
 62
   250
 10
-84.3769
 20
17.0995
 30
0.0
  0
VERTEX
  5
18C
  8
LAYER_1
 62
   250
 10
-84.5892
 20
17.2148
 30
0.0
  0
VERTEX
  5
18D
  8
LAYER_1
 62
   250
 10
-84.8239
 20
17.2876
 30
0.0
  0
VERTEX
  5
18E
  8
LAYER_1
 62
   250
 10
-85.0758
 20
17.313
 30
0.0
  0
SEQEND
  5
1C7
  8
LAYER_1
 62
   250
  0
POLYLINE
  5
6F
  8
LAYER_1
 62
   250
 66
     1
 10
0.0
 20
0.0
 30
0.0
  0
VERTEX
  5
18F
  8
LAYER_1
 62
   250
 10
-87.0758
 20
17.313
 30
0.0
  0
VERTEX
  5
190
  8
LAYER_1
 62
   250
 10
-85.0758
 20
17.313
 30
0.0
  0
SEQEND
  5
1C8
  8
LAYER_1
 62
   250
  0
POLYLINE
  5
70
  8
LAYER_1
 62
   250
 66
     1
 10
0.0
 20
0.0
 30
0.0
  0
VERTEX
  5
191
  8
LAYER_1
 62
   250
 10
-87.0758
 20
14.813
 30
0.0
  0
VERTEX
  5
192
  8
LAYER_1
 62
   250
 10
-85.0758
 20
14.813
 30
0.0
  0
SEQEND
  5
1C9
  8
LAYER_1
 62
   250
  0
POLYLINE
  5
71
  8
LAYER_1
 62
   250
 66
     1
 10
0.0
 20
0.0
 30
0.0
  0
VERTEX
  5
193
  8
LAYER_1
 62
   250
 10
-17.1638
 20
14.8046
 30
0.0
  0
VERTEX
  5
194
  8
LAYER_1
 62
   250
 10
-17.4157
 20
14.83
 30
0.0
  0
VERTEX
  5
195
  8
LAYER_1
 62
   250
 10
-17.6504
 20
14.9028
 30
0.0
  0
VERTEX
  5
196
  8
LAYER_1
 62
   250
 10
-17.8627
 20
15.0181
 30
0.0
  0
VERTEX
  5
197
  8
LAYER_1
 62
   250
 10
-18.0477
 20
15.1707
 30
0.0
  0
VERTEX
  5
198
  8
LAYER_1
 62
   250
 10
-18.2003
 20
15.3557
 30
0.0
  0
VERTEX
  5
199
  8
LAYER_1
 62
   250
 10
-18.3156
 20
15.5681
 30
0.0
  0
VERTEX
  5
19A
  8
LAYER_1
 62
   250
 10
-18.3884
 20
15.8027
 30
0.0
  0
VERTEX
  5
19B
  8
LAYER_1
 62
   250
 10
-18.4138
 20
16.0546
 30
0.0
  0
VERTEX
  5
19C
  8
LAYER_1
 62
   250
 10
-18.3884
 20
16.3065
 30
0.0
  0
VERTEX
  5
19D
  8
LAYER_1
 62
   250
 10
-18.3156
 20
16.5411
 30
0.0
  0
VERTEX
  5
19E
  8
LAYER_1
 62
   250
 10
-18.2003
 20
16.7535
 30
0.0
  0
VERTEX
  5
19F
  8
LAYER_1
 62
   250
 10
-18.0477
 20
16.9385
 30
0.0
  0
VERTEX
  5
1A0
  8
LAYER_1
 62
   250
 10
-17.8627
 20
17.0911
 30
0.0
  0
VERTEX
  5
1A1
  8
LAYER_1
 62
   250
 10
-17.6504
 20
17.2064
 30
0.0
  0
VERTEX
  5
1A2
  8
LAYER_1
 62
   250
 10
-17.4157
 20
17.2792
 30
0.0
  0
VERTEX
  5
1A3
  8
LAYER_1
 62
   250
 10
-17.1638
 20
17.3046
 30
0.0
  0
SEQEND
  5
1CA
  8
LAYER_1
 62
   250
  0
POLYLINE
  5
72
  8
LAYER_1
 62
   250
 66
     1
 10
0.0
 20
0.0
 30
0.0
  0
VERTEX
  5
1A4
  8
LAYER_1
 62
   250
 10
-15.1638
 20
14.8046
 30
0.0
  0
VERTEX
  5
1A5
  8
LAYER_1
 62
   250
 10
-14.9119
 20
14.83
 30
0.0
  0
VERTEX
  5
1A6
  8
LAYER_1
 62
   250
 10
-14.6772
 20
14.9028
 30
0.0
  0
VERTEX
  5
1A7
  8
LAYER_1
 62
   250
 10
-14.4649
 20
15.0181
 30
0.0
  0
VERTEX
  5
1A8
  8
LAYER_1
 62
   250
 10
-14.2799
 20
15.1707
 30
0.0
  0
VERTEX
  5
1A9
  8
LAYER_1
 62
   250
 10
-14.1273
 20
15.3557
 30
0.0
  0
VERTEX
  5
1AA
  8
LAYER_1
 62
   250
 10
-14.012
 20
15.5681
 30
0.0
  0
VERTEX
  5
1AB
  8
LAYER_1
 62
   250
 10
-13.9392
 20
15.8027
 30
0.0
  0
VERTEX
  5
1AC
  8
LAYER_1
 62
   250
 10
-13.9138
 20
16.0546
 30
0.0
  0
VERTEX
  5
1AD
  8
LAYER_1
 62
   250
 10
-13.9392
 20
16.3065
 30
0.0
  0
VERTEX
  5
1AE
  8
LAYER_1
 62
   250
 10
-14.012
 20
16.5411
 30
0.0
  0
VERTEX
  5
1AF
  8
LAYER_1
 62
   250
 10
-14.1273
 20
16.7535
 30
0.0
  0
VERTEX
  5
1B0
  8
LAYER_1
 62
   250
 10
-14.2799
 20
16.9385
 30
0.0
  0
VERTEX
  5
1B1
  8
LAYER_1
 62
   250
 10
-14.4649
 20
17.0911
 30
0.0
  0
VERTEX
  5
1B2
  8
LAYER_1
 62
   250
 10
-14.6772
 20
17.2064
 30
0.0
  0
VERTEX
  5
1B3
  8
LAYER_1
 62
   250
 10
-14.9119
 20
17.2792
 30
0.0
  0
VERTEX
  5
1B4
  8
LAYER_1
 62
   250
 10
-15.1638
 20
17.3046
 30
0.0
  0
SEQEND
  5
1CB
  8
LAYER_1
 62
   250
  0
POLYLINE
  5
73
  8
LAYER_1
 62
   250
 66
     1
 10
0.0
 20
0.0
 30
0.0
  0
VERTEX
  5
1B5
  8
LAYER_1
 62
   250
 10
-17.1638
 20
17.3046
 30
0.0
  0
VERTEX
  5
1B6
  8
LAYER_1
 62
   250
 10
-15.1638
 20
17.3046
 30
0.0
  0
SEQEND
  5
1CC
  8
LAYER_1
 62
   250
  0
POLYLINE
  5
74
  8
LAYER_1
 62
   250
 66
     1
 10
0.0
 20
0.0
 30
0.0
  0
VERTEX
  5
1B7
  8
LAYER_1
 62
   250
 10
-17.1638
 20
14.8046
 30
0.0
  0
VERTEX
  5
1B8
  8
LAYER_1
 62
   250
 10
-15.1638
 20
14.8046
 30
0.0
  0
SEQEND
  5
1CD
  8
LAYER_1
 62
   250
  0
ENDSEC
  0
EOF
