  0
SECTION
  2
HEADER
  9
$ACADVER
  1
AC1009
  9
$DWGCODEPAGE
  3
ansi_1252
  9
$INSBASE
 10
0.0
 20
0.0
 30
0.0
  9
$EXTMIN
 10
-53.2349
 20
1.3076
 30
0.0
  9
$EXTMAX
 10
25.9415
 20
76.484
 30
0.0
  9
$LIMMIN
 10
0.0
 20
0.0
  9
$LIMMAX
 10
12.0
 20
9.0
  9
$ORTHOMODE
 70
     0
  9
$REGENMODE
 70
     1
  9
$FILLMODE
 70
     1
  9
$QTEXTMODE
 70
     0
  9
$MIRRTEXT
 70
     1
  9
$DRAGMODE
 70
     2
  9
$LTSCALE
 40
1.0
  9
$OSMODE
 70
    37
  9
$ATTMODE
 70
     1
  9
$TEXTSIZE
 40
0.2
  9
$TRACEWID
 40
0.05
  9
$TEXTSTYLE
  7
STANDARD
  9
$CLAYER
  8
0
  9
$CELTYPE
  6
BYLAYER
  9
$CECOLOR
 62
   256
  9
$DIMSCALE
 40
1.0
  9
$DIMASZ
 40
0.18
  9
$DIMEXO
 40
0.0625
  9
$DIMDLI
 40
0.38
  9
$DIMRND
 40
0.0
  9
$DIMDLE
 40
0.0
  9
$DIMEXE
 40
0.18
  9
$DIMTP
 40
0.0
  9
$DIMTM
 40
0.0
  9
$DIMTXT
 40
0.18
  9
$DIMCEN
 40
0.09
  9
$DIMTSZ
 40
0.0
  9
$DIMTOL
 70
     0
  9
$DIMLIM
 70
     0
  9
$DIMTIH
 70
     1
  9
$DIMTOH
 70
     1
  9
$DIMSE1
 70
     0
  9
$DIMSE2
 70
     0
  9
$DIMTAD
 70
     0
  9
$DIMZIN
 70
     0
  9
$DIMBLK
  1

  9
$DIMASO
 70
     1
  9
$DIMSHO
 70
     1
  9
$DIMPOST
  1

  9
$DIMAPOST
  1

  9
$DIMALT
 70
     0
  9
$DIMALTD
 70
     2
  9
$DIMALTF
 40
25.4
  9
$DIMLFAC
 40
1.0
  9
$DIMTOFL
 70
     0
  9
$DIMTVP
 40
0.0
  9
$DIMTIX
 70
     0
  9
$DIMSOXD
 70
     0
  9
$DIMSAH
 70
     0
  9
$DIMBLK1
  1

  9
$DIMBLK2
  1

  9
$DIMSTYLE
  2
STANDARD
  9
$DIMCLRD
 70
     0
  9
$DIMCLRE
 70
     0
  9
$DIMCLRT
 70
     0
  9
$DIMTFAC
 40
1.0
  9
$DIMGAP
 40
0.09
  9
$LUNITS
 70
     2
  9
$LUPREC
 70
     4
  9
$SKETCHINC
 40
0.1
  9
$FILLETRAD
 40
0.0
  9
$AUNITS
 70
     0
  9
$AUPREC
 70
     0
  9
$MENU
  1
.
  9
$ELEVATION
 40
0.0
  9
$PELEVATION
 40
0.0
  9
$THICKNESS
 40
0.0
  9
$LIMCHECK
 70
     0
  9
$CHAMFERA
 40
0.0
  9
$CHAMFERB
 40
0.0
  9
$SKPOLY
 70
     0
  9
$TDCREATE
 40
2460414.393621516
  9
$TDUPDATE
 40
2460414.393621528
  9
$TDINDWG
 40
0.0000000116
  9
$TDUSRTIMER
 40
0.0000000116
  9
$USRTIMER
 70
     1
  9
$ANGBASE
 50
0.0
  9
$ANGDIR
 70
     0
  9
$PDMODE
 70
     0
  9
$PDSIZE
 40
0.0
  9
$PLINEWID
 40
0.0
  9
$COORDS
 70
     1
  9
$SPLFRAME
 70
     0
  9
$SPLINETYPE
 70
     6
  9
$SPLINESEGS
 70
     8
  9
$ATTDIA
 70
     0
  9
$ATTREQ
 70
     1
  9
$HANDLING
 70
     1
  9
$HANDSEED
  5
21E
  9
$SURFTAB1
 70
     6
  9
$SURFTAB2
 70
     6
  9
$SURFTYPE
 70
     6
  9
$SURFU
 70
     6
  9
$SURFV
 70
     6
  9
$UCSNAME
  2

  9
$UCSORG
 10
0.0
 20
0.0
 30
0.0
  9
$UCSXDIR
 10
1.0
 20
0.0
 30
0.0
  9
$UCSYDIR
 10
0.0
 20
1.0
 30
0.0
  9
$PUCSNAME
  2

  9
$PUCSORG
 10
0.0
 20
0.0
 30
0.0
  9
$PUCSXDIR
 10
1.0
 20
0.0
 30
0.0
  9
$PUCSYDIR
 10
0.0
 20
1.0
 30
0.0
  9
$USERI1
 70
     0
  9
$USERI2
 70
     0
  9
$USERI3
 70
     0
  9
$USERI4
 70
     0
  9
$USERI5
 70
     0
  9
$USERR1
 40
0.0
  9
$USERR2
 40
0.0
  9
$USERR3
 40
0.0
  9
$USERR4
 40
0.0
  9
$USERR5
 40
0.0
  9
$WORLDVIEW
 70
     1
  9
$SHADEDGE
 70
     3
  9
$SHADEDIF
 70
    70
  9
$TILEMODE
 70
     1
  9
$MAXACTVP
 70
    64
  9
$PLIMCHECK
 70
     0
  9
$PEXTMIN
 10
1.000000000000000E+20
 20
1.000000000000000E+20
 30
1.000000000000000E+20
  9
$PEXTMAX
 10
-1.000000000000000E+20
 20
-1.000000000000000E+20
 30
-1.000000000000000E+20
  9
$PLIMMIN
 10
0.0
 20
0.0
  9
$PLIMMAX
 10
12.0
 20
9.0
  9
$UNITMODE
 70
     0
  9
$VISRETAIN
 70
     1
  9
$PLINEGEN
 70
     0
  9
$PSLTSCALE
 70
     1
  0
ENDSEC
  0
SECTION
  2
TABLES
  0
TABLE
  2
VPORT
 70
     1
  0
VPORT
  2
*ACTIVE
 70
     0
 10
0.0
 20
0.0
 11
1.0
 21
1.0
 12
10.42990654205607
 22
4.5
 13
0.0
 23
0.0
 14
0.5
 24
0.5
 15
0.5
 25
0.5
 16
0.0
 26
0.0
 36
1.0
 17
0.0
 27
0.0
 37
0.0
 40
9.0
 41
1.972972972850329
 42
50.0
 43
0.0
 44
0.0
 50
0.0
 51
0.0
 71
     0
 72
   100
 73
     1
 74
     3
 75
     0
 76
     0
 77
     0
 78
     0
  0
ENDTAB
  0
TABLE
  2
LTYPE
 70
     1
  0
LTYPE
  2
CONTINUOUS
 70
     0
  3
Solid line
 72
    65
 73
     0
 40
0.0
  0
ENDTAB
  0
TABLE
  2
LAYER
 70
     2
  0
LAYER
  2
0
 70
     0
 62
     7
  6
CONTINUOUS
  0
LAYER
  2
LAYER_1
 70
     0
 62
     7
  6
CONTINUOUS
  0
ENDTAB
  0
TABLE
  2
STYLE
 70
     1
  0
STYLE
  2
STANDARD
 70
     0
 40
0.0
 41
1.0
 50
0.0
 71
     0
 42
0.2
  3
txt
  4

  0
ENDTAB
  0
TABLE
  2
VIEW
 70
     0
  0
ENDTAB
  0
TABLE
  2
UCS
 70
     0
  0
ENDTAB
  0
TABLE
  2
APPID
 70
     2
  0
APPID
  2
ACAD
 70
     0
  0
APPID
  2
ODA
 70
     0
  0
ENDTAB
  0
TABLE
  2
DIMSTYLE
 70
     1
  0
DIMSTYLE
  2
STANDARD
 70
     0
  3

  4

  5

  6

  7

 40
1.0
 41
0.18
 42
0.0625
 43
0.38
 44
0.18
 45
0.0
 46
0.0
 47
0.0
 48
0.0
140
0.18
141
0.09
142
0.0
143
25.4
144
1.0
145
0.0
146
1.0
147
0.09
 71
     0
 72
     0
 73
     1
 74
     1
 75
     0
 76
     0
 77
     0
 78
     0
170
     0
171
     2
172
     0
173
     0
174
     0
175
     0
176
     0
177
     0
178
     0
  0
ENDTAB
  0
ENDSEC
  0
SECTION
  2
BLOCKS
  0
BLOCK
  8
0
  2
$MODEL_SPACE
 70
     0
 10
0.0
 20
0.0
 30
0.0
  3
$MODEL_SPACE
  1

  0
ENDBLK
  5
21
  8
0
  0
BLOCK
 67
     1
  8
0
  2
$PAPER_SPACE
 70
     0
 10
0.0
 20
0.0
 30
0.0
  3
$PAPER_SPACE
  1

  0
ENDBLK
  5
1D
 67
     1
  8
0
  0
ENDSEC
  0
SECTION
  2
ENTITIES
  0
POLYLINE
  5
60
  8
LAYER_1
 62
   250
 66
     1
 10
0.0
 20
0.0
 30
0.0
 70
     1
  0
VERTEX
  5
84
  8
LAYER_1
 62
   250
 10
22.8533
 20
73.3958
 30
0.0
  0
VERTEX
  5
85
  8
LAYER_1
 62
   250
 10
25.8533
 20
73.3958
 30
0.0
  0
VERTEX
  5
86
  8
LAYER_1
 62
   250
 10
25.8533
 20
76.3958
 30
0.0
  0
VERTEX
  5
87
  8
LAYER_1
 62
   250
 10
22.8533
 20
76.3958
 30
0.0
  0
VERTEX
  5
88
  8
LAYER_1
 62
   250
 10
22.8533
 20
73.3958
 30
0.0
  0
SEQEND
  5
201
  8
LAYER_1
 62
   250
  0
POLYLINE
  5
61
  8
LAYER_1
 62
   250
 66
     1
 10
0.0
 20
0.0
 30
0.0
 70
     1
  0
VERTEX
  5
89
  8
LAYER_1
 62
   250
 10
-53.1467
 20
73.3958
 30
0.0
  0
VERTEX
  5
8A
  8
LAYER_1
 62
   250
 10
-50.1467
 20
73.3958
 30
0.0
  0
VERTEX
  5
8B
  8
LAYER_1
 62
   250
 10
-50.1467
 20
76.3958
 30
0.0
  0
VERTEX
  5
8C
  8
LAYER_1
 62
   250
 10
-53.1467
 20
76.3958
 30
0.0
  0
VERTEX
  5
8D
  8
LAYER_1
 62
   250
 10
-53.1467
 20
73.3958
 30
0.0
  0
SEQEND
  5
202
  8
LAYER_1
 62
   250
  0
POLYLINE
  5
62
  8
LAYER_1
 62
   250
 66
     1
 10
0.0
 20
0.0
 30
0.0
 70
     1
  0
VERTEX
  5
8E
  8
LAYER_1
 62
   250
 10
-53.1467
 20
1.3958
 30
0.0
  0
VERTEX
  5
8F
  8
LAYER_1
 62
   250
 10
-50.1467
 20
1.3958
 30
0.0
  0
VERTEX
  5
90
  8
LAYER_1
 62
   250
 10
-50.1467
 20
4.3958
 30
0.0
  0
VERTEX
  5
91
  8
LAYER_1
 62
   250
 10
-53.1467
 20
4.3958
 30
0.0
  0
VERTEX
  5
92
  8
LAYER_1
 62
   250
 10
-53.1467
 20
1.3958
 30
0.0
  0
SEQEND
  5
203
  8
LAYER_1
 62
   250
  0
POLYLINE
  5
63
  8
LAYER_1
 62
   250
 66
     1
 10
0.0
 20
0.0
 30
0.0
 70
     1
  0
VERTEX
  5
93
  8
LAYER_1
 62
   250
 10
22.8533
 20
1.3958
 30
0.0
  0
VERTEX
  5
94
  8
LAYER_1
 62
   250
 10
25.8533
 20
1.3958
 30
0.0
  0
VERTEX
  5
95
  8
LAYER_1
 62
   250
 10
25.8533
 20
4.3958
 30
0.0
  0
VERTEX
  5
96
  8
LAYER_1
 62
   250
 10
22.8533
 20
4.3958
 30
0.0
  0
VERTEX
  5
97
  8
LAYER_1
 62
   250
 10
22.8533
 20
1.3958
 30
0.0
  0
SEQEND
  5
204
  8
LAYER_1
 62
   250
  0
POLYLINE
  5
64
  8
LAYER_1
 62
   250
 66
     1
 10
0.0
 20
0.0
 30
0.0
 70
     1
  0
VERTEX
  5
98
  8
LAYER_1
 62
   250
 10
-50.1467
 20
76.3958
 30
0.0
  0
VERTEX
  5
99
  8
LAYER_1
 62
   250
 10
22.8533
 20
76.3958
 30
0.0
  0
VERTEX
  5
9A
  8
LAYER_1
 62
   250
 10
23.4559
 20
76.3346
 30
0.0
  0
VERTEX
  5
9B
  8
LAYER_1
 62
   250
 10
24.0181
 20
76.1591
 30
0.0
  0
VERTEX
  5
9C
  8
LAYER_1
 62
   250
 10
24.5276
 20
75.8816
 30
0.0
  0
VERTEX
  5
9D
  8
LAYER_1
 62
   250
 10
24.9721
 20
75.5146
 30
0.0
  0
VERTEX
  5
9E
  8
LAYER_1
 62
   250
 10
25.3391
 20
75.0701
 30
0.0
  0
VERTEX
  5
9F
  8
LAYER_1
 62
   250
 10
25.6166
 20
74.5606
 30
0.0
  0
VERTEX
  5
A0
  8
LAYER_1
 62
   250
 10
25.7921
 20
73.9984
 30
0.0
  0
VERTEX
  5
A1
  8
LAYER_1
 62
   250
 10
25.8533
 20
73.3958
 30
0.0
  0
VERTEX
  5
A2
  8
LAYER_1
 62
   250
 10
25.8533
 20
4.3959
 30
0.0
  0
VERTEX
  5
A3
  8
LAYER_1
 62
   250
 10
25.7921
 20
3.7933
 30
0.0
  0
VERTEX
  5
A4
  8
LAYER_1
 62
   250
 10
25.6166
 20
3.231
 30
0.0
  0
VERTEX
  5
A5
  8
LAYER_1
 62
   250
 10
25.3391
 20
2.7216
 30
0.0
  0
VERTEX
  5
A6
  8
LAYER_1
 62
   250
 10
24.9721
 20
2.2771
 30
0.0
  0
VERTEX
  5
A7
  8
LAYER_1
 62
   250
 10
24.5276
 20
1.91
 30
0.0
  0
VERTEX
  5
A8
  8
LAYER_1
 62
   250
 10
24.0181
 20
1.6325
 30
0.0
  0
VERTEX
  5
A9
  8
LAYER_1
 62
   250
 10
23.4559
 20
1.457
 30
0.0
  0
VERTEX
  5
AA
  8
LAYER_1
 62
   250
 10
22.8533
 20
1.3958
 30
0.0
  0
VERTEX
  5
AB
  8
LAYER_1
 62
   250
 10
-50.1467
 20
1.3958
 30
0.0
  0
VERTEX
  5
AC
  8
LAYER_1
 62
   250
 10
-50.7493
 20
1.457
 30
0.0
  0
VERTEX
  5
AD
  8
LAYER_1
 62
   250
 10
-51.3115
 20
1.6325
 30
0.0
  0
VERTEX
  5
AE
  8
LAYER_1
 62
   250
 10
-51.821
 20
1.91
 30
0.0
  0
VERTEX
  5
AF
  8
LAYER_1
 62
   250
 10
-52.2655
 20
2.2771
 30
0.0
  0
VERTEX
  5
B0
  8
LAYER_1
 62
   250
 10
-52.6325
 20
2.7216
 30
0.0
  0
VERTEX
  5
B1
  8
LAYER_1
 62
   250
 10
-52.91
 20
3.231
 30
0.0
  0
VERTEX
  5
B2
  8
LAYER_1
 62
   250
 10
-53.0855
 20
3.7933
 30
0.0
  0
VERTEX
  5
B3
  8
LAYER_1
 62
   250
 10
-53.1467
 20
4.3959
 30
0.0
  0
VERTEX
  5
B4
  8
LAYER_1
 62
   250
 10
-53.1467
 20
73.3958
 30
0.0
  0
VERTEX
  5
B5
  8
LAYER_1
 62
   250
 10
-53.0855
 20
73.9984
 30
0.0
  0
VERTEX
  5
B6
  8
LAYER_1
 62
   250
 10
-52.91
 20
74.5606
 30
0.0
  0
VERTEX
  5
B7
  8
LAYER_1
 62
   250
 10
-52.6325
 20
75.0701
 30
0.0
  0
VERTEX
  5
B8
  8
LAYER_1
 62
   250
 10
-52.2655
 20
75.5146
 30
0.0
  0
VERTEX
  5
B9
  8
LAYER_1
 62
   250
 10
-51.821
 20
75.8816
 30
0.0
  0
VERTEX
  5
BA
  8
LAYER_1
 62
   250
 10
-51.3115
 20
76.1591
 30
0.0
  0
VERTEX
  5
BB
  8
LAYER_1
 62
   250
 10
-50.7493
 20
76.3346
 30
0.0
  0
VERTEX
  5
BC
  8
LAYER_1
 62
   250
 10
-50.1467
 20
76.3958
 30
0.0
  0
SEQEND
  5
205
  8
LAYER_1
 62
   250
  0
POLYLINE
  5
65
  8
LAYER_1
 62
   250
 66
     1
 10
0.0
 20
0.0
 30
0.0
 70
     1
  0
VERTEX
  5
BD
  8
LAYER_1
 62
   250
 10
17.2283
 20
8.4958
 30
0.0
  0
VERTEX
  5
BE
  8
LAYER_1
 62
   250
 10
16.64302903395162
 20
8.438155841209692
 30
0.0
  0
VERTEX
  5
BF
  8
LAYER_1
 62
   250
 10
16.08024970290473
 20
8.267438597533861
 30
0.0
  0
VERTEX
  5
C0
  8
LAYER_1
 62
   250
 10
15.56158930094119
 20
7.990208836907636
 30
0.0
  0
VERTEX
  5
C1
  8
LAYER_1
 62
   250
 10
15.10697965644036
 20
7.617120343559643
 30
0.0
  0
VERTEX
  5
C2
  8
LAYER_1
 62
   250
 10
14.73389116309237
 20
7.162510699058807
 30
0.0
  0
VERTEX
  5
C3
  8
LAYER_1
 62
   250
 10
14.45666140246614
 20
6.64385029709527
 30
0.0
  0
VERTEX
  5
C4
  8
LAYER_1
 62
   250
 10
14.28594415879031
 20
6.081070966048385
 30
0.0
  0
VERTEX
  5
C5
  8
LAYER_1
 62
   250
 10
14.2283
 20
5.4958
 30
0.0
  0
VERTEX
  5
C6
  8
LAYER_1
 62
   250
 10
14.28594415879031
 20
4.910529033951615
 30
0.0
  0
VERTEX
  5
C7
  8
LAYER_1
 62
   250
 10
14.45666140246614
 20
4.34774970290473
 30
0.0
  0
VERTEX
  5
C8
  8
LAYER_1
 62
   250
 10
14.73389116309236
 20
3.829089300941194
 30
0.0
  0
VERTEX
  5
C9
  8
LAYER_1
 62
   250
 10
15.10697965644036
 20
3.374479656440358
 30
0.0
  0
VERTEX
  5
CA
  8
LAYER_1
 62
   250
 10
15.56158930094119
 20
3.001391163092364
 30
0.0
  0
VERTEX
  5
CB
  8
LAYER_1
 62
   250
 10
16.08024970290473
 20
2.72416140246614
 30
0.0
  0
VERTEX
  5
CC
  8
LAYER_1
 62
   250
 10
16.64302903395162
 20
2.553444158790308
 30
0.0
  0
VERTEX
  5
CD
  8
LAYER_1
 62
   250
 10
17.2283
 20
2.4958
 30
0.0
  0
VERTEX
  5
CE
  8
LAYER_1
 62
   250
 10
17.81357096604839
 20
2.55344415879031
 30
0.0
  0
VERTEX
  5
CF
  8
LAYER_1
 62
   250
 10
18.37635029709528
 20
2.724161402466141
 30
0.0
  0
VERTEX
  5
D0
  8
LAYER_1
 62
   250
 10
18.89501069905881
 20
3.001391163092367
 30
0.0
  0
VERTEX
  5
D1
  8
LAYER_1
 62
   250
 10
19.34962034355965
 20
3.374479656440361
 30
0.0
  0
VERTEX
  5
D2
  8
LAYER_1
 62
   250
 10
19.72270883690764
 20
3.829089300941198
 30
0.0
  0
VERTEX
  5
D3
  8
LAYER_1
 62
   250
 10
19.99993859753386
 20
4.347749702904737
 30
0.0
  0
VERTEX
  5
D4
  8
LAYER_1
 62
   250
 10
20.17065584120969
 20
4.910529033951622
 30
0.0
  0
VERTEX
  5
D5
  8
LAYER_1
 62
   250
 10
20.2283
 20
5.495800000000007
 30
0.0
  0
VERTEX
  5
D6
  8
LAYER_1
 62
   250
 10
20.17065584120969
 20
6.081070966048393
 30
0.0
  0
VERTEX
  5
D7
  8
LAYER_1
 62
   250
 10
19.99993859753386
 20
6.643850297095277
 30
0.0
  0
VERTEX
  5
D8
  8
LAYER_1
 62
   250
 10
19.72270883690763
 20
7.162510699058815
 30
0.0
  0
VERTEX
  5
D9
  8
LAYER_1
 62
   250
 10
19.34962034355964
 20
7.61712034355965
 30
0.0
  0
VERTEX
  5
DA
  8
LAYER_1
 62
   250
 10
18.8950106990588
 20
7.990208836907642
 30
0.0
  0
VERTEX
  5
DB
  8
LAYER_1
 62
   250
 10
18.37635029709526
 20
8.267438597533864
 30
0.0
  0
VERTEX
  5
DC
  8
LAYER_1
 62
   250
 10
17.81357096604837
 20
8.438155841209694
 30
0.0
  0
SEQEND
  5
206
  8
LAYER_1
 62
   250
  0
POLYLINE
  5
66
  8
LAYER_1
 62
   250
 66
     1
 10
0.0
 20
0.0
 30
0.0
  0
VERTEX
  5
DD
  8
LAYER_1
 62
   250
 10
16.8747
 20
5.1422
 30
0.0
  0
VERTEX
  5
DE
  8
LAYER_1
 62
   250
 10
17.5819
 20
5.8494
 30
0.0
  0
SEQEND
  5
207
  8
LAYER_1
 62
   250
  0
POLYLINE
  5
67
  8
LAYER_1
 62
   250
 66
     1
 10
0.0
 20
0.0
 30
0.0
  0
VERTEX
  5
DF
  8
LAYER_1
 62
   250
 10
17.5819
 20
5.1422
 30
0.0
  0
VERTEX
  5
E0
  8
LAYER_1
 62
   250
 10
16.8747
 20
5.8494
 30
0.0
  0
SEQEND
  5
208
  8
LAYER_1
 62
   250
  0
POLYLINE
  5
68
  8
LAYER_1
 62
   250
 66
     1
 10
0.0
 20
0.0
 30
0.0
 70
     1
  0
VERTEX
  5
E1
  8
LAYER_1
 62
   250
 10
17.2283
 20
75.2958
 30
0.0
  0
VERTEX
  5
E2
  8
LAYER_1
 62
   250
 10
16.64302903395162
 20
75.23815584120969
 30
0.0
  0
VERTEX
  5
E3
  8
LAYER_1
 62
   250
 10
16.08024970290473
 20
75.06743859753387
 30
0.0
  0
VERTEX
  5
E4
  8
LAYER_1
 62
   250
 10
15.56158930094119
 20
74.79020883690764
 30
0.0
  0
VERTEX
  5
E5
  8
LAYER_1
 62
   250
 10
15.10697965644036
 20
74.41712034355965
 30
0.0
  0
VERTEX
  5
E6
  8
LAYER_1
 62
   250
 10
14.73389116309237
 20
73.96251069905881
 30
0.0
  0
VERTEX
  5
E7
  8
LAYER_1
 62
   250
 10
14.45666140246614
 20
73.44385029709527
 30
0.0
  0
VERTEX
  5
E8
  8
LAYER_1
 62
   250
 10
14.28594415879031
 20
72.88107096604838
 30
0.0
  0
VERTEX
  5
E9
  8
LAYER_1
 62
   250
 10
14.2283
 20
72.2958
 30
0.0
  0
VERTEX
  5
EA
  8
LAYER_1
 62
   250
 10
14.28594415879031
 20
71.71052903395162
 30
0.0
  0
VERTEX
  5
EB
  8
LAYER_1
 62
   250
 10
14.45666140246614
 20
71.14774970290473
 30
0.0
  0
VERTEX
  5
EC
  8
LAYER_1
 62
   250
 10
14.73389116309236
 20
70.62908930094119
 30
0.0
  0
VERTEX
  5
ED
  8
LAYER_1
 62
   250
 10
15.10697965644036
 20
70.17447965644035
 30
0.0
  0
VERTEX
  5
EE
  8
LAYER_1
 62
   250
 10
15.56158930094119
 20
69.80139116309236
 30
0.0
  0
VERTEX
  5
EF
  8
LAYER_1
 62
   250
 10
16.08024970290473
 20
69.52416140246613
 30
0.0
  0
VERTEX
  5
F0
  8
LAYER_1
 62
   250
 10
16.64302903395162
 20
69.35344415879031
 30
0.0
  0
VERTEX
  5
F1
  8
LAYER_1
 62
   250
 10
17.2283
 20
69.2958
 30
0.0
  0
VERTEX
  5
F2
  8
LAYER_1
 62
   250
 10
17.81357096604839
 20
69.35344415879031
 30
0.0
  0
VERTEX
  5
F3
  8
LAYER_1
 62
   250
 10
18.37635029709528
 20
69.52416140246613
 30
0.0
  0
VERTEX
  5
F4
  8
LAYER_1
 62
   250
 10
18.89501069905881
 20
69.80139116309236
 30
0.0
  0
VERTEX
  5
F5
  8
LAYER_1
 62
   250
 10
19.34962034355965
 20
70.17447965644035
 30
0.0
  0
VERTEX
  5
F6
  8
LAYER_1
 62
   250
 10
19.72270883690764
 20
70.6290893009412
 30
0.0
  0
VERTEX
  5
F7
  8
LAYER_1
 62
   250
 10
19.99993859753386
 20
71.14774970290473
 30
0.0
  0
VERTEX
  5
F8
  8
LAYER_1
 62
   250
 10
20.17065584120969
 20
71.71052903395162
 30
0.0
  0
VERTEX
  5
F9
  8
LAYER_1
 62
   250
 10
20.2283
 20
72.29580000000001
 30
0.0
  0
VERTEX
  5
FA
  8
LAYER_1
 62
   250
 10
20.17065584120969
 20
72.8810709660484
 30
0.0
  0
VERTEX
  5
FB
  8
LAYER_1
 62
   250
 10
19.99993859753386
 20
73.44385029709528
 30
0.0
  0
VERTEX
  5
FC
  8
LAYER_1
 62
   250
 10
19.72270883690763
 20
73.96251069905881
 30
0.0
  0
VERTEX
  5
FD
  8
LAYER_1
 62
   250
 10
19.34962034355964
 20
74.41712034355965
 30
0.0
  0
VERTEX
  5
FE
  8
LAYER_1
 62
   250
 10
18.8950106990588
 20
74.79020883690764
 30
0.0
  0
VERTEX
  5
FF
  8
LAYER_1
 62
   250
 10
18.37635029709526
 20
75.06743859753387
 30
0.0
  0
VERTEX
  5
100
  8
LAYER_1
 62
   250
 10
17.81357096604837
 20
75.23815584120969
 30
0.0
  0
SEQEND
  5
209
  8
LAYER_1
 62
   250
  0
POLYLINE
  5
69
  8
LAYER_1
 62
   250
 66
     1
 10
0.0
 20
0.0
 30
0.0
  0
VERTEX
  5
101
  8
LAYER_1
 62
   250
 10
16.8747
 20
71.9422
 30
0.0
  0
VERTEX
  5
102
  8
LAYER_1
 62
   250
 10
17.5819
 20
72.6494
 30
0.0
  0
SEQEND
  5
20A
  8
LAYER_1
 62
   250
  0
POLYLINE
  5
6A
  8
LAYER_1
 62
   250
 66
     1
 10
0.0
 20
0.0
 30
0.0
  0
VERTEX
  5
103
  8
LAYER_1
 62
   250
 10
17.5819
 20
71.9422
 30
0.0
  0
VERTEX
  5
104
  8
LAYER_1
 62
   250
 10
16.8747
 20
72.6494
 30
0.0
  0
SEQEND
  5
20B
  8
LAYER_1
 62
   250
  0
POLYLINE
  5
6B
  8
LAYER_1
 62
   250
 66
     1
 10
0.0
 20
0.0
 30
0.0
 70
     1
  0
VERTEX
  5
105
  8
LAYER_1
 62
   250
 10
-44.5217
 20
8.4958
 30
0.0
  0
VERTEX
  5
106
  8
LAYER_1
 62
   250
 10
-45.10697096604839
 20
8.438155841209692
 30
0.0
  0
VERTEX
  5
107
  8
LAYER_1
 62
   250
 10
-45.66975029709527
 20
8.267438597533861
 30
0.0
  0
VERTEX
  5
108
  8
LAYER_1
 62
   250
 10
-46.18841069905881
 20
7.990208836907636
 30
0.0
  0
VERTEX
  5
109
  8
LAYER_1
 62
   250
 10
-46.64302034355965
 20
7.617120343559643
 30
0.0
  0
VERTEX
  5
10A
  8
LAYER_1
 62
   250
 10
-47.01610883690764
 20
7.162510699058807
 30
0.0
  0
VERTEX
  5
10B
  8
LAYER_1
 62
   250
 10
-47.29333859753386
 20
6.64385029709527
 30
0.0
  0
VERTEX
  5
10C
  8
LAYER_1
 62
   250
 10
-47.46405584120969
 20
6.081070966048385
 30
0.0
  0
VERTEX
  5
10D
  8
LAYER_1
 62
   250
 10
-47.5217
 20
5.4958
 30
0.0
  0
VERTEX
  5
10E
  8
LAYER_1
 62
   250
 10
-47.46405584120969
 20
4.910529033951615
 30
0.0
  0
VERTEX
  5
10F
  8
LAYER_1
 62
   250
 10
-47.29333859753386
 20
4.34774970290473
 30
0.0
  0
VERTEX
  5
110
  8
LAYER_1
 62
   250
 10
-47.01610883690764
 20
3.829089300941194
 30
0.0
  0
VERTEX
  5
111
  8
LAYER_1
 62
   250
 10
-46.64302034355965
 20
3.374479656440358
 30
0.0
  0
VERTEX
  5
112
  8
LAYER_1
 62
   250
 10
-46.18841069905881
 20
3.001391163092364
 30
0.0
  0
VERTEX
  5
113
  8
LAYER_1
 62
   250
 10
-45.66975029709527
 20
2.72416140246614
 30
0.0
  0
VERTEX
  5
114
  8
LAYER_1
 62
   250
 10
-45.10697096604839
 20
2.553444158790308
 30
0.0
  0
VERTEX
  5
115
  8
LAYER_1
 62
   250
 10
-44.5217
 20
2.4958
 30
0.0
  0
VERTEX
  5
116
  8
LAYER_1
 62
   250
 10
-43.93642903395161
 20
2.55344415879031
 30
0.0
  0
VERTEX
  5
117
  8
LAYER_1
 62
   250
 10
-43.37364970290473
 20
2.724161402466141
 30
0.0
  0
VERTEX
  5
118
  8
LAYER_1
 62
   250
 10
-42.85498930094119
 20
3.001391163092367
 30
0.0
  0
VERTEX
  5
119
  8
LAYER_1
 62
   250
 10
-42.40037965644036
 20
3.374479656440361
 30
0.0
  0
VERTEX
  5
11A
  8
LAYER_1
 62
   250
 10
-42.02729116309236
 20
3.829089300941198
 30
0.0
  0
VERTEX
  5
11B
  8
LAYER_1
 62
   250
 10
-41.75006140246614
 20
4.347749702904737
 30
0.0
  0
VERTEX
  5
11C
  8
LAYER_1
 62
   250
 10
-41.57934415879031
 20
4.910529033951622
 30
0.0
  0
VERTEX
  5
11D
  8
LAYER_1
 62
   250
 10
-41.5217
 20
5.495800000000007
 30
0.0
  0
VERTEX
  5
11E
  8
LAYER_1
 62
   250
 10
-41.57934415879031
 20
6.081070966048393
 30
0.0
  0
VERTEX
  5
11F
  8
LAYER_1
 62
   250
 10
-41.75006140246614
 20
6.643850297095277
 30
0.0
  0
VERTEX
  5
120
  8
LAYER_1
 62
   250
 10
-42.02729116309237
 20
7.162510699058815
 30
0.0
  0
VERTEX
  5
121
  8
LAYER_1
 62
   250
 10
-42.40037965644036
 20
7.61712034355965
 30
0.0
  0
VERTEX
  5
122
  8
LAYER_1
 62
   250
 10
-42.85498930094121
 20
7.990208836907642
 30
0.0
  0
VERTEX
  5
123
  8
LAYER_1
 62
   250
 10
-43.37364970290474
 20
8.267438597533864
 30
0.0
  0
VERTEX
  5
124
  8
LAYER_1
 62
   250
 10
-43.93642903395163
 20
8.438155841209694
 30
0.0
  0
SEQEND
  5
20C
  8
LAYER_1
 62
   250
  0
POLYLINE
  5
6C
  8
LAYER_1
 62
   250
 66
     1
 10
0.0
 20
0.0
 30
0.0
  0
VERTEX
  5
125
  8
LAYER_1
 62
   250
 10
-44.8753
 20
5.1422
 30
0.0
  0
VERTEX
  5
126
  8
LAYER_1
 62
   250
 10
-44.1681
 20
5.8494
 30
0.0
  0
SEQEND
  5
20D
  8
LAYER_1
 62
   250
  0
POLYLINE
  5
6D
  8
LAYER_1
 62
   250
 66
     1
 10
0.0
 20
0.0
 30
0.0
  0
VERTEX
  5
127
  8
LAYER_1
 62
   250
 10
-44.1681
 20
5.1422
 30
0.0
  0
VERTEX
  5
128
  8
LAYER_1
 62
   250
 10
-44.8753
 20
5.8494
 30
0.0
  0
SEQEND
  5
20E
  8
LAYER_1
 62
   250
  0
POLYLINE
  5
6E
  8
LAYER_1
 62
   250
 66
     1
 10
0.0
 20
0.0
 30
0.0
 70
     1
  0
VERTEX
  5
129
  8
LAYER_1
 62
   250
 10
-44.5217
 20
75.2958
 30
0.0
  0
VERTEX
  5
12A
  8
LAYER_1
 62
   250
 10
-45.10697096604839
 20
75.23815584120969
 30
0.0
  0
VERTEX
  5
12B
  8
LAYER_1
 62
   250
 10
-45.66975029709527
 20
75.06743859753387
 30
0.0
  0
VERTEX
  5
12C
  8
LAYER_1
 62
   250
 10
-46.18841069905881
 20
74.79020883690764
 30
0.0
  0
VERTEX
  5
12D
  8
LAYER_1
 62
   250
 10
-46.64302034355965
 20
74.41712034355965
 30
0.0
  0
VERTEX
  5
12E
  8
LAYER_1
 62
   250
 10
-47.01610883690764
 20
73.96251069905881
 30
0.0
  0
VERTEX
  5
12F
  8
LAYER_1
 62
   250
 10
-47.29333859753386
 20
73.44385029709527
 30
0.0
  0
VERTEX
  5
130
  8
LAYER_1
 62
   250
 10
-47.46405584120969
 20
72.88107096604838
 30
0.0
  0
VERTEX
  5
131
  8
LAYER_1
 62
   250
 10
-47.5217
 20
72.2958
 30
0.0
  0
VERTEX
  5
132
  8
LAYER_1
 62
   250
 10
-47.46405584120969
 20
71.71052903395162
 30
0.0
  0
VERTEX
  5
133
  8
LAYER_1
 62
   250
 10
-47.29333859753386
 20
71.14774970290473
 30
0.0
  0
VERTEX
  5
134
  8
LAYER_1
 62
   250
 10
-47.01610883690764
 20
70.62908930094119
 30
0.0
  0
VERTEX
  5
135
  8
LAYER_1
 62
   250
 10
-46.64302034355965
 20
70.17447965644035
 30
0.0
  0
VERTEX
  5
136
  8
LAYER_1
 62
   250
 10
-46.18841069905881
 20
69.80139116309236
 30
0.0
  0
VERTEX
  5
137
  8
LAYER_1
 62
   250
 10
-45.66975029709527
 20
69.52416140246613
 30
0.0
  0
VERTEX
  5
138
  8
LAYER_1
 62
   250
 10
-45.10697096604839
 20
69.35344415879031
 30
0.0
  0
VERTEX
  5
139
  8
LAYER_1
 62
   250
 10
-44.5217
 20
69.2958
 30
0.0
  0
VERTEX
  5
13A
  8
LAYER_1
 62
   250
 10
-43.93642903395161
 20
69.35344415879031
 30
0.0
  0
VERTEX
  5
13B
  8
LAYER_1
 62
   250
 10
-43.37364970290473
 20
69.52416140246613
 30
0.0
  0
VERTEX
  5
13C
  8
LAYER_1
 62
   250
 10
-42.85498930094119
 20
69.80139116309236
 30
0.0
  0
VERTEX
  5
13D
  8
LAYER_1
 62
   250
 10
-42.40037965644036
 20
70.17447965644035
 30
0.0
  0
VERTEX
  5
13E
  8
LAYER_1
 62
   250
 10
-42.02729116309236
 20
70.6290893009412
 30
0.0
  0
VERTEX
  5
13F
  8
LAYER_1
 62
   250
 10
-41.75006140246614
 20
71.14774970290473
 30
0.0
  0
VERTEX
  5
140
  8
LAYER_1
 62
   250
 10
-41.57934415879031
 20
71.71052903395162
 30
0.0
  0
VERTEX
  5
141
  8
LAYER_1
 62
   250
 10
-41.5217
 20
72.29580000000001
 30
0.0
  0
VERTEX
  5
142
  8
LAYER_1
 62
   250
 10
-41.57934415879031
 20
72.8810709660484
 30
0.0
  0
VERTEX
  5
143
  8
LAYER_1
 62
   250
 10
-41.75006140246614
 20
73.44385029709528
 30
0.0
  0
VERTEX
  5
144
  8
LAYER_1
 62
   250
 10
-42.02729116309237
 20
73.96251069905881
 30
0.0
  0
VERTEX
  5
145
  8
LAYER_1
 62
   250
 10
-42.40037965644036
 20
74.41712034355965
 30
0.0
  0
VERTEX
  5
146
  8
LAYER_1
 62
   250
 10
-42.85498930094121
 20
74.79020883690764
 30
0.0
  0
VERTEX
  5
147
  8
LAYER_1
 62
   250
 10
-43.37364970290474
 20
75.06743859753387
 30
0.0
  0
VERTEX
  5
148
  8
LAYER_1
 62
   250
 10
-43.93642903395163
 20
75.23815584120969
 30
0.0
  0
SEQEND
  5
20F
  8
LAYER_1
 62
   250
  0
POLYLINE
  5
6F
  8
LAYER_1
 62
   250
 66
     1
 10
0.0
 20
0.0
 30
0.0
  0
VERTEX
  5
149
  8
LAYER_1
 62
   250
 10
-44.8753
 20
71.9422
 30
0.0
  0
VERTEX
  5
14A
  8
LAYER_1
 62
   250
 10
-44.1681
 20
72.6494
 30
0.0
  0
SEQEND
  5
210
  8
LAYER_1
 62
   250
  0
POLYLINE
  5
70
  8
LAYER_1
 62
   250
 66
     1
 10
0.0
 20
0.0
 30
0.0
  0
VERTEX
  5
14B
  8
LAYER_1
 62
   250
 10
-44.1681
 20
71.9422
 30
0.0
  0
VERTEX
  5
14C
  8
LAYER_1
 62
   250
 10
-44.8753
 20
72.6494
 30
0.0
  0
SEQEND
  5
211
  8
LAYER_1
 62
   250
  0
POLYLINE
  5
71
  8
LAYER_1
 62
   250
 66
     1
 10
0.0
 20
0.0
 30
0.0
 70
     1
  0
VERTEX
  5
14D
  8
LAYER_1
 62
   250
 10
-45.0208
 20
73.7958
 30
0.0
  0
VERTEX
  5
14E
  8
LAYER_1
 62
   250
 10
-44.4401
 20
74.0861
 30
0.0
  0
VERTEX
  5
14F
  8
LAYER_1
 62
   250
 10
-44.4401
 20
73.5054
 30
0.0
  0
VERTEX
  5
150
  8
LAYER_1
 62
   250
 10
-45.0208
 20
73.7958
 30
0.0
  0
SEQEND
  5
212
  8
LAYER_1
 62
   250
  0
POLYLINE
  5
72
  8
LAYER_1
 62
   250
 66
     1
 10
0.0
 20
0.0
 30
0.0
 70
     1
  0
VERTEX
  5
151
  8
LAYER_1
 62
   250
 10
-45.0225
 20
73.7958
 30
0.0
  0
VERTEX
  5
152
  8
LAYER_1
 62
   250
 10
-45.6032
 20
74.0861
 30
0.0
  0
VERTEX
  5
153
  8
LAYER_1
 62
   250
 10
-45.6032
 20
73.5054
 30
0.0
  0
VERTEX
  5
154
  8
LAYER_1
 62
   250
 10
-45.0225
 20
73.7958
 30
0.0
  0
SEQEND
  5
213
  8
LAYER_1
 62
   250
  0
POLYLINE
  5
73
  8
LAYER_1
 62
   250
 66
     1
 10
0.0
 20
0.0
 30
0.0
 70
     1
  0
VERTEX
  5
155
  8
LAYER_1
 62
   250
 10
-45.0217
 20
73.7958
 30
0.0
  0
VERTEX
  5
156
  8
LAYER_1
 62
   250
 10
-44.0217
 20
73.7958
 30
0.0
  0
VERTEX
  5
157
  8
LAYER_1
 62
   250
 10
-43.7204
 20
73.7652
 30
0.0
  0
VERTEX
  5
158
  8
LAYER_1
 62
   250
 10
-43.4393
 20
73.6774
 30
0.0
  0
VERTEX
  5
159
  8
LAYER_1
 62
   250
 10
-43.1845
 20
73.5387
 30
0.0
  0
VERTEX
  5
15A
  8
LAYER_1
 62
   250
 10
-42.9623
 20
73.3551
 30
0.0
  0
VERTEX
  5
15B
  8
LAYER_1
 62
   250
 10
-42.7788
 20
73.1329
 30
0.0
  0
VERTEX
  5
15C
  8
LAYER_1
 62
   250
 10
-42.6401
 20
72.8782
 30
0.0
  0
VERTEX
  5
15D
  8
LAYER_1
 62
   250
 10
-42.5523
 20
72.5971
 30
0.0
  0
VERTEX
  5
15E
  8
LAYER_1
 62
   250
 10
-42.5217
 20
72.2958
 30
0.0
  0
VERTEX
  5
15F
  8
LAYER_1
 62
   250
 10
-42.5217
 20
72.2958
 30
0.0
  0
VERTEX
  5
160
  8
LAYER_1
 62
   250
 10
-42.5523
 20
71.9945
 30
0.0
  0
VERTEX
  5
161
  8
LAYER_1
 62
   250
 10
-42.6401
 20
71.7133
 30
0.0
  0
VERTEX
  5
162
  8
LAYER_1
 62
   250
 10
-42.7788
 20
71.4586
 30
0.0
  0
VERTEX
  5
163
  8
LAYER_1
 62
   250
 10
-42.9623
 20
71.2364
 30
0.0
  0
VERTEX
  5
164
  8
LAYER_1
 62
   250
 10
-43.1845
 20
71.0529
 30
0.0
  0
VERTEX
  5
165
  8
LAYER_1
 62
   250
 10
-43.4393
 20
70.9141
 30
0.0
  0
VERTEX
  5
166
  8
LAYER_1
 62
   250
 10
-43.7204
 20
70.8264
 30
0.0
  0
VERTEX
  5
167
  8
LAYER_1
 62
   250
 10
-44.0217
 20
70.7958
 30
0.0
  0
VERTEX
  5
168
  8
LAYER_1
 62
   250
 10
-45.0217
 20
70.7958
 30
0.0
  0
VERTEX
  5
169
  8
LAYER_1
 62
   250
 10
-45.323
 20
70.8264
 30
0.0
  0
VERTEX
  5
16A
  8
LAYER_1
 62
   250
 10
-45.6041
 20
70.9141
 30
0.0
  0
VERTEX
  5
16B
  8
LAYER_1
 62
   250
 10
-45.8589
 20
71.0529
 30
0.0
  0
VERTEX
  5
16C
  8
LAYER_1
 62
   250
 10
-46.0811
 20
71.2364
 30
0.0
  0
VERTEX
  5
16D
  8
LAYER_1
 62
   250
 10
-46.2646
 20
71.4586
 30
0.0
  0
VERTEX
  5
16E
  8
LAYER_1
 62
   250
 10
-46.4033
 20
71.7133
 30
0.0
  0
VERTEX
  5
16F
  8
LAYER_1
 62
   250
 10
-46.4911
 20
71.9945
 30
0.0
  0
VERTEX
  5
170
  8
LAYER_1
 62
   250
 10
-46.5217
 20
72.2958
 30
0.0
  0
VERTEX
  5
171
  8
LAYER_1
 62
   250
 10
-46.5217
 20
72.2958
 30
0.0
  0
VERTEX
  5
172
  8
LAYER_1
 62
   250
 10
-46.4911
 20
72.5971
 30
0.0
  0
VERTEX
  5
173
  8
LAYER_1
 62
   250
 10
-46.4033
 20
72.8782
 30
0.0
  0
VERTEX
  5
174
  8
LAYER_1
 62
   250
 10
-46.2646
 20
73.1329
 30
0.0
  0
VERTEX
  5
175
  8
LAYER_1
 62
   250
 10
-46.0811
 20
73.3551
 30
0.0
  0
VERTEX
  5
176
  8
LAYER_1
 62
   250
 10
-45.8589
 20
73.5387
 30
0.0
  0
VERTEX
  5
177
  8
LAYER_1
 62
   250
 10
-45.6041
 20
73.6774
 30
0.0
  0
VERTEX
  5
178
  8
LAYER_1
 62
   250
 10
-45.323
 20
73.7652
 30
0.0
  0
VERTEX
  5
179
  8
LAYER_1
 62
   250
 10
-45.0217
 20
73.7958
 30
0.0
  0
SEQEND
  5
214
  8
LAYER_1
 62
   250
  0
POLYLINE
  5
74
  8
LAYER_1
 62
   250
 66
     1
 10
0.0
 20
0.0
 30
0.0
 70
     1
  0
VERTEX
  5
17A
  8
LAYER_1
 62
   250
 10
16.7291
 20
73.7958
 30
0.0
  0
VERTEX
  5
17B
  8
LAYER_1
 62
   250
 10
17.3098
 20
74.0861
 30
0.0
  0
VERTEX
  5
17C
  8
LAYER_1
 62
   250
 10
17.3098
 20
73.5054
 30
0.0
  0
VERTEX
  5
17D
  8
LAYER_1
 62
   250
 10
16.7291
 20
73.7958
 30
0.0
  0
SEQEND
  5
215
  8
LAYER_1
 62
   250
  0
POLYLINE
  5
75
  8
LAYER_1
 62
   250
 66
     1
 10
0.0
 20
0.0
 30
0.0
 70
     1
  0
VERTEX
  5
17E
  8
LAYER_1
 62
   250
 10
16.7274
 20
73.7958
 30
0.0
  0
VERTEX
  5
17F
  8
LAYER_1
 62
   250
 10
16.1467
 20
74.0861
 30
0.0
  0
VERTEX
  5
180
  8
LAYER_1
 62
   250
 10
16.1467
 20
73.5054
 30
0.0
  0
VERTEX
  5
181
  8
LAYER_1
 62
   250
 10
16.7274
 20
73.7958
 30
0.0
  0
SEQEND
  5
216
  8
LAYER_1
 62
   250
  0
POLYLINE
  5
76
  8
LAYER_1
 62
   250
 66
     1
 10
0.0
 20
0.0
 30
0.0
 70
     1
  0
VERTEX
  5
182
  8
LAYER_1
 62
   250
 10
16.7283
 20
73.7958
 30
0.0
  0
VERTEX
  5
183
  8
LAYER_1
 62
   250
 10
17.7283
 20
73.7958
 30
0.0
  0
VERTEX
  5
184
  8
LAYER_1
 62
   250
 10
18.0296
 20
73.7652
 30
0.0
  0
VERTEX
  5
185
  8
LAYER_1
 62
   250
 10
18.3107
 20
73.6774
 30
0.0
  0
VERTEX
  5
186
  8
LAYER_1
 62
   250
 10
18.5655
 20
73.5387
 30
0.0
  0
VERTEX
  5
187
  8
LAYER_1
 62
   250
 10
18.7877
 20
73.3551
 30
0.0
  0
VERTEX
  5
188
  8
LAYER_1
 62
   250
 10
18.9712
 20
73.1329
 30
0.0
  0
VERTEX
  5
189
  8
LAYER_1
 62
   250
 10
19.1099
 20
72.8782
 30
0.0
  0
VERTEX
  5
18A
  8
LAYER_1
 62
   250
 10
19.1977
 20
72.5971
 30
0.0
  0
VERTEX
  5
18B
  8
LAYER_1
 62
   250
 10
19.2283
 20
72.2958
 30
0.0
  0
VERTEX
  5
18C
  8
LAYER_1
 62
   250
 10
19.2283
 20
72.2958
 30
0.0
  0
VERTEX
  5
18D
  8
LAYER_1
 62
   250
 10
19.1977
 20
71.9945
 30
0.0
  0
VERTEX
  5
18E
  8
LAYER_1
 62
   250
 10
19.1099
 20
71.7133
 30
0.0
  0
VERTEX
  5
18F
  8
LAYER_1
 62
   250
 10
18.9712
 20
71.4586
 30
0.0
  0
VERTEX
  5
190
  8
LAYER_1
 62
   250
 10
18.7877
 20
71.2364
 30
0.0
  0
VERTEX
  5
191
  8
LAYER_1
 62
   250
 10
18.5655
 20
71.0529
 30
0.0
  0
VERTEX
  5
192
  8
LAYER_1
 62
   250
 10
18.3107
 20
70.9141
 30
0.0
  0
VERTEX
  5
193
  8
LAYER_1
 62
   250
 10
18.0296
 20
70.8264
 30
0.0
  0
VERTEX
  5
194
  8
LAYER_1
 62
   250
 10
17.7283
 20
70.7958
 30
0.0
  0
VERTEX
  5
195
  8
LAYER_1
 62
   250
 10
16.7283
 20
70.7958
 30
0.0
  0
VERTEX
  5
196
  8
LAYER_1
 62
   250
 10
16.427
 20
70.8264
 30
0.0
  0
VERTEX
  5
197
  8
LAYER_1
 62
   250
 10
16.1459
 20
70.9141
 30
0.0
  0
VERTEX
  5
198
  8
LAYER_1
 62
   250
 10
15.8911
 20
71.0529
 30
0.0
  0
VERTEX
  5
199
  8
LAYER_1
 62
   250
 10
15.6689
 20
71.2364
 30
0.0
  0
VERTEX
  5
19A
  8
LAYER_1
 62
   250
 10
15.4854
 20
71.4586
 30
0.0
  0
VERTEX
  5
19B
  8
LAYER_1
 62
   250
 10
15.3467
 20
71.7133
 30
0.0
  0
VERTEX
  5
19C
  8
LAYER_1
 62
   250
 10
15.2589
 20
71.9945
 30
0.0
  0
VERTEX
  5
19D
  8
LAYER_1
 62
   250
 10
15.2283
 20
72.2958
 30
0.0
  0
VERTEX
  5
19E
  8
LAYER_1
 62
   250
 10
15.2283
 20
72.2958
 30
0.0
  0
VERTEX
  5
19F
  8
LAYER_1
 62
   250
 10
15.2589
 20
72.5971
 30
0.0
  0
VERTEX
  5
1A0
  8
LAYER_1
 62
   250
 10
15.3467
 20
72.8782
 30
0.0
  0
VERTEX
  5
1A1
  8
LAYER_1
 62
   250
 10
15.4854
 20
73.1329
 30
0.0
  0
VERTEX
  5
1A2
  8
LAYER_1
 62
   250
 10
15.6689
 20
73.3551
 30
0.0
  0
VERTEX
  5
1A3
  8
LAYER_1
 62
   250
 10
15.8911
 20
73.5387
 30
0.0
  0
VERTEX
  5
1A4
  8
LAYER_1
 62
   250
 10
16.1459
 20
73.6774
 30
0.0
  0
VERTEX
  5
1A5
  8
LAYER_1
 62
   250
 10
16.427
 20
73.7652
 30
0.0
  0
VERTEX
  5
1A6
  8
LAYER_1
 62
   250
 10
16.7283
 20
73.7958
 30
0.0
  0
SEQEND
  5
217
  8
LAYER_1
 62
   250
  0
POLYLINE
  5
77
  8
LAYER_1
 62
   250
 66
     1
 10
0.0
 20
0.0
 30
0.0
 70
     1
  0
VERTEX
  5
1A7
  8
LAYER_1
 62
   250
 10
16.7291
 20
6.9958
 30
0.0
  0
VERTEX
  5
1A8
  8
LAYER_1
 62
   250
 10
17.3098
 20
7.2861
 30
0.0
  0
VERTEX
  5
1A9
  8
LAYER_1
 62
   250
 10
17.3098
 20
6.7054
 30
0.0
  0
VERTEX
  5
1AA
  8
LAYER_1
 62
   250
 10
16.7291
 20
6.9958
 30
0.0
  0
SEQEND
  5
218
  8
LAYER_1
 62
   250
  0
POLYLINE
  5
78
  8
LAYER_1
 62
   250
 66
     1
 10
0.0
 20
0.0
 30
0.0
 70
     1
  0
VERTEX
  5
1AB
  8
LAYER_1
 62
   250
 10
16.7274
 20
6.9958
 30
0.0
  0
VERTEX
  5
1AC
  8
LAYER_1
 62
   250
 10
16.1467
 20
7.2861
 30
0.0
  0
VERTEX
  5
1AD
  8
LAYER_1
 62
   250
 10
16.1467
 20
6.7054
 30
0.0
  0
VERTEX
  5
1AE
  8
LAYER_1
 62
   250
 10
16.7274
 20
6.9958
 30
0.0
  0
SEQEND
  5
219
  8
LAYER_1
 62
   250
  0
POLYLINE
  5
79
  8
LAYER_1
 62
   250
 66
     1
 10
0.0
 20
0.0
 30
0.0
 70
     1
  0
VERTEX
  5
1AF
  8
LAYER_1
 62
   250
 10
16.7283
 20
6.9958
 30
0.0
  0
VERTEX
  5
1B0
  8
LAYER_1
 62
   250
 10
17.7283
 20
6.9958
 30
0.0
  0
VERTEX
  5
1B1
  8
LAYER_1
 62
   250
 10
18.0296
 20
6.9652
 30
0.0
  0
VERTEX
  5
1B2
  8
LAYER_1
 62
   250
 10
18.3107
 20
6.8774
 30
0.0
  0
VERTEX
  5
1B3
  8
LAYER_1
 62
   250
 10
18.5655
 20
6.7387
 30
0.0
  0
VERTEX
  5
1B4
  8
LAYER_1
 62
   250
 10
18.7877
 20
6.5551
 30
0.0
  0
VERTEX
  5
1B5
  8
LAYER_1
 62
   250
 10
18.9712
 20
6.3329
 30
0.0
  0
VERTEX
  5
1B6
  8
LAYER_1
 62
   250
 10
19.1099
 20
6.0782
 30
0.0
  0
VERTEX
  5
1B7
  8
LAYER_1
 62
   250
 10
19.1977
 20
5.7971
 30
0.0
  0
VERTEX
  5
1B8
  8
LAYER_1
 62
   250
 10
19.2283
 20
5.4958
 30
0.0
  0
VERTEX
  5
1B9
  8
LAYER_1
 62
   250
 10
19.2283
 20
5.4958
 30
0.0
  0
VERTEX
  5
1BA
  8
LAYER_1
 62
   250
 10
19.1977
 20
5.1945
 30
0.0
  0
VERTEX
  5
1BB
  8
LAYER_1
 62
   250
 10
19.1099
 20
4.9133
 30
0.0
  0
VERTEX
  5
1BC
  8
LAYER_1
 62
   250
 10
18.9712
 20
4.6586
 30
0.0
  0
VERTEX
  5
1BD
  8
LAYER_1
 62
   250
 10
18.7877
 20
4.4364
 30
0.0
  0
VERTEX
  5
1BE
  8
LAYER_1
 62
   250
 10
18.5655
 20
4.2529
 30
0.0
  0
VERTEX
  5
1BF
  8
LAYER_1
 62
   250
 10
18.3107
 20
4.1141
 30
0.0
  0
VERTEX
  5
1C0
  8
LAYER_1
 62
   250
 10
18.0296
 20
4.0264
 30
0.0
  0
VERTEX
  5
1C1
  8
LAYER_1
 62
   250
 10
17.7283
 20
3.9958
 30
0.0
  0
VERTEX
  5
1C2
  8
LAYER_1
 62
   250
 10
16.7283
 20
3.9958
 30
0.0
  0
VERTEX
  5
1C3
  8
LAYER_1
 62
   250
 10
16.427
 20
4.0264
 30
0.0
  0
VERTEX
  5
1C4
  8
LAYER_1
 62
   250
 10
16.1459
 20
4.1141
 30
0.0
  0
VERTEX
  5
1C5
  8
LAYER_1
 62
   250
 10
15.8911
 20
4.2529
 30
0.0
  0
VERTEX
  5
1C6
  8
LAYER_1
 62
   250
 10
15.6689
 20
4.4364
 30
0.0
  0
VERTEX
  5
1C7
  8
LAYER_1
 62
   250
 10
15.4854
 20
4.6586
 30
0.0
  0
VERTEX
  5
1C8
  8
LAYER_1
 62
   250
 10
15.3467
 20
4.9133
 30
0.0
  0
VERTEX
  5
1C9
  8
LAYER_1
 62
   250
 10
15.2589
 20
5.1945
 30
0.0
  0
VERTEX
  5
1CA
  8
LAYER_1
 62
   250
 10
15.2283
 20
5.4958
 30
0.0
  0
VERTEX
  5
1CB
  8
LAYER_1
 62
   250
 10
15.2283
 20
5.4958
 30
0.0
  0
VERTEX
  5
1CC
  8
LAYER_1
 62
   250
 10
15.2589
 20
5.7971
 30
0.0
  0
VERTEX
  5
1CD
  8
LAYER_1
 62
   250
 10
15.3467
 20
6.0782
 30
0.0
  0
VERTEX
  5
1CE
  8
LAYER_1
 62
   250
 10
15.4854
 20
6.3329
 30
0.0
  0
VERTEX
  5
1CF
  8
LAYER_1
 62
   250
 10
15.6689
 20
6.5551
 30
0.0
  0
VERTEX
  5
1D0
  8
LAYER_1
 62
   250
 10
15.8911
 20
6.7387
 30
0.0
  0
VERTEX
  5
1D1
  8
LAYER_1
 62
   250
 10
16.1459
 20
6.8774
 30
0.0
  0
VERTEX
  5
1D2
  8
LAYER_1
 62
   250
 10
16.427
 20
6.9652
 30
0.0
  0
VERTEX
  5
1D3
  8
LAYER_1
 62
   250
 10
16.7283
 20
6.9958
 30
0.0
  0
SEQEND
  5
21A
  8
LAYER_1
 62
   250
  0
POLYLINE
  5
7A
  8
LAYER_1
 62
   250
 66
     1
 10
0.0
 20
0.0
 30
0.0
 70
     1
  0
VERTEX
  5
1D4
  8
LAYER_1
 62
   250
 10
-45.0208
 20
6.9958
 30
0.0
  0
VERTEX
  5
1D5
  8
LAYER_1
 62
   250
 10
-44.4401
 20
7.2861
 30
0.0
  0
VERTEX
  5
1D6
  8
LAYER_1
 62
   250
 10
-44.4401
 20
6.7054
 30
0.0
  0
VERTEX
  5
1D7
  8
LAYER_1
 62
   250
 10
-45.0208
 20
6.9958
 30
0.0
  0
SEQEND
  5
21B
  8
LAYER_1
 62
   250
  0
POLYLINE
  5
7B
  8
LAYER_1
 62
   250
 66
     1
 10
0.0
 20
0.0
 30
0.0
 70
     1
  0
VERTEX
  5
1D8
  8
LAYER_1
 62
   250
 10
-45.0225
 20
6.9958
 30
0.0
  0
VERTEX
  5
1D9
  8
LAYER_1
 62
   250
 10
-45.6032
 20
7.2861
 30
0.0
  0
VERTEX
  5
1DA
  8
LAYER_1
 62
   250
 10
-45.6032
 20
6.7054
 30
0.0
  0
VERTEX
  5
1DB
  8
LAYER_1
 62
   250
 10
-45.0225
 20
6.9958
 30
0.0
  0
SEQEND
  5
21C
  8
LAYER_1
 62
   250
  0
POLYLINE
  5
7C
  8
LAYER_1
 62
   250
 66
     1
 10
0.0
 20
0.0
 30
0.0
 70
     1
  0
VERTEX
  5
1DC
  8
LAYER_1
 62
   250
 10
-45.0217
 20
6.9958
 30
0.0
  0
VERTEX
  5
1DD
  8
LAYER_1
 62
   250
 10
-44.0217
 20
6.9958
 30
0.0
  0
VERTEX
  5
1DE
  8
LAYER_1
 62
   250
 10
-43.7204
 20
6.9652
 30
0.0
  0
VERTEX
  5
1DF
  8
LAYER_1
 62
   250
 10
-43.4393
 20
6.8774
 30
0.0
  0
VERTEX
  5
1E0
  8
LAYER_1
 62
   250
 10
-43.1845
 20
6.7387
 30
0.0
  0
VERTEX
  5
1E1
  8
LAYER_1
 62
   250
 10
-42.9623
 20
6.5551
 30
0.0
  0
VERTEX
  5
1E2
  8
LAYER_1
 62
   250
 10
-42.7788
 20
6.3329
 30
0.0
  0
VERTEX
  5
1E3
  8
LAYER_1
 62
   250
 10
-42.6401
 20
6.0782
 30
0.0
  0
VERTEX
  5
1E4
  8
LAYER_1
 62
   250
 10
-42.5523
 20
5.7971
 30
0.0
  0
VERTEX
  5
1E5
  8
LAYER_1
 62
   250
 10
-42.5217
 20
5.4958
 30
0.0
  0
VERTEX
  5
1E6
  8
LAYER_1
 62
   250
 10
-42.5217
 20
5.4958
 30
0.0
  0
VERTEX
  5
1E7
  8
LAYER_1
 62
   250
 10
-42.5523
 20
5.1945
 30
0.0
  0
VERTEX
  5
1E8
  8
LAYER_1
 62
   250
 10
-42.6401
 20
4.9133
 30
0.0
  0
VERTEX
  5
1E9
  8
LAYER_1
 62
   250
 10
-42.7788
 20
4.6586
 30
0.0
  0
VERTEX
  5
1EA
  8
LAYER_1
 62
   250
 10
-42.9623
 20
4.4364
 30
0.0
  0
VERTEX
  5
1EB
  8
LAYER_1
 62
   250
 10
-43.1845
 20
4.2529
 30
0.0
  0
VERTEX
  5
1EC
  8
LAYER_1
 62
   250
 10
-43.4393
 20
4.1141
 30
0.0
  0
VERTEX
  5
1ED
  8
LAYER_1
 62
   250
 10
-43.7204
 20
4.0264
 30
0.0
  0
VERTEX
  5
1EE
  8
LAYER_1
 62
   250
 10
-44.0217
 20
3.9958
 30
0.0
  0
VERTEX
  5
1EF
  8
LAYER_1
 62
   250
 10
-45.0217
 20
3.9958
 30
0.0
  0
VERTEX
  5
1F0
  8
LAYER_1
 62
   250
 10
-45.323
 20
4.0264
 30
0.0
  0
VERTEX
  5
1F1
  8
LAYER_1
 62
   250
 10
-45.6041
 20
4.1141
 30
0.0
  0
VERTEX
  5
1F2
  8
LAYER_1
 62
   250
 10
-45.8589
 20
4.2529
 30
0.0
  0
VERTEX
  5
1F3
  8
LAYER_1
 62
   250
 10
-46.0811
 20
4.4364
 30
0.0
  0
VERTEX
  5
1F4
  8
LAYER_1
 62
   250
 10
-46.2646
 20
4.6586
 30
0.0
  0
VERTEX
  5
1F5
  8
LAYER_1
 62
   250
 10
-46.4033
 20
4.9133
 30
0.0
  0
VERTEX
  5
1F6
  8
LAYER_1
 62
   250
 10
-46.4911
 20
5.1945
 30
0.0
  0
VERTEX
  5
1F7
  8
LAYER_1
 62
   250
 10
-46.5217
 20
5.4958
 30
0.0
  0
VERTEX
  5
1F8
  8
LAYER_1
 62
   250
 10
-46.5217
 20
5.4958
 30
0.0
  0
VERTEX
  5
1F9
  8
LAYER_1
 62
   250
 10
-46.4911
 20
5.7971
 30
0.0
  0
VERTEX
  5
1FA
  8
LAYER_1
 62
   250
 10
-46.4033
 20
6.0782
 30
0.0
  0
VERTEX
  5
1FB
  8
LAYER_1
 62
   250
 10
-46.2646
 20
6.3329
 30
0.0
  0
VERTEX
  5
1FC
  8
LAYER_1
 62
   250
 10
-46.0811
 20
6.5551
 30
0.0
  0
VERTEX
  5
1FD
  8
LAYER_1
 62
   250
 10
-45.8589
 20
6.7387
 30
0.0
  0
VERTEX
  5
1FE
  8
LAYER_1
 62
   250
 10
-45.6041
 20
6.8774
 30
0.0
  0
VERTEX
  5
1FF
  8
LAYER_1
 62
   250
 10
-45.323
 20
6.9652
 30
0.0
  0
VERTEX
  5
200
  8
LAYER_1
 62
   250
 10
-45.0217
 20
6.9958
 30
0.0
  0
SEQEND
  5
21D
  8
LAYER_1
 62
   250
  0
ENDSEC
  0
EOF
