%TF.GenerationSoftware,KiCad,Pcbnew,8.0.2*%
%TF.CreationDate,2024-05-31T14:04:31+07:00*%
%TF.ProjectId,WeatherStation,57656174-6865-4725-9374-6174696f6e2e,rev?*%
%TF.SameCoordinates,Original*%
%TF.FileFunction,Profile,NP*%
%FSLAX46Y46*%
G04 Gerber Fmt 4.6, Leading zero omitted, Abs format (unit mm)*
G04 Created by KiCad (PCBNEW 8.0.2) date 2024-05-31 14:04:31*
%MOMM*%
%LPD*%
G01*
G04 APERTURE LIST*
%TA.AperFunction,Profile*%
%ADD10C,0.100000*%
%TD*%
%TA.AperFunction,Profile*%
%ADD11C,0.010000*%
%TD*%
G04 APERTURE END LIST*
D10*
X199500900Y-98500000D02*
X200500000Y-98500000D01*
X194375000Y-104100000D02*
G75*
G02*
X194375000Y-106100000I0J-1000000D01*
G01*
X259750000Y-33200000D02*
G75*
G02*
X261249200Y-31700000I1500000J0D01*
G01*
X193875000Y-122100000D02*
X226874802Y-122100000D01*
X262250000Y-31700000D02*
G75*
G02*
X263750000Y-33199201I0J-1500000D01*
G01*
X224674902Y-105100000D02*
G75*
G02*
X224074902Y-105100000I-300000J0D01*
G01*
X224074902Y-105100000D02*
G75*
G02*
X224674902Y-105100000I300000J0D01*
G01*
X200500000Y-31700000D02*
G75*
G02*
X202000000Y-33199201I0J-1500000D01*
G01*
X199500000Y-34700000D02*
G75*
G02*
X198000000Y-33200800I0J1500000D01*
G01*
X222374902Y-104100000D02*
G75*
G02*
X222374902Y-106100000I-2J-1000000D01*
G01*
X229374902Y-119600000D02*
X229374902Y-108600000D01*
X200500000Y-98500000D02*
G75*
G02*
X202000000Y-99999201I0J-1500000D01*
G01*
X229374802Y-119599999D02*
G75*
G02*
X226874802Y-122100002I-2500002J-1D01*
G01*
X259750000Y-100000000D02*
G75*
G02*
X261249200Y-98500000I1500000J0D01*
G01*
X196675000Y-105100000D02*
G75*
G02*
X196075000Y-105100000I-300000J0D01*
G01*
X196075000Y-105100000D02*
G75*
G02*
X196675000Y-105100000I300000J0D01*
G01*
X226374902Y-104100000D02*
X267375000Y-104100000D01*
X223874999Y-80350000D02*
X223874999Y-90350000D01*
X199500900Y-31700000D02*
X200500000Y-31700000D01*
X270375000Y-101099900D02*
X270375000Y-32100000D01*
X261250000Y-101500000D02*
X262250000Y-101500000D01*
X254571348Y-32050000D02*
G75*
G02*
X254071348Y-32550048I-500048J0D01*
G01*
X198375000Y-104100000D02*
X222374902Y-104100000D01*
X263750000Y-33200001D02*
G75*
G02*
X262250800Y-34700000I-1500000J1D01*
G01*
X202000000Y-100000001D02*
G75*
G02*
X200500800Y-101500000I-1500000J1D01*
G01*
X235874999Y-78349999D02*
G75*
G02*
X237875001Y-80350001I1J-2000001D01*
G01*
X198375000Y-106100000D02*
G75*
G02*
X198375000Y-104100000I0J1000000D01*
G01*
X194375000Y-106100000D02*
X193875000Y-106100000D01*
D11*
X195625001Y-119600000D02*
G75*
G02*
X192125001Y-119600000I-1750000J0D01*
G01*
X192125001Y-119600000D02*
G75*
G02*
X195625001Y-119600000I1750000J0D01*
G01*
D10*
X235874999Y-78349999D02*
X225875000Y-78349999D01*
X261250900Y-31700000D02*
X262250000Y-31700000D01*
X237875001Y-90350000D02*
G75*
G02*
X235875000Y-92350001I-2000001J0D01*
G01*
X199500000Y-101500000D02*
X200500000Y-101500000D01*
X261250000Y-34700000D02*
G75*
G02*
X259750000Y-33200800I0J1500000D01*
G01*
X270375000Y-101100000D02*
G75*
G02*
X267375000Y-104100000I-3000000J0D01*
G01*
X191375000Y-108600000D02*
G75*
G02*
X193875000Y-106100000I2500000J0D01*
G01*
X254071348Y-32550000D02*
X238674901Y-32550000D01*
X226874901Y-106100000D02*
G75*
G02*
X229374900Y-108600000I-1J-2500000D01*
G01*
X199500000Y-34700000D02*
X200500000Y-34700000D01*
X238174901Y-32050000D02*
G75*
G02*
X238674901Y-31550001I499999J0D01*
G01*
X191375000Y-32100000D02*
G75*
G02*
X194375000Y-29100000I3000000J0D01*
G01*
D11*
X199125001Y-114100000D02*
G75*
G02*
X195625001Y-114100000I-1750000J0D01*
G01*
X195625001Y-114100000D02*
G75*
G02*
X199125001Y-114100000I1750000J0D01*
G01*
D10*
X198000000Y-33200000D02*
G75*
G02*
X199499200Y-31700000I1500000J0D01*
G01*
X262250000Y-98500000D02*
G75*
G02*
X263750000Y-99999201I0J-1500000D01*
G01*
X226374902Y-106100000D02*
G75*
G02*
X226374902Y-104100000I-2J1000000D01*
G01*
X199500000Y-101500000D02*
G75*
G02*
X198000000Y-100000800I0J1500000D01*
G01*
X225875000Y-92350001D02*
G75*
G02*
X223874999Y-90350000I0J2000001D01*
G01*
X198000000Y-100000000D02*
G75*
G02*
X199499200Y-98500000I1500000J0D01*
G01*
X193875001Y-122100800D02*
G75*
G02*
X191375000Y-119600800I-1J2500000D01*
G01*
X238674901Y-31550000D02*
X254071348Y-31550000D01*
X223874999Y-80350000D02*
G75*
G02*
X225875000Y-78349999I2000001J0D01*
G01*
X261250000Y-34700000D02*
X262250000Y-34700000D01*
D11*
X195625000Y-108600000D02*
G75*
G02*
X192125000Y-108600000I-1750000J0D01*
G01*
X192125000Y-108600000D02*
G75*
G02*
X195625000Y-108600000I1750000J0D01*
G01*
D10*
X191375000Y-119600000D02*
X191375000Y-108600000D01*
X225875000Y-92350001D02*
X235875000Y-92350001D01*
X191375000Y-101099900D02*
X191375000Y-32100000D01*
X202000000Y-33200001D02*
G75*
G02*
X200500800Y-34700000I-1500000J1D01*
G01*
X194375000Y-104100000D02*
G75*
G02*
X191375000Y-101100000I0J3000000D01*
G01*
X194375000Y-29100000D02*
X267375000Y-29100000D01*
X261250900Y-98500000D02*
X262250000Y-98500000D01*
X237875001Y-90350000D02*
X237875000Y-80350001D01*
X198375000Y-106100000D02*
X222374902Y-106100000D01*
X263750000Y-100000001D02*
G75*
G02*
X262250800Y-101500000I-1500000J1D01*
G01*
X238674901Y-32550000D02*
G75*
G02*
X238174900Y-32050000I-1J500000D01*
G01*
X261250000Y-101500000D02*
G75*
G02*
X259750000Y-100000800I0J1500000D01*
G01*
X254071348Y-31550000D02*
G75*
G02*
X254571300Y-32050000I-48J-500000D01*
G01*
X226874901Y-106100000D02*
X226374902Y-106100000D01*
X267375000Y-29100000D02*
G75*
G02*
X270375000Y-32100000I0J-3000000D01*
G01*
M02*
