%TF.GenerationSoftware,KiCad,Pcbnew,8.0.2*%
%TF.CreationDate,2024-05-31T14:04:31+07:00*%
%TF.ProjectId,WeatherStation,57656174-6865-4725-9374-6174696f6e2e,rev?*%
%TF.SameCoordinates,Original*%
%TF.FileFunction,Copper,L2,Inr*%
%TF.FilePolarity,Positive*%
%FSLAX46Y46*%
G04 Gerber Fmt 4.6, Leading zero omitted, Abs format (unit mm)*
G04 Created by KiCad (PCBNEW 8.0.2) date 2024-05-31 14:04:31*
%MOMM*%
%LPD*%
G01*
G04 APERTURE LIST*
G04 Aperture macros list*
%AMRoundRect*
0 Rectangle with rounded corners*
0 $1 Rounding radius*
0 $2 $3 $4 $5 $6 $7 $8 $9 X,Y pos of 4 corners*
0 Add a 4 corners polygon primitive as box body*
4,1,4,$2,$3,$4,$5,$6,$7,$8,$9,$2,$3,0*
0 Add four circle primitives for the rounded corners*
1,1,$1+$1,$2,$3*
1,1,$1+$1,$4,$5*
1,1,$1+$1,$6,$7*
1,1,$1+$1,$8,$9*
0 Add four rect primitives between the rounded corners*
20,1,$1+$1,$2,$3,$4,$5,0*
20,1,$1+$1,$4,$5,$6,$7,0*
20,1,$1+$1,$6,$7,$8,$9,0*
20,1,$1+$1,$8,$9,$2,$3,0*%
G04 Aperture macros list end*
%TA.AperFunction,ComponentPad*%
%ADD10C,1.600000*%
%TD*%
%TA.AperFunction,ComponentPad*%
%ADD11C,1.400000*%
%TD*%
%TA.AperFunction,ComponentPad*%
%ADD12RoundRect,0.250000X0.650000X-0.650000X0.650000X0.650000X-0.650000X0.650000X-0.650000X-0.650000X0*%
%TD*%
%TA.AperFunction,ComponentPad*%
%ADD13C,1.800000*%
%TD*%
%TA.AperFunction,ComponentPad*%
%ADD14C,1.050000*%
%TD*%
%TA.AperFunction,ComponentPad*%
%ADD15RoundRect,0.328084X-0.671916X-0.671916X0.671916X-0.671916X0.671916X0.671916X-0.671916X0.671916X0*%
%TD*%
%TA.AperFunction,ComponentPad*%
%ADD16C,2.000000*%
%TD*%
%TA.AperFunction,ViaPad*%
%ADD17C,0.480000*%
%TD*%
%TA.AperFunction,Conductor*%
%ADD18C,0.160000*%
%TD*%
%TA.AperFunction,Conductor*%
%ADD19C,0.500000*%
%TD*%
%TA.AperFunction,Conductor*%
%ADD20C,1.000000*%
%TD*%
%TA.AperFunction,Conductor*%
%ADD21C,0.800000*%
%TD*%
G04 APERTURE END LIST*
D10*
%TO.N,GND*%
%TO.C,J1*%
X254575000Y-100350000D03*
%TO.N,/MCU/USB_P*%
X252035001Y-100350000D03*
%TO.N,/MCU/USB_N*%
X249494999Y-100350000D03*
%TO.N,Net-(F1-Pad1)*%
X246955000Y-100350000D03*
%TD*%
D11*
%TO.N,+3.3V*%
%TO.C,J8*%
X228465000Y-101250000D03*
%TO.N,/MCU/SCL*%
X228465000Y-99250000D03*
%TO.N,/MCU/SDA*%
X226465000Y-101250000D03*
%TO.N,GND*%
X226465000Y-99250000D03*
X224465000Y-101250000D03*
%TO.N,/MCU/~{WSP_PULSE}*%
X224465000Y-99250000D03*
%TO.N,GND*%
X222465000Y-101250000D03*
%TO.N,/MCU/~{RNF_PULSE}*%
X222465000Y-99250000D03*
%TD*%
D12*
%TO.N,VBAT*%
%TO.C,J3*%
X206724999Y-96020000D03*
D13*
%TO.N,Net-(C21-Pad1)*%
X206724999Y-93480000D03*
%TO.N,GND*%
X209264999Y-96020000D03*
X209264999Y-93480000D03*
%TD*%
D14*
%TO.N,/MCU/DBG_TXD*%
%TO.C,J4*%
X264814901Y-66965000D03*
%TO.N,/MCU/~{MCLR}*%
X264814901Y-68235000D03*
%TO.N,/MCU/DBG_RXD*%
X263544901Y-66965000D03*
%TO.N,+3.3V*%
X263544901Y-68235000D03*
%TO.N,/MCU/NB_USB_P*%
X262274901Y-66965000D03*
%TO.N,GND*%
X262274901Y-68235000D03*
%TO.N,/MCU/NB_USB_N*%
X261004901Y-66965000D03*
%TO.N,/MCU/PGD*%
X261004901Y-68235000D03*
%TO.N,/MCU/NB_VBUS*%
X259734901Y-66965000D03*
%TO.N,/MCU/PGC*%
X259734901Y-68235000D03*
%TD*%
D15*
%TO.N,Net-(U1-IN)*%
%TO.C,J2*%
X214424998Y-100750000D03*
D16*
%TO.N,GND*%
X216965000Y-100750000D03*
%TD*%
D11*
%TO.N,+3.3V*%
%TO.C,J7*%
X240465000Y-101250000D03*
%TO.N,Net-(C68-Pad1)*%
X240465000Y-99250000D03*
%TO.N,GND*%
X238465000Y-101250000D03*
X238465000Y-99250000D03*
%TO.N,/MCU/~{DUST_IREN}*%
X236465000Y-101250000D03*
%TO.N,/MCU/DUST_SEN*%
X236465000Y-99250000D03*
%TO.N,/MCU/SCL*%
X234465000Y-101250000D03*
%TO.N,/MCU/SDA*%
X234465000Y-99250000D03*
%TD*%
D15*
%TO.N,VBAT*%
%TO.C,BAT1*%
X206724998Y-100750000D03*
D16*
%TO.N,GND*%
X209265000Y-100750000D03*
%TD*%
D11*
%TO.N,VSEN1*%
%TO.C,J6*%
X217475001Y-113100001D03*
%TO.N,VDD1*%
X217475001Y-115100001D03*
%TO.N,GND1*%
X215475001Y-113100001D03*
X215475001Y-115100001D03*
%TO.N,/SENSORS/~{LED_EN}*%
X213475001Y-113100001D03*
%TO.N,/SENSORS/VOUT*%
X213475001Y-115100001D03*
%TO.N,/SENSORS/SCL1*%
X211475001Y-113100001D03*
%TO.N,/SENSORS/SDA1*%
X211475001Y-115100001D03*
%TD*%
D17*
%TO.N,GND*%
X198174901Y-60350000D03*
X252574901Y-39750000D03*
X269099900Y-52950000D03*
X265919901Y-103400000D03*
X193174901Y-40350000D03*
X228174901Y-45350000D03*
X253419901Y-103400000D03*
X198174901Y-40350000D03*
X218174901Y-60350000D03*
X240919996Y-42210000D03*
X228174901Y-50350000D03*
X193174901Y-35350000D03*
X267374901Y-45550000D03*
X223375000Y-89850000D03*
X230875000Y-77850000D03*
X192724901Y-69324999D03*
X213174901Y-35350000D03*
X237674901Y-35350000D03*
X199674901Y-91400000D03*
X201899902Y-72550000D03*
X223174901Y-60350000D03*
X244374901Y-45350000D03*
X265074901Y-37750000D03*
X259774901Y-47350000D03*
X266919901Y-96900000D03*
X223375000Y-83850000D03*
X264374901Y-47950000D03*
X259174901Y-46750000D03*
X196924901Y-94100000D03*
X232674901Y-35350000D03*
X194324901Y-69324999D03*
X223344997Y-45310000D03*
X194574901Y-85950000D03*
X268374901Y-45550000D03*
X245174901Y-35350000D03*
X215674901Y-35350000D03*
X242674901Y-35350000D03*
X199299902Y-66050000D03*
X208174901Y-55350000D03*
X203174901Y-60350000D03*
X246874901Y-60350000D03*
X213174901Y-45350000D03*
X254169901Y-91650000D03*
X226825000Y-74089997D03*
X255074901Y-35350000D03*
X256774901Y-50350000D03*
X269124901Y-46300000D03*
X263419901Y-103400000D03*
X262574901Y-40250000D03*
X243419901Y-103400000D03*
X217419999Y-96350000D03*
X250174901Y-37750000D03*
X250174901Y-38750000D03*
X238244997Y-51210000D03*
X261374901Y-45550000D03*
X204624901Y-69650000D03*
X269669901Y-96900000D03*
X252574901Y-36750000D03*
X250174901Y-35350000D03*
X252574901Y-35350000D03*
X264374901Y-60350000D03*
X250174901Y-40750000D03*
X267749902Y-48999999D03*
X228875000Y-77850000D03*
X265374901Y-47950000D03*
X266374901Y-45550000D03*
X223375000Y-81850000D03*
X223174901Y-55350000D03*
X255919901Y-103400000D03*
X223375000Y-78850000D03*
X199674901Y-89400000D03*
X269099900Y-54950000D03*
X265374901Y-45550000D03*
X224325000Y-74089997D03*
X235174901Y-35350000D03*
X204624901Y-68650000D03*
X201099902Y-66075001D03*
X238375000Y-85850000D03*
X208174901Y-40350000D03*
X219325000Y-74089997D03*
X241144996Y-45110000D03*
X232875000Y-92850000D03*
X257574901Y-40250000D03*
X214275000Y-83039997D03*
X246955000Y-87250000D03*
X203174901Y-45350000D03*
X258419901Y-103400000D03*
X264374901Y-55350000D03*
X203174901Y-35350000D03*
X264374901Y-57850000D03*
X264374901Y-52850000D03*
X228174901Y-35350000D03*
X261274901Y-77950000D03*
X193174901Y-60350000D03*
X260024901Y-86800000D03*
X193174901Y-55350000D03*
X238375000Y-90850000D03*
X250174901Y-36750000D03*
X213174901Y-55350000D03*
X238375000Y-82850000D03*
X223375000Y-87850000D03*
X223375000Y-86850000D03*
X250174901Y-42750000D03*
X238375000Y-83850000D03*
X223375000Y-90850000D03*
X238375000Y-87850000D03*
X233114949Y-45290048D03*
X255074901Y-42750000D03*
X247624901Y-53950000D03*
X214275000Y-87039997D03*
X194574901Y-83950000D03*
X268049900Y-62750000D03*
X251374901Y-44950000D03*
X261874901Y-55350000D03*
X266599900Y-53950000D03*
X245919901Y-98400000D03*
X201899902Y-70550000D03*
X244844997Y-70560000D03*
X269799901Y-70800000D03*
X204624901Y-67650000D03*
X269799901Y-83300000D03*
X244374901Y-57850000D03*
X244374901Y-40350000D03*
X252574901Y-40750000D03*
X247674901Y-42750000D03*
X252574901Y-42750000D03*
X203174901Y-40350000D03*
X231825000Y-74089997D03*
X252574901Y-37750000D03*
X202624901Y-66650000D03*
X269099900Y-58600000D03*
X262874901Y-77950000D03*
X231875000Y-77850000D03*
X267749902Y-49950000D03*
X238375000Y-89850000D03*
X198674901Y-90400000D03*
X203399902Y-70550000D03*
X265074901Y-42750000D03*
X238375000Y-81850000D03*
X264374901Y-62850000D03*
X261874901Y-52850000D03*
X261874901Y-57850000D03*
X192574901Y-82950000D03*
X205074901Y-89900000D03*
X216275000Y-83039997D03*
X230875000Y-92850000D03*
X229325000Y-74089997D03*
X248419901Y-103400000D03*
X269799901Y-65800000D03*
X238375000Y-84850000D03*
X223375000Y-84850000D03*
X256874901Y-60350000D03*
X225674901Y-35350000D03*
X195774901Y-94010001D03*
X238375000Y-91850000D03*
X269099900Y-51950000D03*
X263374901Y-45550000D03*
X264374901Y-45550000D03*
X240919901Y-103400000D03*
X244374901Y-50350000D03*
X261874901Y-60350000D03*
X260074901Y-37750000D03*
X228875000Y-92850000D03*
X257574901Y-35350000D03*
X218174901Y-40350000D03*
X250174901Y-41750000D03*
X210674901Y-35350000D03*
X260024901Y-84300000D03*
X218174901Y-45350000D03*
X223174901Y-35350000D03*
X218174901Y-55350000D03*
X247674901Y-37750000D03*
X259774901Y-46150000D03*
X223375000Y-79850000D03*
X241794997Y-47310000D03*
X203174901Y-50350000D03*
X266599900Y-58600000D03*
X259374901Y-57850000D03*
X263274901Y-86800000D03*
X193174901Y-45350000D03*
X254374901Y-50350000D03*
X257574901Y-42750000D03*
X229875000Y-77850000D03*
X250774901Y-44350000D03*
X216275000Y-87039997D03*
X254374901Y-47850000D03*
X223375000Y-82850000D03*
X213275000Y-86039997D03*
X249374901Y-57850000D03*
X213174901Y-50350000D03*
X231875000Y-92850000D03*
X197674901Y-89400000D03*
X263374901Y-47950000D03*
X253419901Y-98400000D03*
X240919997Y-40610000D03*
X269799901Y-80800000D03*
X223375000Y-91850000D03*
X259374901Y-64100000D03*
X221825000Y-74089997D03*
X223344997Y-40350000D03*
X238244997Y-50210000D03*
X251919901Y-91650000D03*
X252774901Y-84950000D03*
X266599900Y-54950000D03*
X252774901Y-86700000D03*
X238244997Y-49210000D03*
X260919901Y-103400000D03*
X240919997Y-37410000D03*
X208174901Y-35350000D03*
X203174901Y-55350000D03*
X218174901Y-35350000D03*
X223375000Y-85850000D03*
X197674901Y-91400000D03*
X205674901Y-35350000D03*
X269799901Y-68300000D03*
X247674901Y-35350000D03*
X228174901Y-60350000D03*
X264669901Y-92900000D03*
X232875000Y-77850000D03*
X198174901Y-35350000D03*
X223375000Y-80850000D03*
X261524901Y-83800000D03*
X262374901Y-45550000D03*
X228174901Y-55350000D03*
X267799901Y-47950000D03*
X193174901Y-50350000D03*
X269799901Y-88300000D03*
X223174901Y-50350000D03*
X255074901Y-37750000D03*
X246955000Y-85000000D03*
X252574901Y-41750000D03*
X213275000Y-84039997D03*
X237144997Y-63435001D03*
X246874901Y-55350000D03*
X192574901Y-86950000D03*
X220674901Y-35350000D03*
X259374901Y-60350000D03*
X208275000Y-83039997D03*
X192124901Y-80774999D03*
X252574901Y-38750000D03*
X250919901Y-103400000D03*
X260074901Y-42750000D03*
X255024901Y-89050000D03*
X251974901Y-44350000D03*
X243244997Y-70560000D03*
X208174901Y-50350000D03*
X262374901Y-47950000D03*
X269799901Y-75800000D03*
X240919997Y-39010000D03*
X261374901Y-47950000D03*
X269099900Y-53950000D03*
X250174901Y-39750000D03*
X229875000Y-92850000D03*
X269799901Y-85800000D03*
X223375000Y-88850000D03*
X245919901Y-103400000D03*
X269799901Y-90800000D03*
X198174901Y-55350000D03*
X262457401Y-42867500D03*
X238375000Y-79850000D03*
X238375000Y-88850000D03*
X213174901Y-40350000D03*
X237875000Y-78850000D03*
X269799901Y-78300000D03*
X238375000Y-86850000D03*
X255919901Y-98400000D03*
X211775000Y-79539997D03*
X203624901Y-66650000D03*
X238375000Y-80850000D03*
X251874901Y-60350000D03*
X213174901Y-60350000D03*
X208174901Y-45350000D03*
X264374901Y-50350000D03*
X198174901Y-50350000D03*
X248419901Y-98400000D03*
X218174901Y-50350000D03*
X198174901Y-45350000D03*
X261749902Y-50350000D03*
%TO.N,VDD*%
X230425000Y-70539997D03*
X198074901Y-83100000D03*
X230425000Y-71339997D03*
X197074901Y-83100000D03*
%TO.N,VNB*%
X238444997Y-56400000D03*
X204524901Y-63650000D03*
X204524901Y-64750000D03*
X201099902Y-67800000D03*
X266724901Y-66600000D03*
X238444997Y-57400000D03*
X267574901Y-66600000D03*
X203399902Y-79850000D03*
X268699902Y-43510000D03*
X204524901Y-62600000D03*
X238444997Y-55400000D03*
%TO.N,+5V*%
X209424901Y-68650000D03*
X245855000Y-83400000D03*
X198674901Y-87400000D03*
X209424901Y-67650000D03*
X247455000Y-83400000D03*
X195824901Y-90900000D03*
X246655000Y-83400000D03*
X195824901Y-89900000D03*
X209424901Y-69650000D03*
X199474901Y-87400000D03*
X195599902Y-77310000D03*
X197874901Y-87400000D03*
%TO.N,/MCU/VNB_SEN*%
X257324901Y-84799999D03*
X203399902Y-86250000D03*
%TO.N,/MCU/V5V_SEN*%
X254874901Y-77950000D03*
X259124901Y-80100000D03*
%TO.N,Net-(C21-Pad1)*%
X247374901Y-78200000D03*
%TO.N,/MCU/VBAT_SEN*%
X262124900Y-82500000D03*
X250074901Y-79800000D03*
%TO.N,+3.3V*%
X196424901Y-97950000D03*
X268754902Y-100200000D03*
X266946303Y-94153823D03*
X197024901Y-97400000D03*
X195824901Y-98600000D03*
X268074901Y-85800000D03*
X268074901Y-87400000D03*
%TO.N,GND1*%
X207375000Y-116850000D03*
X216675002Y-109900000D03*
X213875002Y-109900000D03*
X228125002Y-118300000D03*
X197375000Y-111350000D03*
X212750000Y-120575002D03*
X220375000Y-117350000D03*
X216675002Y-108900000D03*
X207375000Y-107850000D03*
X207750000Y-120575002D03*
X217750000Y-120575002D03*
X204375000Y-113850000D03*
X213875002Y-108900000D03*
X209875000Y-107850000D03*
X205250000Y-120575002D03*
X199875000Y-111350000D03*
X207375000Y-113850000D03*
X215250000Y-120575002D03*
X228125002Y-113300000D03*
X228125002Y-110800000D03*
X220250000Y-120575002D03*
X222375000Y-107850000D03*
X204375000Y-116850000D03*
X197375000Y-116850000D03*
X216675002Y-107900000D03*
X225250000Y-120575002D03*
X210375000Y-110350000D03*
X210250000Y-120575002D03*
X193875000Y-116850000D03*
X212375000Y-107850000D03*
X228125002Y-115800000D03*
X222750000Y-120575002D03*
X224875000Y-107850000D03*
X193875000Y-113850000D03*
X197375000Y-108850000D03*
X210875000Y-116850000D03*
X207375000Y-111350000D03*
X202750000Y-120575002D03*
X193875000Y-111350000D03*
X202375000Y-111350000D03*
X213875002Y-107900000D03*
%TO.N,VSEN1*%
X207100004Y-109350000D03*
X200950003Y-115500001D03*
%TO.N,Net-(C68-Pad1)*%
X214125000Y-66289997D03*
X213125000Y-66289997D03*
X241424901Y-91400000D03*
X215125000Y-66289997D03*
X241424901Y-92200000D03*
%TO.N,/MCU/~{WSP_PULSE}*%
X258624902Y-91000000D03*
%TO.N,/MCU/~{RNF_PULSE}*%
X257224901Y-91000000D03*
%TO.N,/MCU/DBG_RXD*%
X263624901Y-80300000D03*
%TO.N,/MCU/DBG_TXD*%
X263624901Y-79500000D03*
%TO.N,/NB MODULE/PWRMON*%
X242844997Y-36660000D03*
X196974901Y-62700000D03*
X264474901Y-77950000D03*
X247624901Y-52750000D03*
%TO.N,/NB MODULE/TXD0*%
X246444997Y-69060000D03*
X256179949Y-58144952D03*
%TO.N,/NB MODULE/RXD0*%
X242444997Y-68560000D03*
X257374901Y-57650000D03*
%TO.N,Net-(MD1-~{ONOFF}{slash}~{WAKE})*%
X231344997Y-57859999D03*
X257274901Y-51500000D03*
%TO.N,/NB MODULE/SDA_1V8*%
X252224901Y-47050000D03*
X234894997Y-54634999D03*
%TO.N,/NB MODULE/SCL_1V8*%
X234894997Y-50934999D03*
X251824901Y-46150000D03*
%TO.N,/NB MODULE/DTR*%
X233944997Y-65010000D03*
X254924901Y-53850000D03*
%TO.N,Net-(MD1-SLED)*%
X250174901Y-45550000D03*
X266799902Y-43510000D03*
%TO.N,/MCU/NB_ONOFF*%
X233944997Y-57610000D03*
X257324901Y-82800000D03*
%TO.N,Net-(U1-EN)*%
X218474900Y-77500000D03*
X215694999Y-93150000D03*
X256724901Y-93150000D03*
%TO.N,/MCU/~{VBAT_LOW}*%
X198674901Y-93350000D03*
X255024901Y-87800000D03*
%TO.N,Net-(U4-STAT2)*%
X197474901Y-93350000D03*
X193999902Y-78910000D03*
%TO.N,/MCU/SDA*%
X231344997Y-54159999D03*
X252774901Y-89900000D03*
%TO.N,/MCU/SCL*%
X231344997Y-50459999D03*
X252774901Y-88300000D03*
%TO.N,/MCU/VNB_EN*%
X263424901Y-84300000D03*
X197949902Y-80810000D03*
X258424901Y-84999999D03*
%TO.N,/MCU/NB_RXD*%
X251744997Y-68510000D03*
X255024901Y-86300001D03*
%TO.N,Net-(U9-B)*%
X239794997Y-69110000D03*
X268799900Y-79950000D03*
%TO.N,/MCU/DUST_EN*%
X226425000Y-72389997D03*
X258024901Y-84300000D03*
%TO.N,/SENSORS/~{LED_EN}*%
X221425002Y-113350000D03*
%TO.N,/MCU/DUST_SEN*%
X263574901Y-90750000D03*
%TO.N,/MCU/~{DUST_IREN}*%
X259624900Y-91000000D03*
%TO.N,/NB MODULE/RING*%
X256224901Y-53850000D03*
X233944997Y-61310000D03*
%TO.N,/MCU/NB_DTR*%
X231344997Y-65259999D03*
X257324901Y-83800001D03*
%TO.N,/MCU/NB_RING*%
X258024901Y-83300000D03*
X235544997Y-61310000D03*
%TO.N,/MCU/VIO_EN*%
X250944997Y-73260000D03*
X257324901Y-86800000D03*
%TO.N,Net-(U15-B)*%
X238794997Y-63810000D03*
X255674901Y-76625001D03*
%TO.N,/MCU/LED_SYS*%
X267749902Y-101110000D03*
X261124902Y-88550000D03*
%TD*%
D18*
%TO.N,GND*%
X240919996Y-41810000D02*
X240919996Y-44885000D01*
X225470292Y-100244708D02*
X224465000Y-101250000D01*
X240919996Y-37410001D02*
X240919997Y-37410000D01*
X240919996Y-44885000D02*
X241794997Y-45760001D01*
X240919996Y-44885000D02*
X241144996Y-45110000D01*
X224465000Y-101250000D02*
X222465000Y-101250000D01*
X258874901Y-68456874D02*
X258874901Y-66735000D01*
X261474901Y-69035000D02*
X259453027Y-69035000D01*
X241794997Y-45760001D02*
X241794997Y-47310000D01*
X262874901Y-77950000D02*
X261274901Y-77950000D01*
X262274901Y-68235000D02*
X261474901Y-69035000D01*
X241794997Y-47310000D02*
X239894997Y-49210000D01*
X243244997Y-70560000D02*
X244844997Y-70560000D01*
X258874901Y-66735000D02*
X259174901Y-66435000D01*
X259453027Y-69035000D02*
X258874901Y-68456874D01*
X259374901Y-66235000D02*
X259174901Y-66435000D01*
X240919996Y-41810000D02*
X240919996Y-37410001D01*
X259374901Y-64735000D02*
X259374901Y-66235000D01*
X259374901Y-64735000D02*
X259374901Y-64100000D01*
X240919996Y-42210000D02*
X240919996Y-41810000D01*
X239894997Y-49210000D02*
X238244997Y-49210000D01*
X259374901Y-66035000D02*
X259374901Y-64735000D01*
D19*
%TO.N,VDD*%
X198074901Y-83100000D02*
X197074901Y-83100000D01*
X230425000Y-71339997D02*
X230425000Y-70539997D01*
%TO.N,VNB*%
X238444997Y-55400000D02*
X238444997Y-57400000D01*
X204524901Y-62600000D02*
X204524901Y-64750000D01*
X266724901Y-66600000D02*
X267574901Y-66600000D01*
%TO.N,+5V*%
X199474901Y-87400000D02*
X197874901Y-87400000D01*
X195824901Y-90900000D02*
X195824901Y-89900000D01*
X209424901Y-67650000D02*
X209424901Y-69650000D01*
D20*
X247455000Y-83400000D02*
X245855000Y-83400000D01*
D19*
%TO.N,+3.3V*%
X268074901Y-85800000D02*
X268074901Y-87400000D01*
D21*
X197024901Y-97400000D02*
X195824901Y-98600000D01*
D18*
%TO.N,GND1*%
X216675002Y-110299998D02*
X215475001Y-111499999D01*
X215475001Y-111499999D02*
X213875002Y-109900000D01*
X216675002Y-109900000D02*
X216675002Y-107900000D01*
X216675002Y-109900000D02*
X216675002Y-110299998D01*
X213875002Y-109900000D02*
X213875002Y-107900000D01*
X215475001Y-113100001D02*
X215475001Y-111499999D01*
D19*
%TO.N,Net-(C68-Pad1)*%
X215125000Y-66289997D02*
X213125000Y-66289997D01*
X241424901Y-92200000D02*
X241424901Y-91400000D01*
%TD*%
%TA.AperFunction,Conductor*%
%TO.N,GND*%
G36*
X261672806Y-67319019D02*
G01*
X261704914Y-67345960D01*
X261740796Y-67397944D01*
X261758028Y-67422909D01*
X261825423Y-67482616D01*
X261851176Y-67530124D01*
X261840367Y-67583071D01*
X261821667Y-67601968D01*
X261821361Y-67604684D01*
X262169370Y-67952693D01*
X262159105Y-67955444D01*
X262090696Y-67994940D01*
X262034841Y-68050795D01*
X261995345Y-68119204D01*
X261992594Y-68129469D01*
X261644585Y-67781460D01*
X261636365Y-67782386D01*
X261608625Y-67803948D01*
X261554624Y-67801927D01*
X261526476Y-67779309D01*
X261524943Y-67780668D01*
X261521774Y-67777091D01*
X261397175Y-67666705D01*
X261397172Y-67666703D01*
X261397170Y-67666701D01*
X261397166Y-67666699D01*
X261394734Y-67665021D01*
X261393817Y-67663730D01*
X261393593Y-67663532D01*
X261393639Y-67663479D01*
X261363437Y-67620967D01*
X261367780Y-67567102D01*
X261394734Y-67534979D01*
X261397160Y-67533303D01*
X261397170Y-67533299D01*
X261521774Y-67422909D01*
X261574886Y-67345961D01*
X261618942Y-67314671D01*
X261672806Y-67319019D01*
G37*
%TD.AperFunction*%
%TA.AperFunction,Conductor*%
G36*
X262942806Y-67319019D02*
G01*
X262974914Y-67345960D01*
X263028028Y-67422909D01*
X263105508Y-67491551D01*
X263152631Y-67533298D01*
X263155072Y-67534983D01*
X263155987Y-67536271D01*
X263156209Y-67536468D01*
X263156163Y-67536519D01*
X263186365Y-67579039D01*
X263182019Y-67632903D01*
X263155072Y-67665017D01*
X263152631Y-67666701D01*
X263028031Y-67777086D01*
X263024863Y-67780664D01*
X263022957Y-67778975D01*
X262986193Y-67804968D01*
X262932338Y-67800504D01*
X262911462Y-67782164D01*
X262905215Y-67781460D01*
X262557207Y-68129468D01*
X262554457Y-68119204D01*
X262514961Y-68050795D01*
X262459106Y-67994940D01*
X262390697Y-67955444D01*
X262380431Y-67952693D01*
X262728439Y-67604684D01*
X262727893Y-67599838D01*
X262701570Y-67565972D01*
X262703592Y-67511970D01*
X262724377Y-67482617D01*
X262791774Y-67422909D01*
X262844886Y-67345961D01*
X262888942Y-67314671D01*
X262942806Y-67319019D01*
G37*
%TD.AperFunction*%
%TA.AperFunction,Conductor*%
G36*
X270146280Y-35018482D02*
G01*
X270173300Y-35065282D01*
X270174500Y-35079000D01*
X270174500Y-101097777D01*
X270174376Y-101102207D01*
X270157145Y-101409016D01*
X270156153Y-101417819D01*
X270105053Y-101718578D01*
X270103081Y-101727215D01*
X270018631Y-102020344D01*
X270015706Y-102028706D01*
X269898959Y-102310559D01*
X269895115Y-102318541D01*
X269747547Y-102585546D01*
X269742833Y-102593047D01*
X269566305Y-102841840D01*
X269560782Y-102848767D01*
X269357501Y-103076237D01*
X269351237Y-103082501D01*
X269123767Y-103285782D01*
X269116840Y-103291305D01*
X268868047Y-103467833D01*
X268860546Y-103472547D01*
X268593541Y-103620115D01*
X268585559Y-103623959D01*
X268303706Y-103740706D01*
X268295344Y-103743631D01*
X268002215Y-103828081D01*
X267993578Y-103830053D01*
X267692819Y-103881153D01*
X267684016Y-103882145D01*
X267377208Y-103899376D01*
X267372778Y-103899500D01*
X226269868Y-103899500D01*
X226063000Y-103935976D01*
X225865606Y-104007821D01*
X225865605Y-104007821D01*
X225724281Y-104089416D01*
X225684781Y-104100000D01*
X223065018Y-104100000D01*
X223025518Y-104089416D01*
X222884195Y-104007822D01*
X222762813Y-103963643D01*
X222686801Y-103935977D01*
X222686798Y-103935976D01*
X222686797Y-103935976D01*
X222479936Y-103899500D01*
X222479932Y-103899500D01*
X222414784Y-103899500D01*
X198414882Y-103899500D01*
X198375000Y-103899500D01*
X198269970Y-103899500D01*
X198269966Y-103899500D01*
X198063104Y-103935975D01*
X198063101Y-103935975D01*
X198063101Y-103935976D01*
X198047777Y-103941553D01*
X197865706Y-104007821D01*
X197724382Y-104089416D01*
X197684882Y-104100000D01*
X195065118Y-104100000D01*
X195025618Y-104089416D01*
X194884293Y-104007821D01*
X194740760Y-103955580D01*
X194686899Y-103935976D01*
X194686896Y-103935975D01*
X194686895Y-103935975D01*
X194480033Y-103899500D01*
X194480030Y-103899500D01*
X194377222Y-103899500D01*
X194372792Y-103899376D01*
X194065983Y-103882145D01*
X194057180Y-103881153D01*
X193756421Y-103830053D01*
X193747784Y-103828081D01*
X193454655Y-103743631D01*
X193446293Y-103740706D01*
X193164440Y-103623959D01*
X193156458Y-103620115D01*
X192889453Y-103472547D01*
X192881956Y-103467835D01*
X192633156Y-103291303D01*
X192626244Y-103285792D01*
X192398755Y-103082494D01*
X192392505Y-103076244D01*
X192189206Y-102848753D01*
X192183694Y-102841840D01*
X192007160Y-102593038D01*
X192002457Y-102585555D01*
X191854883Y-102318540D01*
X191851040Y-102310559D01*
X191752595Y-102072892D01*
X191734292Y-102028704D01*
X191731368Y-102020344D01*
X191726883Y-102004775D01*
X191646915Y-101727204D01*
X191644948Y-101718589D01*
X191593845Y-101417816D01*
X191592854Y-101409016D01*
X191591494Y-101384807D01*
X191575624Y-101102207D01*
X191575500Y-101097777D01*
X191575500Y-99953501D01*
X197799475Y-99953501D01*
X197799500Y-100000001D01*
X197799500Y-100047185D01*
X197799522Y-100047425D01*
X197799561Y-100122485D01*
X197799561Y-100122486D01*
X197834282Y-100363150D01*
X197834283Y-100363158D01*
X197902893Y-100596441D01*
X197902894Y-100596445D01*
X198003986Y-100817580D01*
X198003989Y-100817584D01*
X198003991Y-100817589D01*
X198072333Y-100923852D01*
X198135053Y-101021374D01*
X198135524Y-101022105D01*
X198294815Y-101205828D01*
X198478623Y-101365021D01*
X198478625Y-101365022D01*
X198478626Y-101365023D01*
X198478627Y-101365024D01*
X198683202Y-101496440D01*
X198683204Y-101496441D01*
X198683209Y-101496444D01*
X198904412Y-101597425D01*
X198904420Y-101597427D01*
X198904422Y-101597428D01*
X198919716Y-101601917D01*
X199137730Y-101665909D01*
X199137737Y-101665910D01*
X199137741Y-101665911D01*
X199318904Y-101691949D01*
X199378419Y-101700503D01*
X199500000Y-101700500D01*
X199539882Y-101700500D01*
X200453129Y-101700500D01*
X200453392Y-101700525D01*
X200461022Y-101700521D01*
X200461025Y-101700522D01*
X200498687Y-101700502D01*
X200502990Y-101700500D01*
X200547544Y-101700500D01*
X200547783Y-101700476D01*
X200622488Y-101700438D01*
X200863158Y-101665716D01*
X201096440Y-101597108D01*
X201317588Y-101496009D01*
X201522105Y-101364476D01*
X201705828Y-101205186D01*
X201865020Y-101021378D01*
X201996444Y-100816792D01*
X202097425Y-100595589D01*
X202100344Y-100585646D01*
X202125283Y-100500678D01*
X202165909Y-100362270D01*
X202167673Y-100350001D01*
X202191208Y-100186252D01*
X202200503Y-100121582D01*
X202200500Y-100047237D01*
X202200524Y-100047002D01*
X202200519Y-100038978D01*
X202200521Y-100038976D01*
X202200517Y-100031344D01*
X205564498Y-100031344D01*
X205564498Y-101468655D01*
X205570753Y-101526838D01*
X205570754Y-101526840D01*
X205619853Y-101658477D01*
X205619854Y-101658479D01*
X205704047Y-101770950D01*
X205816518Y-101855143D01*
X205816521Y-101855145D01*
X205948158Y-101904244D01*
X205955432Y-101905026D01*
X206006343Y-101910500D01*
X206006350Y-101910500D01*
X207443653Y-101910500D01*
X207488906Y-101905634D01*
X207501838Y-101904244D01*
X207633475Y-101855145D01*
X207745948Y-101770950D01*
X207830143Y-101658477D01*
X207879242Y-101526840D01*
X207882596Y-101495645D01*
X207885498Y-101468655D01*
X207885498Y-101031322D01*
X207903980Y-100980542D01*
X207950780Y-100953522D01*
X208003998Y-100962906D01*
X208038734Y-101004302D01*
X208040806Y-101010875D01*
X208085898Y-101179161D01*
X208085898Y-101179162D01*
X208178329Y-101377381D01*
X208294678Y-101543545D01*
X208834270Y-101003953D01*
X208864901Y-101057007D01*
X208957993Y-101150099D01*
X209011045Y-101180728D01*
X208471453Y-101720320D01*
X208637618Y-101836670D01*
X208835838Y-101929101D01*
X209047107Y-101985711D01*
X209047119Y-101985713D01*
X209264996Y-102004775D01*
X209265004Y-102004775D01*
X209482880Y-101985713D01*
X209482892Y-101985711D01*
X209694161Y-101929101D01*
X209694162Y-101929101D01*
X209892381Y-101836670D01*
X210058545Y-101720320D01*
X209518954Y-101180729D01*
X209572007Y-101150099D01*
X209665099Y-101057007D01*
X209695729Y-101003954D01*
X210235320Y-101543545D01*
X210351670Y-101377381D01*
X210444101Y-101179162D01*
X210444101Y-101179161D01*
X210500711Y-100967892D01*
X210500713Y-100967880D01*
X210519775Y-100750004D01*
X210519775Y-100749995D01*
X210500713Y-100532119D01*
X210500711Y-100532107D01*
X210444101Y-100320838D01*
X210444101Y-100320837D01*
X210351670Y-100122619D01*
X210287759Y-100031344D01*
X213264498Y-100031344D01*
X213264498Y-101468655D01*
X213270753Y-101526838D01*
X213270754Y-101526840D01*
X213319853Y-101658477D01*
X213319854Y-101658479D01*
X213404047Y-101770950D01*
X213516518Y-101855143D01*
X213516521Y-101855145D01*
X213648158Y-101904244D01*
X213655432Y-101905026D01*
X213706343Y-101910500D01*
X213706350Y-101910500D01*
X215143653Y-101910500D01*
X215188906Y-101905634D01*
X215201838Y-101904244D01*
X215333475Y-101855145D01*
X215445948Y-101770950D01*
X215530143Y-101658477D01*
X215579242Y-101526840D01*
X215582596Y-101495645D01*
X215585498Y-101468655D01*
X215585498Y-101031322D01*
X215603980Y-100980542D01*
X215650780Y-100953522D01*
X215703998Y-100962906D01*
X215738734Y-101004302D01*
X215740806Y-101010875D01*
X215785898Y-101179161D01*
X215785898Y-101179162D01*
X215878329Y-101377381D01*
X215994678Y-101543545D01*
X216534270Y-101003953D01*
X216564901Y-101057007D01*
X216657993Y-101150099D01*
X216711045Y-101180728D01*
X216171453Y-101720320D01*
X216337618Y-101836670D01*
X216535838Y-101929101D01*
X216747107Y-101985711D01*
X216747119Y-101985713D01*
X216964996Y-102004775D01*
X216965004Y-102004775D01*
X217182880Y-101985713D01*
X217182892Y-101985711D01*
X217394161Y-101929101D01*
X217394162Y-101929101D01*
X217592381Y-101836670D01*
X217758545Y-101720320D01*
X217218954Y-101180729D01*
X217272007Y-101150099D01*
X217365099Y-101057007D01*
X217395729Y-101003954D01*
X217935320Y-101543545D01*
X218051670Y-101377381D01*
X218144101Y-101179162D01*
X218144101Y-101179161D01*
X218158614Y-101125000D01*
X221522715Y-101125000D01*
X222136147Y-101125000D01*
X222115000Y-101203922D01*
X222115000Y-101296078D01*
X222136147Y-101375000D01*
X221522715Y-101375000D01*
X221528745Y-101436236D01*
X221528746Y-101436239D01*
X221583064Y-101615302D01*
X221583066Y-101615305D01*
X221671284Y-101780348D01*
X221789997Y-101925002D01*
X221934651Y-102043715D01*
X222099694Y-102131933D01*
X222099700Y-102131936D01*
X222278758Y-102186252D01*
X222278765Y-102186254D01*
X222339999Y-102192284D01*
X222340000Y-102192284D01*
X222340000Y-101578852D01*
X222418922Y-101600000D01*
X222511078Y-101600000D01*
X222590000Y-101578852D01*
X222590000Y-102192284D01*
X222651234Y-102186254D01*
X222651241Y-102186252D01*
X222830299Y-102131936D01*
X222830305Y-102131933D01*
X222995348Y-102043715D01*
X223140002Y-101925002D01*
X223258715Y-101780348D01*
X223346933Y-101615305D01*
X223346935Y-101615302D01*
X223389402Y-101475308D01*
X223421829Y-101432080D01*
X223474457Y-101419809D01*
X223522659Y-101444237D01*
X223540598Y-101475308D01*
X223583064Y-101615302D01*
X223583066Y-101615305D01*
X223671284Y-101780348D01*
X223789997Y-101925002D01*
X223934651Y-102043715D01*
X224099694Y-102131933D01*
X224099700Y-102131936D01*
X224278758Y-102186252D01*
X224278765Y-102186254D01*
X224339999Y-102192284D01*
X224340000Y-102192284D01*
X224340000Y-101578852D01*
X224418922Y-101600000D01*
X224511078Y-101600000D01*
X224590000Y-101578852D01*
X224590000Y-102192284D01*
X224651234Y-102186254D01*
X224651241Y-102186252D01*
X224830299Y-102131936D01*
X224830305Y-102131933D01*
X224995348Y-102043715D01*
X225140002Y-101925002D01*
X225258715Y-101780348D01*
X225346933Y-101615305D01*
X225346935Y-101615302D01*
X225401253Y-101436239D01*
X225401254Y-101436236D01*
X225407285Y-101375000D01*
X224793853Y-101375000D01*
X224815000Y-101296078D01*
X224815000Y-101249998D01*
X225599760Y-101249998D01*
X225599760Y-101250001D01*
X225618668Y-101429894D01*
X225618670Y-101429903D01*
X225674379Y-101601356D01*
X225674564Y-101601925D01*
X225726780Y-101692366D01*
X225731477Y-101700502D01*
X225765006Y-101758575D01*
X225886041Y-101892999D01*
X225886042Y-101893000D01*
X225886044Y-101893002D01*
X226013651Y-101985713D01*
X226032380Y-101999320D01*
X226197626Y-102072892D01*
X226374558Y-102110500D01*
X226374562Y-102110500D01*
X226555438Y-102110500D01*
X226555442Y-102110500D01*
X226732374Y-102072892D01*
X226897620Y-101999320D01*
X227043959Y-101892999D01*
X227164994Y-101758575D01*
X227255436Y-101601925D01*
X227311332Y-101429894D01*
X227330240Y-101250000D01*
X227330240Y-101249998D01*
X227599760Y-101249998D01*
X227599760Y-101250001D01*
X227618668Y-101429894D01*
X227618670Y-101429903D01*
X227674379Y-101601356D01*
X227674564Y-101601925D01*
X227726780Y-101692366D01*
X227731477Y-101700502D01*
X227765006Y-101758575D01*
X227886041Y-101892999D01*
X227886042Y-101893000D01*
X227886044Y-101893002D01*
X228013651Y-101985713D01*
X228032380Y-101999320D01*
X228197626Y-102072892D01*
X228374558Y-102110500D01*
X228374562Y-102110500D01*
X228555438Y-102110500D01*
X228555442Y-102110500D01*
X228732374Y-102072892D01*
X228897620Y-101999320D01*
X229043959Y-101892999D01*
X229164994Y-101758575D01*
X229255436Y-101601925D01*
X229311332Y-101429894D01*
X229330240Y-101250000D01*
X229330240Y-101249998D01*
X233599760Y-101249998D01*
X233599760Y-101250001D01*
X233618668Y-101429894D01*
X233618670Y-101429903D01*
X233674379Y-101601356D01*
X233674564Y-101601925D01*
X233726780Y-101692366D01*
X233731477Y-101700502D01*
X233765006Y-101758575D01*
X233886041Y-101892999D01*
X233886042Y-101893000D01*
X233886044Y-101893002D01*
X234013651Y-101985713D01*
X234032380Y-101999320D01*
X234197626Y-102072892D01*
X234374558Y-102110500D01*
X234374562Y-102110500D01*
X234555438Y-102110500D01*
X234555442Y-102110500D01*
X234732374Y-102072892D01*
X234897620Y-101999320D01*
X235043959Y-101892999D01*
X235164994Y-101758575D01*
X235255436Y-101601925D01*
X235311332Y-101429894D01*
X235330240Y-101250000D01*
X235330240Y-101249998D01*
X235599760Y-101249998D01*
X235599760Y-101250001D01*
X235618668Y-101429894D01*
X235618670Y-101429903D01*
X235674379Y-101601356D01*
X235674564Y-101601925D01*
X235726780Y-101692366D01*
X235731477Y-101700502D01*
X235765006Y-101758575D01*
X235886041Y-101892999D01*
X235886042Y-101893000D01*
X235886044Y-101893002D01*
X236013651Y-101985713D01*
X236032380Y-101999320D01*
X236197626Y-102072892D01*
X236374558Y-102110500D01*
X236374562Y-102110500D01*
X236555438Y-102110500D01*
X236555442Y-102110500D01*
X236732374Y-102072892D01*
X236897620Y-101999320D01*
X237043959Y-101892999D01*
X237164994Y-101758575D01*
X237255436Y-101601925D01*
X237311332Y-101429894D01*
X237330240Y-101250000D01*
X237311332Y-101070106D01*
X237310621Y-101067919D01*
X237255438Y-100898082D01*
X237255436Y-100898075D01*
X237164994Y-100741425D01*
X237043959Y-100607001D01*
X237043956Y-100606999D01*
X237043955Y-100606997D01*
X236897625Y-100500683D01*
X236897622Y-100500681D01*
X236897620Y-100500680D01*
X236797905Y-100456284D01*
X236732377Y-100427109D01*
X236732372Y-100427107D01*
X236648330Y-100409244D01*
X236555442Y-100389500D01*
X236374558Y-100389500D01*
X236295391Y-100406327D01*
X236197627Y-100427107D01*
X236197622Y-100427109D01*
X236032384Y-100500678D01*
X236032374Y-100500683D01*
X235886044Y-100606997D01*
X235886041Y-100607001D01*
X235765005Y-100741425D01*
X235674564Y-100898075D01*
X235674561Y-100898082D01*
X235618670Y-101070096D01*
X235618668Y-101070105D01*
X235599760Y-101249998D01*
X235330240Y-101249998D01*
X235311332Y-101070106D01*
X235310621Y-101067919D01*
X235255438Y-100898082D01*
X235255436Y-100898075D01*
X235164994Y-100741425D01*
X235043959Y-100607001D01*
X235043956Y-100606999D01*
X235043955Y-100606997D01*
X234897625Y-100500683D01*
X234897622Y-100500681D01*
X234897620Y-100500680D01*
X234797905Y-100456284D01*
X234732377Y-100427109D01*
X234732372Y-100427107D01*
X234648330Y-100409244D01*
X234555442Y-100389500D01*
X234374558Y-100389500D01*
X234295391Y-100406327D01*
X234197627Y-100427107D01*
X234197622Y-100427109D01*
X234032384Y-100500678D01*
X234032374Y-100500683D01*
X233886044Y-100606997D01*
X233886041Y-100607001D01*
X233765005Y-100741425D01*
X233674564Y-100898075D01*
X233674561Y-100898082D01*
X233618670Y-101070096D01*
X233618668Y-101070105D01*
X233599760Y-101249998D01*
X229330240Y-101249998D01*
X229311332Y-101070106D01*
X229310621Y-101067919D01*
X229255438Y-100898082D01*
X229255436Y-100898075D01*
X229164994Y-100741425D01*
X229043959Y-100607001D01*
X229043956Y-100606999D01*
X229043955Y-100606997D01*
X228897625Y-100500683D01*
X228897622Y-100500681D01*
X228897620Y-100500680D01*
X228797905Y-100456284D01*
X228732377Y-100427109D01*
X228732372Y-100427107D01*
X228648330Y-100409244D01*
X228555442Y-100389500D01*
X228374558Y-100389500D01*
X228295391Y-100406327D01*
X228197627Y-100427107D01*
X228197622Y-100427109D01*
X228032384Y-100500678D01*
X228032374Y-100500683D01*
X227886044Y-100606997D01*
X227886041Y-100607001D01*
X227765005Y-100741425D01*
X227674564Y-100898075D01*
X227674561Y-100898082D01*
X227618670Y-101070096D01*
X227618668Y-101070105D01*
X227599760Y-101249998D01*
X227330240Y-101249998D01*
X227311332Y-101070106D01*
X227310621Y-101067919D01*
X227255438Y-100898082D01*
X227255436Y-100898075D01*
X227164994Y-100741425D01*
X227043959Y-100607001D01*
X227043956Y-100606999D01*
X227043955Y-100606997D01*
X226897625Y-100500683D01*
X226897622Y-100500681D01*
X226897620Y-100500680D01*
X226797905Y-100456284D01*
X226732377Y-100427109D01*
X226732372Y-100427107D01*
X226648330Y-100409244D01*
X226555442Y-100389500D01*
X226374558Y-100389500D01*
X226295391Y-100406327D01*
X226197627Y-100427107D01*
X226197622Y-100427109D01*
X226032384Y-100500678D01*
X226032374Y-100500683D01*
X225886044Y-100606997D01*
X225886041Y-100607001D01*
X225765005Y-100741425D01*
X225674564Y-100898075D01*
X225674561Y-100898082D01*
X225618670Y-101070096D01*
X225618668Y-101070105D01*
X225599760Y-101249998D01*
X224815000Y-101249998D01*
X224815000Y-101203922D01*
X224793853Y-101125000D01*
X225407285Y-101125000D01*
X225401254Y-101063763D01*
X225401253Y-101063760D01*
X225346935Y-100884697D01*
X225346933Y-100884694D01*
X225258715Y-100719651D01*
X225140002Y-100574997D01*
X224995348Y-100456284D01*
X224830305Y-100368066D01*
X224830302Y-100368064D01*
X224651239Y-100313746D01*
X224651236Y-100313745D01*
X224590000Y-100307714D01*
X224590000Y-100921147D01*
X224511078Y-100900000D01*
X224418922Y-100900000D01*
X224340000Y-100921147D01*
X224340000Y-100307714D01*
X224278763Y-100313745D01*
X224278760Y-100313746D01*
X224099697Y-100368064D01*
X224099694Y-100368066D01*
X223934651Y-100456284D01*
X223789997Y-100574997D01*
X223671284Y-100719651D01*
X223583066Y-100884694D01*
X223583064Y-100884698D01*
X223540598Y-101024691D01*
X223508171Y-101067919D01*
X223455543Y-101080190D01*
X223407341Y-101055762D01*
X223389402Y-101024691D01*
X223346935Y-100884698D01*
X223346933Y-100884694D01*
X223258715Y-100719651D01*
X223140002Y-100574997D01*
X222995348Y-100456284D01*
X222830305Y-100368066D01*
X222830302Y-100368064D01*
X222651239Y-100313746D01*
X222651236Y-100313745D01*
X222590000Y-100307714D01*
X222590000Y-100921147D01*
X222511078Y-100900000D01*
X222418922Y-100900000D01*
X222340000Y-100921147D01*
X222340000Y-100307714D01*
X222278763Y-100313745D01*
X222278760Y-100313746D01*
X222099697Y-100368064D01*
X222099694Y-100368066D01*
X221934651Y-100456284D01*
X221789997Y-100574997D01*
X221671284Y-100719651D01*
X221583066Y-100884694D01*
X221583064Y-100884697D01*
X221528746Y-101063760D01*
X221528745Y-101063763D01*
X221522715Y-101125000D01*
X218158614Y-101125000D01*
X218200711Y-100967892D01*
X218200713Y-100967880D01*
X218219775Y-100750004D01*
X218219775Y-100749995D01*
X218200713Y-100532119D01*
X218200711Y-100532107D01*
X218144101Y-100320838D01*
X218144101Y-100320837D01*
X218051670Y-100122619D01*
X217935320Y-99956453D01*
X217395728Y-100496045D01*
X217365099Y-100442993D01*
X217272007Y-100349901D01*
X217218953Y-100319270D01*
X217758545Y-99779678D01*
X217592381Y-99663329D01*
X217394161Y-99570898D01*
X217182892Y-99514288D01*
X217182880Y-99514286D01*
X216965004Y-99495225D01*
X216964996Y-99495225D01*
X216747119Y-99514286D01*
X216747107Y-99514288D01*
X216535838Y-99570898D01*
X216535837Y-99570898D01*
X216337616Y-99663330D01*
X216171453Y-99779677D01*
X216171453Y-99779678D01*
X216711046Y-100319270D01*
X216657993Y-100349901D01*
X216564901Y-100442993D01*
X216534270Y-100496045D01*
X215994678Y-99956453D01*
X215994677Y-99956453D01*
X215878330Y-100122616D01*
X215785898Y-100320837D01*
X215785898Y-100320838D01*
X215740806Y-100489124D01*
X215709810Y-100533390D01*
X215657613Y-100547376D01*
X215608636Y-100524538D01*
X215585799Y-100475562D01*
X215585498Y-100468677D01*
X215585498Y-100031344D01*
X215579242Y-99973161D01*
X215579242Y-99973160D01*
X215530143Y-99841523D01*
X215484349Y-99780348D01*
X215445948Y-99729049D01*
X215333477Y-99644856D01*
X215333475Y-99644855D01*
X215201838Y-99595756D01*
X215201836Y-99595755D01*
X215143653Y-99589500D01*
X215143646Y-99589500D01*
X213706350Y-99589500D01*
X213706343Y-99589500D01*
X213648159Y-99595755D01*
X213648157Y-99595756D01*
X213516520Y-99644855D01*
X213516518Y-99644856D01*
X213404047Y-99729049D01*
X213319854Y-99841520D01*
X213319853Y-99841522D01*
X213270754Y-99973159D01*
X213270753Y-99973161D01*
X213264498Y-100031344D01*
X210287759Y-100031344D01*
X210235320Y-99956453D01*
X209695728Y-100496045D01*
X209665099Y-100442993D01*
X209572007Y-100349901D01*
X209518953Y-100319270D01*
X210058545Y-99779678D01*
X209892381Y-99663329D01*
X209694161Y-99570898D01*
X209482892Y-99514288D01*
X209482880Y-99514286D01*
X209265004Y-99495225D01*
X209264996Y-99495225D01*
X209047119Y-99514286D01*
X209047107Y-99514288D01*
X208835838Y-99570898D01*
X208835837Y-99570898D01*
X208637616Y-99663330D01*
X208471453Y-99779677D01*
X208471453Y-99779678D01*
X209011046Y-100319270D01*
X208957993Y-100349901D01*
X208864901Y-100442993D01*
X208834270Y-100496045D01*
X208294678Y-99956453D01*
X208294677Y-99956453D01*
X208178330Y-100122616D01*
X208085898Y-100320837D01*
X208085898Y-100320838D01*
X208040806Y-100489124D01*
X208009810Y-100533390D01*
X207957613Y-100547376D01*
X207908636Y-100524538D01*
X207885799Y-100475562D01*
X207885498Y-100468677D01*
X207885498Y-100031344D01*
X207879242Y-99973161D01*
X207879242Y-99973160D01*
X207830143Y-99841523D01*
X207784349Y-99780348D01*
X207745948Y-99729049D01*
X207633477Y-99644856D01*
X207633475Y-99644855D01*
X207501838Y-99595756D01*
X207501836Y-99595755D01*
X207443653Y-99589500D01*
X207443646Y-99589500D01*
X206006350Y-99589500D01*
X206006343Y-99589500D01*
X205948159Y-99595755D01*
X205948157Y-99595756D01*
X205816520Y-99644855D01*
X205816518Y-99644856D01*
X205704047Y-99729049D01*
X205619854Y-99841520D01*
X205619853Y-99841522D01*
X205570754Y-99973159D01*
X205570753Y-99973161D01*
X205564498Y-100031344D01*
X202200517Y-100031344D01*
X202200500Y-99999094D01*
X202200500Y-99960119D01*
X202200500Y-99952604D01*
X202200476Y-99952359D01*
X202200438Y-99877514D01*
X202191244Y-99813790D01*
X202165716Y-99636843D01*
X202155446Y-99601924D01*
X202132605Y-99524260D01*
X202097108Y-99403561D01*
X202026906Y-99249998D01*
X221599760Y-99249998D01*
X221599760Y-99250001D01*
X221618668Y-99429894D01*
X221618670Y-99429903D01*
X221674561Y-99601917D01*
X221674564Y-99601925D01*
X221710016Y-99663329D01*
X221747959Y-99729050D01*
X221765006Y-99758575D01*
X221886041Y-99892999D01*
X221886042Y-99893000D01*
X221886044Y-99893002D01*
X222032363Y-99999308D01*
X222032380Y-99999320D01*
X222197626Y-100072892D01*
X222374558Y-100110500D01*
X222374562Y-100110500D01*
X222555438Y-100110500D01*
X222555442Y-100110500D01*
X222732374Y-100072892D01*
X222897620Y-99999320D01*
X223043959Y-99892999D01*
X223164994Y-99758575D01*
X223255436Y-99601925D01*
X223311332Y-99429894D01*
X223330240Y-99250000D01*
X223330240Y-99249998D01*
X223599760Y-99249998D01*
X223599760Y-99250001D01*
X223618668Y-99429894D01*
X223618670Y-99429903D01*
X223674561Y-99601917D01*
X223674564Y-99601925D01*
X223710016Y-99663329D01*
X223747959Y-99729050D01*
X223765006Y-99758575D01*
X223886041Y-99892999D01*
X223886042Y-99893000D01*
X223886044Y-99893002D01*
X224032363Y-99999308D01*
X224032380Y-99999320D01*
X224197626Y-100072892D01*
X224374558Y-100110500D01*
X224374562Y-100110500D01*
X224555438Y-100110500D01*
X224555442Y-100110500D01*
X224732374Y-100072892D01*
X224897620Y-99999320D01*
X225043959Y-99892999D01*
X225164994Y-99758575D01*
X225255436Y-99601925D01*
X225311332Y-99429894D01*
X225330240Y-99250000D01*
X225328751Y-99235837D01*
X225323136Y-99182412D01*
X225317102Y-99125000D01*
X225522715Y-99125000D01*
X226136147Y-99125000D01*
X226115000Y-99203922D01*
X226115000Y-99296078D01*
X226136147Y-99375000D01*
X225522715Y-99375000D01*
X225528745Y-99436236D01*
X225528746Y-99436239D01*
X225583064Y-99615302D01*
X225583066Y-99615305D01*
X225671284Y-99780348D01*
X225789997Y-99925002D01*
X225934651Y-100043715D01*
X226099694Y-100131933D01*
X226099700Y-100131936D01*
X226278758Y-100186252D01*
X226278765Y-100186254D01*
X226339999Y-100192284D01*
X226340000Y-100192284D01*
X226340000Y-99578852D01*
X226418922Y-99600000D01*
X226511078Y-99600000D01*
X226590000Y-99578852D01*
X226590000Y-100192284D01*
X226651234Y-100186254D01*
X226651241Y-100186252D01*
X226830299Y-100131936D01*
X226830305Y-100131933D01*
X226995348Y-100043715D01*
X227140002Y-99925002D01*
X227258715Y-99780348D01*
X227346933Y-99615305D01*
X227346935Y-99615302D01*
X227401253Y-99436239D01*
X227401254Y-99436236D01*
X227407285Y-99375000D01*
X226793853Y-99375000D01*
X226815000Y-99296078D01*
X226815000Y-99249998D01*
X227599760Y-99249998D01*
X227599760Y-99250001D01*
X227618668Y-99429894D01*
X227618670Y-99429903D01*
X227674561Y-99601917D01*
X227674564Y-99601925D01*
X227710016Y-99663329D01*
X227747959Y-99729050D01*
X227765006Y-99758575D01*
X227886041Y-99892999D01*
X227886042Y-99893000D01*
X227886044Y-99893002D01*
X228032363Y-99999308D01*
X228032380Y-99999320D01*
X228197626Y-100072892D01*
X228374558Y-100110500D01*
X228374562Y-100110500D01*
X228555438Y-100110500D01*
X228555442Y-100110500D01*
X228732374Y-100072892D01*
X228897620Y-99999320D01*
X229043959Y-99892999D01*
X229164994Y-99758575D01*
X229255436Y-99601925D01*
X229311332Y-99429894D01*
X229330240Y-99250000D01*
X229330240Y-99249998D01*
X233599760Y-99249998D01*
X233599760Y-99250001D01*
X233618668Y-99429894D01*
X233618670Y-99429903D01*
X233674561Y-99601917D01*
X233674564Y-99601925D01*
X233710016Y-99663329D01*
X233747959Y-99729050D01*
X233765006Y-99758575D01*
X233886041Y-99892999D01*
X233886042Y-99893000D01*
X233886044Y-99893002D01*
X234032363Y-99999308D01*
X234032380Y-99999320D01*
X234197626Y-100072892D01*
X234374558Y-100110500D01*
X234374562Y-100110500D01*
X234555438Y-100110500D01*
X234555442Y-100110500D01*
X234732374Y-100072892D01*
X234897620Y-99999320D01*
X235043959Y-99892999D01*
X235164994Y-99758575D01*
X235255436Y-99601925D01*
X235311332Y-99429894D01*
X235330240Y-99250000D01*
X235330240Y-99249998D01*
X235599760Y-99249998D01*
X235599760Y-99250001D01*
X235618668Y-99429894D01*
X235618670Y-99429903D01*
X235674561Y-99601917D01*
X235674564Y-99601925D01*
X235710016Y-99663329D01*
X235747959Y-99729050D01*
X235765006Y-99758575D01*
X235886041Y-99892999D01*
X235886042Y-99893000D01*
X235886044Y-99893002D01*
X236032363Y-99999308D01*
X236032380Y-99999320D01*
X236197626Y-100072892D01*
X236374558Y-100110500D01*
X236374562Y-100110500D01*
X236555438Y-100110500D01*
X236555442Y-100110500D01*
X236732374Y-100072892D01*
X236897620Y-99999320D01*
X237043959Y-99892999D01*
X237164994Y-99758575D01*
X237255436Y-99601925D01*
X237311332Y-99429894D01*
X237330240Y-99250000D01*
X237328751Y-99235837D01*
X237323136Y-99182412D01*
X237317102Y-99125000D01*
X237522715Y-99125000D01*
X238136147Y-99125000D01*
X238115000Y-99203922D01*
X238115000Y-99296078D01*
X238136147Y-99375000D01*
X237522715Y-99375000D01*
X237528745Y-99436236D01*
X237528746Y-99436239D01*
X237583064Y-99615302D01*
X237583066Y-99615305D01*
X237671284Y-99780348D01*
X237789997Y-99925002D01*
X237934651Y-100043715D01*
X238099694Y-100131933D01*
X238099698Y-100131935D01*
X238239691Y-100174402D01*
X238282919Y-100206829D01*
X238295190Y-100259457D01*
X238270762Y-100307659D01*
X238239691Y-100325598D01*
X238099698Y-100368064D01*
X238099694Y-100368066D01*
X237934651Y-100456284D01*
X237789997Y-100574997D01*
X237671284Y-100719651D01*
X237583066Y-100884694D01*
X237583064Y-100884697D01*
X237528746Y-101063760D01*
X237528745Y-101063763D01*
X237522715Y-101125000D01*
X238136147Y-101125000D01*
X238115000Y-101203922D01*
X238115000Y-101296078D01*
X238136147Y-101375000D01*
X237522715Y-101375000D01*
X237528745Y-101436236D01*
X237528746Y-101436239D01*
X237583064Y-101615302D01*
X237583066Y-101615305D01*
X237671284Y-101780348D01*
X237789997Y-101925002D01*
X237934651Y-102043715D01*
X238099694Y-102131933D01*
X238099700Y-102131936D01*
X238278758Y-102186252D01*
X238278765Y-102186254D01*
X238339999Y-102192284D01*
X238340000Y-102192284D01*
X238340000Y-101578852D01*
X238418922Y-101600000D01*
X238511078Y-101600000D01*
X238590000Y-101578852D01*
X238590000Y-102192284D01*
X238651234Y-102186254D01*
X238651241Y-102186252D01*
X238830299Y-102131936D01*
X238830305Y-102131933D01*
X238995348Y-102043715D01*
X239140002Y-101925002D01*
X239258715Y-101780348D01*
X239346933Y-101615305D01*
X239346935Y-101615302D01*
X239401253Y-101436239D01*
X239401254Y-101436236D01*
X239407285Y-101375000D01*
X238793853Y-101375000D01*
X238815000Y-101296078D01*
X238815000Y-101249998D01*
X239599760Y-101249998D01*
X239599760Y-101250001D01*
X239618668Y-101429894D01*
X239618670Y-101429903D01*
X239674379Y-101601356D01*
X239674564Y-101601925D01*
X239726780Y-101692366D01*
X239731477Y-101700502D01*
X239765006Y-101758575D01*
X239886041Y-101892999D01*
X239886042Y-101893000D01*
X239886044Y-101893002D01*
X240013651Y-101985713D01*
X240032380Y-101999320D01*
X240197626Y-102072892D01*
X240374558Y-102110500D01*
X240374562Y-102110500D01*
X240555438Y-102110500D01*
X240555442Y-102110500D01*
X240732374Y-102072892D01*
X240897620Y-101999320D01*
X241043959Y-101892999D01*
X241164994Y-101758575D01*
X241255436Y-101601925D01*
X241311332Y-101429894D01*
X241330240Y-101250000D01*
X241311332Y-101070106D01*
X241310621Y-101067919D01*
X241255438Y-100898082D01*
X241255436Y-100898075D01*
X241164994Y-100741425D01*
X241043959Y-100607001D01*
X241043956Y-100606999D01*
X241043955Y-100606997D01*
X240897625Y-100500683D01*
X240897622Y-100500681D01*
X240897620Y-100500680D01*
X240797905Y-100456284D01*
X240732377Y-100427109D01*
X240732372Y-100427107D01*
X240648330Y-100409244D01*
X240555442Y-100389500D01*
X240374558Y-100389500D01*
X240295391Y-100406327D01*
X240197627Y-100427107D01*
X240197622Y-100427109D01*
X240032384Y-100500678D01*
X240032374Y-100500683D01*
X239886044Y-100606997D01*
X239886041Y-100607001D01*
X239765005Y-100741425D01*
X239674564Y-100898075D01*
X239674561Y-100898082D01*
X239618670Y-101070096D01*
X239618668Y-101070105D01*
X239599760Y-101249998D01*
X238815000Y-101249998D01*
X238815000Y-101203922D01*
X238793853Y-101125000D01*
X239407285Y-101125000D01*
X239401254Y-101063763D01*
X239401253Y-101063760D01*
X239346935Y-100884697D01*
X239346933Y-100884694D01*
X239258715Y-100719651D01*
X239140002Y-100574997D01*
X238995348Y-100456284D01*
X238830305Y-100368066D01*
X238830302Y-100368064D01*
X238770752Y-100350000D01*
X245989853Y-100350000D01*
X246008398Y-100538295D01*
X246063316Y-100719337D01*
X246063319Y-100719343D01*
X246063320Y-100719346D01*
X246152510Y-100886207D01*
X246152512Y-100886209D01*
X246272537Y-101032462D01*
X246357523Y-101102207D01*
X246418793Y-101152490D01*
X246585654Y-101241680D01*
X246585659Y-101241681D01*
X246585662Y-101241683D01*
X246766704Y-101296601D01*
X246766706Y-101296601D01*
X246766709Y-101296602D01*
X246955000Y-101315147D01*
X247143291Y-101296602D01*
X247143293Y-101296601D01*
X247143295Y-101296601D01*
X247324337Y-101241683D01*
X247324338Y-101241682D01*
X247324346Y-101241680D01*
X247491207Y-101152490D01*
X247637462Y-101032462D01*
X247757490Y-100886207D01*
X247846680Y-100719346D01*
X247880761Y-100606997D01*
X247901601Y-100538295D01*
X247901601Y-100538293D01*
X247901602Y-100538291D01*
X247920147Y-100350000D01*
X248529852Y-100350000D01*
X248548397Y-100538295D01*
X248603315Y-100719337D01*
X248603318Y-100719343D01*
X248603319Y-100719346D01*
X248692509Y-100886207D01*
X248692511Y-100886209D01*
X248812536Y-101032462D01*
X248897522Y-101102207D01*
X248958792Y-101152490D01*
X249125653Y-101241680D01*
X249125658Y-101241681D01*
X249125661Y-101241683D01*
X249306703Y-101296601D01*
X249306705Y-101296601D01*
X249306708Y-101296602D01*
X249494999Y-101315147D01*
X249683290Y-101296602D01*
X249683292Y-101296601D01*
X249683294Y-101296601D01*
X249864336Y-101241683D01*
X249864337Y-101241682D01*
X249864345Y-101241680D01*
X250031206Y-101152490D01*
X250177461Y-101032462D01*
X250297489Y-100886207D01*
X250386679Y-100719346D01*
X250420760Y-100606997D01*
X250441600Y-100538295D01*
X250441600Y-100538293D01*
X250441601Y-100538291D01*
X250460146Y-100350000D01*
X251069854Y-100350000D01*
X251088399Y-100538295D01*
X251143317Y-100719337D01*
X251143320Y-100719343D01*
X251143321Y-100719346D01*
X251232511Y-100886207D01*
X251232513Y-100886209D01*
X251352538Y-101032462D01*
X251437524Y-101102207D01*
X251498794Y-101152490D01*
X251665655Y-101241680D01*
X251665660Y-101241681D01*
X251665663Y-101241683D01*
X251846705Y-101296601D01*
X251846707Y-101296601D01*
X251846710Y-101296602D01*
X252035001Y-101315147D01*
X252223292Y-101296602D01*
X252223294Y-101296601D01*
X252223296Y-101296601D01*
X252404338Y-101241683D01*
X252404339Y-101241682D01*
X252404347Y-101241680D01*
X252571208Y-101152490D01*
X252717463Y-101032462D01*
X252837491Y-100886207D01*
X252926681Y-100719346D01*
X252960762Y-100606997D01*
X252981602Y-100538295D01*
X252981602Y-100538293D01*
X252981603Y-100538291D01*
X253000148Y-100350000D01*
X253519919Y-100350000D01*
X253540192Y-100555838D01*
X253540194Y-100555845D01*
X253600228Y-100753753D01*
X253600233Y-100753763D01*
X253697733Y-100936173D01*
X253749260Y-100998960D01*
X253749262Y-100998960D01*
X254180872Y-100567350D01*
X254214910Y-100626306D01*
X254298694Y-100710090D01*
X254357648Y-100744127D01*
X253926037Y-101175737D01*
X253926037Y-101175738D01*
X253988826Y-101227266D01*
X254171236Y-101324766D01*
X254171246Y-101324771D01*
X254369154Y-101384805D01*
X254369161Y-101384807D01*
X254575000Y-101405080D01*
X254780838Y-101384807D01*
X254780845Y-101384805D01*
X254978753Y-101324771D01*
X254978763Y-101324766D01*
X255161173Y-101227267D01*
X255223961Y-101175737D01*
X254792351Y-100744127D01*
X254851306Y-100710090D01*
X254935090Y-100626306D01*
X254969127Y-100567351D01*
X255400737Y-100998961D01*
X255452267Y-100936173D01*
X255549766Y-100753763D01*
X255549771Y-100753753D01*
X255609805Y-100555845D01*
X255609807Y-100555838D01*
X255630080Y-100350000D01*
X255609807Y-100144161D01*
X255609805Y-100144154D01*
X255551972Y-99953501D01*
X259549475Y-99953501D01*
X259549500Y-100000001D01*
X259549500Y-100047185D01*
X259549522Y-100047425D01*
X259549561Y-100122485D01*
X259549561Y-100122486D01*
X259584282Y-100363150D01*
X259584283Y-100363158D01*
X259652893Y-100596441D01*
X259652894Y-100596445D01*
X259753986Y-100817580D01*
X259753989Y-100817584D01*
X259753991Y-100817589D01*
X259822333Y-100923852D01*
X259885053Y-101021374D01*
X259885524Y-101022105D01*
X260044815Y-101205828D01*
X260228623Y-101365021D01*
X260228625Y-101365022D01*
X260228626Y-101365023D01*
X260228627Y-101365024D01*
X260433202Y-101496440D01*
X260433204Y-101496441D01*
X260433209Y-101496444D01*
X260654412Y-101597425D01*
X260654420Y-101597427D01*
X260654422Y-101597428D01*
X260669716Y-101601917D01*
X260887730Y-101665909D01*
X260887737Y-101665910D01*
X260887741Y-101665911D01*
X261068904Y-101691949D01*
X261128419Y-101700503D01*
X261250000Y-101700500D01*
X261289882Y-101700500D01*
X262203129Y-101700500D01*
X262203392Y-101700525D01*
X262211022Y-101700521D01*
X262211025Y-101700522D01*
X262248687Y-101700502D01*
X262252990Y-101700500D01*
X262297544Y-101700500D01*
X262297783Y-101700476D01*
X262372488Y-101700438D01*
X262613158Y-101665716D01*
X262846440Y-101597108D01*
X263067588Y-101496009D01*
X263272105Y-101364476D01*
X263455828Y-101205186D01*
X263538269Y-101109997D01*
X267344410Y-101109997D01*
X267344410Y-101110002D01*
X267364255Y-101235302D01*
X267364256Y-101235306D01*
X267421850Y-101348340D01*
X267421852Y-101348343D01*
X267511558Y-101438049D01*
X267511561Y-101438051D01*
X267624595Y-101495645D01*
X267624597Y-101495645D01*
X267624598Y-101495646D01*
X267666366Y-101502261D01*
X267749900Y-101515492D01*
X267749902Y-101515492D01*
X267749904Y-101515492D01*
X267812554Y-101505569D01*
X267875206Y-101495646D01*
X267988244Y-101438050D01*
X268077952Y-101348342D01*
X268135548Y-101235304D01*
X268145471Y-101172652D01*
X268155394Y-101110002D01*
X268155394Y-101109997D01*
X268135548Y-100984697D01*
X268135547Y-100984693D01*
X268077953Y-100871659D01*
X268077951Y-100871656D01*
X267988245Y-100781950D01*
X267988242Y-100781948D01*
X267875208Y-100724354D01*
X267875204Y-100724353D01*
X267749904Y-100704508D01*
X267749900Y-100704508D01*
X267624599Y-100724353D01*
X267624595Y-100724354D01*
X267511561Y-100781948D01*
X267511558Y-100781950D01*
X267421852Y-100871656D01*
X267421850Y-100871659D01*
X267364256Y-100984693D01*
X267364255Y-100984697D01*
X267344410Y-101109997D01*
X263538269Y-101109997D01*
X263615020Y-101021378D01*
X263746444Y-100816792D01*
X263847425Y-100595589D01*
X263850344Y-100585646D01*
X263875283Y-100500678D01*
X263915909Y-100362270D01*
X263917673Y-100350001D01*
X263939232Y-100199997D01*
X268349410Y-100199997D01*
X268349410Y-100200002D01*
X268369255Y-100325302D01*
X268369256Y-100325306D01*
X268426850Y-100438340D01*
X268426852Y-100438343D01*
X268516558Y-100528049D01*
X268516561Y-100528051D01*
X268629595Y-100585645D01*
X268629597Y-100585645D01*
X268629598Y-100585646D01*
X268655674Y-100589776D01*
X268754900Y-100605492D01*
X268754902Y-100605492D01*
X268754904Y-100605492D01*
X268817554Y-100595569D01*
X268880206Y-100585646D01*
X268993244Y-100528050D01*
X269082952Y-100438342D01*
X269140548Y-100325304D01*
X269153973Y-100240543D01*
X269160394Y-100200002D01*
X269160394Y-100199997D01*
X269140548Y-100074697D01*
X269140547Y-100074693D01*
X269082953Y-99961659D01*
X269082951Y-99961656D01*
X268993245Y-99871950D01*
X268993242Y-99871948D01*
X268880208Y-99814354D01*
X268880204Y-99814353D01*
X268754904Y-99794508D01*
X268754900Y-99794508D01*
X268629599Y-99814353D01*
X268629595Y-99814354D01*
X268516561Y-99871948D01*
X268516558Y-99871950D01*
X268426852Y-99961656D01*
X268426850Y-99961659D01*
X268369256Y-100074693D01*
X268369255Y-100074697D01*
X268349410Y-100199997D01*
X263939232Y-100199997D01*
X263941208Y-100186252D01*
X263950503Y-100121582D01*
X263950500Y-100047237D01*
X263950524Y-100047002D01*
X263950519Y-100038978D01*
X263950521Y-100038976D01*
X263950500Y-99999094D01*
X263950500Y-99960119D01*
X263950500Y-99952604D01*
X263950476Y-99952359D01*
X263950438Y-99877514D01*
X263941244Y-99813790D01*
X263915716Y-99636843D01*
X263905446Y-99601924D01*
X263882605Y-99524260D01*
X263847108Y-99403561D01*
X263746009Y-99182412D01*
X263746006Y-99182407D01*
X263614483Y-98977906D01*
X263614479Y-98977902D01*
X263614476Y-98977896D01*
X263585222Y-98944155D01*
X263455187Y-98794172D01*
X263272001Y-98635519D01*
X263271378Y-98634979D01*
X263227824Y-98607001D01*
X263169084Y-98569267D01*
X263066791Y-98503556D01*
X262845589Y-98402575D01*
X262845587Y-98402574D01*
X262845578Y-98402571D01*
X262612274Y-98334092D01*
X262612258Y-98334088D01*
X262371586Y-98299497D01*
X262371585Y-98299497D01*
X262371581Y-98299497D01*
X262250000Y-98299500D01*
X261296810Y-98299500D01*
X261296554Y-98299475D01*
X261249092Y-98299500D01*
X261203567Y-98299500D01*
X261203330Y-98299522D01*
X261127514Y-98299561D01*
X261127513Y-98299561D01*
X260886849Y-98334282D01*
X260886841Y-98334283D01*
X260653558Y-98402893D01*
X260653554Y-98402894D01*
X260432419Y-98503986D01*
X260227901Y-98635519D01*
X260227894Y-98635524D01*
X260105751Y-98741425D01*
X260079398Y-98764274D01*
X260044169Y-98794818D01*
X259884976Y-98978626D01*
X259884975Y-98978627D01*
X259753559Y-99183202D01*
X259652576Y-99404408D01*
X259652571Y-99404422D01*
X259584092Y-99637725D01*
X259584088Y-99637741D01*
X259549497Y-99878413D01*
X259549497Y-99878414D01*
X259549498Y-99953256D01*
X259549475Y-99953501D01*
X255551972Y-99953501D01*
X255549771Y-99946246D01*
X255549766Y-99946236D01*
X255452266Y-99763826D01*
X255400737Y-99701037D01*
X254969126Y-100132647D01*
X254935090Y-100073694D01*
X254851306Y-99989910D01*
X254792350Y-99955872D01*
X255223960Y-99524262D01*
X255223960Y-99524260D01*
X255161173Y-99472733D01*
X254978763Y-99375233D01*
X254978753Y-99375228D01*
X254780845Y-99315194D01*
X254780838Y-99315192D01*
X254575000Y-99294919D01*
X254369161Y-99315192D01*
X254369154Y-99315194D01*
X254171246Y-99375228D01*
X254171236Y-99375233D01*
X253988830Y-99472731D01*
X253988829Y-99472731D01*
X253926038Y-99524261D01*
X253926038Y-99524262D01*
X254357648Y-99955872D01*
X254298694Y-99989910D01*
X254214910Y-100073694D01*
X254180872Y-100132648D01*
X253749262Y-99701038D01*
X253749261Y-99701038D01*
X253697731Y-99763829D01*
X253697731Y-99763830D01*
X253600233Y-99946236D01*
X253600228Y-99946246D01*
X253540194Y-100144154D01*
X253540192Y-100144161D01*
X253519919Y-100350000D01*
X253000148Y-100350000D01*
X252981603Y-100161709D01*
X252981602Y-100161706D01*
X252981602Y-100161704D01*
X252926684Y-99980662D01*
X252926682Y-99980659D01*
X252926681Y-99980654D01*
X252837491Y-99813793D01*
X252789962Y-99755879D01*
X252717463Y-99667537D01*
X252571210Y-99547512D01*
X252571211Y-99547512D01*
X252571208Y-99547510D01*
X252404347Y-99458320D01*
X252404344Y-99458319D01*
X252404338Y-99458316D01*
X252223296Y-99403398D01*
X252035001Y-99384853D01*
X251846705Y-99403398D01*
X251665663Y-99458316D01*
X251665657Y-99458319D01*
X251665655Y-99458319D01*
X251665655Y-99458320D01*
X251498794Y-99547510D01*
X251498792Y-99547511D01*
X251498791Y-99547512D01*
X251352538Y-99667537D01*
X251232513Y-99813790D01*
X251232511Y-99813793D01*
X251154297Y-99960119D01*
X251143320Y-99980656D01*
X251143317Y-99980662D01*
X251088399Y-100161704D01*
X251069854Y-100350000D01*
X250460146Y-100350000D01*
X250441601Y-100161709D01*
X250441600Y-100161706D01*
X250441600Y-100161704D01*
X250386682Y-99980662D01*
X250386680Y-99980659D01*
X250386679Y-99980654D01*
X250297489Y-99813793D01*
X250249960Y-99755879D01*
X250177461Y-99667537D01*
X250031208Y-99547512D01*
X250031209Y-99547512D01*
X250031206Y-99547510D01*
X249864345Y-99458320D01*
X249864342Y-99458319D01*
X249864336Y-99458316D01*
X249683294Y-99403398D01*
X249494999Y-99384853D01*
X249306703Y-99403398D01*
X249125661Y-99458316D01*
X249125655Y-99458319D01*
X249125653Y-99458319D01*
X249125653Y-99458320D01*
X248958792Y-99547510D01*
X248958790Y-99547511D01*
X248958789Y-99547512D01*
X248812536Y-99667537D01*
X248692511Y-99813790D01*
X248692509Y-99813793D01*
X248614295Y-99960119D01*
X248603318Y-99980656D01*
X248603315Y-99980662D01*
X248548397Y-100161704D01*
X248529852Y-100350000D01*
X247920147Y-100350000D01*
X247901602Y-100161709D01*
X247901601Y-100161706D01*
X247901601Y-100161704D01*
X247846683Y-99980662D01*
X247846681Y-99980659D01*
X247846680Y-99980654D01*
X247757490Y-99813793D01*
X247709961Y-99755879D01*
X247637462Y-99667537D01*
X247491209Y-99547512D01*
X247491210Y-99547512D01*
X247491207Y-99547510D01*
X247324346Y-99458320D01*
X247324343Y-99458319D01*
X247324337Y-99458316D01*
X247143295Y-99403398D01*
X246955000Y-99384853D01*
X246766704Y-99403398D01*
X246585662Y-99458316D01*
X246585656Y-99458319D01*
X246585654Y-99458319D01*
X246585654Y-99458320D01*
X246418793Y-99547510D01*
X246418791Y-99547511D01*
X246418790Y-99547512D01*
X246272537Y-99667537D01*
X246152512Y-99813790D01*
X246152510Y-99813793D01*
X246074296Y-99960119D01*
X246063319Y-99980656D01*
X246063316Y-99980662D01*
X246008398Y-100161704D01*
X245989853Y-100350000D01*
X238770752Y-100350000D01*
X238690308Y-100325598D01*
X238647080Y-100293171D01*
X238634809Y-100240543D01*
X238659237Y-100192341D01*
X238690308Y-100174402D01*
X238830302Y-100131935D01*
X238830305Y-100131933D01*
X238995348Y-100043715D01*
X239140002Y-99925002D01*
X239258715Y-99780348D01*
X239346933Y-99615305D01*
X239346935Y-99615302D01*
X239401253Y-99436239D01*
X239401254Y-99436236D01*
X239407285Y-99375000D01*
X238793853Y-99375000D01*
X238815000Y-99296078D01*
X238815000Y-99249998D01*
X239599760Y-99249998D01*
X239599760Y-99250001D01*
X239618668Y-99429894D01*
X239618670Y-99429903D01*
X239674561Y-99601917D01*
X239674564Y-99601925D01*
X239710016Y-99663329D01*
X239747959Y-99729050D01*
X239765006Y-99758575D01*
X239886041Y-99892999D01*
X239886042Y-99893000D01*
X239886044Y-99893002D01*
X240032363Y-99999308D01*
X240032380Y-99999320D01*
X240197626Y-100072892D01*
X240374558Y-100110500D01*
X240374562Y-100110500D01*
X240555438Y-100110500D01*
X240555442Y-100110500D01*
X240732374Y-100072892D01*
X240897620Y-99999320D01*
X241043959Y-99892999D01*
X241164994Y-99758575D01*
X241255436Y-99601925D01*
X241311332Y-99429894D01*
X241330240Y-99250000D01*
X241328751Y-99235837D01*
X241323136Y-99182412D01*
X241311332Y-99070106D01*
X241304315Y-99048511D01*
X241281608Y-98978626D01*
X241255436Y-98898075D01*
X241164994Y-98741425D01*
X241043959Y-98607001D01*
X241043956Y-98606999D01*
X241043955Y-98606997D01*
X240897625Y-98500683D01*
X240897622Y-98500681D01*
X240897620Y-98500680D01*
X240797905Y-98456284D01*
X240732377Y-98427109D01*
X240732372Y-98427107D01*
X240660997Y-98411936D01*
X240555442Y-98389500D01*
X240374558Y-98389500D01*
X240295391Y-98406327D01*
X240197627Y-98427107D01*
X240197622Y-98427109D01*
X240032384Y-98500678D01*
X240032374Y-98500683D01*
X239886044Y-98606997D01*
X239886041Y-98607001D01*
X239765005Y-98741425D01*
X239674564Y-98898075D01*
X239674561Y-98898082D01*
X239618670Y-99070096D01*
X239618668Y-99070105D01*
X239599760Y-99249998D01*
X238815000Y-99249998D01*
X238815000Y-99203922D01*
X238793853Y-99125000D01*
X239407285Y-99125000D01*
X239401254Y-99063763D01*
X239401253Y-99063760D01*
X239346935Y-98884697D01*
X239346933Y-98884694D01*
X239258715Y-98719651D01*
X239140002Y-98574997D01*
X238995348Y-98456284D01*
X238830305Y-98368066D01*
X238830302Y-98368064D01*
X238651239Y-98313746D01*
X238651236Y-98313745D01*
X238590000Y-98307714D01*
X238590000Y-98921147D01*
X238511078Y-98900000D01*
X238418922Y-98900000D01*
X238340000Y-98921147D01*
X238340000Y-98307714D01*
X238278763Y-98313745D01*
X238278760Y-98313746D01*
X238099697Y-98368064D01*
X238099694Y-98368066D01*
X237934651Y-98456284D01*
X237789997Y-98574997D01*
X237671284Y-98719651D01*
X237583066Y-98884694D01*
X237583064Y-98884697D01*
X237528746Y-99063760D01*
X237528745Y-99063763D01*
X237522715Y-99125000D01*
X237317102Y-99125000D01*
X237311332Y-99070106D01*
X237304315Y-99048511D01*
X237281608Y-98978626D01*
X237255436Y-98898075D01*
X237164994Y-98741425D01*
X237043959Y-98607001D01*
X237043956Y-98606999D01*
X237043955Y-98606997D01*
X236897625Y-98500683D01*
X236897622Y-98500681D01*
X236897620Y-98500680D01*
X236797905Y-98456284D01*
X236732377Y-98427109D01*
X236732372Y-98427107D01*
X236660997Y-98411936D01*
X236555442Y-98389500D01*
X236374558Y-98389500D01*
X236295391Y-98406327D01*
X236197627Y-98427107D01*
X236197622Y-98427109D01*
X236032384Y-98500678D01*
X236032374Y-98500683D01*
X235886044Y-98606997D01*
X235886041Y-98607001D01*
X235765005Y-98741425D01*
X235674564Y-98898075D01*
X235674561Y-98898082D01*
X235618670Y-99070096D01*
X235618668Y-99070105D01*
X235599760Y-99249998D01*
X235330240Y-99249998D01*
X235328751Y-99235837D01*
X235323136Y-99182412D01*
X235311332Y-99070106D01*
X235304315Y-99048511D01*
X235281608Y-98978626D01*
X235255436Y-98898075D01*
X235164994Y-98741425D01*
X235043959Y-98607001D01*
X235043956Y-98606999D01*
X235043955Y-98606997D01*
X234897625Y-98500683D01*
X234897622Y-98500681D01*
X234897620Y-98500680D01*
X234797905Y-98456284D01*
X234732377Y-98427109D01*
X234732372Y-98427107D01*
X234660997Y-98411936D01*
X234555442Y-98389500D01*
X234374558Y-98389500D01*
X234295391Y-98406327D01*
X234197627Y-98427107D01*
X234197622Y-98427109D01*
X234032384Y-98500678D01*
X234032374Y-98500683D01*
X233886044Y-98606997D01*
X233886041Y-98607001D01*
X233765005Y-98741425D01*
X233674564Y-98898075D01*
X233674561Y-98898082D01*
X233618670Y-99070096D01*
X233618668Y-99070105D01*
X233599760Y-99249998D01*
X229330240Y-99249998D01*
X229328751Y-99235837D01*
X229323136Y-99182412D01*
X229311332Y-99070106D01*
X229304315Y-99048511D01*
X229281608Y-98978626D01*
X229255436Y-98898075D01*
X229164994Y-98741425D01*
X229043959Y-98607001D01*
X229043956Y-98606999D01*
X229043955Y-98606997D01*
X228897625Y-98500683D01*
X228897622Y-98500681D01*
X228897620Y-98500680D01*
X228797905Y-98456284D01*
X228732377Y-98427109D01*
X228732372Y-98427107D01*
X228660997Y-98411936D01*
X228555442Y-98389500D01*
X228374558Y-98389500D01*
X228295391Y-98406327D01*
X228197627Y-98427107D01*
X228197622Y-98427109D01*
X228032384Y-98500678D01*
X228032374Y-98500683D01*
X227886044Y-98606997D01*
X227886041Y-98607001D01*
X227765005Y-98741425D01*
X227674564Y-98898075D01*
X227674561Y-98898082D01*
X227618670Y-99070096D01*
X227618668Y-99070105D01*
X227599760Y-99249998D01*
X226815000Y-99249998D01*
X226815000Y-99203922D01*
X226793853Y-99125000D01*
X227407285Y-99125000D01*
X227401254Y-99063763D01*
X227401253Y-99063760D01*
X227346935Y-98884697D01*
X227346933Y-98884694D01*
X227258715Y-98719651D01*
X227140002Y-98574997D01*
X226995348Y-98456284D01*
X226830305Y-98368066D01*
X226830302Y-98368064D01*
X226651239Y-98313746D01*
X226651236Y-98313745D01*
X226590000Y-98307714D01*
X226590000Y-98921147D01*
X226511078Y-98900000D01*
X226418922Y-98900000D01*
X226340000Y-98921147D01*
X226340000Y-98307714D01*
X226278763Y-98313745D01*
X226278760Y-98313746D01*
X226099697Y-98368064D01*
X226099694Y-98368066D01*
X225934651Y-98456284D01*
X225789997Y-98574997D01*
X225671284Y-98719651D01*
X225583066Y-98884694D01*
X225583064Y-98884697D01*
X225528746Y-99063760D01*
X225528745Y-99063763D01*
X225522715Y-99125000D01*
X225317102Y-99125000D01*
X225311332Y-99070106D01*
X225304315Y-99048511D01*
X225281608Y-98978626D01*
X225255436Y-98898075D01*
X225164994Y-98741425D01*
X225043959Y-98607001D01*
X225043956Y-98606999D01*
X225043955Y-98606997D01*
X224897625Y-98500683D01*
X224897622Y-98500681D01*
X224897620Y-98500680D01*
X224797905Y-98456284D01*
X224732377Y-98427109D01*
X224732372Y-98427107D01*
X224660997Y-98411936D01*
X224555442Y-98389500D01*
X224374558Y-98389500D01*
X224295391Y-98406327D01*
X224197627Y-98427107D01*
X224197622Y-98427109D01*
X224032384Y-98500678D01*
X224032374Y-98500683D01*
X223886044Y-98606997D01*
X223886041Y-98607001D01*
X223765005Y-98741425D01*
X223674564Y-98898075D01*
X223674561Y-98898082D01*
X223618670Y-99070096D01*
X223618668Y-99070105D01*
X223599760Y-99249998D01*
X223330240Y-99249998D01*
X223328751Y-99235837D01*
X223323136Y-99182412D01*
X223311332Y-99070106D01*
X223304315Y-99048511D01*
X223281608Y-98978626D01*
X223255436Y-98898075D01*
X223164994Y-98741425D01*
X223043959Y-98607001D01*
X223043956Y-98606999D01*
X223043955Y-98606997D01*
X222897625Y-98500683D01*
X222897622Y-98500681D01*
X222897620Y-98500680D01*
X222797905Y-98456284D01*
X222732377Y-98427109D01*
X222732372Y-98427107D01*
X222660997Y-98411936D01*
X222555442Y-98389500D01*
X222374558Y-98389500D01*
X222295391Y-98406327D01*
X222197627Y-98427107D01*
X222197622Y-98427109D01*
X222032384Y-98500678D01*
X222032374Y-98500683D01*
X221886044Y-98606997D01*
X221886041Y-98607001D01*
X221765005Y-98741425D01*
X221674564Y-98898075D01*
X221674561Y-98898082D01*
X221618670Y-99070096D01*
X221618668Y-99070105D01*
X221599760Y-99249998D01*
X202026906Y-99249998D01*
X201996009Y-99182412D01*
X201996006Y-99182407D01*
X201864483Y-98977906D01*
X201864479Y-98977902D01*
X201864476Y-98977896D01*
X201835222Y-98944155D01*
X201705187Y-98794172D01*
X201522001Y-98635519D01*
X201521378Y-98634979D01*
X201477824Y-98607001D01*
X201419084Y-98569267D01*
X201316791Y-98503556D01*
X201095589Y-98402575D01*
X201095587Y-98402574D01*
X201095578Y-98402571D01*
X200862274Y-98334092D01*
X200862258Y-98334088D01*
X200621586Y-98299497D01*
X200621585Y-98299497D01*
X200621581Y-98299497D01*
X200500000Y-98299500D01*
X199546810Y-98299500D01*
X199546554Y-98299475D01*
X199499092Y-98299500D01*
X199453567Y-98299500D01*
X199453330Y-98299522D01*
X199377514Y-98299561D01*
X199377513Y-98299561D01*
X199136849Y-98334282D01*
X199136841Y-98334283D01*
X198903558Y-98402893D01*
X198903554Y-98402894D01*
X198682419Y-98503986D01*
X198477901Y-98635519D01*
X198477894Y-98635524D01*
X198355751Y-98741425D01*
X198329398Y-98764274D01*
X198294169Y-98794818D01*
X198134976Y-98978626D01*
X198134975Y-98978627D01*
X198003559Y-99183202D01*
X197902576Y-99404408D01*
X197902571Y-99404422D01*
X197834092Y-99637725D01*
X197834088Y-99637741D01*
X197799497Y-99878413D01*
X197799497Y-99878414D01*
X197799498Y-99953256D01*
X197799475Y-99953501D01*
X191575500Y-99953501D01*
X191575500Y-98526207D01*
X195264401Y-98526207D01*
X195264401Y-98673792D01*
X195302597Y-98816344D01*
X195302598Y-98816346D01*
X195376391Y-98944157D01*
X195480743Y-99048509D01*
X195480745Y-99048510D01*
X195480746Y-99048511D01*
X195608556Y-99122303D01*
X195751109Y-99160500D01*
X195751111Y-99160500D01*
X195898691Y-99160500D01*
X195898693Y-99160500D01*
X196041246Y-99122303D01*
X196169056Y-99048511D01*
X197473412Y-97744155D01*
X197547204Y-97616345D01*
X197585401Y-97473792D01*
X197585401Y-97326209D01*
X197547204Y-97183655D01*
X197473412Y-97055845D01*
X197473411Y-97055844D01*
X197473410Y-97055842D01*
X197369058Y-96951490D01*
X197241247Y-96877697D01*
X197241243Y-96877696D01*
X197098694Y-96839500D01*
X197098692Y-96839500D01*
X196951109Y-96839500D01*
X196951108Y-96839500D01*
X196808556Y-96877696D01*
X196808554Y-96877697D01*
X196680743Y-96951490D01*
X195376391Y-98255842D01*
X195302598Y-98383653D01*
X195302597Y-98383655D01*
X195264401Y-98526207D01*
X191575500Y-98526207D01*
X191575500Y-95337697D01*
X205664499Y-95337697D01*
X205664499Y-96702303D01*
X205673994Y-96762253D01*
X205679724Y-96798433D01*
X205720111Y-96877697D01*
X205738759Y-96914296D01*
X205830702Y-97006239D01*
X205830704Y-97006240D01*
X205830705Y-97006241D01*
X205946566Y-97065275D01*
X206042692Y-97080500D01*
X207407305Y-97080499D01*
X207503432Y-97065275D01*
X207619293Y-97006241D01*
X207711240Y-96914294D01*
X207770274Y-96798433D01*
X207785499Y-96702307D01*
X207785498Y-96020000D01*
X208110072Y-96020000D01*
X208129737Y-96232219D01*
X208188061Y-96437206D01*
X208283056Y-96627984D01*
X208367893Y-96740327D01*
X208834268Y-96273952D01*
X208864900Y-96327007D01*
X208957992Y-96420099D01*
X209011045Y-96450729D01*
X208543431Y-96918342D01*
X208543431Y-96918343D01*
X208568994Y-96941647D01*
X208569003Y-96941654D01*
X208750202Y-97053847D01*
X208750206Y-97053849D01*
X208948935Y-97130837D01*
X209158436Y-97170000D01*
X209371561Y-97170000D01*
X209581062Y-97130837D01*
X209779791Y-97053849D01*
X209779795Y-97053847D01*
X209960996Y-96941652D01*
X209961000Y-96941649D01*
X209986564Y-96918343D01*
X209986565Y-96918342D01*
X209518952Y-96450729D01*
X209572006Y-96420099D01*
X209665098Y-96327007D01*
X209695728Y-96273953D01*
X210162103Y-96740328D01*
X210246936Y-96627992D01*
X210246941Y-96627984D01*
X210341936Y-96437206D01*
X210400260Y-96232219D01*
X210419925Y-96020000D01*
X210400260Y-95807780D01*
X210341936Y-95602793D01*
X210246941Y-95412015D01*
X210246932Y-95412001D01*
X210162103Y-95299670D01*
X209695727Y-95766045D01*
X209665098Y-95712993D01*
X209572006Y-95619901D01*
X209518951Y-95589269D01*
X209986565Y-95121655D01*
X209961003Y-95098352D01*
X209960994Y-95098345D01*
X209779795Y-94986152D01*
X209779791Y-94986150D01*
X209581062Y-94909162D01*
X209371562Y-94870000D01*
X209158436Y-94870000D01*
X208948935Y-94909162D01*
X208750206Y-94986150D01*
X208750202Y-94986152D01*
X208569004Y-95098344D01*
X208569001Y-95098347D01*
X208543432Y-95121656D01*
X208543432Y-95121657D01*
X209011045Y-95589270D01*
X208957992Y-95619901D01*
X208864900Y-95712993D01*
X208834269Y-95766046D01*
X208367893Y-95299670D01*
X208367892Y-95299670D01*
X208283060Y-95412007D01*
X208188061Y-95602793D01*
X208129737Y-95807780D01*
X208110072Y-96020000D01*
X207785498Y-96020000D01*
X207785498Y-95337694D01*
X207770274Y-95241567D01*
X207711240Y-95125706D01*
X207711239Y-95125705D01*
X207711238Y-95125703D01*
X207619295Y-95033760D01*
X207617168Y-95032676D01*
X207503432Y-94974725D01*
X207503428Y-94974724D01*
X207503425Y-94974723D01*
X207407317Y-94959501D01*
X207407309Y-94959500D01*
X207407306Y-94959500D01*
X207407301Y-94959500D01*
X206042695Y-94959500D01*
X205964655Y-94971860D01*
X205946566Y-94974725D01*
X205889697Y-95003700D01*
X205830702Y-95033760D01*
X205738759Y-95125703D01*
X205708699Y-95184698D01*
X205679724Y-95241567D01*
X205679724Y-95241568D01*
X205679722Y-95241573D01*
X205664500Y-95337681D01*
X205664499Y-95337697D01*
X191575500Y-95337697D01*
X191575500Y-93349997D01*
X197069409Y-93349997D01*
X197069409Y-93350002D01*
X197089254Y-93475302D01*
X197089255Y-93475306D01*
X197146849Y-93588340D01*
X197146851Y-93588343D01*
X197236557Y-93678049D01*
X197236560Y-93678051D01*
X197349594Y-93735645D01*
X197349596Y-93735645D01*
X197349597Y-93735646D01*
X197391365Y-93742261D01*
X197474899Y-93755492D01*
X197474901Y-93755492D01*
X197474903Y-93755492D01*
X197537553Y-93745569D01*
X197600205Y-93735646D01*
X197713243Y-93678050D01*
X197802951Y-93588342D01*
X197860547Y-93475304D01*
X197880393Y-93350000D01*
X197880393Y-93349997D01*
X198269409Y-93349997D01*
X198269409Y-93350002D01*
X198289254Y-93475302D01*
X198289255Y-93475306D01*
X198346849Y-93588340D01*
X198346851Y-93588343D01*
X198436557Y-93678049D01*
X198436560Y-93678051D01*
X198549594Y-93735645D01*
X198549596Y-93735645D01*
X198549597Y-93735646D01*
X198591365Y-93742261D01*
X198674899Y-93755492D01*
X198674901Y-93755492D01*
X198674903Y-93755492D01*
X198737553Y-93745569D01*
X198800205Y-93735646D01*
X198913243Y-93678050D01*
X199002951Y-93588342D01*
X199058154Y-93480000D01*
X205659368Y-93480000D01*
X205679844Y-93687898D01*
X205740480Y-93887790D01*
X205740483Y-93887796D01*
X205740484Y-93887799D01*
X205755281Y-93915482D01*
X205838959Y-94072034D01*
X205971483Y-94233515D01*
X206132964Y-94366039D01*
X206132966Y-94366040D01*
X206317200Y-94464515D01*
X206317205Y-94464516D01*
X206317208Y-94464518D01*
X206517100Y-94525154D01*
X206517102Y-94525154D01*
X206517105Y-94525155D01*
X206724999Y-94545631D01*
X206932893Y-94525155D01*
X206932895Y-94525154D01*
X206932897Y-94525154D01*
X207132789Y-94464518D01*
X207132790Y-94464517D01*
X207132798Y-94464515D01*
X207317032Y-94366040D01*
X207478514Y-94233515D01*
X207611039Y-94072033D01*
X207709514Y-93887799D01*
X207770154Y-93687894D01*
X207790630Y-93480000D01*
X208110072Y-93480000D01*
X208129737Y-93692219D01*
X208188061Y-93897206D01*
X208283056Y-94087984D01*
X208367893Y-94200327D01*
X208834268Y-93733952D01*
X208864900Y-93787007D01*
X208957992Y-93880099D01*
X209011045Y-93910729D01*
X208543431Y-94378342D01*
X208543431Y-94378343D01*
X208568994Y-94401647D01*
X208569003Y-94401654D01*
X208750202Y-94513847D01*
X208750206Y-94513849D01*
X208948935Y-94590837D01*
X209158436Y-94630000D01*
X209371561Y-94630000D01*
X209581062Y-94590837D01*
X209779791Y-94513849D01*
X209779795Y-94513847D01*
X209960996Y-94401652D01*
X209961000Y-94401649D01*
X209986564Y-94378343D01*
X209986565Y-94378342D01*
X209518952Y-93910729D01*
X209572006Y-93880099D01*
X209665098Y-93787007D01*
X209695728Y-93733953D01*
X210162103Y-94200328D01*
X210197225Y-94153820D01*
X266540811Y-94153820D01*
X266540811Y-94153825D01*
X266560656Y-94279125D01*
X266560657Y-94279129D01*
X266618251Y-94392163D01*
X266618253Y-94392166D01*
X266707959Y-94481872D01*
X266707962Y-94481874D01*
X266820996Y-94539468D01*
X266820998Y-94539468D01*
X266820999Y-94539469D01*
X266859898Y-94545630D01*
X266946301Y-94559315D01*
X266946303Y-94559315D01*
X266946305Y-94559315D01*
X267032701Y-94545631D01*
X267071607Y-94539469D01*
X267184645Y-94481873D01*
X267274353Y-94392165D01*
X267331949Y-94279127D01*
X267351795Y-94153823D01*
X267331949Y-94028519D01*
X267331948Y-94028518D01*
X267331948Y-94028516D01*
X267274354Y-93915482D01*
X267274352Y-93915479D01*
X267184646Y-93825773D01*
X267184643Y-93825771D01*
X267071609Y-93768177D01*
X267071605Y-93768176D01*
X266946305Y-93748331D01*
X266946301Y-93748331D01*
X266821000Y-93768176D01*
X266820996Y-93768177D01*
X266707962Y-93825771D01*
X266707959Y-93825773D01*
X266618253Y-93915479D01*
X266618251Y-93915482D01*
X266560657Y-94028516D01*
X266560656Y-94028520D01*
X266540811Y-94153820D01*
X210197225Y-94153820D01*
X210246936Y-94087992D01*
X210246941Y-94087984D01*
X210341936Y-93897206D01*
X210400260Y-93692219D01*
X210419925Y-93480000D01*
X210400260Y-93267780D01*
X210366748Y-93149997D01*
X215289507Y-93149997D01*
X215289507Y-93150002D01*
X215309352Y-93275302D01*
X215309353Y-93275306D01*
X215366947Y-93388340D01*
X215366949Y-93388343D01*
X215456655Y-93478049D01*
X215456658Y-93478051D01*
X215569692Y-93535645D01*
X215569694Y-93535645D01*
X215569695Y-93535646D01*
X215611463Y-93542261D01*
X215694997Y-93555492D01*
X215694999Y-93555492D01*
X215695001Y-93555492D01*
X215757651Y-93545569D01*
X215820303Y-93535646D01*
X215933341Y-93478050D01*
X216023049Y-93388342D01*
X216051847Y-93331823D01*
X216080644Y-93275306D01*
X216080644Y-93275305D01*
X216080645Y-93275304D01*
X216090568Y-93212652D01*
X216100491Y-93150002D01*
X216100491Y-93149997D01*
X256319409Y-93149997D01*
X256319409Y-93150002D01*
X256339254Y-93275302D01*
X256339255Y-93275306D01*
X256396849Y-93388340D01*
X256396851Y-93388343D01*
X256486557Y-93478049D01*
X256486560Y-93478051D01*
X256599594Y-93535645D01*
X256599596Y-93535645D01*
X256599597Y-93535646D01*
X256641365Y-93542261D01*
X256724899Y-93555492D01*
X256724901Y-93555492D01*
X256724903Y-93555492D01*
X256787553Y-93545569D01*
X256850205Y-93535646D01*
X256963243Y-93478050D01*
X257052951Y-93388342D01*
X257081749Y-93331823D01*
X257110546Y-93275306D01*
X257110546Y-93275305D01*
X257110547Y-93275304D01*
X257120470Y-93212652D01*
X257130393Y-93150002D01*
X257130393Y-93149997D01*
X257110547Y-93024697D01*
X257110546Y-93024693D01*
X257052952Y-92911659D01*
X257052950Y-92911656D01*
X256963244Y-92821950D01*
X256963241Y-92821948D01*
X256850207Y-92764354D01*
X256850203Y-92764353D01*
X256724903Y-92744508D01*
X256724899Y-92744508D01*
X256599598Y-92764353D01*
X256599594Y-92764354D01*
X256486560Y-92821948D01*
X256486557Y-92821950D01*
X256396851Y-92911656D01*
X256396849Y-92911659D01*
X256339255Y-93024693D01*
X256339254Y-93024697D01*
X256319409Y-93149997D01*
X216100491Y-93149997D01*
X216080645Y-93024697D01*
X216080644Y-93024693D01*
X216023050Y-92911659D01*
X216023048Y-92911656D01*
X215933342Y-92821950D01*
X215933339Y-92821948D01*
X215820305Y-92764354D01*
X215820301Y-92764353D01*
X215695001Y-92744508D01*
X215694997Y-92744508D01*
X215569696Y-92764353D01*
X215569692Y-92764354D01*
X215456658Y-92821948D01*
X215456655Y-92821950D01*
X215366949Y-92911656D01*
X215366947Y-92911659D01*
X215309353Y-93024693D01*
X215309352Y-93024697D01*
X215289507Y-93149997D01*
X210366748Y-93149997D01*
X210341936Y-93062793D01*
X210246941Y-92872015D01*
X210246932Y-92872001D01*
X210162103Y-92759670D01*
X209695727Y-93226045D01*
X209665098Y-93172993D01*
X209572006Y-93079901D01*
X209518951Y-93049269D01*
X209986565Y-92581655D01*
X209961003Y-92558352D01*
X209960994Y-92558345D01*
X209779795Y-92446152D01*
X209779791Y-92446150D01*
X209581062Y-92369162D01*
X209371562Y-92330000D01*
X209158436Y-92330000D01*
X208948935Y-92369162D01*
X208750206Y-92446150D01*
X208750202Y-92446152D01*
X208569004Y-92558344D01*
X208569001Y-92558347D01*
X208543432Y-92581656D01*
X208543432Y-92581657D01*
X209011045Y-93049270D01*
X208957992Y-93079901D01*
X208864900Y-93172993D01*
X208834269Y-93226046D01*
X208367893Y-92759670D01*
X208367892Y-92759670D01*
X208283060Y-92872007D01*
X208188061Y-93062793D01*
X208129737Y-93267780D01*
X208110072Y-93480000D01*
X207790630Y-93480000D01*
X207770154Y-93272106D01*
X207770153Y-93272103D01*
X207770153Y-93272101D01*
X207709517Y-93072209D01*
X207709515Y-93072206D01*
X207709514Y-93072201D01*
X207611039Y-92887967D01*
X207611038Y-92887965D01*
X207478514Y-92726484D01*
X207317033Y-92593960D01*
X207175691Y-92518412D01*
X207132798Y-92495485D01*
X207132795Y-92495484D01*
X207132789Y-92495481D01*
X206932897Y-92434845D01*
X206724999Y-92414369D01*
X206517100Y-92434845D01*
X206317208Y-92495481D01*
X206317198Y-92495486D01*
X206132964Y-92593960D01*
X205971483Y-92726484D01*
X205838959Y-92887965D01*
X205740485Y-93072199D01*
X205740480Y-93072209D01*
X205679844Y-93272101D01*
X205659368Y-93480000D01*
X199058154Y-93480000D01*
X199060547Y-93475304D01*
X199080393Y-93350000D01*
X199072984Y-93303223D01*
X199060547Y-93224697D01*
X199060546Y-93224693D01*
X199002952Y-93111659D01*
X199002950Y-93111656D01*
X198913244Y-93021950D01*
X198913241Y-93021948D01*
X198800207Y-92964354D01*
X198800203Y-92964353D01*
X198674903Y-92944508D01*
X198674899Y-92944508D01*
X198549598Y-92964353D01*
X198549594Y-92964354D01*
X198436560Y-93021948D01*
X198436557Y-93021950D01*
X198346851Y-93111656D01*
X198346849Y-93111659D01*
X198289255Y-93224693D01*
X198289254Y-93224697D01*
X198269409Y-93349997D01*
X197880393Y-93349997D01*
X197872984Y-93303223D01*
X197860547Y-93224697D01*
X197860546Y-93224693D01*
X197802952Y-93111659D01*
X197802950Y-93111656D01*
X197713244Y-93021950D01*
X197713241Y-93021948D01*
X197600207Y-92964354D01*
X197600203Y-92964353D01*
X197474903Y-92944508D01*
X197474899Y-92944508D01*
X197349598Y-92964353D01*
X197349594Y-92964354D01*
X197236560Y-93021948D01*
X197236557Y-93021950D01*
X197146851Y-93111656D01*
X197146849Y-93111659D01*
X197089255Y-93224693D01*
X197089254Y-93224697D01*
X197069409Y-93349997D01*
X191575500Y-93349997D01*
X191575500Y-89845956D01*
X195414401Y-89845956D01*
X195414401Y-90954043D01*
X195442375Y-91058446D01*
X195442376Y-91058448D01*
X195496420Y-91152055D01*
X195572845Y-91228480D01*
X195572847Y-91228481D01*
X195572848Y-91228482D01*
X195666454Y-91282525D01*
X195770858Y-91310500D01*
X195770860Y-91310500D01*
X195878942Y-91310500D01*
X195878944Y-91310500D01*
X195983348Y-91282525D01*
X196076954Y-91228482D01*
X196153383Y-91152053D01*
X196207426Y-91058447D01*
X196235401Y-90954043D01*
X196235401Y-89845957D01*
X196207426Y-89741553D01*
X196153383Y-89647947D01*
X196153382Y-89647946D01*
X196153381Y-89647944D01*
X196076956Y-89571519D01*
X195983349Y-89517475D01*
X195983347Y-89517474D01*
X195878944Y-89489500D01*
X195770858Y-89489500D01*
X195770857Y-89489500D01*
X195666454Y-89517474D01*
X195666452Y-89517475D01*
X195572845Y-89571519D01*
X195496420Y-89647944D01*
X195442376Y-89741551D01*
X195442375Y-89741553D01*
X195414401Y-89845956D01*
X191575500Y-89845956D01*
X191575500Y-87345956D01*
X197464401Y-87345956D01*
X197464401Y-87454043D01*
X197492375Y-87558446D01*
X197492376Y-87558448D01*
X197546420Y-87652055D01*
X197622845Y-87728480D01*
X197622847Y-87728481D01*
X197622848Y-87728482D01*
X197716454Y-87782525D01*
X197820858Y-87810500D01*
X197820860Y-87810500D01*
X199528942Y-87810500D01*
X199528944Y-87810500D01*
X199633348Y-87782525D01*
X199726954Y-87728482D01*
X199803383Y-87652053D01*
X199857426Y-87558447D01*
X199885401Y-87454043D01*
X199885401Y-87345957D01*
X199857426Y-87241553D01*
X199803383Y-87147947D01*
X199803382Y-87147946D01*
X199803381Y-87147944D01*
X199726956Y-87071519D01*
X199633349Y-87017475D01*
X199633347Y-87017474D01*
X199528944Y-86989500D01*
X197820858Y-86989500D01*
X197820857Y-86989500D01*
X197716454Y-87017474D01*
X197716452Y-87017475D01*
X197622845Y-87071519D01*
X197546420Y-87147944D01*
X197492376Y-87241551D01*
X197492375Y-87241553D01*
X197464401Y-87345956D01*
X191575500Y-87345956D01*
X191575500Y-86249997D01*
X202994410Y-86249997D01*
X202994410Y-86250002D01*
X203014255Y-86375302D01*
X203014256Y-86375306D01*
X203071850Y-86488340D01*
X203071852Y-86488343D01*
X203161558Y-86578049D01*
X203161561Y-86578051D01*
X203274595Y-86635645D01*
X203274597Y-86635645D01*
X203274598Y-86635646D01*
X203316366Y-86642261D01*
X203399900Y-86655492D01*
X203399902Y-86655492D01*
X203399904Y-86655492D01*
X203462554Y-86645569D01*
X203525206Y-86635646D01*
X203638244Y-86578050D01*
X203727952Y-86488342D01*
X203785548Y-86375304D01*
X203805394Y-86250000D01*
X203793467Y-86174698D01*
X203785548Y-86124697D01*
X203785547Y-86124693D01*
X203727953Y-86011659D01*
X203727951Y-86011656D01*
X203638245Y-85921950D01*
X203638242Y-85921948D01*
X203525208Y-85864354D01*
X203525204Y-85864353D01*
X203399904Y-85844508D01*
X203399900Y-85844508D01*
X203274599Y-85864353D01*
X203274595Y-85864354D01*
X203161561Y-85921948D01*
X203161558Y-85921950D01*
X203071852Y-86011656D01*
X203071850Y-86011659D01*
X203014256Y-86124693D01*
X203014255Y-86124697D01*
X202994410Y-86249997D01*
X191575500Y-86249997D01*
X191575500Y-83045956D01*
X196664401Y-83045956D01*
X196664401Y-83154043D01*
X196692375Y-83258446D01*
X196692376Y-83258448D01*
X196746420Y-83352055D01*
X196822845Y-83428480D01*
X196822847Y-83428481D01*
X196822848Y-83428482D01*
X196916454Y-83482525D01*
X197020858Y-83510500D01*
X197020860Y-83510500D01*
X198128942Y-83510500D01*
X198128944Y-83510500D01*
X198233348Y-83482525D01*
X198326954Y-83428482D01*
X198403383Y-83352053D01*
X198457426Y-83258447D01*
X198485401Y-83154043D01*
X198485401Y-83045957D01*
X198457426Y-82941553D01*
X198403383Y-82847947D01*
X198403382Y-82847946D01*
X198403381Y-82847944D01*
X198326956Y-82771519D01*
X198233349Y-82717475D01*
X198233347Y-82717474D01*
X198128944Y-82689500D01*
X197020858Y-82689500D01*
X197020857Y-82689500D01*
X196916454Y-82717474D01*
X196916452Y-82717475D01*
X196822845Y-82771519D01*
X196746420Y-82847944D01*
X196692376Y-82941551D01*
X196692375Y-82941553D01*
X196664401Y-83045956D01*
X191575500Y-83045956D01*
X191575500Y-80809997D01*
X197544410Y-80809997D01*
X197544410Y-80810002D01*
X197564255Y-80935302D01*
X197564256Y-80935306D01*
X197621850Y-81048340D01*
X197621852Y-81048343D01*
X197711558Y-81138049D01*
X197711561Y-81138051D01*
X197824595Y-81195645D01*
X197824597Y-81195645D01*
X197824598Y-81195646D01*
X197866366Y-81202261D01*
X197949900Y-81215492D01*
X197949902Y-81215492D01*
X197949904Y-81215492D01*
X198012554Y-81205569D01*
X198075206Y-81195646D01*
X198188244Y-81138050D01*
X198277952Y-81048342D01*
X198335548Y-80935304D01*
X198355394Y-80810000D01*
X198335548Y-80684696D01*
X198335547Y-80684695D01*
X198335547Y-80684693D01*
X198277953Y-80571659D01*
X198277951Y-80571656D01*
X198188245Y-80481950D01*
X198188242Y-80481948D01*
X198075208Y-80424354D01*
X198075204Y-80424353D01*
X197949904Y-80404508D01*
X197949900Y-80404508D01*
X197824599Y-80424353D01*
X197824595Y-80424354D01*
X197711561Y-80481948D01*
X197711558Y-80481950D01*
X197621852Y-80571656D01*
X197621850Y-80571659D01*
X197564256Y-80684693D01*
X197564255Y-80684697D01*
X197544410Y-80809997D01*
X191575500Y-80809997D01*
X191575500Y-79849997D01*
X202994410Y-79849997D01*
X202994410Y-79850002D01*
X203014255Y-79975302D01*
X203014256Y-79975306D01*
X203071850Y-80088340D01*
X203071852Y-80088343D01*
X203161558Y-80178049D01*
X203161561Y-80178051D01*
X203274595Y-80235645D01*
X203274597Y-80235645D01*
X203274598Y-80235646D01*
X203316366Y-80242261D01*
X203399900Y-80255492D01*
X203399902Y-80255492D01*
X203399904Y-80255492D01*
X203462554Y-80245569D01*
X203525206Y-80235646D01*
X203562013Y-80216892D01*
X223674499Y-80216892D01*
X223674499Y-90483107D01*
X223706587Y-90747375D01*
X223706590Y-90747391D01*
X223770292Y-91005839D01*
X223770300Y-91005866D01*
X223864689Y-91254748D01*
X223864693Y-91254758D01*
X223864696Y-91254764D01*
X223903160Y-91328051D01*
X223988407Y-91490477D01*
X223988408Y-91490478D01*
X224139633Y-91709568D01*
X224316166Y-91908833D01*
X224515431Y-92085366D01*
X224519514Y-92088184D01*
X224734517Y-92236589D01*
X224734521Y-92236591D01*
X224734522Y-92236592D01*
X224801318Y-92271649D01*
X224970236Y-92360304D01*
X224970247Y-92360308D01*
X224970251Y-92360310D01*
X225219133Y-92454699D01*
X225219141Y-92454701D01*
X225219148Y-92454704D01*
X225477624Y-92518413D01*
X225690255Y-92544231D01*
X225741892Y-92550501D01*
X225741894Y-92550501D01*
X236008108Y-92550501D01*
X236055148Y-92544789D01*
X236272376Y-92518413D01*
X236530852Y-92454704D01*
X236530862Y-92454700D01*
X236530866Y-92454699D01*
X236779748Y-92360310D01*
X236779747Y-92360310D01*
X236779764Y-92360304D01*
X237015483Y-92236589D01*
X237234571Y-92085364D01*
X237433833Y-91908833D01*
X237610364Y-91709571D01*
X237761589Y-91490483D01*
X237837443Y-91345956D01*
X241014401Y-91345956D01*
X241014401Y-92254043D01*
X241042375Y-92358446D01*
X241042376Y-92358448D01*
X241096420Y-92452055D01*
X241172845Y-92528480D01*
X241172847Y-92528481D01*
X241172848Y-92528482D01*
X241224571Y-92558344D01*
X241264950Y-92581657D01*
X241266454Y-92582525D01*
X241370858Y-92610500D01*
X241370860Y-92610500D01*
X241478942Y-92610500D01*
X241478944Y-92610500D01*
X241583348Y-92582525D01*
X241676954Y-92528482D01*
X241753383Y-92452053D01*
X241807426Y-92358447D01*
X241835401Y-92254043D01*
X241835401Y-91345957D01*
X241807426Y-91241553D01*
X241753383Y-91147947D01*
X241753382Y-91147946D01*
X241753381Y-91147944D01*
X241676956Y-91071519D01*
X241583349Y-91017475D01*
X241583347Y-91017474D01*
X241518120Y-90999997D01*
X256819409Y-90999997D01*
X256819409Y-91000002D01*
X256839254Y-91125302D01*
X256839255Y-91125306D01*
X256896849Y-91238340D01*
X256896851Y-91238343D01*
X256986557Y-91328049D01*
X256986560Y-91328051D01*
X257099594Y-91385645D01*
X257099596Y-91385645D01*
X257099597Y-91385646D01*
X257141365Y-91392261D01*
X257224899Y-91405492D01*
X257224901Y-91405492D01*
X257224903Y-91405492D01*
X257287553Y-91395569D01*
X257350205Y-91385646D01*
X257463243Y-91328050D01*
X257552951Y-91238342D01*
X257610547Y-91125304D01*
X257627625Y-91017475D01*
X257630393Y-91000002D01*
X257630393Y-90999997D01*
X258219410Y-90999997D01*
X258219410Y-91000002D01*
X258239255Y-91125302D01*
X258239256Y-91125306D01*
X258296850Y-91238340D01*
X258296852Y-91238343D01*
X258386558Y-91328049D01*
X258386561Y-91328051D01*
X258499595Y-91385645D01*
X258499597Y-91385645D01*
X258499598Y-91385646D01*
X258541366Y-91392261D01*
X258624900Y-91405492D01*
X258624902Y-91405492D01*
X258624904Y-91405492D01*
X258687554Y-91395569D01*
X258750206Y-91385646D01*
X258863244Y-91328050D01*
X258952952Y-91238342D01*
X259010548Y-91125304D01*
X259027626Y-91017475D01*
X259030394Y-91000002D01*
X259030394Y-90999997D01*
X259219408Y-90999997D01*
X259219408Y-91000002D01*
X259239253Y-91125302D01*
X259239254Y-91125306D01*
X259296848Y-91238340D01*
X259296850Y-91238343D01*
X259386556Y-91328049D01*
X259386559Y-91328051D01*
X259499593Y-91385645D01*
X259499595Y-91385645D01*
X259499596Y-91385646D01*
X259541364Y-91392261D01*
X259624898Y-91405492D01*
X259624900Y-91405492D01*
X259624902Y-91405492D01*
X259687552Y-91395569D01*
X259750204Y-91385646D01*
X259863242Y-91328050D01*
X259952950Y-91238342D01*
X260010546Y-91125304D01*
X260027624Y-91017475D01*
X260030392Y-91000002D01*
X260030392Y-90999997D01*
X260015507Y-90906022D01*
X260010546Y-90874696D01*
X260010545Y-90874695D01*
X260010545Y-90874693D01*
X259952951Y-90761659D01*
X259952949Y-90761656D01*
X259941290Y-90749997D01*
X263169409Y-90749997D01*
X263169409Y-90750002D01*
X263189254Y-90875302D01*
X263189255Y-90875306D01*
X263246849Y-90988340D01*
X263246851Y-90988343D01*
X263336557Y-91078049D01*
X263336560Y-91078051D01*
X263449594Y-91135645D01*
X263449596Y-91135645D01*
X263449597Y-91135646D01*
X263491365Y-91142261D01*
X263574899Y-91155492D01*
X263574901Y-91155492D01*
X263574903Y-91155492D01*
X263637553Y-91145569D01*
X263700205Y-91135646D01*
X263813243Y-91078050D01*
X263902951Y-90988342D01*
X263960547Y-90875304D01*
X263970470Y-90812652D01*
X263980393Y-90750002D01*
X263980393Y-90749997D01*
X263960547Y-90624697D01*
X263960546Y-90624693D01*
X263902952Y-90511659D01*
X263902950Y-90511656D01*
X263813244Y-90421950D01*
X263813241Y-90421948D01*
X263700207Y-90364354D01*
X263700203Y-90364353D01*
X263574903Y-90344508D01*
X263574899Y-90344508D01*
X263449598Y-90364353D01*
X263449594Y-90364354D01*
X263336560Y-90421948D01*
X263336557Y-90421950D01*
X263246851Y-90511656D01*
X263246849Y-90511659D01*
X263189255Y-90624693D01*
X263189254Y-90624697D01*
X263169409Y-90749997D01*
X259941290Y-90749997D01*
X259863243Y-90671950D01*
X259863240Y-90671948D01*
X259750206Y-90614354D01*
X259750202Y-90614353D01*
X259624902Y-90594508D01*
X259624898Y-90594508D01*
X259499597Y-90614353D01*
X259499593Y-90614354D01*
X259386559Y-90671948D01*
X259386556Y-90671950D01*
X259296850Y-90761656D01*
X259296848Y-90761659D01*
X259239254Y-90874693D01*
X259239253Y-90874697D01*
X259219408Y-90999997D01*
X259030394Y-90999997D01*
X259015509Y-90906022D01*
X259010548Y-90874696D01*
X259010547Y-90874695D01*
X259010547Y-90874693D01*
X258952953Y-90761659D01*
X258952951Y-90761656D01*
X258863245Y-90671950D01*
X258863242Y-90671948D01*
X258750208Y-90614354D01*
X258750204Y-90614353D01*
X258624904Y-90594508D01*
X258624900Y-90594508D01*
X258499599Y-90614353D01*
X258499595Y-90614354D01*
X258386561Y-90671948D01*
X258386558Y-90671950D01*
X258296852Y-90761656D01*
X258296850Y-90761659D01*
X258239256Y-90874693D01*
X258239255Y-90874697D01*
X258219410Y-90999997D01*
X257630393Y-90999997D01*
X257615508Y-90906022D01*
X257610547Y-90874696D01*
X257610546Y-90874695D01*
X257610546Y-90874693D01*
X257552952Y-90761659D01*
X257552950Y-90761656D01*
X257463244Y-90671950D01*
X257463241Y-90671948D01*
X257350207Y-90614354D01*
X257350203Y-90614353D01*
X257224903Y-90594508D01*
X257224899Y-90594508D01*
X257099598Y-90614353D01*
X257099594Y-90614354D01*
X256986560Y-90671948D01*
X256986557Y-90671950D01*
X256896851Y-90761656D01*
X256896849Y-90761659D01*
X256839255Y-90874693D01*
X256839254Y-90874697D01*
X256819409Y-90999997D01*
X241518120Y-90999997D01*
X241478944Y-90989500D01*
X241370858Y-90989500D01*
X241370857Y-90989500D01*
X241266454Y-91017474D01*
X241266452Y-91017475D01*
X241172845Y-91071519D01*
X241096420Y-91147944D01*
X241042376Y-91241551D01*
X241042375Y-91241553D01*
X241014401Y-91345956D01*
X237837443Y-91345956D01*
X237885304Y-91254764D01*
X237922953Y-91155492D01*
X237979699Y-91005866D01*
X237979700Y-91005862D01*
X237979704Y-91005852D01*
X238043413Y-90747376D01*
X238075501Y-90483106D01*
X238075501Y-90350000D01*
X238075501Y-90310118D01*
X238075501Y-90294407D01*
X238075500Y-90294401D01*
X238075500Y-89899997D01*
X252369409Y-89899997D01*
X252369409Y-89900002D01*
X252389254Y-90025302D01*
X252389255Y-90025306D01*
X252446849Y-90138340D01*
X252446851Y-90138343D01*
X252536557Y-90228049D01*
X252536560Y-90228051D01*
X252649594Y-90285645D01*
X252649596Y-90285645D01*
X252649597Y-90285646D01*
X252691365Y-90292261D01*
X252774899Y-90305492D01*
X252774901Y-90305492D01*
X252774903Y-90305492D01*
X252837553Y-90295569D01*
X252900205Y-90285646D01*
X253013243Y-90228050D01*
X253102951Y-90138342D01*
X253160547Y-90025304D01*
X253180393Y-89900000D01*
X253171833Y-89845956D01*
X253160547Y-89774697D01*
X253160546Y-89774693D01*
X253102952Y-89661659D01*
X253102950Y-89661656D01*
X253013244Y-89571950D01*
X253013241Y-89571948D01*
X252900207Y-89514354D01*
X252900203Y-89514353D01*
X252774903Y-89494508D01*
X252774899Y-89494508D01*
X252649598Y-89514353D01*
X252649594Y-89514354D01*
X252536560Y-89571948D01*
X252536557Y-89571950D01*
X252446851Y-89661656D01*
X252446849Y-89661659D01*
X252389255Y-89774693D01*
X252389254Y-89774697D01*
X252369409Y-89899997D01*
X238075500Y-89899997D01*
X238075500Y-88299997D01*
X252369409Y-88299997D01*
X252369409Y-88300002D01*
X252389254Y-88425302D01*
X252389255Y-88425306D01*
X252446849Y-88538340D01*
X252446851Y-88538343D01*
X252536557Y-88628049D01*
X252536560Y-88628051D01*
X252649594Y-88685645D01*
X252649596Y-88685645D01*
X252649597Y-88685646D01*
X252691365Y-88692261D01*
X252774899Y-88705492D01*
X252774901Y-88705492D01*
X252774903Y-88705492D01*
X252837553Y-88695569D01*
X252900205Y-88685646D01*
X253013243Y-88628050D01*
X253091296Y-88549997D01*
X260719410Y-88549997D01*
X260719410Y-88550002D01*
X260739255Y-88675302D01*
X260739256Y-88675306D01*
X260796850Y-88788340D01*
X260796852Y-88788343D01*
X260886558Y-88878049D01*
X260886561Y-88878051D01*
X260999595Y-88935645D01*
X260999597Y-88935645D01*
X260999598Y-88935646D01*
X261041366Y-88942261D01*
X261124900Y-88955492D01*
X261124902Y-88955492D01*
X261124904Y-88955492D01*
X261187554Y-88945569D01*
X261250206Y-88935646D01*
X261363244Y-88878050D01*
X261452952Y-88788342D01*
X261510548Y-88675304D01*
X261530394Y-88550000D01*
X261528547Y-88538340D01*
X261515509Y-88456022D01*
X261510548Y-88424696D01*
X261510547Y-88424695D01*
X261510547Y-88424693D01*
X261452953Y-88311659D01*
X261452951Y-88311656D01*
X261363245Y-88221950D01*
X261363242Y-88221948D01*
X261250208Y-88164354D01*
X261250204Y-88164353D01*
X261124904Y-88144508D01*
X261124900Y-88144508D01*
X260999599Y-88164353D01*
X260999595Y-88164354D01*
X260886561Y-88221948D01*
X260886558Y-88221950D01*
X260796852Y-88311656D01*
X260796850Y-88311659D01*
X260739256Y-88424693D01*
X260739255Y-88424697D01*
X260719410Y-88549997D01*
X253091296Y-88549997D01*
X253102951Y-88538342D01*
X253160547Y-88425304D01*
X253170470Y-88362652D01*
X253180393Y-88300002D01*
X253180393Y-88299997D01*
X253160547Y-88174697D01*
X253160546Y-88174693D01*
X253102952Y-88061659D01*
X253102950Y-88061656D01*
X253013244Y-87971950D01*
X253013241Y-87971948D01*
X252900207Y-87914354D01*
X252900203Y-87914353D01*
X252774903Y-87894508D01*
X252774899Y-87894508D01*
X252649598Y-87914353D01*
X252649594Y-87914354D01*
X252536560Y-87971948D01*
X252536557Y-87971950D01*
X252446851Y-88061656D01*
X252446849Y-88061659D01*
X252389255Y-88174693D01*
X252389254Y-88174697D01*
X252369409Y-88299997D01*
X238075500Y-88299997D01*
X238075500Y-87799997D01*
X254619409Y-87799997D01*
X254619409Y-87800002D01*
X254639254Y-87925302D01*
X254639255Y-87925306D01*
X254696849Y-88038340D01*
X254696851Y-88038343D01*
X254786557Y-88128049D01*
X254786560Y-88128051D01*
X254899594Y-88185645D01*
X254899596Y-88185645D01*
X254899597Y-88185646D01*
X254941365Y-88192261D01*
X255024899Y-88205492D01*
X255024901Y-88205492D01*
X255024903Y-88205492D01*
X255087553Y-88195569D01*
X255150205Y-88185646D01*
X255171696Y-88174696D01*
X255206724Y-88156848D01*
X255263243Y-88128050D01*
X255352951Y-88038342D01*
X255410547Y-87925304D01*
X255430393Y-87800000D01*
X255427625Y-87782525D01*
X255410547Y-87674697D01*
X255410546Y-87674693D01*
X255352952Y-87561659D01*
X255352950Y-87561656D01*
X255263244Y-87471950D01*
X255263241Y-87471948D01*
X255150207Y-87414354D01*
X255150203Y-87414353D01*
X255024903Y-87394508D01*
X255024899Y-87394508D01*
X254899598Y-87414353D01*
X254899594Y-87414354D01*
X254786560Y-87471948D01*
X254786557Y-87471950D01*
X254696851Y-87561656D01*
X254696849Y-87561659D01*
X254639255Y-87674693D01*
X254639254Y-87674697D01*
X254619409Y-87799997D01*
X238075500Y-87799997D01*
X238075500Y-86799997D01*
X256919409Y-86799997D01*
X256919409Y-86800002D01*
X256939254Y-86925302D01*
X256939255Y-86925306D01*
X256996849Y-87038340D01*
X256996851Y-87038343D01*
X257086557Y-87128049D01*
X257086560Y-87128051D01*
X257199594Y-87185645D01*
X257199596Y-87185645D01*
X257199597Y-87185646D01*
X257241365Y-87192261D01*
X257324899Y-87205492D01*
X257324901Y-87205492D01*
X257324903Y-87205492D01*
X257387553Y-87195569D01*
X257450205Y-87185646D01*
X257563243Y-87128050D01*
X257652951Y-87038342D01*
X257710547Y-86925304D01*
X257730393Y-86800000D01*
X257710547Y-86674696D01*
X257710546Y-86674695D01*
X257710546Y-86674693D01*
X257652952Y-86561659D01*
X257652950Y-86561656D01*
X257563244Y-86471950D01*
X257563241Y-86471948D01*
X257450207Y-86414354D01*
X257450203Y-86414353D01*
X257324903Y-86394508D01*
X257324899Y-86394508D01*
X257199598Y-86414353D01*
X257199594Y-86414354D01*
X257086560Y-86471948D01*
X257086557Y-86471950D01*
X256996851Y-86561656D01*
X256996849Y-86561659D01*
X256939255Y-86674693D01*
X256939254Y-86674697D01*
X256919409Y-86799997D01*
X238075500Y-86799997D01*
X238075500Y-86299998D01*
X254619409Y-86299998D01*
X254619409Y-86300003D01*
X254639254Y-86425303D01*
X254639255Y-86425307D01*
X254696849Y-86538341D01*
X254696851Y-86538344D01*
X254786557Y-86628050D01*
X254786560Y-86628052D01*
X254899594Y-86685646D01*
X254899596Y-86685646D01*
X254899597Y-86685647D01*
X254941365Y-86692262D01*
X255024899Y-86705493D01*
X255024901Y-86705493D01*
X255024903Y-86705493D01*
X255087553Y-86695570D01*
X255150205Y-86685647D01*
X255171696Y-86674697D01*
X255263241Y-86628052D01*
X255263244Y-86628050D01*
X255352950Y-86538344D01*
X255352952Y-86538341D01*
X255410546Y-86425307D01*
X255410546Y-86425306D01*
X255410547Y-86425305D01*
X255430393Y-86300001D01*
X255410547Y-86174697D01*
X255410546Y-86174696D01*
X255410546Y-86174694D01*
X255352952Y-86061660D01*
X255352950Y-86061657D01*
X255263244Y-85971951D01*
X255263241Y-85971949D01*
X255150207Y-85914355D01*
X255150203Y-85914354D01*
X255024903Y-85894509D01*
X255024899Y-85894509D01*
X254899598Y-85914354D01*
X254899594Y-85914355D01*
X254786560Y-85971949D01*
X254786557Y-85971951D01*
X254696851Y-86061657D01*
X254696849Y-86061660D01*
X254639255Y-86174694D01*
X254639254Y-86174698D01*
X254619409Y-86299998D01*
X238075500Y-86299998D01*
X238075500Y-85745956D01*
X267664401Y-85745956D01*
X267664401Y-87454043D01*
X267692375Y-87558446D01*
X267692376Y-87558448D01*
X267746420Y-87652055D01*
X267822845Y-87728480D01*
X267822847Y-87728481D01*
X267822848Y-87728482D01*
X267916454Y-87782525D01*
X268020858Y-87810500D01*
X268020860Y-87810500D01*
X268128942Y-87810500D01*
X268128944Y-87810500D01*
X268233348Y-87782525D01*
X268326954Y-87728482D01*
X268403383Y-87652053D01*
X268457426Y-87558447D01*
X268485401Y-87454043D01*
X268485401Y-85745957D01*
X268457426Y-85641553D01*
X268403383Y-85547947D01*
X268403382Y-85547946D01*
X268403381Y-85547944D01*
X268326956Y-85471519D01*
X268233349Y-85417475D01*
X268233347Y-85417474D01*
X268128944Y-85389500D01*
X268020858Y-85389500D01*
X268020857Y-85389500D01*
X267916454Y-85417474D01*
X267916452Y-85417475D01*
X267822845Y-85471519D01*
X267746420Y-85547944D01*
X267692376Y-85641551D01*
X267692375Y-85641553D01*
X267664401Y-85745956D01*
X238075500Y-85745956D01*
X238075500Y-83334946D01*
X245194500Y-83334946D01*
X245194500Y-83465053D01*
X245219882Y-83592661D01*
X245219883Y-83592663D01*
X245269670Y-83712860D01*
X245269673Y-83712865D01*
X245341954Y-83821042D01*
X245341960Y-83821049D01*
X245433950Y-83913039D01*
X245433957Y-83913045D01*
X245452303Y-83925303D01*
X245542136Y-83985328D01*
X245602237Y-84010222D01*
X245662336Y-84035116D01*
X245662338Y-84035117D01*
X245789946Y-84060500D01*
X247520054Y-84060500D01*
X247647661Y-84035117D01*
X247647663Y-84035116D01*
X247767864Y-83985328D01*
X247876044Y-83913044D01*
X247968044Y-83821044D01*
X248040328Y-83712864D01*
X248090117Y-83592661D01*
X248115500Y-83465054D01*
X248115500Y-83334946D01*
X248090117Y-83207339D01*
X248076596Y-83174697D01*
X248040329Y-83087139D01*
X248040328Y-83087136D01*
X247968044Y-82978956D01*
X247968039Y-82978950D01*
X247876049Y-82886960D01*
X247876042Y-82886954D01*
X247767865Y-82814673D01*
X247767864Y-82814672D01*
X247767861Y-82814671D01*
X247767860Y-82814670D01*
X247732436Y-82799997D01*
X256919409Y-82799997D01*
X256919409Y-82800002D01*
X256939254Y-82925302D01*
X256939255Y-82925306D01*
X256996849Y-83038340D01*
X256996851Y-83038343D01*
X257086557Y-83128049D01*
X257086560Y-83128051D01*
X257199594Y-83185645D01*
X257199596Y-83185645D01*
X257199597Y-83185646D01*
X257241365Y-83192261D01*
X257324899Y-83205492D01*
X257324901Y-83205492D01*
X257324903Y-83205492D01*
X257387553Y-83195569D01*
X257450205Y-83185646D01*
X257515816Y-83152214D01*
X257569452Y-83145629D01*
X257614774Y-83175060D01*
X257630574Y-83226738D01*
X257629709Y-83234962D01*
X257619409Y-83299997D01*
X257619409Y-83300002D01*
X257629709Y-83365038D01*
X257619398Y-83418085D01*
X257577401Y-83452092D01*
X257523370Y-83451149D01*
X257515817Y-83447786D01*
X257450202Y-83414353D01*
X257324903Y-83394509D01*
X257324899Y-83394509D01*
X257199598Y-83414354D01*
X257199594Y-83414355D01*
X257086560Y-83471949D01*
X257086557Y-83471951D01*
X256996851Y-83561657D01*
X256996849Y-83561660D01*
X256939255Y-83674694D01*
X256939254Y-83674698D01*
X256919409Y-83799998D01*
X256919409Y-83800003D01*
X256939254Y-83925303D01*
X256939255Y-83925307D01*
X256996849Y-84038341D01*
X256996851Y-84038344D01*
X257086557Y-84128050D01*
X257086560Y-84128052D01*
X257199594Y-84185646D01*
X257199596Y-84185646D01*
X257199597Y-84185647D01*
X257241365Y-84192262D01*
X257324899Y-84205493D01*
X257324901Y-84205493D01*
X257324903Y-84205493D01*
X257387553Y-84195570D01*
X257450205Y-84185647D01*
X257515816Y-84152215D01*
X257569452Y-84145630D01*
X257614774Y-84175061D01*
X257630574Y-84226739D01*
X257629709Y-84234963D01*
X257619409Y-84299997D01*
X257619409Y-84300002D01*
X257629709Y-84365036D01*
X257619398Y-84418082D01*
X257577402Y-84452090D01*
X257523371Y-84451147D01*
X257515817Y-84447784D01*
X257450202Y-84414351D01*
X257324903Y-84394507D01*
X257324899Y-84394507D01*
X257199598Y-84414352D01*
X257199594Y-84414353D01*
X257086560Y-84471947D01*
X257086557Y-84471949D01*
X256996851Y-84561655D01*
X256996849Y-84561658D01*
X256939255Y-84674692D01*
X256939254Y-84674696D01*
X256919409Y-84799996D01*
X256919409Y-84800001D01*
X256939254Y-84925301D01*
X256939255Y-84925305D01*
X256996849Y-85038339D01*
X256996851Y-85038342D01*
X257086557Y-85128048D01*
X257086560Y-85128050D01*
X257199594Y-85185644D01*
X257199596Y-85185644D01*
X257199597Y-85185645D01*
X257241365Y-85192260D01*
X257324899Y-85205491D01*
X257324901Y-85205491D01*
X257324903Y-85205491D01*
X257387553Y-85195568D01*
X257450205Y-85185645D01*
X257563243Y-85128049D01*
X257652951Y-85038341D01*
X257710547Y-84925303D01*
X257720470Y-84862651D01*
X257730393Y-84800001D01*
X257730393Y-84799997D01*
X257720092Y-84734963D01*
X257730402Y-84681916D01*
X257772399Y-84647908D01*
X257826430Y-84648851D01*
X257833984Y-84652215D01*
X257899594Y-84685645D01*
X257899596Y-84685645D01*
X257899597Y-84685646D01*
X257983471Y-84698930D01*
X258010562Y-84703221D01*
X258057826Y-84729419D01*
X258077192Y-84779869D01*
X258068594Y-84817113D01*
X258039254Y-84874697D01*
X258019409Y-84999996D01*
X258019409Y-85000001D01*
X258039254Y-85125301D01*
X258039255Y-85125305D01*
X258096849Y-85238339D01*
X258096851Y-85238342D01*
X258186557Y-85328048D01*
X258186560Y-85328050D01*
X258299594Y-85385644D01*
X258299596Y-85385644D01*
X258299597Y-85385645D01*
X258323937Y-85389500D01*
X258424899Y-85405491D01*
X258424901Y-85405491D01*
X258424903Y-85405491D01*
X258487553Y-85395568D01*
X258550205Y-85385645D01*
X258663243Y-85328049D01*
X258752951Y-85238341D01*
X258810547Y-85125303D01*
X258830393Y-84999999D01*
X258818562Y-84925303D01*
X258810547Y-84874696D01*
X258810546Y-84874692D01*
X258752952Y-84761658D01*
X258752950Y-84761655D01*
X258663244Y-84671949D01*
X258663241Y-84671947D01*
X258550207Y-84614353D01*
X258550203Y-84614352D01*
X258439239Y-84596777D01*
X258391975Y-84570579D01*
X258372609Y-84520129D01*
X258381208Y-84482884D01*
X258386781Y-84471947D01*
X258410547Y-84425304D01*
X258430393Y-84300000D01*
X258430393Y-84299997D01*
X263019409Y-84299997D01*
X263019409Y-84300002D01*
X263039254Y-84425302D01*
X263039255Y-84425306D01*
X263096849Y-84538340D01*
X263096851Y-84538343D01*
X263186557Y-84628049D01*
X263186560Y-84628051D01*
X263299594Y-84685645D01*
X263299596Y-84685645D01*
X263299597Y-84685646D01*
X263341365Y-84692261D01*
X263424899Y-84705492D01*
X263424901Y-84705492D01*
X263424903Y-84705492D01*
X263487553Y-84695569D01*
X263550205Y-84685646D01*
X263571696Y-84674696D01*
X263663241Y-84628051D01*
X263663244Y-84628049D01*
X263752950Y-84538343D01*
X263752952Y-84538340D01*
X263810546Y-84425306D01*
X263810546Y-84425305D01*
X263810547Y-84425304D01*
X263830393Y-84300000D01*
X263810547Y-84174696D01*
X263810546Y-84174695D01*
X263810546Y-84174693D01*
X263752952Y-84061659D01*
X263752950Y-84061656D01*
X263663244Y-83971950D01*
X263663241Y-83971948D01*
X263550207Y-83914354D01*
X263550203Y-83914353D01*
X263424903Y-83894508D01*
X263424899Y-83894508D01*
X263299598Y-83914353D01*
X263299594Y-83914354D01*
X263186560Y-83971948D01*
X263186557Y-83971950D01*
X263096851Y-84061656D01*
X263096849Y-84061659D01*
X263039255Y-84174693D01*
X263039254Y-84174697D01*
X263019409Y-84299997D01*
X258430393Y-84299997D01*
X258410547Y-84174696D01*
X258410546Y-84174695D01*
X258410546Y-84174693D01*
X258352952Y-84061659D01*
X258352950Y-84061656D01*
X258263244Y-83971950D01*
X258263241Y-83971948D01*
X258150207Y-83914354D01*
X258150203Y-83914353D01*
X258024903Y-83894508D01*
X258024899Y-83894508D01*
X257899599Y-83914353D01*
X257833984Y-83947785D01*
X257780347Y-83954370D01*
X257735026Y-83924938D01*
X257719227Y-83873260D01*
X257720090Y-83865046D01*
X257730393Y-83800001D01*
X257720092Y-83734962D01*
X257730403Y-83681916D01*
X257772399Y-83647908D01*
X257826430Y-83648851D01*
X257833984Y-83652215D01*
X257899594Y-83685645D01*
X257899596Y-83685645D01*
X257899597Y-83685646D01*
X257941365Y-83692261D01*
X258024899Y-83705492D01*
X258024901Y-83705492D01*
X258024903Y-83705492D01*
X258087553Y-83695569D01*
X258150205Y-83685646D01*
X258263243Y-83628050D01*
X258352951Y-83538342D01*
X258410547Y-83425304D01*
X258430393Y-83300000D01*
X258410547Y-83174696D01*
X258410546Y-83174695D01*
X258410546Y-83174693D01*
X258352952Y-83061659D01*
X258352950Y-83061656D01*
X258263244Y-82971950D01*
X258263241Y-82971948D01*
X258150207Y-82914354D01*
X258150203Y-82914353D01*
X258024903Y-82894508D01*
X258024899Y-82894508D01*
X257899599Y-82914353D01*
X257833984Y-82947785D01*
X257780347Y-82954370D01*
X257735026Y-82924938D01*
X257719227Y-82873260D01*
X257720092Y-82865036D01*
X257725951Y-82828049D01*
X257730393Y-82800000D01*
X257720627Y-82738342D01*
X257710547Y-82674697D01*
X257710546Y-82674693D01*
X257652952Y-82561659D01*
X257652950Y-82561656D01*
X257591291Y-82499997D01*
X261719408Y-82499997D01*
X261719408Y-82500002D01*
X261739253Y-82625302D01*
X261739254Y-82625306D01*
X261796848Y-82738340D01*
X261796850Y-82738343D01*
X261886556Y-82828049D01*
X261886559Y-82828051D01*
X261999593Y-82885645D01*
X261999595Y-82885645D01*
X261999596Y-82885646D01*
X262041364Y-82892261D01*
X262124898Y-82905492D01*
X262124900Y-82905492D01*
X262124902Y-82905492D01*
X262194251Y-82894508D01*
X262250204Y-82885646D01*
X262363242Y-82828050D01*
X262452950Y-82738342D01*
X262510546Y-82625304D01*
X262530392Y-82500000D01*
X262525949Y-82471950D01*
X262510546Y-82374697D01*
X262510545Y-82374693D01*
X262452951Y-82261659D01*
X262452949Y-82261656D01*
X262363243Y-82171950D01*
X262363240Y-82171948D01*
X262250206Y-82114354D01*
X262250202Y-82114353D01*
X262124902Y-82094508D01*
X262124898Y-82094508D01*
X261999597Y-82114353D01*
X261999593Y-82114354D01*
X261886559Y-82171948D01*
X261886556Y-82171950D01*
X261796850Y-82261656D01*
X261796848Y-82261659D01*
X261739254Y-82374693D01*
X261739253Y-82374697D01*
X261719408Y-82499997D01*
X257591291Y-82499997D01*
X257563244Y-82471950D01*
X257563241Y-82471948D01*
X257450207Y-82414354D01*
X257450203Y-82414353D01*
X257324903Y-82394508D01*
X257324899Y-82394508D01*
X257199598Y-82414353D01*
X257199594Y-82414354D01*
X257086560Y-82471948D01*
X257086557Y-82471950D01*
X256996851Y-82561656D01*
X256996849Y-82561659D01*
X256939255Y-82674693D01*
X256939254Y-82674697D01*
X256919409Y-82799997D01*
X247732436Y-82799997D01*
X247647663Y-82764883D01*
X247647661Y-82764882D01*
X247520054Y-82739500D01*
X245789946Y-82739500D01*
X245662338Y-82764882D01*
X245662336Y-82764883D01*
X245542139Y-82814670D01*
X245542134Y-82814673D01*
X245433957Y-82886954D01*
X245433950Y-82886960D01*
X245341960Y-82978950D01*
X245341954Y-82978957D01*
X245269673Y-83087134D01*
X245269670Y-83087139D01*
X245219883Y-83207336D01*
X245219882Y-83207338D01*
X245194500Y-83334946D01*
X238075500Y-83334946D01*
X238075500Y-80382725D01*
X238075501Y-80382722D01*
X238075501Y-80216892D01*
X238046167Y-79975304D01*
X238043413Y-79952624D01*
X238005794Y-79799997D01*
X249669409Y-79799997D01*
X249669409Y-79800002D01*
X249689254Y-79925302D01*
X249689255Y-79925306D01*
X249746849Y-80038340D01*
X249746851Y-80038343D01*
X249836557Y-80128049D01*
X249836560Y-80128051D01*
X249949594Y-80185645D01*
X249949596Y-80185645D01*
X249949597Y-80185646D01*
X249991365Y-80192261D01*
X250074899Y-80205492D01*
X250074901Y-80205492D01*
X250074903Y-80205492D01*
X250137553Y-80195569D01*
X250200205Y-80185646D01*
X250221696Y-80174696D01*
X250313241Y-80128051D01*
X250313244Y-80128049D01*
X250341296Y-80099997D01*
X258719409Y-80099997D01*
X258719409Y-80100002D01*
X258739254Y-80225302D01*
X258739255Y-80225306D01*
X258796849Y-80338340D01*
X258796851Y-80338343D01*
X258886557Y-80428049D01*
X258886560Y-80428051D01*
X258999594Y-80485645D01*
X258999596Y-80485645D01*
X258999597Y-80485646D01*
X259041365Y-80492261D01*
X259124899Y-80505492D01*
X259124901Y-80505492D01*
X259124903Y-80505492D01*
X259187553Y-80495569D01*
X259250205Y-80485646D01*
X259363243Y-80428050D01*
X259452951Y-80338342D01*
X259510547Y-80225304D01*
X259525950Y-80128051D01*
X259530393Y-80100002D01*
X259530393Y-80099997D01*
X259515508Y-80006022D01*
X259510547Y-79974696D01*
X259510546Y-79974695D01*
X259510546Y-79974693D01*
X259452952Y-79861659D01*
X259452950Y-79861656D01*
X259363244Y-79771950D01*
X259363241Y-79771948D01*
X259250207Y-79714354D01*
X259250203Y-79714353D01*
X259124903Y-79694508D01*
X259124899Y-79694508D01*
X258999598Y-79714353D01*
X258999594Y-79714354D01*
X258886560Y-79771948D01*
X258886557Y-79771950D01*
X258796851Y-79861656D01*
X258796849Y-79861659D01*
X258739255Y-79974693D01*
X258739254Y-79974697D01*
X258719409Y-80099997D01*
X250341296Y-80099997D01*
X250402950Y-80038343D01*
X250402952Y-80038340D01*
X250460546Y-79925306D01*
X250460546Y-79925305D01*
X250460547Y-79925304D01*
X250475370Y-79831713D01*
X250480393Y-79800002D01*
X250480393Y-79799997D01*
X250460547Y-79674697D01*
X250460546Y-79674693D01*
X250402952Y-79561659D01*
X250402950Y-79561656D01*
X250341291Y-79499997D01*
X263219409Y-79499997D01*
X263219409Y-79500002D01*
X263239254Y-79625302D01*
X263239255Y-79625306D01*
X263296849Y-79738340D01*
X263296851Y-79738343D01*
X263386557Y-79828049D01*
X263389622Y-79829611D01*
X263391544Y-79831672D01*
X263391589Y-79831705D01*
X263391582Y-79831713D01*
X263426476Y-79869133D01*
X263429304Y-79923098D01*
X263396782Y-79966255D01*
X263389622Y-79970389D01*
X263386558Y-79971950D01*
X263386557Y-79971950D01*
X263296851Y-80061656D01*
X263296849Y-80061659D01*
X263239255Y-80174693D01*
X263239254Y-80174697D01*
X263219409Y-80299997D01*
X263219409Y-80300002D01*
X263239254Y-80425302D01*
X263239255Y-80425306D01*
X263296849Y-80538340D01*
X263296851Y-80538343D01*
X263386557Y-80628049D01*
X263386560Y-80628051D01*
X263499594Y-80685645D01*
X263499596Y-80685645D01*
X263499597Y-80685646D01*
X263541365Y-80692261D01*
X263624899Y-80705492D01*
X263624901Y-80705492D01*
X263624903Y-80705492D01*
X263687553Y-80695569D01*
X263750205Y-80685646D01*
X263752070Y-80684696D01*
X263863241Y-80628051D01*
X263863244Y-80628049D01*
X263952950Y-80538343D01*
X263952952Y-80538340D01*
X264010546Y-80425306D01*
X264010546Y-80425305D01*
X264010547Y-80425304D01*
X264024747Y-80335646D01*
X264030393Y-80300002D01*
X264030393Y-80299997D01*
X264010547Y-80174697D01*
X264010546Y-80174693D01*
X263952952Y-80061659D01*
X263952950Y-80061656D01*
X263863245Y-79971951D01*
X263860183Y-79970391D01*
X263858260Y-79968329D01*
X263858213Y-79968295D01*
X263858219Y-79968285D01*
X263841163Y-79949997D01*
X268394408Y-79949997D01*
X268394408Y-79950002D01*
X268414253Y-80075302D01*
X268414254Y-80075306D01*
X268471848Y-80188340D01*
X268471850Y-80188343D01*
X268561556Y-80278049D01*
X268561559Y-80278051D01*
X268674593Y-80335645D01*
X268674595Y-80335645D01*
X268674596Y-80335646D01*
X268716364Y-80342261D01*
X268799898Y-80355492D01*
X268799900Y-80355492D01*
X268799902Y-80355492D01*
X268862552Y-80345569D01*
X268925204Y-80335646D01*
X269038242Y-80278050D01*
X269127950Y-80188342D01*
X269185546Y-80075304D01*
X269201385Y-79975302D01*
X269205392Y-79950002D01*
X269205392Y-79949997D01*
X269189553Y-79849997D01*
X269185546Y-79824696D01*
X269185545Y-79824695D01*
X269185545Y-79824693D01*
X269127951Y-79711659D01*
X269127949Y-79711656D01*
X269038243Y-79621950D01*
X269038240Y-79621948D01*
X268925206Y-79564354D01*
X268925202Y-79564353D01*
X268799902Y-79544508D01*
X268799898Y-79544508D01*
X268674597Y-79564353D01*
X268674593Y-79564354D01*
X268561559Y-79621948D01*
X268561556Y-79621950D01*
X268471850Y-79711656D01*
X268471848Y-79711659D01*
X268414254Y-79824693D01*
X268414253Y-79824697D01*
X268394408Y-79949997D01*
X263841163Y-79949997D01*
X263823326Y-79930871D01*
X263820496Y-79876906D01*
X263853016Y-79833747D01*
X263860183Y-79829609D01*
X263863243Y-79828050D01*
X263952951Y-79738342D01*
X264010547Y-79625304D01*
X264023344Y-79544508D01*
X264030393Y-79500002D01*
X264030393Y-79499997D01*
X264010547Y-79374697D01*
X264010546Y-79374693D01*
X263952952Y-79261659D01*
X263952950Y-79261656D01*
X263863244Y-79171950D01*
X263863241Y-79171948D01*
X263750207Y-79114354D01*
X263750203Y-79114353D01*
X263624903Y-79094508D01*
X263624899Y-79094508D01*
X263499598Y-79114353D01*
X263499594Y-79114354D01*
X263386560Y-79171948D01*
X263386557Y-79171950D01*
X263296851Y-79261656D01*
X263296849Y-79261659D01*
X263239255Y-79374693D01*
X263239254Y-79374697D01*
X263219409Y-79499997D01*
X250341291Y-79499997D01*
X250313244Y-79471950D01*
X250313241Y-79471948D01*
X250200207Y-79414354D01*
X250200203Y-79414353D01*
X250074903Y-79394508D01*
X250074899Y-79394508D01*
X249949598Y-79414353D01*
X249949594Y-79414354D01*
X249836560Y-79471948D01*
X249836557Y-79471950D01*
X249746851Y-79561656D01*
X249746849Y-79561659D01*
X249689255Y-79674693D01*
X249689254Y-79674697D01*
X249669409Y-79799997D01*
X238005794Y-79799997D01*
X237979704Y-79694148D01*
X237979701Y-79694141D01*
X237979699Y-79694133D01*
X237885310Y-79445251D01*
X237885308Y-79445247D01*
X237885304Y-79445236D01*
X237761590Y-79209517D01*
X237719364Y-79148342D01*
X237610366Y-78990431D01*
X237433833Y-78791166D01*
X237234568Y-78614633D01*
X237015482Y-78463409D01*
X236897623Y-78401553D01*
X236779764Y-78339696D01*
X236779758Y-78339693D01*
X236779748Y-78339689D01*
X236530866Y-78245300D01*
X236530839Y-78245292D01*
X236347071Y-78199997D01*
X246969409Y-78199997D01*
X246969409Y-78200002D01*
X246989254Y-78325302D01*
X246989255Y-78325306D01*
X247046849Y-78438340D01*
X247046851Y-78438343D01*
X247136557Y-78528049D01*
X247136560Y-78528051D01*
X247249594Y-78585645D01*
X247249596Y-78585645D01*
X247249597Y-78585646D01*
X247291365Y-78592261D01*
X247374899Y-78605492D01*
X247374901Y-78605492D01*
X247374903Y-78605492D01*
X247437553Y-78595569D01*
X247500205Y-78585646D01*
X247613243Y-78528050D01*
X247702951Y-78438342D01*
X247760547Y-78325304D01*
X247780393Y-78200000D01*
X247778546Y-78188340D01*
X247765508Y-78106022D01*
X247760547Y-78074696D01*
X247760546Y-78074695D01*
X247760546Y-78074693D01*
X247702952Y-77961659D01*
X247702950Y-77961656D01*
X247691291Y-77949997D01*
X254469409Y-77949997D01*
X254469409Y-77950002D01*
X254489254Y-78075302D01*
X254489255Y-78075306D01*
X254546849Y-78188340D01*
X254546851Y-78188343D01*
X254636557Y-78278049D01*
X254636560Y-78278051D01*
X254749594Y-78335645D01*
X254749596Y-78335645D01*
X254749597Y-78335646D01*
X254791365Y-78342261D01*
X254874899Y-78355492D01*
X254874901Y-78355492D01*
X254874903Y-78355492D01*
X254937553Y-78345569D01*
X255000205Y-78335646D01*
X255113243Y-78278050D01*
X255202951Y-78188342D01*
X255260547Y-78075304D01*
X255270470Y-78012652D01*
X255280393Y-77950002D01*
X255280393Y-77949997D01*
X264069409Y-77949997D01*
X264069409Y-77950002D01*
X264089254Y-78075302D01*
X264089255Y-78075306D01*
X264146849Y-78188340D01*
X264146851Y-78188343D01*
X264236557Y-78278049D01*
X264236560Y-78278051D01*
X264349594Y-78335645D01*
X264349596Y-78335645D01*
X264349597Y-78335646D01*
X264391365Y-78342261D01*
X264474899Y-78355492D01*
X264474901Y-78355492D01*
X264474903Y-78355492D01*
X264537553Y-78345569D01*
X264600205Y-78335646D01*
X264713243Y-78278050D01*
X264802951Y-78188342D01*
X264860547Y-78075304D01*
X264870470Y-78012652D01*
X264880393Y-77950002D01*
X264880393Y-77949997D01*
X264860547Y-77824697D01*
X264860546Y-77824693D01*
X264802952Y-77711659D01*
X264802950Y-77711656D01*
X264713244Y-77621950D01*
X264713241Y-77621948D01*
X264600207Y-77564354D01*
X264600203Y-77564353D01*
X264474903Y-77544508D01*
X264474899Y-77544508D01*
X264349598Y-77564353D01*
X264349594Y-77564354D01*
X264236560Y-77621948D01*
X264236557Y-77621950D01*
X264146851Y-77711656D01*
X264146849Y-77711659D01*
X264089255Y-77824693D01*
X264089254Y-77824697D01*
X264069409Y-77949997D01*
X255280393Y-77949997D01*
X255260547Y-77824697D01*
X255260546Y-77824693D01*
X255202952Y-77711659D01*
X255202950Y-77711656D01*
X255113244Y-77621950D01*
X255113241Y-77621948D01*
X255000207Y-77564354D01*
X255000203Y-77564353D01*
X254874903Y-77544508D01*
X254874899Y-77544508D01*
X254749598Y-77564353D01*
X254749594Y-77564354D01*
X254636560Y-77621948D01*
X254636557Y-77621950D01*
X254546851Y-77711656D01*
X254546849Y-77711659D01*
X254489255Y-77824693D01*
X254489254Y-77824697D01*
X254469409Y-77949997D01*
X247691291Y-77949997D01*
X247613244Y-77871950D01*
X247613241Y-77871948D01*
X247500207Y-77814354D01*
X247500203Y-77814353D01*
X247374903Y-77794508D01*
X247374899Y-77794508D01*
X247249598Y-77814353D01*
X247249594Y-77814354D01*
X247136560Y-77871948D01*
X247136557Y-77871950D01*
X247046851Y-77961656D01*
X247046849Y-77961659D01*
X246989255Y-78074693D01*
X246989254Y-78074697D01*
X246969409Y-78199997D01*
X236347071Y-78199997D01*
X236272391Y-78181590D01*
X236272373Y-78181586D01*
X236008108Y-78149499D01*
X236008105Y-78149499D01*
X235914881Y-78149499D01*
X225914882Y-78149499D01*
X225875000Y-78149499D01*
X225741894Y-78149499D01*
X225741892Y-78149499D01*
X225477624Y-78181587D01*
X225477608Y-78181590D01*
X225219160Y-78245292D01*
X225219133Y-78245300D01*
X224970251Y-78339689D01*
X224970234Y-78339697D01*
X224734522Y-78463407D01*
X224734521Y-78463408D01*
X224515431Y-78614633D01*
X224316166Y-78791166D01*
X224139633Y-78990431D01*
X223988408Y-79209521D01*
X223988407Y-79209522D01*
X223864697Y-79445234D01*
X223864689Y-79445251D01*
X223770300Y-79694133D01*
X223770292Y-79694160D01*
X223706590Y-79952608D01*
X223706587Y-79952624D01*
X223674499Y-80216892D01*
X203562013Y-80216892D01*
X203638244Y-80178050D01*
X203727952Y-80088342D01*
X203785548Y-79975304D01*
X203802364Y-79869133D01*
X203805394Y-79850002D01*
X203805394Y-79849997D01*
X203785548Y-79724697D01*
X203785547Y-79724693D01*
X203727953Y-79611659D01*
X203727951Y-79611656D01*
X203638245Y-79521950D01*
X203638242Y-79521948D01*
X203525208Y-79464354D01*
X203525204Y-79464353D01*
X203399904Y-79444508D01*
X203399900Y-79444508D01*
X203274599Y-79464353D01*
X203274595Y-79464354D01*
X203161561Y-79521948D01*
X203161558Y-79521950D01*
X203071852Y-79611656D01*
X203071850Y-79611659D01*
X203014256Y-79724693D01*
X203014255Y-79724697D01*
X202994410Y-79849997D01*
X191575500Y-79849997D01*
X191575500Y-78909997D01*
X193594410Y-78909997D01*
X193594410Y-78910002D01*
X193614255Y-79035302D01*
X193614256Y-79035306D01*
X193671850Y-79148340D01*
X193671852Y-79148343D01*
X193761558Y-79238049D01*
X193761561Y-79238051D01*
X193874595Y-79295645D01*
X193874597Y-79295645D01*
X193874598Y-79295646D01*
X193916366Y-79302261D01*
X193999900Y-79315492D01*
X193999902Y-79315492D01*
X193999904Y-79315492D01*
X194062554Y-79305569D01*
X194125206Y-79295646D01*
X194238244Y-79238050D01*
X194327952Y-79148342D01*
X194385548Y-79035304D01*
X194395471Y-78972652D01*
X194405394Y-78910002D01*
X194405394Y-78909997D01*
X194385548Y-78784697D01*
X194385547Y-78784693D01*
X194327953Y-78671659D01*
X194327951Y-78671656D01*
X194238245Y-78581950D01*
X194238242Y-78581948D01*
X194125208Y-78524354D01*
X194125204Y-78524353D01*
X193999904Y-78504508D01*
X193999900Y-78504508D01*
X193874599Y-78524353D01*
X193874595Y-78524354D01*
X193761561Y-78581948D01*
X193761558Y-78581950D01*
X193671852Y-78671656D01*
X193671850Y-78671659D01*
X193614256Y-78784693D01*
X193614255Y-78784697D01*
X193594410Y-78909997D01*
X191575500Y-78909997D01*
X191575500Y-77309997D01*
X195194410Y-77309997D01*
X195194410Y-77310002D01*
X195214255Y-77435302D01*
X195214256Y-77435306D01*
X195271850Y-77548340D01*
X195271852Y-77548343D01*
X195361558Y-77638049D01*
X195361561Y-77638051D01*
X195474595Y-77695645D01*
X195474597Y-77695645D01*
X195474598Y-77695646D01*
X195516366Y-77702261D01*
X195599900Y-77715492D01*
X195599902Y-77715492D01*
X195599904Y-77715492D01*
X195662554Y-77705569D01*
X195725206Y-77695646D01*
X195838244Y-77638050D01*
X195927952Y-77548342D01*
X195952585Y-77499997D01*
X218069408Y-77499997D01*
X218069408Y-77500002D01*
X218089253Y-77625302D01*
X218089254Y-77625306D01*
X218146848Y-77738340D01*
X218146850Y-77738343D01*
X218236556Y-77828049D01*
X218236559Y-77828051D01*
X218349593Y-77885645D01*
X218349595Y-77885645D01*
X218349596Y-77885646D01*
X218391364Y-77892261D01*
X218474898Y-77905492D01*
X218474900Y-77905492D01*
X218474902Y-77905492D01*
X218537552Y-77895569D01*
X218600204Y-77885646D01*
X218713242Y-77828050D01*
X218802950Y-77738342D01*
X218860546Y-77625304D01*
X218872735Y-77548343D01*
X218880392Y-77500002D01*
X218880392Y-77499997D01*
X218860546Y-77374697D01*
X218860545Y-77374693D01*
X218802951Y-77261659D01*
X218802949Y-77261656D01*
X218713243Y-77171950D01*
X218713240Y-77171948D01*
X218600206Y-77114354D01*
X218600202Y-77114353D01*
X218474902Y-77094508D01*
X218474898Y-77094508D01*
X218349597Y-77114353D01*
X218349593Y-77114354D01*
X218236559Y-77171948D01*
X218236556Y-77171950D01*
X218146850Y-77261656D01*
X218146848Y-77261659D01*
X218089254Y-77374693D01*
X218089253Y-77374697D01*
X218069408Y-77499997D01*
X195952585Y-77499997D01*
X195985548Y-77435304D01*
X196005394Y-77310000D01*
X195997737Y-77261658D01*
X195985548Y-77184697D01*
X195985547Y-77184693D01*
X195927953Y-77071659D01*
X195927951Y-77071656D01*
X195838245Y-76981950D01*
X195838242Y-76981948D01*
X195725208Y-76924354D01*
X195725204Y-76924353D01*
X195599904Y-76904508D01*
X195599900Y-76904508D01*
X195474599Y-76924353D01*
X195474595Y-76924354D01*
X195361561Y-76981948D01*
X195361558Y-76981950D01*
X195271852Y-77071656D01*
X195271850Y-77071659D01*
X195214256Y-77184693D01*
X195214255Y-77184697D01*
X195194410Y-77309997D01*
X191575500Y-77309997D01*
X191575500Y-76624998D01*
X255269409Y-76624998D01*
X255269409Y-76625003D01*
X255289254Y-76750303D01*
X255289255Y-76750307D01*
X255346849Y-76863341D01*
X255346851Y-76863344D01*
X255436557Y-76953050D01*
X255436560Y-76953052D01*
X255549594Y-77010646D01*
X255549596Y-77010646D01*
X255549597Y-77010647D01*
X255591365Y-77017262D01*
X255674899Y-77030493D01*
X255674901Y-77030493D01*
X255674903Y-77030493D01*
X255737553Y-77020570D01*
X255800205Y-77010647D01*
X255913243Y-76953051D01*
X256002951Y-76863343D01*
X256060547Y-76750305D01*
X256080393Y-76625001D01*
X256060547Y-76499697D01*
X256060546Y-76499696D01*
X256060546Y-76499694D01*
X256002952Y-76386660D01*
X256002950Y-76386657D01*
X255913244Y-76296951D01*
X255913241Y-76296949D01*
X255800207Y-76239355D01*
X255800203Y-76239354D01*
X255674903Y-76219509D01*
X255674899Y-76219509D01*
X255549598Y-76239354D01*
X255549594Y-76239355D01*
X255436560Y-76296949D01*
X255436557Y-76296951D01*
X255346851Y-76386657D01*
X255346849Y-76386660D01*
X255289255Y-76499694D01*
X255289254Y-76499698D01*
X255269409Y-76624998D01*
X191575500Y-76624998D01*
X191575500Y-73259997D01*
X250539505Y-73259997D01*
X250539505Y-73260002D01*
X250559350Y-73385302D01*
X250559351Y-73385306D01*
X250616945Y-73498340D01*
X250616947Y-73498343D01*
X250706653Y-73588049D01*
X250706656Y-73588051D01*
X250819690Y-73645645D01*
X250819692Y-73645645D01*
X250819693Y-73645646D01*
X250861461Y-73652261D01*
X250944995Y-73665492D01*
X250944997Y-73665492D01*
X250944999Y-73665492D01*
X251007649Y-73655569D01*
X251070301Y-73645646D01*
X251183339Y-73588050D01*
X251273047Y-73498342D01*
X251330643Y-73385304D01*
X251350489Y-73260000D01*
X251330643Y-73134696D01*
X251330642Y-73134695D01*
X251330642Y-73134693D01*
X251273048Y-73021659D01*
X251273046Y-73021656D01*
X251183340Y-72931950D01*
X251183337Y-72931948D01*
X251070303Y-72874354D01*
X251070299Y-72874353D01*
X250944999Y-72854508D01*
X250944995Y-72854508D01*
X250819694Y-72874353D01*
X250819690Y-72874354D01*
X250706656Y-72931948D01*
X250706653Y-72931950D01*
X250616947Y-73021656D01*
X250616945Y-73021659D01*
X250559351Y-73134693D01*
X250559350Y-73134697D01*
X250539505Y-73259997D01*
X191575500Y-73259997D01*
X191575500Y-72389994D01*
X226019508Y-72389994D01*
X226019508Y-72389999D01*
X226039353Y-72515299D01*
X226039354Y-72515303D01*
X226096948Y-72628337D01*
X226096950Y-72628340D01*
X226186656Y-72718046D01*
X226186659Y-72718048D01*
X226299693Y-72775642D01*
X226299695Y-72775642D01*
X226299696Y-72775643D01*
X226341464Y-72782258D01*
X226424998Y-72795489D01*
X226425000Y-72795489D01*
X226425002Y-72795489D01*
X226487652Y-72785566D01*
X226550304Y-72775643D01*
X226663342Y-72718047D01*
X226753050Y-72628339D01*
X226810646Y-72515301D01*
X226830492Y-72389997D01*
X226810646Y-72264693D01*
X226810645Y-72264692D01*
X226810645Y-72264690D01*
X226753051Y-72151656D01*
X226753049Y-72151653D01*
X226663343Y-72061947D01*
X226663340Y-72061945D01*
X226550306Y-72004351D01*
X226550302Y-72004350D01*
X226425002Y-71984505D01*
X226424998Y-71984505D01*
X226299697Y-72004350D01*
X226299693Y-72004351D01*
X226186659Y-72061945D01*
X226186656Y-72061947D01*
X226096950Y-72151653D01*
X226096948Y-72151656D01*
X226039354Y-72264690D01*
X226039353Y-72264694D01*
X226019508Y-72389994D01*
X191575500Y-72389994D01*
X191575500Y-70485953D01*
X230014500Y-70485953D01*
X230014500Y-71394040D01*
X230042474Y-71498443D01*
X230042475Y-71498445D01*
X230096519Y-71592052D01*
X230172944Y-71668477D01*
X230172946Y-71668478D01*
X230172947Y-71668479D01*
X230266553Y-71722522D01*
X230370957Y-71750497D01*
X230370959Y-71750497D01*
X230479041Y-71750497D01*
X230479043Y-71750497D01*
X230583447Y-71722522D01*
X230677053Y-71668479D01*
X230753482Y-71592050D01*
X230807525Y-71498444D01*
X230835500Y-71394040D01*
X230835500Y-70485954D01*
X230807525Y-70381550D01*
X230753482Y-70287944D01*
X230753481Y-70287943D01*
X230753480Y-70287941D01*
X230677055Y-70211516D01*
X230583448Y-70157472D01*
X230583446Y-70157471D01*
X230479043Y-70129497D01*
X230370957Y-70129497D01*
X230370956Y-70129497D01*
X230266553Y-70157471D01*
X230266551Y-70157472D01*
X230172944Y-70211516D01*
X230096519Y-70287941D01*
X230042475Y-70381548D01*
X230042474Y-70381550D01*
X230014500Y-70485953D01*
X191575500Y-70485953D01*
X191575500Y-67799997D01*
X200694410Y-67799997D01*
X200694410Y-67800002D01*
X200714255Y-67925302D01*
X200714256Y-67925306D01*
X200771850Y-68038340D01*
X200771852Y-68038343D01*
X200861558Y-68128049D01*
X200861561Y-68128051D01*
X200974595Y-68185645D01*
X200974597Y-68185645D01*
X200974598Y-68185646D01*
X201016366Y-68192261D01*
X201099900Y-68205492D01*
X201099902Y-68205492D01*
X201099904Y-68205492D01*
X201162964Y-68195504D01*
X201225206Y-68185646D01*
X201338244Y-68128050D01*
X201427952Y-68038342D01*
X201485548Y-67925304D01*
X201505394Y-67800000D01*
X201502604Y-67782386D01*
X201485548Y-67674697D01*
X201485547Y-67674693D01*
X201445428Y-67595956D01*
X209014401Y-67595956D01*
X209014401Y-69704043D01*
X209042375Y-69808446D01*
X209042376Y-69808448D01*
X209096420Y-69902055D01*
X209172845Y-69978480D01*
X209172847Y-69978481D01*
X209172848Y-69978482D01*
X209266454Y-70032525D01*
X209370858Y-70060500D01*
X209370860Y-70060500D01*
X209478942Y-70060500D01*
X209478944Y-70060500D01*
X209583348Y-70032525D01*
X209676954Y-69978482D01*
X209753383Y-69902053D01*
X209807426Y-69808447D01*
X209835401Y-69704043D01*
X209835401Y-69109997D01*
X239389505Y-69109997D01*
X239389505Y-69110002D01*
X239409350Y-69235302D01*
X239409351Y-69235306D01*
X239466945Y-69348340D01*
X239466947Y-69348343D01*
X239556653Y-69438049D01*
X239556656Y-69438051D01*
X239669690Y-69495645D01*
X239669692Y-69495645D01*
X239669693Y-69495646D01*
X239711461Y-69502261D01*
X239794995Y-69515492D01*
X239794997Y-69515492D01*
X239794999Y-69515492D01*
X239857649Y-69505569D01*
X239920301Y-69495646D01*
X240033339Y-69438050D01*
X240123047Y-69348342D01*
X240180643Y-69235304D01*
X240200489Y-69110000D01*
X240192569Y-69059997D01*
X246039505Y-69059997D01*
X246039505Y-69060002D01*
X246059350Y-69185302D01*
X246059351Y-69185306D01*
X246116945Y-69298340D01*
X246116947Y-69298343D01*
X246206653Y-69388049D01*
X246206656Y-69388051D01*
X246319690Y-69445645D01*
X246319692Y-69445645D01*
X246319693Y-69445646D01*
X246361461Y-69452261D01*
X246444995Y-69465492D01*
X246444997Y-69465492D01*
X246444999Y-69465492D01*
X246507649Y-69455569D01*
X246570301Y-69445646D01*
X246683339Y-69388050D01*
X246773047Y-69298342D01*
X246830643Y-69185304D01*
X246850489Y-69060000D01*
X246830643Y-68934696D01*
X246830642Y-68934695D01*
X246830642Y-68934693D01*
X246773048Y-68821659D01*
X246773046Y-68821656D01*
X246683340Y-68731950D01*
X246683337Y-68731948D01*
X246570303Y-68674354D01*
X246570299Y-68674353D01*
X246444999Y-68654508D01*
X246444995Y-68654508D01*
X246319694Y-68674353D01*
X246319690Y-68674354D01*
X246206656Y-68731948D01*
X246206653Y-68731950D01*
X246116947Y-68821656D01*
X246116945Y-68821659D01*
X246059351Y-68934693D01*
X246059350Y-68934697D01*
X246039505Y-69059997D01*
X240192569Y-69059997D01*
X240185427Y-69014904D01*
X240180643Y-68984696D01*
X240180642Y-68984695D01*
X240180642Y-68984693D01*
X240123048Y-68871659D01*
X240123046Y-68871656D01*
X240033340Y-68781950D01*
X240033337Y-68781948D01*
X239920303Y-68724354D01*
X239920299Y-68724353D01*
X239794999Y-68704508D01*
X239794995Y-68704508D01*
X239669694Y-68724353D01*
X239669690Y-68724354D01*
X239556656Y-68781948D01*
X239556653Y-68781950D01*
X239466947Y-68871656D01*
X239466945Y-68871659D01*
X239409351Y-68984693D01*
X239409350Y-68984697D01*
X239389505Y-69109997D01*
X209835401Y-69109997D01*
X209835401Y-68559997D01*
X242039505Y-68559997D01*
X242039505Y-68560002D01*
X242059350Y-68685302D01*
X242059351Y-68685306D01*
X242116945Y-68798340D01*
X242116947Y-68798343D01*
X242206653Y-68888049D01*
X242206656Y-68888051D01*
X242319690Y-68945645D01*
X242319692Y-68945645D01*
X242319693Y-68945646D01*
X242361461Y-68952261D01*
X242444995Y-68965492D01*
X242444997Y-68965492D01*
X242444999Y-68965492D01*
X242507649Y-68955569D01*
X242570301Y-68945646D01*
X242591792Y-68934696D01*
X242683337Y-68888051D01*
X242683340Y-68888049D01*
X242773046Y-68798343D01*
X242773048Y-68798340D01*
X242830642Y-68685306D01*
X242830642Y-68685305D01*
X242830643Y-68685304D01*
X242850489Y-68560000D01*
X242849840Y-68555904D01*
X242842569Y-68509997D01*
X251339505Y-68509997D01*
X251339505Y-68510002D01*
X251359350Y-68635302D01*
X251359351Y-68635306D01*
X251416945Y-68748340D01*
X251416947Y-68748343D01*
X251506653Y-68838049D01*
X251506656Y-68838051D01*
X251619690Y-68895645D01*
X251619692Y-68895645D01*
X251619693Y-68895646D01*
X251661461Y-68902261D01*
X251744995Y-68915492D01*
X251744997Y-68915492D01*
X251744999Y-68915492D01*
X251807649Y-68905569D01*
X251870301Y-68895646D01*
X251983339Y-68838050D01*
X252073047Y-68748342D01*
X252130643Y-68635304D01*
X252143219Y-68555904D01*
X252150489Y-68510002D01*
X252150489Y-68509997D01*
X252130643Y-68384697D01*
X252130642Y-68384693D01*
X252073048Y-68271659D01*
X252073046Y-68271656D01*
X251983340Y-68181950D01*
X251983337Y-68181948D01*
X251870303Y-68124354D01*
X251870299Y-68124353D01*
X251744999Y-68104508D01*
X251744995Y-68104508D01*
X251619694Y-68124353D01*
X251619690Y-68124354D01*
X251506656Y-68181948D01*
X251506653Y-68181950D01*
X251416947Y-68271656D01*
X251416945Y-68271659D01*
X251359351Y-68384693D01*
X251359350Y-68384697D01*
X251339505Y-68509997D01*
X242842569Y-68509997D01*
X242830643Y-68434697D01*
X242830642Y-68434693D01*
X242773048Y-68321659D01*
X242773046Y-68321656D01*
X242683340Y-68231950D01*
X242683337Y-68231948D01*
X242570303Y-68174354D01*
X242570299Y-68174353D01*
X242444999Y-68154508D01*
X242444995Y-68154508D01*
X242319694Y-68174353D01*
X242319690Y-68174354D01*
X242206656Y-68231948D01*
X242206653Y-68231950D01*
X242116947Y-68321656D01*
X242116945Y-68321659D01*
X242059351Y-68434693D01*
X242059350Y-68434697D01*
X242039505Y-68559997D01*
X209835401Y-68559997D01*
X209835401Y-67595957D01*
X209807426Y-67491553D01*
X209753383Y-67397947D01*
X209753382Y-67397946D01*
X209753381Y-67397944D01*
X209676956Y-67321519D01*
X209583349Y-67267475D01*
X209583347Y-67267474D01*
X209478944Y-67239500D01*
X209370858Y-67239500D01*
X209370857Y-67239500D01*
X209266454Y-67267474D01*
X209266452Y-67267475D01*
X209172845Y-67321519D01*
X209096420Y-67397944D01*
X209042376Y-67491551D01*
X209042375Y-67491553D01*
X209014401Y-67595956D01*
X201445428Y-67595956D01*
X201427953Y-67561659D01*
X201427951Y-67561656D01*
X201338245Y-67471950D01*
X201338242Y-67471948D01*
X201225208Y-67414354D01*
X201225204Y-67414353D01*
X201099904Y-67394508D01*
X201099900Y-67394508D01*
X200974599Y-67414353D01*
X200974595Y-67414354D01*
X200861561Y-67471948D01*
X200861558Y-67471950D01*
X200771852Y-67561656D01*
X200771850Y-67561659D01*
X200714256Y-67674693D01*
X200714255Y-67674697D01*
X200694410Y-67799997D01*
X191575500Y-67799997D01*
X191575500Y-66965000D01*
X259044366Y-66965000D01*
X259064432Y-67130258D01*
X259116472Y-67267475D01*
X259123463Y-67285908D01*
X259218028Y-67422909D01*
X259295508Y-67491551D01*
X259342631Y-67533298D01*
X259345072Y-67534983D01*
X259345987Y-67536271D01*
X259346209Y-67536468D01*
X259346163Y-67536519D01*
X259376365Y-67579039D01*
X259372019Y-67632903D01*
X259345072Y-67665017D01*
X259342631Y-67666701D01*
X259218028Y-67777090D01*
X259123461Y-67914095D01*
X259064432Y-68069741D01*
X259044366Y-68235000D01*
X259064432Y-68400258D01*
X259123461Y-68555904D01*
X259123463Y-68555908D01*
X259218028Y-68692909D01*
X259342632Y-68803299D01*
X259490034Y-68880661D01*
X259651666Y-68920500D01*
X259818136Y-68920500D01*
X259979768Y-68880661D01*
X260127170Y-68803299D01*
X260251774Y-68692909D01*
X260304886Y-68615961D01*
X260348942Y-68584671D01*
X260402806Y-68589019D01*
X260434914Y-68615960D01*
X260488028Y-68692909D01*
X260612632Y-68803299D01*
X260760034Y-68880661D01*
X260921666Y-68920500D01*
X261088136Y-68920500D01*
X261249768Y-68880661D01*
X261397170Y-68803299D01*
X261521774Y-68692909D01*
X261521778Y-68692902D01*
X261524939Y-68689335D01*
X261526896Y-68691069D01*
X261563314Y-68665110D01*
X261617185Y-68669368D01*
X261638281Y-68687828D01*
X261644585Y-68688538D01*
X261992594Y-68340529D01*
X261995345Y-68350796D01*
X262034841Y-68419205D01*
X262090696Y-68475060D01*
X262159105Y-68514556D01*
X262169370Y-68517306D01*
X261821361Y-68865314D01*
X261936510Y-68937667D01*
X261936509Y-68937667D01*
X262101361Y-68995351D01*
X262274898Y-69014904D01*
X262274904Y-69014904D01*
X262448440Y-68995351D01*
X262448441Y-68995351D01*
X262613292Y-68937667D01*
X262728439Y-68865314D01*
X262380431Y-68517306D01*
X262390697Y-68514556D01*
X262459106Y-68475060D01*
X262514961Y-68419205D01*
X262554457Y-68350796D01*
X262557207Y-68340530D01*
X262905215Y-68688538D01*
X262913432Y-68687612D01*
X262941171Y-68666051D01*
X262995172Y-68668069D01*
X263023337Y-68690680D01*
X263024859Y-68689332D01*
X263028027Y-68692908D01*
X263028028Y-68692909D01*
X263152632Y-68803299D01*
X263300034Y-68880661D01*
X263461666Y-68920500D01*
X263628136Y-68920500D01*
X263789768Y-68880661D01*
X263937170Y-68803299D01*
X264061774Y-68692909D01*
X264114886Y-68615961D01*
X264158942Y-68584671D01*
X264212806Y-68589019D01*
X264244914Y-68615960D01*
X264298028Y-68692909D01*
X264422632Y-68803299D01*
X264570034Y-68880661D01*
X264731666Y-68920500D01*
X264898136Y-68920500D01*
X265059768Y-68880661D01*
X265207170Y-68803299D01*
X265331774Y-68692909D01*
X265426339Y-68555908D01*
X265485370Y-68400256D01*
X265505436Y-68235000D01*
X265485370Y-68069744D01*
X265426339Y-67914092D01*
X265331774Y-67777091D01*
X265216196Y-67674697D01*
X265207175Y-67666705D01*
X265207172Y-67666703D01*
X265207170Y-67666701D01*
X265207166Y-67666699D01*
X265204734Y-67665021D01*
X265203817Y-67663730D01*
X265203593Y-67663532D01*
X265203639Y-67663479D01*
X265173437Y-67620967D01*
X265177780Y-67567102D01*
X265204734Y-67534979D01*
X265207160Y-67533303D01*
X265207170Y-67533299D01*
X265331774Y-67422909D01*
X265426339Y-67285908D01*
X265485370Y-67130256D01*
X265505436Y-66965000D01*
X265485370Y-66799744D01*
X265469708Y-66758448D01*
X265426340Y-66644095D01*
X265426339Y-66644092D01*
X265358601Y-66545956D01*
X266314401Y-66545956D01*
X266314401Y-66654043D01*
X266342375Y-66758446D01*
X266342376Y-66758448D01*
X266396420Y-66852055D01*
X266472845Y-66928480D01*
X266472847Y-66928481D01*
X266472848Y-66928482D01*
X266566454Y-66982525D01*
X266670858Y-67010500D01*
X266670860Y-67010500D01*
X267628942Y-67010500D01*
X267628944Y-67010500D01*
X267733348Y-66982525D01*
X267826954Y-66928482D01*
X267903383Y-66852053D01*
X267957426Y-66758447D01*
X267985401Y-66654043D01*
X267985401Y-66545957D01*
X267957426Y-66441553D01*
X267903383Y-66347947D01*
X267903382Y-66347946D01*
X267903381Y-66347944D01*
X267826956Y-66271519D01*
X267733349Y-66217475D01*
X267733347Y-66217474D01*
X267628944Y-66189500D01*
X266670858Y-66189500D01*
X266670857Y-66189500D01*
X266566454Y-66217474D01*
X266566452Y-66217475D01*
X266472845Y-66271519D01*
X266396420Y-66347944D01*
X266342376Y-66441551D01*
X266342375Y-66441553D01*
X266314401Y-66545956D01*
X265358601Y-66545956D01*
X265331774Y-66507091D01*
X265207170Y-66396701D01*
X265129807Y-66356098D01*
X265059767Y-66319338D01*
X264898139Y-66279500D01*
X264898136Y-66279500D01*
X264731666Y-66279500D01*
X264731662Y-66279500D01*
X264570035Y-66319338D01*
X264570034Y-66319338D01*
X264422632Y-66396701D01*
X264422629Y-66396703D01*
X264298028Y-66507090D01*
X264244917Y-66584036D01*
X264200860Y-66615328D01*
X264146996Y-66610980D01*
X264114885Y-66584036D01*
X264088602Y-66545959D01*
X264061774Y-66507091D01*
X263937170Y-66396701D01*
X263859807Y-66356098D01*
X263789767Y-66319338D01*
X263628139Y-66279500D01*
X263628136Y-66279500D01*
X263461666Y-66279500D01*
X263461662Y-66279500D01*
X263300035Y-66319338D01*
X263300034Y-66319338D01*
X263152632Y-66396701D01*
X263152629Y-66396703D01*
X263028028Y-66507090D01*
X262974917Y-66584036D01*
X262930860Y-66615328D01*
X262876996Y-66610980D01*
X262844885Y-66584036D01*
X262818602Y-66545959D01*
X262791774Y-66507091D01*
X262667170Y-66396701D01*
X262589807Y-66356098D01*
X262519767Y-66319338D01*
X262358139Y-66279500D01*
X262358136Y-66279500D01*
X262191666Y-66279500D01*
X262191662Y-66279500D01*
X262030035Y-66319338D01*
X262030034Y-66319338D01*
X261882632Y-66396701D01*
X261882629Y-66396703D01*
X261758028Y-66507090D01*
X261704917Y-66584036D01*
X261660860Y-66615328D01*
X261606996Y-66610980D01*
X261574885Y-66584036D01*
X261548602Y-66545959D01*
X261521774Y-66507091D01*
X261397170Y-66396701D01*
X261319807Y-66356098D01*
X261249767Y-66319338D01*
X261088139Y-66279500D01*
X261088136Y-66279500D01*
X260921666Y-66279500D01*
X260921662Y-66279500D01*
X260760035Y-66319338D01*
X260760034Y-66319338D01*
X260612632Y-66396701D01*
X260612629Y-66396703D01*
X260488028Y-66507090D01*
X260434917Y-66584036D01*
X260390860Y-66615328D01*
X260336996Y-66610980D01*
X260304885Y-66584036D01*
X260278602Y-66545959D01*
X260251774Y-66507091D01*
X260127170Y-66396701D01*
X260049807Y-66356098D01*
X259979767Y-66319338D01*
X259818139Y-66279500D01*
X259818136Y-66279500D01*
X259651666Y-66279500D01*
X259651662Y-66279500D01*
X259490035Y-66319338D01*
X259490034Y-66319338D01*
X259342632Y-66396701D01*
X259342629Y-66396703D01*
X259218028Y-66507090D01*
X259123461Y-66644095D01*
X259064432Y-66799741D01*
X259044366Y-66965000D01*
X191575500Y-66965000D01*
X191575500Y-66235953D01*
X212714500Y-66235953D01*
X212714500Y-66344040D01*
X212742474Y-66448443D01*
X212742475Y-66448445D01*
X212796519Y-66542052D01*
X212872944Y-66618477D01*
X212872946Y-66618478D01*
X212872947Y-66618479D01*
X212966553Y-66672522D01*
X213070957Y-66700497D01*
X213070959Y-66700497D01*
X215179041Y-66700497D01*
X215179043Y-66700497D01*
X215283447Y-66672522D01*
X215377053Y-66618479D01*
X215453482Y-66542050D01*
X215507525Y-66448444D01*
X215535500Y-66344040D01*
X215535500Y-66235954D01*
X215507525Y-66131550D01*
X215453482Y-66037944D01*
X215453481Y-66037943D01*
X215453480Y-66037941D01*
X215377055Y-65961516D01*
X215283448Y-65907472D01*
X215283446Y-65907471D01*
X215179043Y-65879497D01*
X213070957Y-65879497D01*
X213070956Y-65879497D01*
X212966553Y-65907471D01*
X212966551Y-65907472D01*
X212872944Y-65961516D01*
X212796519Y-66037941D01*
X212742475Y-66131548D01*
X212742474Y-66131550D01*
X212714500Y-66235953D01*
X191575500Y-66235953D01*
X191575500Y-65259996D01*
X230939505Y-65259996D01*
X230939505Y-65260001D01*
X230959350Y-65385301D01*
X230959351Y-65385305D01*
X231016945Y-65498339D01*
X231016947Y-65498342D01*
X231106653Y-65588048D01*
X231106656Y-65588050D01*
X231219690Y-65645644D01*
X231219692Y-65645644D01*
X231219693Y-65645645D01*
X231261461Y-65652260D01*
X231344995Y-65665491D01*
X231344997Y-65665491D01*
X231344999Y-65665491D01*
X231407649Y-65655568D01*
X231470301Y-65645645D01*
X231583339Y-65588049D01*
X231673047Y-65498341D01*
X231730643Y-65385303D01*
X231750489Y-65259999D01*
X231748642Y-65248340D01*
X231730643Y-65134696D01*
X231730642Y-65134692D01*
X231673048Y-65021658D01*
X231673046Y-65021655D01*
X231661388Y-65009997D01*
X233539505Y-65009997D01*
X233539505Y-65010002D01*
X233559350Y-65135302D01*
X233559351Y-65135306D01*
X233616945Y-65248340D01*
X233616947Y-65248343D01*
X233706653Y-65338049D01*
X233706656Y-65338051D01*
X233819690Y-65395645D01*
X233819692Y-65395645D01*
X233819693Y-65395646D01*
X233861461Y-65402261D01*
X233944995Y-65415492D01*
X233944997Y-65415492D01*
X233944999Y-65415492D01*
X234007649Y-65405569D01*
X234070301Y-65395646D01*
X234183339Y-65338050D01*
X234273047Y-65248342D01*
X234330643Y-65135304D01*
X234350489Y-65010000D01*
X234349230Y-65002053D01*
X234330643Y-64884697D01*
X234330642Y-64884693D01*
X234273048Y-64771659D01*
X234273046Y-64771656D01*
X234183340Y-64681950D01*
X234183337Y-64681948D01*
X234070303Y-64624354D01*
X234070299Y-64624353D01*
X233944999Y-64604508D01*
X233944995Y-64604508D01*
X233819694Y-64624353D01*
X233819690Y-64624354D01*
X233706656Y-64681948D01*
X233706653Y-64681950D01*
X233616947Y-64771656D01*
X233616945Y-64771659D01*
X233559351Y-64884693D01*
X233559350Y-64884697D01*
X233539505Y-65009997D01*
X231661388Y-65009997D01*
X231583340Y-64931949D01*
X231583337Y-64931947D01*
X231470303Y-64874353D01*
X231470299Y-64874352D01*
X231344999Y-64854507D01*
X231344995Y-64854507D01*
X231219694Y-64874352D01*
X231219690Y-64874353D01*
X231106656Y-64931947D01*
X231106653Y-64931949D01*
X231016947Y-65021655D01*
X231016945Y-65021658D01*
X230959351Y-65134692D01*
X230959350Y-65134696D01*
X230939505Y-65259996D01*
X191575500Y-65259996D01*
X191575500Y-62699997D01*
X196569409Y-62699997D01*
X196569409Y-62700002D01*
X196589254Y-62825302D01*
X196589255Y-62825306D01*
X196646849Y-62938340D01*
X196646851Y-62938343D01*
X196736557Y-63028049D01*
X196736560Y-63028051D01*
X196849594Y-63085645D01*
X196849596Y-63085645D01*
X196849597Y-63085646D01*
X196891365Y-63092261D01*
X196974899Y-63105492D01*
X196974901Y-63105492D01*
X196974903Y-63105492D01*
X197037553Y-63095569D01*
X197100205Y-63085646D01*
X197213243Y-63028050D01*
X197302951Y-62938342D01*
X197360547Y-62825304D01*
X197380393Y-62700000D01*
X197360547Y-62574696D01*
X197360546Y-62574695D01*
X197360546Y-62574693D01*
X197345904Y-62545956D01*
X204114401Y-62545956D01*
X204114401Y-64804043D01*
X204142375Y-64908446D01*
X204142376Y-64908448D01*
X204196420Y-65002055D01*
X204272845Y-65078480D01*
X204272847Y-65078481D01*
X204272848Y-65078482D01*
X204366454Y-65132525D01*
X204470858Y-65160500D01*
X204470860Y-65160500D01*
X204578942Y-65160500D01*
X204578944Y-65160500D01*
X204683348Y-65132525D01*
X204776954Y-65078482D01*
X204853383Y-65002053D01*
X204907426Y-64908447D01*
X204935401Y-64804043D01*
X204935401Y-63809997D01*
X238389505Y-63809997D01*
X238389505Y-63810002D01*
X238409350Y-63935302D01*
X238409351Y-63935306D01*
X238466945Y-64048340D01*
X238466947Y-64048343D01*
X238556653Y-64138049D01*
X238556656Y-64138051D01*
X238669690Y-64195645D01*
X238669692Y-64195645D01*
X238669693Y-64195646D01*
X238711461Y-64202261D01*
X238794995Y-64215492D01*
X238794997Y-64215492D01*
X238794999Y-64215492D01*
X238857649Y-64205569D01*
X238920301Y-64195646D01*
X239033339Y-64138050D01*
X239123047Y-64048342D01*
X239180643Y-63935304D01*
X239200489Y-63810000D01*
X239180643Y-63684696D01*
X239180642Y-63684695D01*
X239180642Y-63684693D01*
X239123048Y-63571659D01*
X239123046Y-63571656D01*
X239033340Y-63481950D01*
X239033337Y-63481948D01*
X238920303Y-63424354D01*
X238920299Y-63424353D01*
X238794999Y-63404508D01*
X238794995Y-63404508D01*
X238669694Y-63424353D01*
X238669690Y-63424354D01*
X238556656Y-63481948D01*
X238556653Y-63481950D01*
X238466947Y-63571656D01*
X238466945Y-63571659D01*
X238409351Y-63684693D01*
X238409350Y-63684697D01*
X238389505Y-63809997D01*
X204935401Y-63809997D01*
X204935401Y-62545957D01*
X204907426Y-62441553D01*
X204853383Y-62347947D01*
X204853382Y-62347946D01*
X204853381Y-62347944D01*
X204776956Y-62271519D01*
X204683349Y-62217475D01*
X204683347Y-62217474D01*
X204578944Y-62189500D01*
X204470858Y-62189500D01*
X204470857Y-62189500D01*
X204366454Y-62217474D01*
X204366452Y-62217475D01*
X204272845Y-62271519D01*
X204196420Y-62347944D01*
X204142376Y-62441551D01*
X204142375Y-62441553D01*
X204114401Y-62545956D01*
X197345904Y-62545956D01*
X197302952Y-62461659D01*
X197302950Y-62461656D01*
X197213244Y-62371950D01*
X197213241Y-62371948D01*
X197100207Y-62314354D01*
X197100203Y-62314353D01*
X196974903Y-62294508D01*
X196974899Y-62294508D01*
X196849598Y-62314353D01*
X196849594Y-62314354D01*
X196736560Y-62371948D01*
X196736557Y-62371950D01*
X196646851Y-62461656D01*
X196646849Y-62461659D01*
X196589255Y-62574693D01*
X196589254Y-62574697D01*
X196569409Y-62699997D01*
X191575500Y-62699997D01*
X191575500Y-61309997D01*
X233539505Y-61309997D01*
X233539505Y-61310002D01*
X233559350Y-61435302D01*
X233559351Y-61435306D01*
X233616945Y-61548340D01*
X233616947Y-61548343D01*
X233706653Y-61638049D01*
X233706656Y-61638051D01*
X233819690Y-61695645D01*
X233819692Y-61695645D01*
X233819693Y-61695646D01*
X233861461Y-61702261D01*
X233944995Y-61715492D01*
X233944997Y-61715492D01*
X233944999Y-61715492D01*
X234007649Y-61705569D01*
X234070301Y-61695646D01*
X234183339Y-61638050D01*
X234273047Y-61548342D01*
X234330643Y-61435304D01*
X234350489Y-61310000D01*
X234350489Y-61309997D01*
X235139505Y-61309997D01*
X235139505Y-61310002D01*
X235159350Y-61435302D01*
X235159351Y-61435306D01*
X235216945Y-61548340D01*
X235216947Y-61548343D01*
X235306653Y-61638049D01*
X235306656Y-61638051D01*
X235419690Y-61695645D01*
X235419692Y-61695645D01*
X235419693Y-61695646D01*
X235461461Y-61702261D01*
X235544995Y-61715492D01*
X235544997Y-61715492D01*
X235544999Y-61715492D01*
X235607649Y-61705569D01*
X235670301Y-61695646D01*
X235783339Y-61638050D01*
X235873047Y-61548342D01*
X235930643Y-61435304D01*
X235950489Y-61310000D01*
X235930643Y-61184696D01*
X235930642Y-61184695D01*
X235930642Y-61184693D01*
X235873048Y-61071659D01*
X235873046Y-61071656D01*
X235783340Y-60981950D01*
X235783337Y-60981948D01*
X235670303Y-60924354D01*
X235670299Y-60924353D01*
X235544999Y-60904508D01*
X235544995Y-60904508D01*
X235419694Y-60924353D01*
X235419690Y-60924354D01*
X235306656Y-60981948D01*
X235306653Y-60981950D01*
X235216947Y-61071656D01*
X235216945Y-61071659D01*
X235159351Y-61184693D01*
X235159350Y-61184697D01*
X235139505Y-61309997D01*
X234350489Y-61309997D01*
X234330643Y-61184696D01*
X234330642Y-61184695D01*
X234330642Y-61184693D01*
X234273048Y-61071659D01*
X234273046Y-61071656D01*
X234183340Y-60981950D01*
X234183337Y-60981948D01*
X234070303Y-60924354D01*
X234070299Y-60924353D01*
X233944999Y-60904508D01*
X233944995Y-60904508D01*
X233819694Y-60924353D01*
X233819690Y-60924354D01*
X233706656Y-60981948D01*
X233706653Y-60981950D01*
X233616947Y-61071656D01*
X233616945Y-61071659D01*
X233559351Y-61184693D01*
X233559350Y-61184697D01*
X233539505Y-61309997D01*
X191575500Y-61309997D01*
X191575500Y-57859996D01*
X230939505Y-57859996D01*
X230939505Y-57860001D01*
X230959350Y-57985301D01*
X230959351Y-57985305D01*
X231016945Y-58098339D01*
X231016947Y-58098342D01*
X231106653Y-58188048D01*
X231106656Y-58188050D01*
X231219690Y-58245644D01*
X231219692Y-58245644D01*
X231219693Y-58245645D01*
X231261461Y-58252260D01*
X231344995Y-58265491D01*
X231344997Y-58265491D01*
X231344999Y-58265491D01*
X231407649Y-58255568D01*
X231470301Y-58245645D01*
X231583339Y-58188049D01*
X231626439Y-58144949D01*
X255774457Y-58144949D01*
X255774457Y-58144954D01*
X255794302Y-58270254D01*
X255794303Y-58270258D01*
X255851897Y-58383292D01*
X255851899Y-58383295D01*
X255941605Y-58473001D01*
X255941608Y-58473003D01*
X256054642Y-58530597D01*
X256054644Y-58530597D01*
X256054645Y-58530598D01*
X256096413Y-58537213D01*
X256179947Y-58550444D01*
X256179949Y-58550444D01*
X256179951Y-58550444D01*
X256242601Y-58540521D01*
X256305253Y-58530598D01*
X256418291Y-58473002D01*
X256507999Y-58383294D01*
X256565595Y-58270256D01*
X256585441Y-58144952D01*
X256578058Y-58098339D01*
X256565595Y-58019649D01*
X256565594Y-58019645D01*
X256508000Y-57906611D01*
X256507998Y-57906608D01*
X256418292Y-57816902D01*
X256418289Y-57816900D01*
X256305255Y-57759306D01*
X256305251Y-57759305D01*
X256179951Y-57739460D01*
X256179947Y-57739460D01*
X256054646Y-57759305D01*
X256054642Y-57759306D01*
X255941608Y-57816900D01*
X255941605Y-57816902D01*
X255851899Y-57906608D01*
X255851897Y-57906611D01*
X255794303Y-58019645D01*
X255794302Y-58019649D01*
X255774457Y-58144949D01*
X231626439Y-58144949D01*
X231673047Y-58098341D01*
X231730643Y-57985303D01*
X231740566Y-57922651D01*
X231750489Y-57860001D01*
X231750489Y-57859996D01*
X231730643Y-57734696D01*
X231730642Y-57734692D01*
X231673048Y-57621658D01*
X231673046Y-57621655D01*
X231661388Y-57609997D01*
X233539505Y-57609997D01*
X233539505Y-57610002D01*
X233559350Y-57735302D01*
X233559351Y-57735306D01*
X233616945Y-57848340D01*
X233616947Y-57848343D01*
X233706653Y-57938049D01*
X233706656Y-57938051D01*
X233819690Y-57995645D01*
X233819692Y-57995645D01*
X233819693Y-57995646D01*
X233861461Y-58002261D01*
X233944995Y-58015492D01*
X233944997Y-58015492D01*
X233944999Y-58015492D01*
X234007649Y-58005569D01*
X234070301Y-57995646D01*
X234183339Y-57938050D01*
X234273047Y-57848342D01*
X234330643Y-57735304D01*
X234350489Y-57610000D01*
X234336978Y-57524697D01*
X234330643Y-57484697D01*
X234330642Y-57484693D01*
X234273048Y-57371659D01*
X234273046Y-57371656D01*
X234183340Y-57281950D01*
X234183337Y-57281948D01*
X234070303Y-57224354D01*
X234070299Y-57224353D01*
X233944999Y-57204508D01*
X233944995Y-57204508D01*
X233819694Y-57224353D01*
X233819690Y-57224354D01*
X233706656Y-57281948D01*
X233706653Y-57281950D01*
X233616947Y-57371656D01*
X233616945Y-57371659D01*
X233559351Y-57484693D01*
X233559350Y-57484697D01*
X233539505Y-57609997D01*
X231661388Y-57609997D01*
X231583340Y-57531949D01*
X231583337Y-57531947D01*
X231470303Y-57474353D01*
X231470299Y-57474352D01*
X231344999Y-57454507D01*
X231344995Y-57454507D01*
X231219694Y-57474352D01*
X231219690Y-57474353D01*
X231106656Y-57531947D01*
X231106653Y-57531949D01*
X231016947Y-57621655D01*
X231016945Y-57621658D01*
X230959351Y-57734692D01*
X230959350Y-57734696D01*
X230939505Y-57859996D01*
X191575500Y-57859996D01*
X191575500Y-55345956D01*
X238034497Y-55345956D01*
X238034497Y-57454043D01*
X238062471Y-57558446D01*
X238062472Y-57558448D01*
X238116516Y-57652055D01*
X238192941Y-57728480D01*
X238192943Y-57728481D01*
X238192944Y-57728482D01*
X238286550Y-57782525D01*
X238390954Y-57810500D01*
X238390956Y-57810500D01*
X238499038Y-57810500D01*
X238499040Y-57810500D01*
X238603444Y-57782525D01*
X238697050Y-57728482D01*
X238773479Y-57652053D01*
X238774666Y-57649997D01*
X256969409Y-57649997D01*
X256969409Y-57650002D01*
X256989254Y-57775302D01*
X256989255Y-57775306D01*
X257046849Y-57888340D01*
X257046851Y-57888343D01*
X257136557Y-57978049D01*
X257136560Y-57978051D01*
X257249594Y-58035645D01*
X257249596Y-58035645D01*
X257249597Y-58035646D01*
X257291365Y-58042261D01*
X257374899Y-58055492D01*
X257374901Y-58055492D01*
X257374903Y-58055492D01*
X257437553Y-58045569D01*
X257500205Y-58035646D01*
X257613243Y-57978050D01*
X257702951Y-57888342D01*
X257760547Y-57775304D01*
X257780393Y-57650000D01*
X257760547Y-57524696D01*
X257760546Y-57524695D01*
X257760546Y-57524693D01*
X257702952Y-57411659D01*
X257702950Y-57411656D01*
X257613244Y-57321950D01*
X257613241Y-57321948D01*
X257500207Y-57264354D01*
X257500203Y-57264353D01*
X257374903Y-57244508D01*
X257374899Y-57244508D01*
X257249598Y-57264353D01*
X257249594Y-57264354D01*
X257136560Y-57321948D01*
X257136557Y-57321950D01*
X257046851Y-57411656D01*
X257046849Y-57411659D01*
X256989255Y-57524693D01*
X256989254Y-57524697D01*
X256969409Y-57649997D01*
X238774666Y-57649997D01*
X238827522Y-57558447D01*
X238855497Y-57454043D01*
X238855497Y-55345957D01*
X238827522Y-55241553D01*
X238773479Y-55147947D01*
X238773478Y-55147946D01*
X238773477Y-55147944D01*
X238697052Y-55071519D01*
X238603445Y-55017475D01*
X238603443Y-55017474D01*
X238499040Y-54989500D01*
X238390954Y-54989500D01*
X238390953Y-54989500D01*
X238286550Y-55017474D01*
X238286548Y-55017475D01*
X238192941Y-55071519D01*
X238116516Y-55147944D01*
X238062472Y-55241551D01*
X238062471Y-55241553D01*
X238034497Y-55345956D01*
X191575500Y-55345956D01*
X191575500Y-54634996D01*
X234489505Y-54634996D01*
X234489505Y-54635001D01*
X234509350Y-54760301D01*
X234509351Y-54760305D01*
X234566945Y-54873339D01*
X234566947Y-54873342D01*
X234656653Y-54963048D01*
X234656656Y-54963050D01*
X234769690Y-55020644D01*
X234769692Y-55020644D01*
X234769693Y-55020645D01*
X234811461Y-55027260D01*
X234894995Y-55040491D01*
X234894997Y-55040491D01*
X234894999Y-55040491D01*
X234957649Y-55030568D01*
X235020301Y-55020645D01*
X235133339Y-54963049D01*
X235223047Y-54873341D01*
X235280643Y-54760303D01*
X235300489Y-54634999D01*
X235280643Y-54509695D01*
X235280642Y-54509694D01*
X235280642Y-54509692D01*
X235223048Y-54396658D01*
X235223046Y-54396655D01*
X235133340Y-54306949D01*
X235133337Y-54306947D01*
X235020303Y-54249353D01*
X235020299Y-54249352D01*
X234894999Y-54229507D01*
X234894995Y-54229507D01*
X234769694Y-54249352D01*
X234769690Y-54249353D01*
X234656656Y-54306947D01*
X234656653Y-54306949D01*
X234566947Y-54396655D01*
X234566945Y-54396658D01*
X234509351Y-54509692D01*
X234509350Y-54509696D01*
X234489505Y-54634996D01*
X191575500Y-54634996D01*
X191575500Y-54159996D01*
X230939505Y-54159996D01*
X230939505Y-54160001D01*
X230959350Y-54285301D01*
X230959351Y-54285305D01*
X231016945Y-54398339D01*
X231016947Y-54398342D01*
X231106653Y-54488048D01*
X231106656Y-54488050D01*
X231219690Y-54545644D01*
X231219692Y-54545644D01*
X231219693Y-54545645D01*
X231261461Y-54552260D01*
X231344995Y-54565491D01*
X231344997Y-54565491D01*
X231344999Y-54565491D01*
X231407649Y-54555568D01*
X231470301Y-54545645D01*
X231583339Y-54488049D01*
X231673047Y-54398341D01*
X231730643Y-54285303D01*
X231750489Y-54159999D01*
X231739139Y-54088340D01*
X231730643Y-54034696D01*
X231730642Y-54034692D01*
X231673048Y-53921658D01*
X231673046Y-53921655D01*
X231601388Y-53849997D01*
X254519409Y-53849997D01*
X254519409Y-53850002D01*
X254539254Y-53975302D01*
X254539255Y-53975306D01*
X254596849Y-54088340D01*
X254596851Y-54088343D01*
X254686557Y-54178049D01*
X254686560Y-54178051D01*
X254799594Y-54235645D01*
X254799596Y-54235645D01*
X254799597Y-54235646D01*
X254841365Y-54242261D01*
X254924899Y-54255492D01*
X254924901Y-54255492D01*
X254924903Y-54255492D01*
X254987553Y-54245569D01*
X255050205Y-54235646D01*
X255163243Y-54178050D01*
X255252951Y-54088342D01*
X255310547Y-53975304D01*
X255330393Y-53850000D01*
X255330393Y-53849997D01*
X255819409Y-53849997D01*
X255819409Y-53850002D01*
X255839254Y-53975302D01*
X255839255Y-53975306D01*
X255896849Y-54088340D01*
X255896851Y-54088343D01*
X255986557Y-54178049D01*
X255986560Y-54178051D01*
X256099594Y-54235645D01*
X256099596Y-54235645D01*
X256099597Y-54235646D01*
X256141365Y-54242261D01*
X256224899Y-54255492D01*
X256224901Y-54255492D01*
X256224903Y-54255492D01*
X256287553Y-54245569D01*
X256350205Y-54235646D01*
X256463243Y-54178050D01*
X256552951Y-54088342D01*
X256610547Y-53975304D01*
X256630393Y-53850000D01*
X256610547Y-53724696D01*
X256610546Y-53724695D01*
X256610546Y-53724693D01*
X256552952Y-53611659D01*
X256552950Y-53611656D01*
X256463244Y-53521950D01*
X256463241Y-53521948D01*
X256350207Y-53464354D01*
X256350203Y-53464353D01*
X256224903Y-53444508D01*
X256224899Y-53444508D01*
X256099598Y-53464353D01*
X256099594Y-53464354D01*
X255986560Y-53521948D01*
X255986557Y-53521950D01*
X255896851Y-53611656D01*
X255896849Y-53611659D01*
X255839255Y-53724693D01*
X255839254Y-53724697D01*
X255819409Y-53849997D01*
X255330393Y-53849997D01*
X255310547Y-53724696D01*
X255310546Y-53724695D01*
X255310546Y-53724693D01*
X255252952Y-53611659D01*
X255252950Y-53611656D01*
X255163244Y-53521950D01*
X255163241Y-53521948D01*
X255050207Y-53464354D01*
X255050203Y-53464353D01*
X254924903Y-53444508D01*
X254924899Y-53444508D01*
X254799598Y-53464353D01*
X254799594Y-53464354D01*
X254686560Y-53521948D01*
X254686557Y-53521950D01*
X254596851Y-53611656D01*
X254596849Y-53611659D01*
X254539255Y-53724693D01*
X254539254Y-53724697D01*
X254519409Y-53849997D01*
X231601388Y-53849997D01*
X231583340Y-53831949D01*
X231583337Y-53831947D01*
X231470303Y-53774353D01*
X231470299Y-53774352D01*
X231344999Y-53754507D01*
X231344995Y-53754507D01*
X231219694Y-53774352D01*
X231219690Y-53774353D01*
X231106656Y-53831947D01*
X231106653Y-53831949D01*
X231016947Y-53921655D01*
X231016945Y-53921658D01*
X230959351Y-54034692D01*
X230959350Y-54034696D01*
X230939505Y-54159996D01*
X191575500Y-54159996D01*
X191575500Y-52749997D01*
X247219409Y-52749997D01*
X247219409Y-52750002D01*
X247239254Y-52875302D01*
X247239255Y-52875306D01*
X247296849Y-52988340D01*
X247296851Y-52988343D01*
X247386557Y-53078049D01*
X247386560Y-53078051D01*
X247499594Y-53135645D01*
X247499596Y-53135645D01*
X247499597Y-53135646D01*
X247541365Y-53142261D01*
X247624899Y-53155492D01*
X247624901Y-53155492D01*
X247624903Y-53155492D01*
X247687553Y-53145569D01*
X247750205Y-53135646D01*
X247863243Y-53078050D01*
X247952951Y-52988342D01*
X248010547Y-52875304D01*
X248030393Y-52750000D01*
X248010547Y-52624696D01*
X248010546Y-52624695D01*
X248010546Y-52624693D01*
X247952952Y-52511659D01*
X247952950Y-52511656D01*
X247863244Y-52421950D01*
X247863241Y-52421948D01*
X247750207Y-52364354D01*
X247750203Y-52364353D01*
X247624903Y-52344508D01*
X247624899Y-52344508D01*
X247499598Y-52364353D01*
X247499594Y-52364354D01*
X247386560Y-52421948D01*
X247386557Y-52421950D01*
X247296851Y-52511656D01*
X247296849Y-52511659D01*
X247239255Y-52624693D01*
X247239254Y-52624697D01*
X247219409Y-52749997D01*
X191575500Y-52749997D01*
X191575500Y-51499997D01*
X256869409Y-51499997D01*
X256869409Y-51500002D01*
X256889254Y-51625302D01*
X256889255Y-51625306D01*
X256946849Y-51738340D01*
X256946851Y-51738343D01*
X257036557Y-51828049D01*
X257036560Y-51828051D01*
X257149594Y-51885645D01*
X257149596Y-51885645D01*
X257149597Y-51885646D01*
X257191365Y-51892261D01*
X257274899Y-51905492D01*
X257274901Y-51905492D01*
X257274903Y-51905492D01*
X257337553Y-51895569D01*
X257400205Y-51885646D01*
X257513243Y-51828050D01*
X257602951Y-51738342D01*
X257660547Y-51625304D01*
X257680393Y-51500000D01*
X257660547Y-51374696D01*
X257660546Y-51374695D01*
X257660546Y-51374693D01*
X257602952Y-51261659D01*
X257602950Y-51261656D01*
X257513244Y-51171950D01*
X257513241Y-51171948D01*
X257400207Y-51114354D01*
X257400203Y-51114353D01*
X257274903Y-51094508D01*
X257274899Y-51094508D01*
X257149598Y-51114353D01*
X257149594Y-51114354D01*
X257036560Y-51171948D01*
X257036557Y-51171950D01*
X256946851Y-51261656D01*
X256946849Y-51261659D01*
X256889255Y-51374693D01*
X256889254Y-51374697D01*
X256869409Y-51499997D01*
X191575500Y-51499997D01*
X191575500Y-50934996D01*
X234489505Y-50934996D01*
X234489505Y-50935001D01*
X234509350Y-51060301D01*
X234509351Y-51060305D01*
X234566945Y-51173339D01*
X234566947Y-51173342D01*
X234656653Y-51263048D01*
X234656656Y-51263050D01*
X234769690Y-51320644D01*
X234769692Y-51320644D01*
X234769693Y-51320645D01*
X234811461Y-51327260D01*
X234894995Y-51340491D01*
X234894997Y-51340491D01*
X234894999Y-51340491D01*
X234957649Y-51330568D01*
X235020301Y-51320645D01*
X235133339Y-51263049D01*
X235223047Y-51173341D01*
X235280643Y-51060303D01*
X235300489Y-50934999D01*
X235280643Y-50809695D01*
X235280642Y-50809694D01*
X235280642Y-50809692D01*
X235223048Y-50696658D01*
X235223046Y-50696655D01*
X235133340Y-50606949D01*
X235133337Y-50606947D01*
X235020303Y-50549353D01*
X235020299Y-50549352D01*
X234894999Y-50529507D01*
X234894995Y-50529507D01*
X234769694Y-50549352D01*
X234769690Y-50549353D01*
X234656656Y-50606947D01*
X234656653Y-50606949D01*
X234566947Y-50696655D01*
X234566945Y-50696658D01*
X234509351Y-50809692D01*
X234509350Y-50809696D01*
X234489505Y-50934996D01*
X191575500Y-50934996D01*
X191575500Y-50459996D01*
X230939505Y-50459996D01*
X230939505Y-50460001D01*
X230959350Y-50585301D01*
X230959351Y-50585305D01*
X231016945Y-50698339D01*
X231016947Y-50698342D01*
X231106653Y-50788048D01*
X231106656Y-50788050D01*
X231219690Y-50845644D01*
X231219692Y-50845644D01*
X231219693Y-50845645D01*
X231261461Y-50852260D01*
X231344995Y-50865491D01*
X231344997Y-50865491D01*
X231344999Y-50865491D01*
X231407649Y-50855568D01*
X231470301Y-50845645D01*
X231583339Y-50788049D01*
X231673047Y-50698341D01*
X231730643Y-50585303D01*
X231750489Y-50459999D01*
X231730643Y-50334695D01*
X231730642Y-50334694D01*
X231730642Y-50334692D01*
X231673048Y-50221658D01*
X231673046Y-50221655D01*
X231583340Y-50131949D01*
X231583337Y-50131947D01*
X231470303Y-50074353D01*
X231470299Y-50074352D01*
X231344999Y-50054507D01*
X231344995Y-50054507D01*
X231219694Y-50074352D01*
X231219690Y-50074353D01*
X231106656Y-50131947D01*
X231106653Y-50131949D01*
X231016947Y-50221655D01*
X231016945Y-50221658D01*
X230959351Y-50334692D01*
X230959350Y-50334696D01*
X230939505Y-50459996D01*
X191575500Y-50459996D01*
X191575500Y-47049997D01*
X251819409Y-47049997D01*
X251819409Y-47050002D01*
X251839254Y-47175302D01*
X251839255Y-47175306D01*
X251896849Y-47288340D01*
X251896851Y-47288343D01*
X251986557Y-47378049D01*
X251986560Y-47378051D01*
X252099594Y-47435645D01*
X252099596Y-47435645D01*
X252099597Y-47435646D01*
X252141365Y-47442261D01*
X252224899Y-47455492D01*
X252224901Y-47455492D01*
X252224903Y-47455492D01*
X252287553Y-47445569D01*
X252350205Y-47435646D01*
X252463243Y-47378050D01*
X252552951Y-47288342D01*
X252610547Y-47175304D01*
X252630393Y-47050000D01*
X252610547Y-46924696D01*
X252610546Y-46924695D01*
X252610546Y-46924693D01*
X252552952Y-46811659D01*
X252552950Y-46811656D01*
X252463244Y-46721950D01*
X252463241Y-46721948D01*
X252350207Y-46664354D01*
X252350203Y-46664353D01*
X252224903Y-46644508D01*
X252224899Y-46644508D01*
X252099598Y-46664353D01*
X252099594Y-46664354D01*
X251986560Y-46721948D01*
X251986557Y-46721950D01*
X251896851Y-46811656D01*
X251896849Y-46811659D01*
X251839255Y-46924693D01*
X251839254Y-46924697D01*
X251819409Y-47049997D01*
X191575500Y-47049997D01*
X191575500Y-46082054D01*
X234178898Y-46082054D01*
X234178898Y-46217947D01*
X234214069Y-46349207D01*
X234214070Y-46349209D01*
X234282017Y-46466896D01*
X234378102Y-46562981D01*
X234378104Y-46562982D01*
X234378105Y-46562983D01*
X234495791Y-46630929D01*
X234627052Y-46666101D01*
X234627053Y-46666101D01*
X234762943Y-46666101D01*
X234762944Y-46666101D01*
X234894205Y-46630929D01*
X235011891Y-46562983D01*
X235107980Y-46466894D01*
X235175926Y-46349208D01*
X235211098Y-46217947D01*
X235211098Y-46149997D01*
X251419409Y-46149997D01*
X251419409Y-46150002D01*
X251439254Y-46275302D01*
X251439255Y-46275306D01*
X251496849Y-46388340D01*
X251496851Y-46388343D01*
X251586557Y-46478049D01*
X251586560Y-46478051D01*
X251699594Y-46535645D01*
X251699596Y-46535645D01*
X251699597Y-46535646D01*
X251741365Y-46542261D01*
X251824899Y-46555492D01*
X251824901Y-46555492D01*
X251824903Y-46555492D01*
X251887553Y-46545569D01*
X251950205Y-46535646D01*
X252063243Y-46478050D01*
X252152951Y-46388342D01*
X252210547Y-46275304D01*
X252230393Y-46150000D01*
X252210547Y-46024696D01*
X252210546Y-46024695D01*
X252210546Y-46024693D01*
X252152952Y-45911659D01*
X252152950Y-45911656D01*
X252063244Y-45821950D01*
X252063241Y-45821948D01*
X251950207Y-45764354D01*
X251950203Y-45764353D01*
X251824903Y-45744508D01*
X251824899Y-45744508D01*
X251699598Y-45764353D01*
X251699594Y-45764354D01*
X251586560Y-45821948D01*
X251586557Y-45821950D01*
X251496851Y-45911656D01*
X251496849Y-45911659D01*
X251439255Y-46024693D01*
X251439254Y-46024697D01*
X251419409Y-46149997D01*
X235211098Y-46149997D01*
X235211098Y-46082055D01*
X235175926Y-45950794D01*
X235107980Y-45833108D01*
X235107979Y-45833107D01*
X235107978Y-45833105D01*
X235011893Y-45737020D01*
X234894206Y-45669073D01*
X234894204Y-45669072D01*
X234762944Y-45633901D01*
X234627052Y-45633901D01*
X234627051Y-45633901D01*
X234495791Y-45669072D01*
X234495789Y-45669073D01*
X234378102Y-45737020D01*
X234282017Y-45833105D01*
X234214070Y-45950792D01*
X234214069Y-45950794D01*
X234178898Y-46082054D01*
X191575500Y-46082054D01*
X191575500Y-45549997D01*
X249769409Y-45549997D01*
X249769409Y-45550002D01*
X249789254Y-45675302D01*
X249789255Y-45675306D01*
X249846849Y-45788340D01*
X249846851Y-45788343D01*
X249936557Y-45878049D01*
X249936560Y-45878051D01*
X250049594Y-45935645D01*
X250049596Y-45935645D01*
X250049597Y-45935646D01*
X250091365Y-45942261D01*
X250174899Y-45955492D01*
X250174901Y-45955492D01*
X250174903Y-45955492D01*
X250237553Y-45945569D01*
X250300205Y-45935646D01*
X250413243Y-45878050D01*
X250502951Y-45788342D01*
X250560547Y-45675304D01*
X250580393Y-45550000D01*
X250560547Y-45424696D01*
X250560546Y-45424695D01*
X250560546Y-45424693D01*
X250502952Y-45311659D01*
X250502950Y-45311656D01*
X250413244Y-45221950D01*
X250413241Y-45221948D01*
X250300207Y-45164354D01*
X250300203Y-45164353D01*
X250174903Y-45144508D01*
X250174899Y-45144508D01*
X250049598Y-45164353D01*
X250049594Y-45164354D01*
X249936560Y-45221948D01*
X249936557Y-45221950D01*
X249846851Y-45311656D01*
X249846849Y-45311659D01*
X249789255Y-45424693D01*
X249789254Y-45424697D01*
X249769409Y-45549997D01*
X191575500Y-45549997D01*
X191575500Y-43509997D01*
X266394410Y-43509997D01*
X266394410Y-43510002D01*
X266414255Y-43635302D01*
X266414256Y-43635306D01*
X266471850Y-43748340D01*
X266471852Y-43748343D01*
X266561558Y-43838049D01*
X266561561Y-43838051D01*
X266674595Y-43895645D01*
X266674597Y-43895645D01*
X266674598Y-43895646D01*
X266716366Y-43902261D01*
X266799900Y-43915492D01*
X266799902Y-43915492D01*
X266799904Y-43915492D01*
X266862554Y-43905569D01*
X266925206Y-43895646D01*
X267038244Y-43838050D01*
X267127952Y-43748342D01*
X267185548Y-43635304D01*
X267205394Y-43510000D01*
X267205394Y-43509997D01*
X268294410Y-43509997D01*
X268294410Y-43510002D01*
X268314255Y-43635302D01*
X268314256Y-43635306D01*
X268371850Y-43748340D01*
X268371852Y-43748343D01*
X268461558Y-43838049D01*
X268461561Y-43838051D01*
X268574595Y-43895645D01*
X268574597Y-43895645D01*
X268574598Y-43895646D01*
X268616366Y-43902261D01*
X268699900Y-43915492D01*
X268699902Y-43915492D01*
X268699904Y-43915492D01*
X268762554Y-43905569D01*
X268825206Y-43895646D01*
X268938244Y-43838050D01*
X269027952Y-43748342D01*
X269085548Y-43635304D01*
X269105394Y-43510000D01*
X269085548Y-43384696D01*
X269085547Y-43384695D01*
X269085547Y-43384693D01*
X269027953Y-43271659D01*
X269027951Y-43271656D01*
X268938245Y-43181950D01*
X268938242Y-43181948D01*
X268825208Y-43124354D01*
X268825204Y-43124353D01*
X268699904Y-43104508D01*
X268699900Y-43104508D01*
X268574599Y-43124353D01*
X268574595Y-43124354D01*
X268461561Y-43181948D01*
X268461558Y-43181950D01*
X268371852Y-43271656D01*
X268371850Y-43271659D01*
X268314256Y-43384693D01*
X268314255Y-43384697D01*
X268294410Y-43509997D01*
X267205394Y-43509997D01*
X267185548Y-43384696D01*
X267185547Y-43384695D01*
X267185547Y-43384693D01*
X267127953Y-43271659D01*
X267127951Y-43271656D01*
X267038245Y-43181950D01*
X267038242Y-43181948D01*
X266925208Y-43124354D01*
X266925204Y-43124353D01*
X266799904Y-43104508D01*
X266799900Y-43104508D01*
X266674599Y-43124353D01*
X266674595Y-43124354D01*
X266561561Y-43181948D01*
X266561558Y-43181950D01*
X266471852Y-43271656D01*
X266471850Y-43271659D01*
X266414256Y-43384693D01*
X266414255Y-43384697D01*
X266394410Y-43509997D01*
X191575500Y-43509997D01*
X191575500Y-37070348D01*
X225790000Y-37070348D01*
X225790000Y-37229653D01*
X225831228Y-37383519D01*
X225831229Y-37383523D01*
X225910880Y-37521482D01*
X226023518Y-37634120D01*
X226023520Y-37634121D01*
X226023521Y-37634122D01*
X226161479Y-37713772D01*
X226315350Y-37755001D01*
X226315352Y-37755001D01*
X226474648Y-37755001D01*
X226474650Y-37755001D01*
X226628521Y-37713772D01*
X226766479Y-37634122D01*
X226879121Y-37521480D01*
X226958771Y-37383522D01*
X227000000Y-37229651D01*
X227000000Y-37070351D01*
X226958771Y-36916480D01*
X226879121Y-36778522D01*
X226879120Y-36778521D01*
X226879119Y-36778519D01*
X226766481Y-36665881D01*
X226756290Y-36659997D01*
X242439505Y-36659997D01*
X242439505Y-36660002D01*
X242459350Y-36785302D01*
X242459351Y-36785306D01*
X242516945Y-36898340D01*
X242516947Y-36898343D01*
X242606653Y-36988049D01*
X242606656Y-36988051D01*
X242719690Y-37045645D01*
X242719692Y-37045645D01*
X242719693Y-37045646D01*
X242761461Y-37052261D01*
X242844995Y-37065492D01*
X242844997Y-37065492D01*
X242844999Y-37065492D01*
X242907649Y-37055569D01*
X242970301Y-37045646D01*
X243083339Y-36988050D01*
X243173047Y-36898342D01*
X243230643Y-36785304D01*
X243250489Y-36660000D01*
X243230643Y-36534696D01*
X243230642Y-36534695D01*
X243230642Y-36534693D01*
X243173048Y-36421659D01*
X243173046Y-36421656D01*
X243083340Y-36331950D01*
X243083337Y-36331948D01*
X242970303Y-36274354D01*
X242970299Y-36274353D01*
X242844999Y-36254508D01*
X242844995Y-36254508D01*
X242719694Y-36274353D01*
X242719690Y-36274354D01*
X242606656Y-36331948D01*
X242606653Y-36331950D01*
X242516947Y-36421656D01*
X242516945Y-36421659D01*
X242459351Y-36534693D01*
X242459350Y-36534697D01*
X242439505Y-36659997D01*
X226756290Y-36659997D01*
X226628522Y-36586230D01*
X226628518Y-36586229D01*
X226474652Y-36545001D01*
X226474650Y-36545001D01*
X226315350Y-36545001D01*
X226315347Y-36545001D01*
X226161481Y-36586229D01*
X226161477Y-36586230D01*
X226023518Y-36665881D01*
X225910880Y-36778519D01*
X225831229Y-36916478D01*
X225831228Y-36916482D01*
X225790000Y-37070348D01*
X191575500Y-37070348D01*
X191575500Y-35079000D01*
X191593982Y-35028220D01*
X191640782Y-35001200D01*
X191654500Y-35000000D01*
X270095500Y-35000000D01*
X270146280Y-35018482D01*
G37*
%TD.AperFunction*%
%TD*%
%TA.AperFunction,Conductor*%
%TO.N,GND1*%
G36*
X197724382Y-106110584D02*
G01*
X197865706Y-106192178D01*
X197881032Y-106197756D01*
X198063101Y-106264024D01*
X198269970Y-106300500D01*
X198335118Y-106300500D01*
X198596000Y-106300500D01*
X198646780Y-106318982D01*
X198673800Y-106365782D01*
X198675000Y-106379500D01*
X198675000Y-110900001D01*
X203075000Y-110900001D01*
X203075000Y-109349997D01*
X206694512Y-109349997D01*
X206694512Y-109350002D01*
X206714357Y-109475302D01*
X206714358Y-109475306D01*
X206771952Y-109588340D01*
X206771954Y-109588343D01*
X206861660Y-109678049D01*
X206861663Y-109678051D01*
X206974697Y-109735645D01*
X206974699Y-109735645D01*
X206974700Y-109735646D01*
X207016468Y-109742261D01*
X207100002Y-109755492D01*
X207100004Y-109755492D01*
X207100006Y-109755492D01*
X207162656Y-109745569D01*
X207225308Y-109735646D01*
X207338346Y-109678050D01*
X207428054Y-109588342D01*
X207485650Y-109475304D01*
X207505496Y-109350000D01*
X207485650Y-109224696D01*
X207485649Y-109224695D01*
X207485649Y-109224693D01*
X207428055Y-109111659D01*
X207428053Y-109111656D01*
X207338347Y-109021950D01*
X207338344Y-109021948D01*
X207225310Y-108964354D01*
X207225306Y-108964353D01*
X207100006Y-108944508D01*
X207100002Y-108944508D01*
X206974701Y-108964353D01*
X206974697Y-108964354D01*
X206861663Y-109021948D01*
X206861660Y-109021950D01*
X206771954Y-109111656D01*
X206771952Y-109111659D01*
X206714358Y-109224693D01*
X206714357Y-109224697D01*
X206694512Y-109349997D01*
X203075000Y-109349997D01*
X203075000Y-106379500D01*
X203093482Y-106328720D01*
X203140282Y-106301700D01*
X203154000Y-106300500D01*
X222479930Y-106300500D01*
X222479932Y-106300500D01*
X222686801Y-106264023D01*
X222884193Y-106192178D01*
X223025518Y-106110584D01*
X223065018Y-106100000D01*
X225684781Y-106100000D01*
X225724281Y-106110584D01*
X225865606Y-106192178D01*
X225865607Y-106192178D01*
X225865610Y-106192180D01*
X226063003Y-106264024D01*
X226269872Y-106300500D01*
X226335020Y-106300500D01*
X226835019Y-106300500D01*
X226872512Y-106300500D01*
X226877281Y-106300643D01*
X227147314Y-106316978D01*
X227156768Y-106318126D01*
X227420510Y-106366458D01*
X227429763Y-106368738D01*
X227685759Y-106448510D01*
X227694667Y-106451888D01*
X227939180Y-106561935D01*
X227947609Y-106566359D01*
X228147765Y-106687358D01*
X228177074Y-106705076D01*
X228184925Y-106710495D01*
X228395996Y-106875858D01*
X228403136Y-106882185D01*
X228592719Y-107071768D01*
X228599045Y-107078908D01*
X228764401Y-107289968D01*
X228769819Y-107297817D01*
X228894665Y-107504338D01*
X228908535Y-107527281D01*
X228912968Y-107535728D01*
X229023008Y-107780227D01*
X229026391Y-107789147D01*
X229106159Y-108045132D01*
X229108442Y-108054395D01*
X229156772Y-108318124D01*
X229157922Y-108327594D01*
X229174258Y-108597650D01*
X229174402Y-108602420D01*
X229174402Y-119551849D01*
X229174302Y-119552866D01*
X229174302Y-119597609D01*
X229174158Y-119602379D01*
X229157824Y-119872404D01*
X229156674Y-119881874D01*
X229108344Y-120145604D01*
X229106061Y-120154867D01*
X229026293Y-120410852D01*
X229022910Y-120419772D01*
X228912870Y-120664271D01*
X228908437Y-120672718D01*
X228769726Y-120902174D01*
X228764307Y-120910025D01*
X228598944Y-121121096D01*
X228592617Y-121128236D01*
X228403038Y-121317815D01*
X228395898Y-121324142D01*
X228184827Y-121489505D01*
X228176976Y-121494924D01*
X227947520Y-121633636D01*
X227939073Y-121638069D01*
X227694574Y-121748109D01*
X227685654Y-121751492D01*
X227429669Y-121831260D01*
X227420406Y-121833543D01*
X227156677Y-121881874D01*
X227147207Y-121883024D01*
X226877216Y-121899356D01*
X226872446Y-121899500D01*
X193864164Y-121899500D01*
X193859394Y-121899356D01*
X193602595Y-121883822D01*
X193593125Y-121882672D01*
X193329395Y-121834342D01*
X193320132Y-121832059D01*
X193064148Y-121752291D01*
X193055228Y-121748908D01*
X192810729Y-121638868D01*
X192802282Y-121634435D01*
X192800960Y-121633636D01*
X192671676Y-121555481D01*
X192572826Y-121495724D01*
X192564975Y-121490305D01*
X192353904Y-121324942D01*
X192346764Y-121318615D01*
X192157185Y-121129036D01*
X192150858Y-121121896D01*
X191985495Y-120910825D01*
X191980076Y-120902974D01*
X191854751Y-120695662D01*
X191841359Y-120673509D01*
X191836936Y-120665080D01*
X191726888Y-120420566D01*
X191723508Y-120411652D01*
X191689793Y-120303458D01*
X191643738Y-120155663D01*
X191641457Y-120146405D01*
X191593126Y-119882667D01*
X191591978Y-119873213D01*
X191575644Y-119603180D01*
X191575548Y-119600000D01*
X191919519Y-119600000D01*
X191936855Y-119842395D01*
X191939423Y-119878293D01*
X191998730Y-120150923D01*
X192095976Y-120411652D01*
X192096232Y-120412337D01*
X192149982Y-120510773D01*
X192229946Y-120657214D01*
X192229950Y-120657220D01*
X192397144Y-120880565D01*
X192397154Y-120880577D01*
X192594423Y-121077846D01*
X192594429Y-121077851D01*
X192594433Y-121077855D01*
X192817788Y-121245056D01*
X193062664Y-121378769D01*
X193324078Y-121476271D01*
X193596707Y-121535578D01*
X193875001Y-121555482D01*
X194153295Y-121535578D01*
X194425924Y-121476271D01*
X194687338Y-121378769D01*
X194932214Y-121245056D01*
X195155569Y-121077855D01*
X195352856Y-120880568D01*
X195520057Y-120657213D01*
X195653770Y-120412337D01*
X195751272Y-120150923D01*
X195810579Y-119878294D01*
X195830483Y-119600000D01*
X195810579Y-119321706D01*
X195751272Y-119049077D01*
X195653770Y-118787663D01*
X195520057Y-118542787D01*
X195352856Y-118319432D01*
X195352852Y-118319428D01*
X195352847Y-118319422D01*
X195155578Y-118122153D01*
X195155572Y-118122148D01*
X195155569Y-118122145D01*
X194932214Y-117954944D01*
X194687338Y-117821231D01*
X194687335Y-117821230D01*
X194687336Y-117821230D01*
X194425924Y-117723729D01*
X194425925Y-117723729D01*
X194289609Y-117694075D01*
X194153295Y-117664422D01*
X193875001Y-117644518D01*
X193596707Y-117664422D01*
X193324077Y-117723729D01*
X193062665Y-117821230D01*
X192817786Y-117954945D01*
X192817780Y-117954949D01*
X192594435Y-118122143D01*
X192594423Y-118122153D01*
X192397154Y-118319422D01*
X192397144Y-118319434D01*
X192229950Y-118542779D01*
X192229946Y-118542785D01*
X192096231Y-118787664D01*
X192055622Y-118896542D01*
X191998730Y-119049077D01*
X191939423Y-119321706D01*
X191919519Y-119600000D01*
X191575548Y-119600000D01*
X191575500Y-119598410D01*
X191575500Y-114100000D01*
X195419519Y-114100000D01*
X195436855Y-114342395D01*
X195439423Y-114378293D01*
X195498730Y-114650923D01*
X195586071Y-114885096D01*
X195596232Y-114912337D01*
X195723865Y-115146079D01*
X195729946Y-115157214D01*
X195729950Y-115157220D01*
X195897144Y-115380565D01*
X195897154Y-115380577D01*
X196094423Y-115577846D01*
X196094429Y-115577851D01*
X196094433Y-115577855D01*
X196317788Y-115745056D01*
X196562664Y-115878769D01*
X196824078Y-115976271D01*
X197096707Y-116035578D01*
X197375001Y-116055482D01*
X197653295Y-116035578D01*
X197925924Y-115976271D01*
X198187338Y-115878769D01*
X198432214Y-115745056D01*
X198655569Y-115577855D01*
X198733426Y-115499998D01*
X200544511Y-115499998D01*
X200544511Y-115500003D01*
X200564356Y-115625303D01*
X200564357Y-115625307D01*
X200621951Y-115738341D01*
X200621953Y-115738344D01*
X200711659Y-115828050D01*
X200711662Y-115828052D01*
X200824696Y-115885646D01*
X200824698Y-115885646D01*
X200824699Y-115885647D01*
X200866467Y-115892262D01*
X200950001Y-115905493D01*
X200950003Y-115905493D01*
X200950005Y-115905493D01*
X201012655Y-115895570D01*
X201075307Y-115885647D01*
X201188345Y-115828051D01*
X201278053Y-115738343D01*
X201335649Y-115625305D01*
X201355495Y-115500001D01*
X201349999Y-115465303D01*
X201335649Y-115374698D01*
X201335648Y-115374694D01*
X201278054Y-115261660D01*
X201278052Y-115261657D01*
X201188346Y-115171951D01*
X201188343Y-115171949D01*
X201075309Y-115114355D01*
X201075305Y-115114354D01*
X200984668Y-115099999D01*
X210609761Y-115099999D01*
X210609761Y-115100002D01*
X210628669Y-115279895D01*
X210628671Y-115279904D01*
X210684562Y-115451918D01*
X210684565Y-115451926D01*
X210775007Y-115608576D01*
X210896042Y-115743000D01*
X210896043Y-115743001D01*
X210896045Y-115743003D01*
X211042375Y-115849317D01*
X211042381Y-115849321D01*
X211207627Y-115922893D01*
X211384559Y-115960501D01*
X211384563Y-115960501D01*
X211565439Y-115960501D01*
X211565443Y-115960501D01*
X211742375Y-115922893D01*
X211907621Y-115849321D01*
X212051133Y-115745054D01*
X212053956Y-115743003D01*
X212053956Y-115743002D01*
X212053960Y-115743000D01*
X212174995Y-115608576D01*
X212265437Y-115451926D01*
X212321333Y-115279895D01*
X212340241Y-115100001D01*
X212340241Y-115099999D01*
X212609761Y-115099999D01*
X212609761Y-115100002D01*
X212628669Y-115279895D01*
X212628671Y-115279904D01*
X212684562Y-115451918D01*
X212684565Y-115451926D01*
X212775007Y-115608576D01*
X212896042Y-115743000D01*
X212896043Y-115743001D01*
X212896045Y-115743003D01*
X213042375Y-115849317D01*
X213042381Y-115849321D01*
X213207627Y-115922893D01*
X213384559Y-115960501D01*
X213384563Y-115960501D01*
X213565439Y-115960501D01*
X213565443Y-115960501D01*
X213742375Y-115922893D01*
X213907621Y-115849321D01*
X214051133Y-115745054D01*
X214053956Y-115743003D01*
X214053956Y-115743002D01*
X214053960Y-115743000D01*
X214174995Y-115608576D01*
X214265437Y-115451926D01*
X214321333Y-115279895D01*
X214340241Y-115100001D01*
X214321333Y-114920107D01*
X214318808Y-114912337D01*
X214265439Y-114748083D01*
X214265437Y-114748076D01*
X214174995Y-114591426D01*
X214053960Y-114457002D01*
X214053957Y-114457000D01*
X214053956Y-114456998D01*
X213907626Y-114350684D01*
X213907623Y-114350682D01*
X213907621Y-114350681D01*
X213807906Y-114306285D01*
X213742378Y-114277110D01*
X213742373Y-114277108D01*
X213670998Y-114261937D01*
X213565443Y-114239501D01*
X213384559Y-114239501D01*
X213305392Y-114256328D01*
X213207628Y-114277108D01*
X213207623Y-114277110D01*
X213042385Y-114350679D01*
X213042375Y-114350684D01*
X212896045Y-114456998D01*
X212896042Y-114457002D01*
X212775006Y-114591426D01*
X212684565Y-114748076D01*
X212684562Y-114748083D01*
X212628671Y-114920097D01*
X212628669Y-114920106D01*
X212609761Y-115099999D01*
X212340241Y-115099999D01*
X212321333Y-114920107D01*
X212318808Y-114912337D01*
X212265439Y-114748083D01*
X212265437Y-114748076D01*
X212174995Y-114591426D01*
X212053960Y-114457002D01*
X212053957Y-114457000D01*
X212053956Y-114456998D01*
X211907626Y-114350684D01*
X211907623Y-114350682D01*
X211907621Y-114350681D01*
X211807906Y-114306285D01*
X211742378Y-114277110D01*
X211742373Y-114277108D01*
X211670998Y-114261937D01*
X211565443Y-114239501D01*
X211384559Y-114239501D01*
X211305392Y-114256328D01*
X211207628Y-114277108D01*
X211207623Y-114277110D01*
X211042385Y-114350679D01*
X211042375Y-114350684D01*
X210896045Y-114456998D01*
X210896042Y-114457002D01*
X210775006Y-114591426D01*
X210684565Y-114748076D01*
X210684562Y-114748083D01*
X210628671Y-114920097D01*
X210628669Y-114920106D01*
X210609761Y-115099999D01*
X200984668Y-115099999D01*
X200950005Y-115094509D01*
X200950001Y-115094509D01*
X200824700Y-115114354D01*
X200824696Y-115114355D01*
X200711662Y-115171949D01*
X200711659Y-115171951D01*
X200621953Y-115261657D01*
X200621951Y-115261660D01*
X200564357Y-115374694D01*
X200564356Y-115374698D01*
X200544511Y-115499998D01*
X198733426Y-115499998D01*
X198852856Y-115380568D01*
X199020057Y-115157213D01*
X199153770Y-114912337D01*
X199251272Y-114650923D01*
X199310579Y-114378294D01*
X199330483Y-114100000D01*
X199310579Y-113821706D01*
X199251272Y-113549077D01*
X199153770Y-113287663D01*
X199051297Y-113099999D01*
X210609761Y-113099999D01*
X210609761Y-113100002D01*
X210628669Y-113279895D01*
X210628671Y-113279904D01*
X210684562Y-113451918D01*
X210684565Y-113451926D01*
X210736781Y-113542367D01*
X210763323Y-113588340D01*
X210775007Y-113608576D01*
X210896042Y-113743000D01*
X210896043Y-113743001D01*
X210896045Y-113743003D01*
X211042375Y-113849317D01*
X211042381Y-113849321D01*
X211207627Y-113922893D01*
X211384559Y-113960501D01*
X211384563Y-113960501D01*
X211565439Y-113960501D01*
X211565443Y-113960501D01*
X211742375Y-113922893D01*
X211907621Y-113849321D01*
X212053960Y-113743000D01*
X212174995Y-113608576D01*
X212265437Y-113451926D01*
X212321333Y-113279895D01*
X212340241Y-113100001D01*
X212340241Y-113099999D01*
X212609761Y-113099999D01*
X212609761Y-113100002D01*
X212628669Y-113279895D01*
X212628671Y-113279904D01*
X212684562Y-113451918D01*
X212684565Y-113451926D01*
X212736781Y-113542367D01*
X212763323Y-113588340D01*
X212775007Y-113608576D01*
X212896042Y-113743000D01*
X212896043Y-113743001D01*
X212896045Y-113743003D01*
X213042375Y-113849317D01*
X213042381Y-113849321D01*
X213207627Y-113922893D01*
X213384559Y-113960501D01*
X213384563Y-113960501D01*
X213565439Y-113960501D01*
X213565443Y-113960501D01*
X213742375Y-113922893D01*
X213907621Y-113849321D01*
X214053960Y-113743000D01*
X214174995Y-113608576D01*
X214265437Y-113451926D01*
X214321333Y-113279895D01*
X214340241Y-113100001D01*
X214327103Y-112975001D01*
X214532716Y-112975001D01*
X215146148Y-112975001D01*
X215125001Y-113053923D01*
X215125001Y-113146079D01*
X215146148Y-113225001D01*
X214532716Y-113225001D01*
X214538746Y-113286237D01*
X214538747Y-113286240D01*
X214593065Y-113465303D01*
X214593067Y-113465306D01*
X214681285Y-113630349D01*
X214799998Y-113775003D01*
X214944652Y-113893716D01*
X215109695Y-113981934D01*
X215109699Y-113981936D01*
X215249692Y-114024403D01*
X215292920Y-114056830D01*
X215305191Y-114109458D01*
X215280763Y-114157660D01*
X215249692Y-114175599D01*
X215109699Y-114218065D01*
X215109695Y-114218067D01*
X214944652Y-114306285D01*
X214799998Y-114424998D01*
X214681285Y-114569652D01*
X214593067Y-114734695D01*
X214593065Y-114734698D01*
X214538747Y-114913761D01*
X214538746Y-114913764D01*
X214532716Y-114975001D01*
X215146148Y-114975001D01*
X215125001Y-115053923D01*
X215125001Y-115146079D01*
X215146148Y-115225001D01*
X214532716Y-115225001D01*
X214538746Y-115286237D01*
X214538747Y-115286240D01*
X214593065Y-115465303D01*
X214593067Y-115465306D01*
X214681285Y-115630349D01*
X214799998Y-115775003D01*
X214944652Y-115893716D01*
X215109695Y-115981934D01*
X215109701Y-115981937D01*
X215288759Y-116036253D01*
X215288766Y-116036255D01*
X215350000Y-116042285D01*
X215350001Y-116042285D01*
X215350001Y-115428853D01*
X215428923Y-115450001D01*
X215521079Y-115450001D01*
X215600001Y-115428853D01*
X215600001Y-116042285D01*
X215661235Y-116036255D01*
X215661242Y-116036253D01*
X215840300Y-115981937D01*
X215840306Y-115981934D01*
X216005349Y-115893716D01*
X216150003Y-115775003D01*
X216268716Y-115630349D01*
X216356934Y-115465306D01*
X216356936Y-115465303D01*
X216411254Y-115286240D01*
X216411255Y-115286237D01*
X216417286Y-115225001D01*
X215803854Y-115225001D01*
X215825001Y-115146079D01*
X215825001Y-115099999D01*
X216609761Y-115099999D01*
X216609761Y-115100002D01*
X216628669Y-115279895D01*
X216628671Y-115279904D01*
X216684562Y-115451918D01*
X216684565Y-115451926D01*
X216775007Y-115608576D01*
X216896042Y-115743000D01*
X216896043Y-115743001D01*
X216896045Y-115743003D01*
X217042375Y-115849317D01*
X217042381Y-115849321D01*
X217207627Y-115922893D01*
X217384559Y-115960501D01*
X217384563Y-115960501D01*
X217565439Y-115960501D01*
X217565443Y-115960501D01*
X217742375Y-115922893D01*
X217907621Y-115849321D01*
X218051133Y-115745054D01*
X218053956Y-115743003D01*
X218053956Y-115743002D01*
X218053960Y-115743000D01*
X218174995Y-115608576D01*
X218265437Y-115451926D01*
X218321333Y-115279895D01*
X218340241Y-115100001D01*
X218321333Y-114920107D01*
X218318808Y-114912337D01*
X218265439Y-114748083D01*
X218265437Y-114748076D01*
X218174995Y-114591426D01*
X218053960Y-114457002D01*
X218053957Y-114457000D01*
X218053956Y-114456998D01*
X217907626Y-114350684D01*
X217907623Y-114350682D01*
X217907621Y-114350681D01*
X217807906Y-114306285D01*
X217742378Y-114277110D01*
X217742373Y-114277108D01*
X217670998Y-114261937D01*
X217565443Y-114239501D01*
X217384559Y-114239501D01*
X217305392Y-114256328D01*
X217207628Y-114277108D01*
X217207623Y-114277110D01*
X217042385Y-114350679D01*
X217042375Y-114350684D01*
X216896045Y-114456998D01*
X216896042Y-114457002D01*
X216775006Y-114591426D01*
X216684565Y-114748076D01*
X216684562Y-114748083D01*
X216628671Y-114920097D01*
X216628669Y-114920106D01*
X216609761Y-115099999D01*
X215825001Y-115099999D01*
X215825001Y-115053923D01*
X215803854Y-114975001D01*
X216417286Y-114975001D01*
X216411255Y-114913764D01*
X216411254Y-114913761D01*
X216356936Y-114734698D01*
X216356934Y-114734695D01*
X216268716Y-114569652D01*
X216150003Y-114424998D01*
X216005349Y-114306285D01*
X215840306Y-114218067D01*
X215840303Y-114218065D01*
X215700309Y-114175599D01*
X215657081Y-114143172D01*
X215644810Y-114090544D01*
X215669238Y-114042342D01*
X215700309Y-114024403D01*
X215840303Y-113981936D01*
X215840306Y-113981934D01*
X216005349Y-113893716D01*
X216150003Y-113775003D01*
X216268716Y-113630349D01*
X216356934Y-113465306D01*
X216356936Y-113465303D01*
X216411254Y-113286240D01*
X216411255Y-113286237D01*
X216417286Y-113225001D01*
X215803854Y-113225001D01*
X215825001Y-113146079D01*
X215825001Y-113099999D01*
X216609761Y-113099999D01*
X216609761Y-113100002D01*
X216628669Y-113279895D01*
X216628671Y-113279904D01*
X216684562Y-113451918D01*
X216684565Y-113451926D01*
X216736781Y-113542367D01*
X216763323Y-113588340D01*
X216775007Y-113608576D01*
X216896042Y-113743000D01*
X216896043Y-113743001D01*
X216896045Y-113743003D01*
X217042375Y-113849317D01*
X217042381Y-113849321D01*
X217207627Y-113922893D01*
X217384559Y-113960501D01*
X217384563Y-113960501D01*
X217565439Y-113960501D01*
X217565443Y-113960501D01*
X217742375Y-113922893D01*
X217907621Y-113849321D01*
X218053960Y-113743000D01*
X218174995Y-113608576D01*
X218265437Y-113451926D01*
X218298556Y-113349997D01*
X221019510Y-113349997D01*
X221019510Y-113350002D01*
X221039355Y-113475302D01*
X221039356Y-113475306D01*
X221096950Y-113588340D01*
X221096952Y-113588343D01*
X221186658Y-113678049D01*
X221186661Y-113678051D01*
X221299695Y-113735645D01*
X221299697Y-113735645D01*
X221299698Y-113735646D01*
X221341466Y-113742261D01*
X221425000Y-113755492D01*
X221425002Y-113755492D01*
X221425004Y-113755492D01*
X221503874Y-113743000D01*
X221550306Y-113735646D01*
X221663344Y-113678050D01*
X221753052Y-113588342D01*
X221810648Y-113475304D01*
X221830494Y-113350000D01*
X221810648Y-113224696D01*
X221810647Y-113224695D01*
X221810647Y-113224693D01*
X221753053Y-113111659D01*
X221753051Y-113111656D01*
X221663345Y-113021950D01*
X221663342Y-113021948D01*
X221550308Y-112964354D01*
X221550304Y-112964353D01*
X221425004Y-112944508D01*
X221425000Y-112944508D01*
X221299699Y-112964353D01*
X221299695Y-112964354D01*
X221186661Y-113021948D01*
X221186658Y-113021950D01*
X221096952Y-113111656D01*
X221096950Y-113111659D01*
X221039356Y-113224693D01*
X221039355Y-113224697D01*
X221019510Y-113349997D01*
X218298556Y-113349997D01*
X218321333Y-113279895D01*
X218340241Y-113100001D01*
X218321333Y-112920107D01*
X218265437Y-112748076D01*
X218174995Y-112591426D01*
X218053960Y-112457002D01*
X218053957Y-112457000D01*
X218053956Y-112456998D01*
X217907626Y-112350684D01*
X217907623Y-112350682D01*
X217907621Y-112350681D01*
X217807906Y-112306285D01*
X217742378Y-112277110D01*
X217742373Y-112277108D01*
X217670998Y-112261937D01*
X217565443Y-112239501D01*
X217384559Y-112239501D01*
X217305392Y-112256328D01*
X217207628Y-112277108D01*
X217207623Y-112277110D01*
X217042385Y-112350679D01*
X217042375Y-112350684D01*
X216896045Y-112456998D01*
X216896042Y-112457002D01*
X216775006Y-112591426D01*
X216684565Y-112748076D01*
X216684562Y-112748083D01*
X216628671Y-112920097D01*
X216628669Y-112920106D01*
X216609761Y-113099999D01*
X215825001Y-113099999D01*
X215825001Y-113053923D01*
X215803854Y-112975001D01*
X216417286Y-112975001D01*
X216411255Y-112913764D01*
X216411254Y-112913761D01*
X216356936Y-112734698D01*
X216356934Y-112734695D01*
X216268716Y-112569652D01*
X216150003Y-112424998D01*
X216005349Y-112306285D01*
X215840306Y-112218067D01*
X215840303Y-112218065D01*
X215661240Y-112163747D01*
X215661237Y-112163746D01*
X215600001Y-112157715D01*
X215600001Y-112771148D01*
X215521079Y-112750001D01*
X215428923Y-112750001D01*
X215350001Y-112771148D01*
X215350001Y-112157715D01*
X215288764Y-112163746D01*
X215288761Y-112163747D01*
X215109698Y-112218065D01*
X215109695Y-112218067D01*
X214944652Y-112306285D01*
X214799998Y-112424998D01*
X214681285Y-112569652D01*
X214593067Y-112734695D01*
X214593065Y-112734698D01*
X214538747Y-112913761D01*
X214538746Y-112913764D01*
X214532716Y-112975001D01*
X214327103Y-112975001D01*
X214321333Y-112920107D01*
X214265437Y-112748076D01*
X214174995Y-112591426D01*
X214053960Y-112457002D01*
X214053957Y-112457000D01*
X214053956Y-112456998D01*
X213907626Y-112350684D01*
X213907623Y-112350682D01*
X213907621Y-112350681D01*
X213807906Y-112306285D01*
X213742378Y-112277110D01*
X213742373Y-112277108D01*
X213670998Y-112261937D01*
X213565443Y-112239501D01*
X213384559Y-112239501D01*
X213305392Y-112256328D01*
X213207628Y-112277108D01*
X213207623Y-112277110D01*
X213042385Y-112350679D01*
X213042375Y-112350684D01*
X212896045Y-112456998D01*
X212896042Y-112457002D01*
X212775006Y-112591426D01*
X212684565Y-112748076D01*
X212684562Y-112748083D01*
X212628671Y-112920097D01*
X212628669Y-112920106D01*
X212609761Y-113099999D01*
X212340241Y-113099999D01*
X212321333Y-112920107D01*
X212265437Y-112748076D01*
X212174995Y-112591426D01*
X212053960Y-112457002D01*
X212053957Y-112457000D01*
X212053956Y-112456998D01*
X211907626Y-112350684D01*
X211907623Y-112350682D01*
X211907621Y-112350681D01*
X211807906Y-112306285D01*
X211742378Y-112277110D01*
X211742373Y-112277108D01*
X211670998Y-112261937D01*
X211565443Y-112239501D01*
X211384559Y-112239501D01*
X211305392Y-112256328D01*
X211207628Y-112277108D01*
X211207623Y-112277110D01*
X211042385Y-112350679D01*
X211042375Y-112350684D01*
X210896045Y-112456998D01*
X210896042Y-112457002D01*
X210775006Y-112591426D01*
X210684565Y-112748076D01*
X210684562Y-112748083D01*
X210628671Y-112920097D01*
X210628669Y-112920106D01*
X210609761Y-113099999D01*
X199051297Y-113099999D01*
X199020057Y-113042787D01*
X198852856Y-112819432D01*
X198852852Y-112819428D01*
X198852847Y-112819422D01*
X198655578Y-112622153D01*
X198655572Y-112622148D01*
X198655569Y-112622145D01*
X198432214Y-112454944D01*
X198187338Y-112321231D01*
X198187335Y-112321230D01*
X198187336Y-112321230D01*
X197925924Y-112223729D01*
X197925925Y-112223729D01*
X197789609Y-112194075D01*
X197653295Y-112164422D01*
X197375001Y-112144518D01*
X197096707Y-112164422D01*
X196824077Y-112223729D01*
X196562665Y-112321230D01*
X196317786Y-112454945D01*
X196317780Y-112454949D01*
X196094435Y-112622143D01*
X196094423Y-112622153D01*
X195897154Y-112819422D01*
X195897144Y-112819434D01*
X195729950Y-113042779D01*
X195729946Y-113042785D01*
X195596231Y-113287664D01*
X195498730Y-113549076D01*
X195470673Y-113678051D01*
X195439423Y-113821706D01*
X195419519Y-114100000D01*
X191575500Y-114100000D01*
X191575500Y-108602389D01*
X191575572Y-108600000D01*
X191919518Y-108600000D01*
X191936854Y-108842395D01*
X191939422Y-108878293D01*
X191998729Y-109150923D01*
X192072980Y-109350000D01*
X192096231Y-109412337D01*
X192192337Y-109588342D01*
X192229945Y-109657214D01*
X192229949Y-109657220D01*
X192397143Y-109880565D01*
X192397153Y-109880577D01*
X192594422Y-110077846D01*
X192594428Y-110077851D01*
X192594432Y-110077855D01*
X192817787Y-110245056D01*
X193062663Y-110378769D01*
X193324077Y-110476271D01*
X193596706Y-110535578D01*
X193875000Y-110555482D01*
X194153294Y-110535578D01*
X194425923Y-110476271D01*
X194687337Y-110378769D01*
X194932213Y-110245056D01*
X195155568Y-110077855D01*
X195352855Y-109880568D01*
X195520056Y-109657213D01*
X195653769Y-109412337D01*
X195751271Y-109150923D01*
X195810578Y-108878294D01*
X195830482Y-108600000D01*
X195810578Y-108321706D01*
X195751271Y-108049077D01*
X195653769Y-107787663D01*
X195520056Y-107542787D01*
X195352855Y-107319432D01*
X195352851Y-107319428D01*
X195352846Y-107319422D01*
X195155577Y-107122153D01*
X195155571Y-107122148D01*
X195155568Y-107122145D01*
X194932213Y-106954944D01*
X194687337Y-106821231D01*
X194687334Y-106821230D01*
X194687335Y-106821230D01*
X194425923Y-106723729D01*
X194425924Y-106723729D01*
X194289608Y-106694075D01*
X194153294Y-106664422D01*
X193875000Y-106644518D01*
X193596706Y-106664422D01*
X193324076Y-106723729D01*
X193062664Y-106821230D01*
X192817785Y-106954945D01*
X192817779Y-106954949D01*
X192594434Y-107122143D01*
X192594422Y-107122153D01*
X192397153Y-107319422D01*
X192397143Y-107319434D01*
X192229949Y-107542779D01*
X192229945Y-107542785D01*
X192096230Y-107787664D01*
X192055621Y-107896542D01*
X191998729Y-108049077D01*
X191939422Y-108321706D01*
X191919518Y-108600000D01*
X191575572Y-108600000D01*
X191575644Y-108597619D01*
X191577913Y-108560113D01*
X191591978Y-108327584D01*
X191593125Y-108318134D01*
X191641459Y-108054386D01*
X191643737Y-108045140D01*
X191723512Y-107789136D01*
X191726886Y-107780238D01*
X191836939Y-107535712D01*
X191841355Y-107527297D01*
X191980080Y-107297819D01*
X191985490Y-107289979D01*
X192150866Y-107078893D01*
X192157181Y-107071768D01*
X192346771Y-106882177D01*
X192353893Y-106875866D01*
X192564979Y-106710490D01*
X192572819Y-106705080D01*
X192802297Y-106566355D01*
X192810712Y-106561939D01*
X193055238Y-106451886D01*
X193064136Y-106448512D01*
X193320140Y-106368737D01*
X193329386Y-106366459D01*
X193593134Y-106318125D01*
X193602584Y-106316978D01*
X193872619Y-106300643D01*
X193877389Y-106300500D01*
X194480026Y-106300500D01*
X194480030Y-106300500D01*
X194686899Y-106264024D01*
X194884291Y-106192179D01*
X194884295Y-106192177D01*
X195025618Y-106110584D01*
X195065118Y-106100000D01*
X197684882Y-106100000D01*
X197724382Y-106110584D01*
G37*
%TD.AperFunction*%
%TD*%
M02*
