M48
; DRILL file {KiCad 8.0.2} date 2024-05-31T14:04:39+0700
; FORMAT={-:-/ absolute / inch / decimal}
; #@! TF.CreationDate,2024-05-31T14:04:39+07:00
; #@! TF.GenerationSoftware,Kicad,Pcbnew,8.0.2
; #@! TF.FileFunction,Plated,1,4,PTH
FMAT,2
INCH
; #@! TA.AperFunction,Plated,PTH,ViaDrill
T1C0.0118
; #@! TA.AperFunction,Plated,PTH,ComponentDrill
T2C0.0236
; #@! TA.AperFunction,Plated,PTH,ComponentDrill
T3C0.0276
; #@! TA.AperFunction,Plated,PTH,ComponentDrill
T4C0.0354
; #@! TA.AperFunction,Plated,PTH,ComponentDrill
T5C0.0394
%
G90
G05
T1
X7.564Y-3.1801
X7.5817Y-3.2657
X7.5817Y-3.4232
X7.5876Y-2.7293
X7.6053Y-1.3917
X7.6053Y-1.5886
X7.6053Y-1.7854
X7.6053Y-1.9823
X7.6053Y-2.1791
X7.6053Y-2.376
X7.6329Y-4.3839
X7.6329Y-4.4823
X7.6329Y-4.6004
X7.6378Y-3.1067
X7.6506Y-2.7293
X7.6604Y-3.3051
X7.6604Y-3.3839
X7.7008Y-3.0437
X7.7077Y-3.7012
X7.7096Y-3.5394
X7.7096Y-3.5787
X7.7096Y-3.8819
X7.7333Y-3.8563
X7.7529Y-3.7047
X7.7549Y-2.4685
X7.7569Y-3.8346
X7.7589Y-3.2717
X7.7707Y-4.2854
X7.7707Y-4.3839
X7.7707Y-4.6004
X7.7746Y-3.6752
X7.7825Y-3.5197
X7.7825Y-3.5984
X7.7904Y-3.4409
X7.7933Y-3.1815
X7.7982Y-3.2717
X7.8022Y-1.3917
X7.8022Y-1.5886
X7.8022Y-1.7854
X7.8022Y-1.9823
X7.8022Y-2.1791
X7.8022Y-2.376
X7.8218Y-3.4409
X7.8218Y-3.5591
X7.8218Y-3.6752
X7.8465Y-2.6004
X7.8533Y-3.4409
X7.8612Y-3.5197
X7.8612Y-3.5984
X7.8691Y-4.3839
X7.9114Y-4.5472
X7.9173Y-2.6014
X7.9173Y-2.6693
X7.9488Y-2.7776
X7.9488Y-2.8563
X7.9675Y-4.3839
X7.9774Y-2.624
X7.9823Y-4.747
X7.999Y-1.3917
X7.999Y-1.5886
X7.999Y-1.7854
X7.999Y-1.9823
X7.999Y-2.1791
X7.999Y-2.376
X8.0079Y-2.7776
X8.0079Y-3.1437
X8.0079Y-3.3957
X8.0167Y-2.624
X8.0463Y-4.4823
X8.0463Y-4.6004
X8.0522Y-2.4646
X8.0522Y-2.5059
X8.0522Y-2.5492
X8.0561Y-2.6634
X8.0561Y-2.7028
X8.0561Y-2.7421
X8.0738Y-3.5394
X8.0807Y-4.747
X8.0974Y-1.3917
X8.1535Y-4.3051
X8.1644Y-4.2461
X8.1644Y-4.3839
X8.1644Y-4.4823
X8.1644Y-4.6004
X8.1791Y-4.747
X8.1959Y-1.3917
X8.1959Y-1.5886
X8.1959Y-1.7854
X8.1959Y-1.9823
X8.1959Y-2.1791
X8.1998Y-3.2693
X8.2451Y-2.6634
X8.2451Y-2.7028
X8.2451Y-2.7421
X8.2628Y-4.2461
X8.2776Y-4.747
X8.2825Y-4.3445
X8.2943Y-1.3917
X8.3022Y-4.6004
X8.3376Y-3.1315
X8.3612Y-4.2461
X8.376Y-4.747
X8.3907Y-2.6098
X8.3927Y-1.3917
X8.3927Y-1.5886
X8.3927Y-1.7854
X8.3927Y-1.9823
X8.3927Y-2.1791
X8.3927Y-2.376
X8.3967Y-3.3087
X8.3967Y-3.3874
X8.4203Y-4.248
X8.4203Y-4.2874
X8.4203Y-4.3268
X8.4301Y-2.6098
X8.436Y-3.2693
X8.436Y-3.4268
X8.4695Y-2.6098
X8.4744Y-4.747
X8.4911Y-1.3917
X8.4919Y-3.6673
X8.5148Y-3.2693
X8.5148Y-3.4268
X8.5305Y-4.248
X8.5305Y-4.2874
X8.5305Y-4.3268
X8.5598Y-3.7933
X8.5728Y-4.747
X8.5896Y-1.3917
X8.5896Y-1.5886
X8.5896Y-1.7854
X8.5896Y-1.9823
X8.5896Y-2.1791
X8.5896Y-2.376
X8.6014Y-3.0512
X8.6348Y-2.9169
X8.6713Y-4.747
X8.6762Y-4.6201
X8.688Y-1.3917
X8.7175Y-4.4626
X8.7333Y-2.9169
X8.7549Y-4.2461
X8.7697Y-4.747
X8.7864Y-1.3917
X8.7864Y-1.9823
X8.7864Y-2.1791
X8.7864Y-2.376
X8.7931Y-1.5886
X8.7931Y-1.7839
X8.7943Y-3.1043
X8.7943Y-3.1437
X8.7943Y-3.1831
X8.7943Y-3.2224
X8.7943Y-3.2618
X8.7943Y-3.3012
X8.7943Y-3.3406
X8.7943Y-3.3799
X8.7943Y-3.4193
X8.7943Y-3.4587
X8.7943Y-3.498
X8.7943Y-3.5374
X8.7943Y-3.5768
X8.7943Y-3.6161
X8.8317Y-2.9169
X8.8533Y-4.2461
X8.8681Y-4.747
X8.8848Y-1.3917
X8.9144Y-2.85
X8.9301Y-2.9169
X8.9813Y-4.3622
X8.9813Y-4.4606
X8.9813Y-4.5591
X8.9813Y-4.6575
X8.9833Y-1.3917
X8.9833Y-1.7854
X8.9833Y-1.9823
X8.9833Y-2.1791
X8.9833Y-2.376
X9.0108Y-3.065
X9.0108Y-3.6555
X9.0285Y-2.9169
X9.0502Y-3.065
X9.0502Y-3.6555
X9.0719Y-2.7772
X9.0719Y-2.8087
X9.0896Y-3.065
X9.0896Y-3.6555
X9.1081Y-1.9866
X9.1081Y-2.1323
X9.1081Y-2.278
X9.1081Y-2.5693
X9.127Y-2.9169
X9.1289Y-3.065
X9.1289Y-3.6555
X9.1604Y-1.3917
X9.1683Y-3.065
X9.1683Y-3.6555
X9.1778Y-1.7831
X9.2104Y-2.2681
X9.2104Y-2.4138
X9.2104Y-2.5594
X9.2478Y-2.0053
X9.2478Y-2.151
X9.2589Y-1.3917
X9.2734Y-2.4138
X9.3364Y-2.4974
X9.3573Y-1.3917
X9.3652Y-3.1043
X9.3797Y-1.9374
X9.3797Y-1.9768
X9.3797Y-2.0161
X9.3848Y-3.1437
X9.3848Y-3.1831
X9.3848Y-3.2224
X9.3848Y-3.2618
X9.3848Y-3.3012
X9.3848Y-3.3406
X9.3848Y-3.3799
X9.3848Y-3.4193
X9.3848Y-3.4587
X9.3848Y-3.498
X9.3848Y-3.5374
X9.3848Y-3.5768
X9.3848Y-3.6161
X9.3876Y-2.1811
X9.3876Y-2.2205
X9.3876Y-2.2598
X9.4014Y-2.5122
X9.4407Y-2.7209
X9.485Y-4.0709
X9.485Y-1.6618
X9.485Y-1.4728
X9.485Y-1.5358
X9.485Y-1.5988
X9.4939Y-1.776
X9.5049Y-3.5984
X9.5049Y-3.6299
X9.5195Y-1.8626
X9.5451Y-2.6992
X9.5541Y-1.3917
X9.5608Y-1.4433
X9.5766Y-2.778
X9.5835Y-4.0709
X9.6211Y-1.5886
X9.6211Y-1.7854
X9.6211Y-1.9823
X9.6211Y-2.2776
X9.6396Y-2.778
X9.6526Y-1.3917
X9.6793Y-3.2835
X9.6819Y-3.874
X9.6819Y-4.0709
X9.7026Y-2.7189
X9.7108Y-3.2835
X9.7195Y-2.1791
X9.7195Y-2.376
X9.7226Y-3.3465
X9.7226Y-3.435
X9.7392Y-3.0787
X9.7423Y-3.2835
X9.749Y-2.0768
X9.749Y-2.124
X9.751Y-1.3917
X9.751Y-1.4862
X9.751Y-1.6831
X9.7803Y-3.874
X9.7803Y-4.0709
X9.8179Y-2.2776
X9.8455Y-3.1417
X9.8494Y-1.3917
X9.8494Y-1.4469
X9.8494Y-1.4862
X9.8494Y-1.5256
X9.8494Y-1.565
X9.8494Y-1.6043
X9.8494Y-1.6437
X9.8494Y-1.6831
X9.8494Y-1.7933
X9.873Y-1.7461
X9.8787Y-4.0709
X9.8797Y-2.8843
X9.8966Y-1.7697
X9.9112Y-2.6972
X9.9144Y-1.8169
X9.9163Y-2.376
X9.9181Y-3.6083
X9.9203Y-1.7461
X9.9301Y-1.8524
X9.9439Y-1.3917
X9.9439Y-1.4469
X9.9439Y-1.4862
X9.9439Y-1.5256
X9.9439Y-1.565
X9.9439Y-1.6043
X9.9439Y-1.6437
X9.9439Y-1.6831
X9.9518Y-3.3445
X9.9518Y-3.4134
X9.9518Y-3.4764
X9.9518Y-3.5394
X9.9772Y-3.874
X9.9772Y-4.0709
X10.0067Y-3.6083
X10.0148Y-1.8839
X10.0148Y-1.9823
X10.0344Y-3.0689
X10.0364Y-2.1201
X10.0404Y-3.3976
X10.0404Y-3.4567
X10.0404Y-3.5059
X10.0423Y-1.3917
X10.0423Y-1.4862
X10.0423Y-1.6831
X10.0659Y-3.0167
X10.0756Y-3.874
X10.0756Y-4.0709
X10.0858Y-2.2892
X10.0876Y-2.1201
X10.1073Y-3.6673
X10.1092Y-1.9823
X10.1132Y-2.376
X10.127Y-3.5827
X10.1289Y-2.0276
X10.1309Y-3.2598
X10.1309Y-3.2992
X10.1309Y-3.3386
X10.1309Y-3.4173
X10.1329Y-2.2697
X10.1407Y-1.3917
X10.1407Y-1.5846
X10.1407Y-1.6831
X10.1585Y-3.2795
X10.1585Y-3.3189
X10.174Y-4.0709
X10.1742Y-3.3465
X10.1821Y-3.5827
X10.2018Y-3.1535
X10.2037Y-1.8406
X10.2116Y-2.2776
X10.2116Y-2.376
X10.2116Y-2.5236
X10.2215Y-3.5827
X10.2274Y-1.8169
X10.2274Y-1.8642
X10.2372Y-3.3189
X10.2372Y-3.4173
X10.2392Y-1.4862
X10.2392Y-1.6831
X10.2724Y-4.0709
X10.2805Y-3.4862
X10.2864Y-3.0689
X10.2904Y-1.7933
X10.2904Y-1.8878
X10.2963Y-3.2992
X10.3051Y-1.9823
X10.31Y-2.0807
X10.31Y-2.1791
X10.31Y-2.2776
X10.31Y-2.376
X10.3199Y-3.248
X10.3297Y-1.7933
X10.3297Y-1.8878
X10.333Y-1.6877
X10.3376Y-1.5846
X10.3494Y-3.0689
X10.3652Y-3.4173
X10.3691Y-1.7933
X10.3691Y-1.8878
X10.3709Y-4.0709
X10.3711Y-3.3189
X10.377Y-3.5728
X10.3789Y-3.1299
X10.3789Y-3.1614
X10.4085Y-1.7933
X10.4085Y-1.8878
X10.4085Y-1.9823
X10.4085Y-2.0807
X10.4085Y-2.1791
X10.4085Y-2.2776
X10.4085Y-2.376
X10.4085Y-2.4744
X10.4124Y-3.0689
X10.4201Y-3.6575
X10.436Y-1.4862
X10.436Y-1.6831
X10.4478Y-1.7933
X10.4478Y-1.8878
X10.4693Y-4.0709
X10.4872Y-1.7933
X10.4961Y-2.124
X10.4961Y-2.1634
X10.4961Y-2.3071
X10.501Y-2.622
X10.5039Y-1.713
X10.5087Y-3.815
X10.5097Y-3.7068
X10.5266Y-1.7933
X10.5344Y-2.622
X10.5413Y-1.9291
X10.5413Y-1.9665
X10.5413Y-3.9807
X10.5433Y-1.8878
X10.5531Y-2.4705
X10.5541Y-3.378
X10.5541Y-3.4409
X10.5659Y-1.7933
X10.5787Y-1.713
X10.5809Y-3.9449
X10.5827Y-3.1476
X10.5945Y-2.0453
X10.5945Y-2.0846
X10.5945Y-2.124
X10.5945Y-2.1634
X10.5945Y-2.3071
X10.5955Y-1.8228
X10.6169Y-3.815
X10.622Y-2.5906
X10.622Y-2.689
X10.622Y-2.7874
X10.622Y-2.9843
X10.622Y-3.0827
X10.622Y-3.1811
X10.622Y-3.2795
X10.622Y-3.378
X10.622Y-3.4764
X10.622Y-3.5748
T2
X10.2258Y-2.6364
X10.2258Y-2.6864
X10.2758Y-2.6364
X10.2758Y-2.6864
X10.3258Y-2.6364
X10.3258Y-2.6864
X10.3758Y-2.6364
X10.3758Y-2.6864
X10.4258Y-2.6364
X10.4258Y-2.6864
T3
X8.3258Y-4.4528
X8.3258Y-4.5315
X8.4045Y-4.4528
X8.4045Y-4.5315
X8.4833Y-4.4528
X8.4833Y-4.5315
X8.562Y-4.4528
X8.562Y-4.5315
X8.7585Y-3.9075
X8.7585Y-3.9862
X8.8372Y-3.9075
X8.8372Y-3.9862
X8.9159Y-3.9075
X8.9159Y-3.9862
X8.9947Y-3.9075
X8.9947Y-3.9862
X9.2309Y-3.9075
X9.2309Y-3.9862
X9.3096Y-3.9075
X9.3096Y-3.9862
X9.3884Y-3.9075
X9.3884Y-3.9862
X9.4671Y-3.9075
X9.4671Y-3.9862
T4
X9.7226Y-3.9508
X9.8226Y-3.9508
X9.9226Y-3.9508
X10.0226Y-3.9508
T5
X8.1388Y-3.9665
X8.1388Y-3.6803
X8.1388Y-3.7803
X8.2388Y-3.6803
X8.2388Y-3.7803
X8.2388Y-3.9665
X8.4419Y-3.9665
X8.5419Y-3.9665
M30
