%TF.GenerationSoftware,KiCad,Pcbnew,8.0.2*%
%TF.CreationDate,2024-05-31T14:04:31+07:00*%
%TF.ProjectId,WeatherStation,57656174-6865-4725-9374-6174696f6e2e,rev?*%
%TF.SameCoordinates,Original*%
%TF.FileFunction,Paste,Top*%
%TF.FilePolarity,Positive*%
%FSLAX46Y46*%
G04 Gerber Fmt 4.6, Leading zero omitted, Abs format (unit mm)*
G04 Created by KiCad (PCBNEW 8.0.2) date 2024-05-31 14:04:31*
%MOMM*%
%LPD*%
G01*
G04 APERTURE LIST*
G04 Aperture macros list*
%AMRoundRect*
0 Rectangle with rounded corners*
0 $1 Rounding radius*
0 $2 $3 $4 $5 $6 $7 $8 $9 X,Y pos of 4 corners*
0 Add a 4 corners polygon primitive as box body*
4,1,4,$2,$3,$4,$5,$6,$7,$8,$9,$2,$3,0*
0 Add four circle primitives for the rounded corners*
1,1,$1+$1,$2,$3*
1,1,$1+$1,$4,$5*
1,1,$1+$1,$6,$7*
1,1,$1+$1,$8,$9*
0 Add four rect primitives between the rounded corners*
20,1,$1+$1,$2,$3,$4,$5,0*
20,1,$1+$1,$4,$5,$6,$7,0*
20,1,$1+$1,$6,$7,$8,$9,0*
20,1,$1+$1,$8,$9,$2,$3,0*%
G04 Aperture macros list end*
%ADD10R,0.650000X1.000000*%
%ADD11R,0.800000X0.800000*%
%ADD12R,1.000000X0.650000*%
%ADD13R,1.400000X0.800000*%
%ADD14C,1.000000*%
%ADD15R,2.000000X1.600000*%
%ADD16R,0.600000X0.420000*%
%ADD17RoundRect,0.162500X0.337500X-0.162500X0.337500X0.162500X-0.337500X0.162500X-0.337500X-0.162500X0*%
%ADD18R,0.800000X0.900000*%
%ADD19R,1.092200X0.990600*%
%ADD20R,2.997200X0.990600*%
%ADD21RoundRect,0.062500X0.062500X-0.237500X0.062500X0.237500X-0.062500X0.237500X-0.062500X-0.237500X0*%
%ADD22RoundRect,0.062500X0.237500X0.062500X-0.237500X0.062500X-0.237500X-0.062500X0.237500X-0.062500X0*%
%ADD23RoundRect,0.062500X0.062500X-0.612500X0.062500X0.612500X-0.062500X0.612500X-0.062500X-0.612500X0*%
%ADD24RoundRect,0.062500X0.062500X-0.787500X0.062500X0.787500X-0.062500X0.787500X-0.062500X-0.787500X0*%
%ADD25R,0.500000X0.300000*%
%ADD26R,0.800000X1.400000*%
%ADD27R,2.000000X2.000000*%
%ADD28R,1.100000X0.600000*%
%ADD29R,1.800000X2.700000*%
%ADD30R,2.700000X0.700000*%
%ADD31R,1.900000X1.100000*%
%ADD32R,0.600000X1.050000*%
%ADD33R,0.600000X1.550000*%
%ADD34R,1.200000X0.600000*%
%ADD35RoundRect,0.381000X0.381000X0.381000X-0.381000X0.381000X-0.381000X-0.381000X0.381000X-0.381000X0*%
%ADD36RoundRect,0.250000X0.512000X0.512000X-0.512000X0.512000X-0.512000X-0.512000X0.512000X-0.512000X0*%
%ADD37R,0.300000X1.450000*%
%ADD38R,1.450000X0.300000*%
%ADD39RoundRect,0.162500X-0.337500X0.162500X-0.337500X-0.162500X0.337500X-0.162500X0.337500X0.162500X0*%
%ADD40RoundRect,0.150000X-0.150000X-0.150000X0.150000X-0.150000X0.150000X0.150000X-0.150000X0.150000X0*%
%ADD41R,0.600000X0.600000*%
%ADD42R,2.700000X1.800000*%
%ADD43R,0.700000X0.350000*%
%ADD44R,2.150000X5.500000*%
%ADD45RoundRect,0.162500X-0.162500X-0.337500X0.162500X-0.337500X0.162500X0.337500X-0.162500X0.337500X0*%
%ADD46RoundRect,0.150000X0.250000X-0.000010X0.250000X0.000010X-0.250000X0.000010X-0.250000X-0.000010X0*%
%ADD47RoundRect,0.150000X-0.000010X-0.250000X0.000010X-0.250000X0.000010X0.250000X-0.000010X0.250000X0*%
%ADD48RoundRect,0.280000X-1.120000X-1.120000X1.120000X-1.120000X1.120000X1.120000X-1.120000X1.120000X0*%
%ADD49R,4.400000X2.200000*%
%ADD50R,7.500000X3.000000*%
%ADD51R,3.000000X7.500000*%
%ADD52R,7.000000X2.000000*%
%ADD53R,1.050000X0.600000*%
%ADD54RoundRect,0.250000X0.250000X0.275000X-0.250000X0.275000X-0.250000X-0.275000X0.250000X-0.275000X0*%
%ADD55RoundRect,0.262500X0.262500X0.837500X-0.262500X0.837500X-0.262500X-0.837500X0.262500X-0.837500X0*%
%ADD56R,3.400000X1.700000*%
G04 APERTURE END LIST*
D10*
%TO.C,R22*%
X267349901Y-84200000D03*
X268799901Y-84200000D03*
%TD*%
D11*
%TO.C,D9*%
X268499902Y-101810000D03*
X266999902Y-101810000D03*
%TD*%
D12*
%TO.C,R25*%
X259674901Y-78674999D03*
X259674901Y-77225001D03*
%TD*%
D13*
%TO.C,C64*%
X229325000Y-71089997D03*
X229325000Y-72589997D03*
%TD*%
D12*
%TO.C,C36*%
X261274901Y-78674999D03*
X261274901Y-77225001D03*
%TD*%
D14*
%TO.C,TP5*%
X203324901Y-96350000D03*
%TD*%
D10*
%TO.C,R2*%
X216419998Y-94750000D03*
X214970000Y-94750000D03*
%TD*%
D15*
%TO.C,BT2*%
X255124901Y-73600000D03*
X260524901Y-73600000D03*
%TD*%
D16*
%TO.C,D6*%
X240394997Y-45760000D03*
X240394996Y-45110000D03*
X240394997Y-44460000D03*
X238494997Y-44460000D03*
X238494998Y-45110000D03*
X238494997Y-45760000D03*
%TD*%
D10*
%TO.C,C69*%
X213475001Y-117900001D03*
X214925001Y-117900001D03*
%TD*%
D12*
%TO.C,R43*%
X233944997Y-62034999D03*
X233944997Y-60585001D03*
%TD*%
D17*
%TO.C,C53*%
X268699902Y-48225001D03*
X268699902Y-49674999D03*
%TD*%
D18*
%TO.C,Q3*%
X232294997Y-60210000D03*
X230394282Y-60207811D03*
X231344997Y-62409999D03*
%TD*%
D19*
%TO.C,J5*%
X224645001Y-44090000D03*
X224645001Y-41550000D03*
X224645001Y-39010000D03*
X236444997Y-44090000D03*
X236444997Y-41550000D03*
X236444997Y-39010000D03*
D20*
X230544999Y-36250000D03*
X230544999Y-46850000D03*
%TD*%
D10*
%TO.C,C43*%
X238719997Y-40610000D03*
X240169997Y-40610000D03*
%TD*%
D12*
%TO.C,C35*%
X258074901Y-77225001D03*
X258074901Y-78674999D03*
%TD*%
D14*
%TO.C,TP2*%
X268074901Y-69900000D03*
%TD*%
D13*
%TO.C,C30*%
X260124901Y-92500000D03*
X260124901Y-94000000D03*
%TD*%
D12*
%TO.C,R48*%
X233944997Y-50934999D03*
X233944997Y-49485001D03*
%TD*%
D21*
%TO.C,U2*%
X197949902Y-80060000D03*
X198449902Y-80060000D03*
X198949902Y-80060000D03*
X199449902Y-80060000D03*
D22*
X200099902Y-79635000D03*
X200099902Y-79135001D03*
X200099902Y-78635000D03*
X200099902Y-78135000D03*
D23*
X199199902Y-78135000D03*
D24*
X198699902Y-78310000D03*
D23*
X198199902Y-78135000D03*
D22*
X197299902Y-78135000D03*
X197299902Y-78635000D03*
X197299902Y-79135001D03*
X197299902Y-79635000D03*
%TD*%
D25*
%TO.C,U12*%
X200175000Y-108200001D03*
X200175000Y-109000001D03*
X201575000Y-109000001D03*
X201575000Y-108200001D03*
%TD*%
D26*
%TO.C,C3*%
X199774901Y-83850000D03*
X201274901Y-83850000D03*
%TD*%
D12*
%TO.C,C37*%
X263424901Y-92425001D03*
X263424901Y-93874999D03*
%TD*%
%TO.C,C45*%
X259374901Y-63375001D03*
X259374901Y-64824999D03*
%TD*%
D18*
%TO.C,Q2*%
X232294997Y-56510000D03*
X230394282Y-56507811D03*
X231344997Y-58709999D03*
%TD*%
D10*
%TO.C,C23*%
X250799900Y-79800000D03*
X249349902Y-79800000D03*
%TD*%
%TO.C,C1*%
X214969999Y-96350000D03*
X216419999Y-96350000D03*
%TD*%
D13*
%TO.C,C63*%
X219475002Y-114850000D03*
X219475002Y-116350000D03*
%TD*%
D12*
%TO.C,R32*%
X268699902Y-44234999D03*
X268699902Y-42785001D03*
%TD*%
D27*
%TO.C,D8*%
X217925000Y-62689996D03*
X217925000Y-66689998D03*
%TD*%
D12*
%TO.C,C42*%
X237144997Y-71284999D03*
X237144997Y-69835001D03*
%TD*%
D18*
%TO.C,Q1*%
X266799902Y-41410000D03*
X268700617Y-41412189D03*
X267749902Y-39210000D03*
%TD*%
D14*
%TO.C,TP13*%
X245444997Y-36660000D03*
%TD*%
D13*
%TO.C,C24*%
X196924901Y-96600000D03*
X196924901Y-95100000D03*
%TD*%
D12*
%TO.C,R49*%
X264474901Y-78674999D03*
X264474901Y-77225001D03*
%TD*%
%TO.C,R29*%
X256174901Y-64824999D03*
X256174901Y-63375001D03*
%TD*%
%TO.C,C16*%
X201099902Y-68524999D03*
X201099902Y-67075001D03*
%TD*%
%TO.C,C78*%
X237144997Y-65734999D03*
X237144997Y-64285001D03*
%TD*%
D28*
%TO.C,U16*%
X250894997Y-66510000D03*
X250894996Y-65560000D03*
X250894997Y-64610000D03*
X248094997Y-64610000D03*
X248094998Y-65560000D03*
X248094997Y-66510000D03*
%TD*%
D10*
%TO.C,R11*%
X218199900Y-73150000D03*
X216749902Y-73150000D03*
%TD*%
D14*
%TO.C,TP3*%
X243655000Y-83400000D03*
%TD*%
D10*
%TO.C,C44*%
X240169996Y-42210000D03*
X238719998Y-42210000D03*
%TD*%
D16*
%TO.C,U3*%
X246005000Y-84350000D03*
X246005001Y-85000000D03*
X246005000Y-85650000D03*
X247905000Y-85650000D03*
X247904999Y-85000000D03*
X247905000Y-84350000D03*
%TD*%
D10*
%TO.C,C8*%
X214049902Y-74750000D03*
X215499900Y-74750000D03*
%TD*%
D12*
%TO.C,R34*%
X221225000Y-71214998D03*
X221225000Y-72664996D03*
%TD*%
D26*
%TO.C,FT1*%
X241194997Y-62710000D03*
X239694997Y-62710000D03*
%TD*%
D29*
%TO.C,C65*%
X220275002Y-108900000D03*
X215275002Y-108900000D03*
%TD*%
D12*
%TO.C,C84*%
X262874901Y-78674999D03*
X262874901Y-77225001D03*
%TD*%
D13*
%TO.C,C80*%
X196124901Y-68500000D03*
X196124901Y-67000000D03*
%TD*%
D14*
%TO.C,TP11*%
X257284901Y-66765000D03*
%TD*%
D12*
%TO.C,R31*%
X246444997Y-69835001D03*
X246444997Y-71284999D03*
%TD*%
%TO.C,C66*%
X203875000Y-109324999D03*
X203875000Y-107875001D03*
%TD*%
D10*
%TO.C,R36*%
X216250001Y-117900001D03*
X217700001Y-117900001D03*
%TD*%
D29*
%TO.C,C19*%
X203124901Y-63650000D03*
X208124901Y-63650000D03*
%TD*%
D10*
%TO.C,R6*%
X250799900Y-86700000D03*
X249349902Y-86700000D03*
%TD*%
%TO.C,C31*%
X268799900Y-87400000D03*
X267349902Y-87400000D03*
%TD*%
%TO.C,R26*%
X267349901Y-78900000D03*
X268799901Y-78900000D03*
%TD*%
%TO.C,R50*%
X264149900Y-95300000D03*
X262699902Y-95300000D03*
%TD*%
%TO.C,C32*%
X267349901Y-82600000D03*
X268799901Y-82600000D03*
%TD*%
D18*
%TO.C,Q4*%
X232294997Y-63910000D03*
X230394282Y-63907811D03*
X231344997Y-66109999D03*
%TD*%
D10*
%TO.C,C54*%
X238369998Y-60910000D03*
X239819996Y-60910000D03*
%TD*%
%TO.C,C13*%
X204124901Y-86250000D03*
X202674903Y-86250000D03*
%TD*%
%TO.C,R15*%
X194724901Y-78910000D03*
X193274903Y-78910000D03*
%TD*%
%TO.C,R4*%
X249349901Y-85000000D03*
X250799901Y-85000000D03*
%TD*%
D30*
%TO.C,U11*%
X223425002Y-110350000D03*
X223425002Y-111850000D03*
X223425002Y-113350000D03*
X223425002Y-114850000D03*
X223425002Y-116350000D03*
X223425002Y-117850000D03*
D31*
X227125002Y-119800000D03*
X227125002Y-108400000D03*
%TD*%
D26*
%TO.C,C62*%
X268824901Y-67600000D03*
X267324901Y-67600000D03*
%TD*%
D10*
%TO.C,C27*%
X269479901Y-100200000D03*
X268029903Y-100200000D03*
%TD*%
%TO.C,R24*%
X253499900Y-89900000D03*
X252049902Y-89900000D03*
%TD*%
D18*
%TO.C,Q5*%
X232294997Y-49110000D03*
X230394282Y-49107811D03*
X231344997Y-51309999D03*
%TD*%
D32*
%TO.C,U5*%
X194974901Y-95850000D03*
X194024901Y-95850000D03*
X193074901Y-95850000D03*
X193074901Y-98550000D03*
X194974901Y-98550000D03*
%TD*%
D12*
%TO.C,C76*%
X243244997Y-65734999D03*
X243244997Y-64285001D03*
%TD*%
D10*
%TO.C,R7*%
X218199900Y-74750000D03*
X216749902Y-74750000D03*
%TD*%
D28*
%TO.C,U8*%
X250894997Y-71010000D03*
X250894996Y-70060000D03*
X250894997Y-69110000D03*
X248094997Y-69110000D03*
X248094998Y-70060000D03*
X248094997Y-71010000D03*
%TD*%
D12*
%TO.C,C41*%
X252544997Y-71284999D03*
X252544997Y-69835001D03*
%TD*%
D33*
%TO.C,U6*%
X269479901Y-92900000D03*
X268209901Y-92900000D03*
X266946303Y-92903823D03*
X265669901Y-92900000D03*
X265669901Y-98300000D03*
X266939901Y-98300000D03*
X268209901Y-98300000D03*
X269479901Y-98300000D03*
%TD*%
D34*
%TO.C,X1*%
X253224900Y-81150000D03*
X246924902Y-81150000D03*
X246924902Y-82050000D03*
X253224900Y-82050000D03*
%TD*%
D12*
%TO.C,R1*%
X256724901Y-92425001D03*
X256724901Y-93874999D03*
%TD*%
D10*
%TO.C,C51*%
X240169996Y-35810000D03*
X238719998Y-35810000D03*
%TD*%
D14*
%TO.C,TP6*%
X248044997Y-36660000D03*
%TD*%
D12*
%TO.C,R38*%
X250324901Y-93874999D03*
X250324901Y-92425001D03*
%TD*%
%TO.C,R46*%
X235544997Y-65734999D03*
X235544997Y-64285001D03*
%TD*%
D35*
%TO.C,ANT1*%
X253374901Y-33600000D03*
X251374901Y-33600000D03*
X239374901Y-33600000D03*
D36*
X253374901Y-30500000D03*
D35*
X251374901Y-30500000D03*
X239374901Y-30500000D03*
%TD*%
D10*
%TO.C,C33*%
X267349901Y-85800000D03*
X268799901Y-85800000D03*
%TD*%
%TO.C,R5*%
X249349902Y-88300000D03*
X250799900Y-88300000D03*
%TD*%
D27*
%TO.C,D2*%
X203624901Y-77700001D03*
X203624901Y-73699999D03*
%TD*%
D10*
%TO.C,R28*%
X268799900Y-81000000D03*
X267349902Y-81000000D03*
%TD*%
D13*
%TO.C,C67*%
X205875000Y-109350000D03*
X205875000Y-107850000D03*
%TD*%
D37*
%TO.C,U7*%
X257624901Y-89750000D03*
X258124901Y-89750000D03*
X258624902Y-89750000D03*
X259124901Y-89750000D03*
X259624900Y-89750000D03*
X260124901Y-89750000D03*
X260624901Y-89750000D03*
X261124902Y-89750000D03*
X261624901Y-89750000D03*
X262124900Y-89750000D03*
X262624901Y-89750000D03*
X263124901Y-89750000D03*
D38*
X264574901Y-88300000D03*
X264574901Y-87800000D03*
X264574901Y-87299999D03*
X264574901Y-86800000D03*
X264574901Y-86300001D03*
X264574901Y-85800000D03*
X264574901Y-85300000D03*
X264574901Y-84799999D03*
X264574901Y-84300000D03*
X264574901Y-83800001D03*
X264574901Y-83300000D03*
X264574901Y-82800000D03*
D37*
X263124901Y-81350000D03*
X262624901Y-81350000D03*
X262124900Y-81350000D03*
X261624901Y-81350000D03*
X261124902Y-81350000D03*
X260624901Y-81350000D03*
X260124901Y-81350000D03*
X259624900Y-81350000D03*
X259124901Y-81350000D03*
X258624902Y-81350000D03*
X258124901Y-81350000D03*
X257624901Y-81350000D03*
D38*
X256174901Y-82800000D03*
X256174901Y-83300000D03*
X256174901Y-83800001D03*
X256174901Y-84300000D03*
X256174901Y-84799999D03*
X256174901Y-85300000D03*
X256174901Y-85800000D03*
X256174901Y-86300001D03*
X256174901Y-86800000D03*
X256174901Y-87299999D03*
X256174901Y-87800000D03*
X256174901Y-88300000D03*
%TD*%
D29*
%TO.C,C57*%
X236944997Y-56400000D03*
X241944997Y-56400000D03*
%TD*%
D12*
%TO.C,C60*%
X267124901Y-59525001D03*
X267124901Y-60974999D03*
%TD*%
D39*
%TO.C,C59*%
X266799902Y-49674999D03*
X266799902Y-48225001D03*
%TD*%
D40*
%TO.C,MD1*%
X250174901Y-43750000D03*
X251374901Y-43750000D03*
X252574901Y-43750000D03*
D41*
X253774901Y-43750000D03*
X254974901Y-43750000D03*
X256174901Y-43750000D03*
X257374901Y-43750000D03*
X258574901Y-43750000D03*
X250175901Y-56954000D03*
X251374901Y-56950000D03*
X252574901Y-56950000D03*
X253774901Y-56950000D03*
X254974901Y-56950000D03*
X256174901Y-56950000D03*
X257374901Y-56950000D03*
X258574901Y-56950000D03*
X249574901Y-44950000D03*
D40*
X250774901Y-44950000D03*
X251974901Y-44950000D03*
D41*
X253174901Y-44950000D03*
X254374901Y-44950000D03*
X255574901Y-44950000D03*
X256774901Y-44950000D03*
X257974901Y-44950000D03*
X259174901Y-44950000D03*
X248374901Y-45550000D03*
D40*
X260374901Y-45550000D03*
D41*
X249574901Y-46150000D03*
X252574901Y-46150000D03*
X253774901Y-46150000D03*
X254974901Y-46150000D03*
X256174901Y-46150000D03*
D40*
X259174901Y-46150000D03*
D41*
X248374901Y-46750000D03*
D40*
X260374901Y-46750000D03*
D41*
X249574901Y-47350000D03*
X253174901Y-47350000D03*
X255574901Y-47350000D03*
D40*
X259174901Y-47350000D03*
D41*
X248374901Y-47950000D03*
X250774901Y-47950000D03*
X257974901Y-47950000D03*
D40*
X260374901Y-47950000D03*
D41*
X249574901Y-48550000D03*
X251974901Y-48550000D03*
X256774901Y-48550000D03*
X259174901Y-48550000D03*
X248374901Y-49150000D03*
X250774901Y-49150000D03*
X257974901Y-49150000D03*
X260374901Y-49150000D03*
X249574901Y-49750000D03*
X259174901Y-49750000D03*
X248374901Y-50350000D03*
X250774901Y-50350000D03*
X257974901Y-50350000D03*
X260374901Y-50350000D03*
X249574901Y-50950000D03*
X259174901Y-50950000D03*
X248374901Y-51550000D03*
X250774901Y-51550000D03*
X257974901Y-51550000D03*
X260374901Y-51550000D03*
X249574901Y-52150000D03*
X251974901Y-52150000D03*
X256774901Y-52150000D03*
X259174901Y-52150000D03*
X248374901Y-52750000D03*
X250774901Y-52750000D03*
X257974901Y-52750000D03*
X260374901Y-52750000D03*
X249574901Y-53350000D03*
X253174901Y-53350000D03*
X255574901Y-53350000D03*
X259174901Y-53350000D03*
X248374901Y-53950000D03*
X260374901Y-53950000D03*
X249574901Y-54550000D03*
X252574901Y-54550000D03*
X253774901Y-54550000D03*
X254974901Y-54550000D03*
X256174901Y-54550000D03*
X259174901Y-54550000D03*
X248374901Y-55150000D03*
X260374901Y-55150000D03*
X249574901Y-55750000D03*
X250774901Y-55750000D03*
X251974901Y-55750000D03*
X253174901Y-55750000D03*
X254374901Y-55750000D03*
X255574901Y-55750000D03*
X256774901Y-55750000D03*
X257974901Y-55750000D03*
X259174901Y-55750000D03*
%TD*%
D12*
%TO.C,C15*%
X254874901Y-77225001D03*
X254874901Y-78674999D03*
%TD*%
D14*
%TO.C,TP10*%
X241424901Y-96350000D03*
%TD*%
D10*
%TO.C,C9*%
X252049902Y-86700000D03*
X253499900Y-86700000D03*
%TD*%
D11*
%TO.C,D7*%
X268499902Y-35810000D03*
X266999902Y-35810000D03*
%TD*%
D12*
%TO.C,R30*%
X257774901Y-63375001D03*
X257774901Y-64824999D03*
%TD*%
%TO.C,R27*%
X250944997Y-73984999D03*
X250944997Y-72535001D03*
%TD*%
D26*
%TO.C,C14*%
X199774901Y-86050000D03*
X201274901Y-86050000D03*
%TD*%
D10*
%TO.C,C25*%
X194749900Y-89800000D03*
X193299902Y-89800000D03*
%TD*%
D28*
%TO.C,U1*%
X214724901Y-76550000D03*
X214724902Y-77500000D03*
X214724901Y-78450000D03*
X217524901Y-78450000D03*
X217524900Y-77500000D03*
X217524901Y-76550000D03*
%TD*%
D29*
%TO.C,C49*%
X241944997Y-50210000D03*
X236944997Y-50210000D03*
%TD*%
D42*
%TO.C,C72*%
X214125000Y-67589997D03*
X214125000Y-62589997D03*
%TD*%
D12*
%TO.C,R40*%
X256474901Y-77225001D03*
X256474901Y-78674999D03*
%TD*%
D43*
%TO.C,U14*%
X201750000Y-120575002D03*
X201750000Y-119925001D03*
X201750000Y-119275001D03*
X201750000Y-118625000D03*
X200000000Y-118625000D03*
X200000000Y-119275001D03*
X200000000Y-119925001D03*
X200000000Y-120575002D03*
%TD*%
D29*
%TO.C,C26*%
X197574901Y-84950000D03*
X192574901Y-84950000D03*
%TD*%
D10*
%TO.C,C74*%
X200150003Y-116600001D03*
X201600001Y-116600001D03*
%TD*%
D11*
%TO.C,D4*%
X194749902Y-77310000D03*
X193249902Y-77310000D03*
%TD*%
D15*
%TO.C,BT1*%
X263624901Y-73600000D03*
X269024901Y-73600000D03*
%TD*%
D12*
%TO.C,R41*%
X266799902Y-44234999D03*
X266799902Y-42785001D03*
%TD*%
D10*
%TO.C,R10*%
X204124901Y-84650000D03*
X202674903Y-84650000D03*
%TD*%
D44*
%TO.C,L1*%
X197124903Y-72560000D03*
X193274901Y-72560000D03*
%TD*%
D26*
%TO.C,C22*%
X193274901Y-94000000D03*
X194774901Y-94000000D03*
%TD*%
D10*
%TO.C,C70*%
X217550001Y-68789997D03*
X218999999Y-68789997D03*
%TD*%
D45*
%TO.C,L3*%
X268074901Y-51350000D03*
X266624903Y-51350000D03*
%TD*%
D12*
%TO.C,C39*%
X252544997Y-73984999D03*
X252544997Y-72535001D03*
%TD*%
D10*
%TO.C,C12*%
X249349902Y-83400000D03*
X250799900Y-83400000D03*
%TD*%
%TO.C,R13*%
X253499900Y-78200000D03*
X252049902Y-78200000D03*
%TD*%
D28*
%TO.C,U15*%
X241594997Y-66510000D03*
X241594996Y-65560000D03*
X241594997Y-64610000D03*
X238794997Y-64610000D03*
X238794998Y-65560000D03*
X238794997Y-66510000D03*
%TD*%
D10*
%TO.C,R8*%
X204124901Y-81450000D03*
X202674903Y-81450000D03*
%TD*%
D11*
%TO.C,D3*%
X193249902Y-101810000D03*
X194749902Y-101810000D03*
%TD*%
D18*
%TO.C,Q6*%
X232294997Y-52810000D03*
X230394282Y-52807811D03*
X231344997Y-55009999D03*
%TD*%
D10*
%TO.C,R12*%
X215499900Y-73150000D03*
X214049902Y-73150000D03*
%TD*%
%TO.C,C50*%
X241069997Y-59310000D03*
X242519997Y-59310000D03*
%TD*%
D26*
%TO.C,C2*%
X194749902Y-80710000D03*
X193249902Y-80710000D03*
%TD*%
D12*
%TO.C,R44*%
X233944997Y-65734999D03*
X233944997Y-64285001D03*
%TD*%
D10*
%TO.C,R3*%
X214969999Y-93150000D03*
X216419999Y-93150000D03*
%TD*%
D46*
%TO.C,U4*%
X196674901Y-89400000D03*
X196674901Y-89900000D03*
X196674901Y-90400000D03*
X196674901Y-90900000D03*
X196674901Y-91400000D03*
D47*
X197674901Y-92400000D03*
X198174901Y-92400000D03*
X198674901Y-92400000D03*
X199174901Y-92400000D03*
X199674901Y-92400000D03*
D46*
X200674901Y-91400000D03*
X200674901Y-90900000D03*
X200674901Y-90400000D03*
X200674901Y-89900000D03*
X200674901Y-89400000D03*
D47*
X199674901Y-88400000D03*
X199174901Y-88400000D03*
X198674901Y-88400000D03*
X198174901Y-88400000D03*
X197674901Y-88400000D03*
D48*
X198674901Y-90400000D03*
%TD*%
D26*
%TO.C,C7*%
X246205000Y-89050000D03*
X247705000Y-89050000D03*
%TD*%
D12*
%TO.C,C73*%
X251924901Y-92425001D03*
X251924901Y-93874999D03*
%TD*%
%TO.C,R45*%
X235544997Y-62034999D03*
X235544997Y-60585001D03*
%TD*%
D10*
%TO.C,C17*%
X204349900Y-71550000D03*
X202899902Y-71550000D03*
%TD*%
%TO.C,R20*%
X250799900Y-78200000D03*
X249349902Y-78200000D03*
%TD*%
%TO.C,R9*%
X204124901Y-83050000D03*
X202674903Y-83050000D03*
%TD*%
D49*
%TO.C,C5*%
X207375000Y-85039997D03*
X216275000Y-85039997D03*
%TD*%
D10*
%TO.C,C81*%
X192024902Y-100210000D03*
X193474902Y-100210000D03*
%TD*%
D12*
%TO.C,C71*%
X255124901Y-92425001D03*
X255124901Y-93874999D03*
%TD*%
%TO.C,C83*%
X194324901Y-68474999D03*
X194324901Y-67025001D03*
%TD*%
D10*
%TO.C,C48*%
X242519996Y-47310000D03*
X241069998Y-47310000D03*
%TD*%
D13*
%TO.C,C18*%
X199299902Y-68550000D03*
X199299902Y-67050000D03*
%TD*%
D10*
%TO.C,R19*%
X246649901Y-78200000D03*
X248099901Y-78200000D03*
%TD*%
D12*
%TO.C,C68*%
X219625000Y-71214998D03*
X219625000Y-72664996D03*
%TD*%
D14*
%TO.C,TP8*%
X244044997Y-67660000D03*
%TD*%
D10*
%TO.C,C10*%
X204124901Y-79850000D03*
X202674903Y-79850000D03*
%TD*%
%TO.C,C40*%
X238719997Y-37410000D03*
X240169997Y-37410000D03*
%TD*%
D13*
%TO.C,C75*%
X197675000Y-120350001D03*
X197675000Y-118850001D03*
%TD*%
D50*
%TO.C,L2*%
X209374901Y-72550000D03*
X209374901Y-77550000D03*
%TD*%
D10*
%TO.C,C6*%
X246230001Y-87250000D03*
X247679999Y-87250000D03*
%TD*%
%TO.C,C58*%
X215499900Y-71550000D03*
X214049902Y-71550000D03*
%TD*%
D51*
%TO.C,L4*%
X226425000Y-65439997D03*
X221425000Y-65439997D03*
%TD*%
D27*
%TO.C,D1*%
X200199902Y-74560001D03*
X200199902Y-70559999D03*
%TD*%
D14*
%TO.C,TP7*%
X229525000Y-69089997D03*
%TD*%
D10*
%TO.C,C29*%
X253499900Y-83400000D03*
X252049902Y-83400000D03*
%TD*%
%TO.C,R17*%
X202599901Y-93300000D03*
X204049901Y-93300000D03*
%TD*%
D52*
%TO.C,MD2*%
X236875000Y-93850000D03*
X236875000Y-76850000D03*
X224875000Y-76850000D03*
X224875000Y-93850000D03*
%TD*%
D12*
%TO.C,R33*%
X219475002Y-113124999D03*
X219475002Y-111675001D03*
%TD*%
D10*
%TO.C,C28*%
X253499900Y-79800000D03*
X252049902Y-79800000D03*
%TD*%
D12*
%TO.C,R47*%
X233944997Y-54634998D03*
X233944997Y-53185000D03*
%TD*%
D10*
%TO.C,C34*%
X252049902Y-85000000D03*
X253499900Y-85000000D03*
%TD*%
D12*
%TO.C,R35*%
X222825000Y-72664996D03*
X222825000Y-71214998D03*
%TD*%
%TO.C,C61*%
X269024901Y-60974999D03*
X269024901Y-59525001D03*
%TD*%
D10*
%TO.C,C11*%
X218199900Y-71550000D03*
X216749902Y-71550000D03*
%TD*%
D53*
%TO.C,U17*%
X196024901Y-64600000D03*
X196024901Y-63650000D03*
X196024901Y-62700000D03*
X193324901Y-62700000D03*
X193324901Y-64600000D03*
%TD*%
D28*
%TO.C,U13*%
X224575000Y-70489997D03*
X224575001Y-71439997D03*
X224575000Y-72389997D03*
X227375000Y-72389997D03*
X227374999Y-71439997D03*
X227375000Y-70489997D03*
%TD*%
D12*
%TO.C,R37*%
X253524901Y-93874999D03*
X253524901Y-92425001D03*
%TD*%
D10*
%TO.C,C38*%
X238719997Y-39010000D03*
X240169997Y-39010000D03*
%TD*%
D12*
%TO.C,C79*%
X252544997Y-65734999D03*
X252544997Y-64285001D03*
%TD*%
D14*
%TO.C,TP9*%
X264924901Y-64100000D03*
%TD*%
D12*
%TO.C,R42*%
X233944997Y-58334999D03*
X233944997Y-56885001D03*
%TD*%
D54*
%TO.C,ANT2*%
X268074901Y-55075000D03*
D55*
X269549902Y-56600000D03*
X266599900Y-56600000D03*
%TD*%
D14*
%TO.C,TP14*%
X242844997Y-36660000D03*
%TD*%
D12*
%TO.C,C4*%
X258324901Y-92425001D03*
X258324901Y-93874999D03*
%TD*%
%TO.C,C82*%
X192724901Y-67025001D03*
X192724901Y-68474999D03*
%TD*%
D29*
%TO.C,C20*%
X208124901Y-68650000D03*
X203124901Y-68650000D03*
%TD*%
D12*
%TO.C,C77*%
X244844997Y-65734999D03*
X244844997Y-64285001D03*
%TD*%
D14*
%TO.C,TP4*%
X231474901Y-96350000D03*
%TD*%
D26*
%TO.C,C21*%
X202574901Y-89900000D03*
X204074901Y-89900000D03*
%TD*%
D14*
%TO.C,TP12*%
X257284901Y-69365000D03*
%TD*%
D12*
%TO.C,C47*%
X243244997Y-71284999D03*
X243244997Y-69835001D03*
%TD*%
%TO.C,C46*%
X244844997Y-71284999D03*
X244844997Y-69835001D03*
%TD*%
D39*
%TO.C,Z1*%
X251374901Y-37074999D03*
X251374901Y-35625001D03*
%TD*%
D10*
%TO.C,R23*%
X253499900Y-88300000D03*
X252049902Y-88300000D03*
%TD*%
D14*
%TO.C,TP1*%
X243655000Y-91200000D03*
%TD*%
D32*
%TO.C,U10*%
X267124901Y-65450000D03*
X268074901Y-65450000D03*
X269024901Y-65450000D03*
X269024901Y-62750000D03*
X267124901Y-62750000D03*
%TD*%
D10*
%TO.C,R16*%
X202599901Y-91700000D03*
X204049901Y-91700000D03*
%TD*%
%TO.C,R18*%
X194749900Y-91400000D03*
X193299902Y-91400000D03*
%TD*%
D56*
%TO.C,F1*%
X246955000Y-95400000D03*
X246955000Y-91200000D03*
%TD*%
D11*
%TO.C,D5*%
X268824901Y-77300000D03*
X267324901Y-77300000D03*
%TD*%
D28*
%TO.C,U9*%
X241594997Y-71010000D03*
X241594996Y-70060000D03*
X241594997Y-69110000D03*
X238794997Y-69110000D03*
X238794998Y-70060000D03*
X238794997Y-71010000D03*
%TD*%
D10*
%TO.C,R21*%
X268799900Y-89000000D03*
X267349902Y-89000000D03*
%TD*%
%TO.C,C55*%
X239819996Y-59310000D03*
X238369998Y-59310000D03*
%TD*%
D45*
%TO.C,C56*%
X268074901Y-52950000D03*
X266624903Y-52950000D03*
%TD*%
D10*
%TO.C,C52*%
X242519996Y-60910000D03*
X241069998Y-60910000D03*
%TD*%
D12*
%TO.C,R14*%
X198724901Y-96574999D03*
X198724901Y-95125001D03*
%TD*%
%TO.C,R39*%
X246444997Y-64285001D03*
X246444997Y-65734999D03*
%TD*%
M02*
